<svg width="48" height="48" viewBox="0 0 48 48" fill="none" xmlns="http://www.w3.org/2000/svg">
<g clip-path="url(#clip0_405_2622)">
<path d="M39.3809 13.6191V13.6201C44.8833 13.6201 48.6846 16.0893 47.8721 19.1357L47.3213 21.1982C46.5084 24.2446 41.3893 26.7148 35.8867 26.7148H35.3242L46.8818 34.2939H28.3252L18.9814 27.081C18.6075 26.8412 18.1731 26.7138 17.7295 26.7138H2.11035L3.58203 21.1982H30.9404C31.9688 21.1981 32.9261 20.7356 33.0781 20.166C33.2299 19.5965 32.5198 19.1348 31.4912 19.1347H4.13184L5.60352 13.6191H39.3809ZM15.0928 28.6181C15.6111 28.6181 15.9888 29.1122 15.8545 29.6152L14.6064 34.2929H0.0878906L1.60254 28.6181H15.0928Z" fill="#313539"/>
</g>
<defs>
<clipPath id="clip0_405_2622">
<rect width="48" height="20.7931" fill="white" transform="translate(0 13.6035)"/>
</clipPath>
</defs>
</svg>
