<?xml version="1.0" encoding="UTF-8"?><svg id="Layer_2" xmlns="http://www.w3.org/2000/svg" viewBox="0 0 904.08 245.48"><g id="Layer_1-2"><path d="M155.72,193.93v-20.98h-41.97l-12.75,20.98h-44.52L156.11,48.81h36.67v145.12h-37.07ZM155.72,103.33h-.39l-23.93,40.2h24.32v-40.2Z" style="fill:#fff;"/><path d="M275.34,48.81h37.07v88.84c0,15.1-2.35,26.48-7.26,34.32-9.61,15.49-25.89,24.71-47.85,24.71-12.16,0-22.55-2.35-30.99-7.26-17.06-10-25.3-23.53-25.3-51.58V48.81h37.07v88.45c0,18.04,5.69,26.87,18.83,26.87s18.43-6.28,18.43-26.67V48.81Z" style="fill:#fff;"/><path d="M345.35,193.93v-112.57h-24.32v-32.56h61.38v145.12h-37.07ZM473.02,193.93v-56.09h-47.46v56.09h-37.07V48.81h60.99v32.56h-23.93v23.73h47.46v-56.29h37.07v145.12h-37.07Z" style="fill:#fff;"/><path d="M841.52,15.24c26.09,0,47.32,21.23,47.32,47.32v120.36c0,26.09-21.23,47.32-47.32,47.32H62.56c-26.09,0-47.32-21.23-47.32-47.32V62.56c0-26.09,21.23-47.32,47.32-47.32h778.96M841.52,0H62.56C28.01,0,0,28.01,0,62.56v120.36c0,34.55,28.01,62.56,62.56,62.56h778.96c34.55,0,62.56-28.01,62.56-62.56V62.56c0-34.55-28.01-62.56-62.56-62.56Z" style="fill:#fff;"/><path d="M790.38,92.58c2.96-2.56,3.88-5.74,3.88-8.29,0-2.16-.97-3.4-2.6-3.4-1.5,0-2.47,1.06-2.47,2.74s.93,2.78,2.29,2.78c1.63,0-.62,3.62-2.03,4.99-.4.4-.49.79-.18,1.15.35.4.79.31,1.1.04ZM764.12,63.15v18.8c0,2.29-1.37,2.78-2.34,3-.57.13-.71.4-.71.75,0,.31.18.71.75.71.49,0,2.65-.27,4.9-.27s4.5.27,4.99.27c.57,0,.75-.4.75-.71,0-.35-.13-.62-.71-.75-.97-.22-2.34-.71-2.34-3v-15.4c0-3.4,2.47-6.09,5.51-6.09,2.6,0,3.97,1.81,3.97,5.25v16.24c0,2.29-1.37,2.78-2.34,3-.57.13-.71.4-.71.75,0,.31.18.71.75.71.49,0,2.65-.27,4.94-.27s4.46.27,4.94.27c.57,0,.75-.4.75-.71,0-.35-.13-.62-.71-.75-.97-.22-2.34-.71-2.34-3v-16.24c0-5.34-2.78-8.47-7.5-8.47-2.6,0-4.94,1.41-6.79,3.57-.31.35-.49.4-.49,0v-3.04c0-.31-.13-.44-.49-.44-.22,0-.31.04-.57.31-1.19,1.19-3.93,1.94-5.65,2.21-.57.09-.66.4-.66.71,0,.35.13.62.62.75.97.27,1.46.62,1.46,1.85ZM758.48,81.95v-23.56c0-.31-.13-.44-.49-.44-.22,0-.31.04-.57.31-1.19,1.19-3.93,1.94-5.65,2.21-.57.09-.66.4-.66.71,0,.35.13.62.62.75.97.27,1.46.62,1.46,1.85v18.18c0,2.29-1.37,2.78-2.34,3-.57.13-.71.4-.71.75,0,.31.18.71.75.71.49,0,2.65-.27,4.9-.27s4.5.27,4.99.27c.57,0,.75-.4.75-.71,0-.35-.13-.62-.71-.75-.97-.22-2.34-.71-2.34-3ZM755.83,55.04c1.63,0,2.82-1.41,2.82-3.31s-1.19-3.26-2.82-3.26-2.82,1.37-2.82,3.26,1.19,3.31,2.82,3.31ZM730.32,90.11c0-2.12.71-3.35,1.54-4.06,1.94-.09,5.12-.53,7.28-.53,4.59,0,7.06,1.59,7.06,4.72s-3.84,5.52-8.91,5.52c-4.37,0-6.97-2.07-6.97-5.65ZM737.78,75.73c-3.22,0-5.07-3.04-5.07-8.25s1.85-8.25,5.07-8.25c3,0,4.72,3.04,4.72,8.25s-1.72,8.25-4.72,8.25ZM737.6,77.8h.18c6.35,0,10.46-4.06,10.46-10.32,0-2.74-.79-5.03-2.21-6.75h2.16c.93,0,1.28-.35,1.28-1.06,0-.66-.4-.97-1.19-.97h-3.75c-.79,0-1.1-.18-1.76-.44-1.46-.66-3.13-1.01-4.99-1.01-6.53,0-10.81,4.02-10.81,10.24,0,4.23,2.03,7.5,5.29,9.13.27.13.27.22,0,.31-2.38.71-4.72,1.99-4.72,4.59,0,1.02.93,2.6,1.99,3.57.26.22.26.4,0,.57-2.6,1.54-4.19,3.22-4.19,5.65,0,4.01,4.37,6.57,10.99,6.57,7.68,0,13.15-4.5,13.15-10.85,0-4.19-2.74-6.4-8.16-6.4-2.78,0-5.29.62-7.68.62-1.01,0-1.59-.44-1.59-1.15,0-1.59,4.1-2.29,5.56-2.29ZM713.56,85.13c-3.79,0-6.26-5.25-6.26-13.28s2.47-12.62,6.26-12.62,6.26,4.99,6.26,12.62c0,8.03-2.47,13.28-6.26,13.28ZM713.56,87.11c7.28,0,12-6,12-15.26s-4.72-14.6-12-14.6-12,5.78-12,14.6c0,9.27,4.72,15.26,12,15.26ZM698.73,81.95v-37.9c0-.31-.13-.44-.49-.44-.22,0-.31.04-.57.31-1.19,1.19-3.93,1.94-5.65,2.21-.57.09-.66.4-.66.71,0,.35.13.62.62.75.97.27,1.46.62,1.46,1.85v32.52c0,2.29-1.37,2.78-2.34,3-.57.13-.71.4-.71.75,0,.31.18.71.75.71.49,0,2.65-.27,4.9-.27s4.5.27,4.99.27c.57,0,.75-.4.75-.71,0-.35-.13-.62-.71-.75-.97-.22-2.34-.71-2.34-3ZM668.42,63.15v18.8c0,2.29-1.37,2.78-2.34,3-.57.13-.71.4-.71.75,0,.31.18.71.75.71.48,0,2.65-.27,4.9-.27,2.56,0,5.38.27,5.87.27.57,0,.75-.4.75-.71,0-.35-.13-.62-.71-.75-1.68-.35-3.22-.71-3.22-3v-15.8c0-.88.13-1.72.49-2.6.71-1.63,1.81-2.91,2.91-2.91,1.46,0,1.59,2.38,3.79,2.38,1.24,0,1.99-.88,1.99-2.38,0-2.07-1.37-3.4-3.49-3.4s-4.19,1.68-5.43,4.06c-.18.35-.27.35-.27-.04v-3.49c0-.31-.13-.44-.49-.44-.22,0-.31.04-.57.31-1.19,1.19-3.93,1.94-5.65,2.21-.57.09-.66.4-.66.71,0,.35.13.62.62.75.97.27,1.46.62,1.46,1.85ZM644.95,72.64c0,8.74,4.68,14.43,11.91,14.43,3.71,0,6.97-1.72,8.29-4.41.18-.35.13-.75-.18-.97s-.71-.18-1.06.13c-1.76,1.59-3.31,2.43-5.6,2.43-4.81,0-7.63-4.72-7.63-12l.04-1.72c0-.18.13-.31.4-.31h12.79c1.01,0,1.46-.57,1.46-2.25,0-6.75-3.53-10.72-8.91-10.72-6.97,0-11.51,6.09-11.51,15.4ZM656.55,68.01h-5.25c-.26,0-.4-.13-.35-.44.66-5.34,2.69-8.12,5.91-8.12,2.47,0,4.19,1.85,4.19,4.72,0,2.43-1.68,3.84-4.5,3.84ZM634.88,87.11c5.29,0,9.18-3.04,9.18-8.38,0-10.19-11.91-9.57-11.91-15.88,0-2.21,1.28-3.66,3.4-3.66s4.06,1.63,5.47,4.72c.22.49.4.75.79.75s.57-.26.57-.66c0-.53-.09-1.24-.09-2.21s.09-1.94.09-2.43c0-1.37-2.43-2.12-5.87-2.12-5.07,0-8.6,2.74-8.6,8.12,0,8.69,11.78,7.68,11.78,15.62,0,2.6-1.59,4.15-4.1,4.15-3.13,0-4.85-2.78-6.13-6.31-.18-.49-.4-.75-.79-.75-.35,0-.71.22-.71.93,0,.66.09,1.54.09,2.87,0,1.41-.09,2.21-.09,2.87,0,1.37,3.04,2.38,6.93,2.38ZM607.26,61.74l1.94,5.74c.09.26.09.48,0,.75l-3.62,11.21c-.22.57-.4.66-.62,0l-5.87-17.43c-.49-1.41.4-2.12,2.25-2.65.62-.18.84-.4.84-.79s-.22-.62-.75-.62c-.71,0-2.29.22-5.51.22-2.34,0-4.59-.22-5.03-.22s-.79.18-.79.66.4.66.97.84c.97.31,1.63.57,2.12,1.94l8.47,23.12c.49,1.28,1.06,1.9,2.34,1.9,1.19,0,1.68-.62,2.12-1.9l4.5-12.93,4.37,12.93c.44,1.28,1.02,1.9,2.25,1.9s1.72-.62,2.12-1.9l6.66-22.77c.4-1.37.93-1.99,2.29-2.38.62-.18.93-.4.93-.84,0-.4-.26-.57-.71-.57s-1.63.18-3.84.18c-1.99,0-3.4-.18-3.88-.18-.53,0-.79.22-.79.62,0,.44.31.66.93.79,2.16.48,2.87,1.28,2.43,2.91l-4.68,16.72c-.18.62-.35.71-.53.04l-5.16-16.72c-.53-1.68.31-2.47,2.16-3,.66-.18.88-.44.88-.79,0-.4-.26-.57-.75-.57-.57,0-2.6.22-5.51.22-2.34,0-4.54-.22-5.12-.22-.44,0-.79.18-.79.62s.31.66.88.84c1.54.49,2.03.97,2.51,2.34ZM580.52,85.13c-3.79,0-6.26-5.25-6.26-13.28s2.47-12.62,6.26-12.62,6.26,4.99,6.26,12.62c0,8.03-2.47,13.28-6.26,13.28ZM580.52,87.11c7.28,0,12-6,12-15.26s-4.72-14.6-12-14.6-12,5.78-12,14.6c0,9.27,4.72,15.26,12,15.26ZM555.37,63.15v18.8c0,2.29-1.37,2.78-2.34,3-.57.13-.71.4-.71.75,0,.31.18.71.75.71.49,0,2.65-.27,4.9-.27,2.56,0,5.38.27,5.87.27.57,0,.75-.4.75-.71,0-.35-.13-.62-.71-.75-1.68-.35-3.22-.71-3.22-3v-15.8c0-.88.13-1.72.49-2.6.71-1.63,1.81-2.91,2.91-2.91,1.46,0,1.59,2.38,3.79,2.38,1.24,0,1.99-.88,1.99-2.38,0-2.07-1.37-3.4-3.49-3.4s-4.19,1.68-5.43,4.06c-.18.35-.27.35-.27-.04v-3.49c0-.31-.13-.44-.49-.44-.22,0-.31.04-.57.31-1.19,1.19-3.93,1.94-5.65,2.21-.57.09-.66.4-.66.71,0,.35.13.62.62.75.97.27,1.46.62,1.46,1.85ZM537.54,65.49c-1.5,0-1.94-.4-1.94-1.63v-11.6c0-1.63.84-2.03,2.87-2.03,3.88,0,6.18,2.74,6.18,7.41s-2.78,7.85-7.1,7.85ZM535.6,81.33v-12.35c0-1.46.44-1.72,2.29-1.72,4.99,0,8.25,3.44,8.25,8.69s-2.56,8.69-6.66,8.69c-2.6,0-3.88-.93-3.88-3.31ZM529.87,52.04v30.8c0,1.41-1.54,1.85-2.69,2.07-.71.13-.84.44-.84.79,0,.31.18.71.88.71,1.02,0,3.22-.09,6.09-.09l7.46.09c7.01,0,11.56-4.19,11.56-10.63,0-4.85-3.13-8.65-7.76-9.79,3.75-1.24,6.26-4.46,6.26-8.6,0-5.38-4.1-8.91-10.41-8.91-1.59,0-4.28.18-7.1.18s-5.51-.18-6.09-.18c-.71,0-.88.4-.88.71,0,.35.13.66.84.79,1.15.22,2.69.66,2.69,2.07Z" style="fill:#fff;"/><path d="M797.43,110.82l-.09-3.4.09-2.47c0-1.63-3.44-3.26-8.21-3.26-9.66,0-15.93,7.76-15.93,19.68s6.44,19.68,16.37,19.68c4.68,0,8.21-1.63,8.21-3.26l-.09-3.05c0-1.85.09-2.82.09-3.88,0-.62-.18-.88-.66-.88-.4,0-.57.27-.79.93-1.63,4.85-3.09,8.16-6.75,8.16-6.18,0-10.19-6.97-10.19-17.69s3.84-17.69,9.75-17.69c3.53,0,5.51,3.05,6.79,7.15.18.57.35.79.79.79.4,0,.62-.18.62-.79ZM742.15,140.34c1.15,0,3.44-.13,6.62-.13,2.74,0,5.51.13,7.5.13,9.49,0,15.04-6.97,15.04-18.93s-5.56-19.02-15.04-19.02c-2.12,0-5.12.18-8.16.18s-5.34-.18-5.96-.18c-.71,0-.88.4-.88.71,0,.35.13.66.84.79,1.15.22,2.69.66,2.69,2.07v30.8c0,1.41-1.54,1.85-2.69,2.07-.71.13-.84.44-.84.79,0,.31.18.71.88.71ZM754.37,138.57c-2.21,0-3.84-.35-3.84-2.87v-28.41c0-2.56,1.41-3.13,3.84-3.13,7.06,0,10.76,5.91,10.76,17.25s-3.71,17.16-10.76,17.16ZM732.05,106.85v29.03c0,2.29-1.59,2.74-2.78,3-.57.13-.71.4-.71.75,0,.31.18.71.75.71.49,0,3.09-.27,5.6-.27s5.12.27,5.6.27c.57,0,.75-.4.75-.71,0-.35-.13-.62-.71-.75-1.24-.26-2.78-.71-2.78-3v-29.03c0-2.29,1.37-2.65,2.78-3,.57-.13.71-.4.71-.75,0-.31-.18-.71-.75-.71-.49,0-3.09.26-5.6.26s-5.12-.26-5.6-.26c-.57,0-.75.4-.75.71,0,.35.13.62.71.75,1.46.35,2.78.71,2.78,3ZM713.73,139.06c-5.25,0-8.69-7.1-8.69-17.65s3.44-17.74,8.69-17.74,8.65,7.15,8.65,17.74-3.4,17.65-8.65,17.65ZM713.73,141.04c9,0,14.82-7.72,14.82-19.63s-5.82-19.72-14.82-19.72-14.87,7.76-14.87,19.72,5.87,19.63,14.87,19.63ZM665.77,129.22c0-4.15,1.37-6.88,3-8.65.79,1.15,6.57,8.69,10.06,13.1-1.32,3-3.66,4.72-6.62,4.72-3.62,0-6.44-3.13-6.44-9.18ZM669.65,108.26c0-2.74,1.46-4.54,3.66-4.54,2.07,0,3.26,1.9,3.26,5.16s-.97,5.07-3.79,7.37c-1.72-2.91-3.13-5.56-3.13-7.98ZM688.23,136.45c-1.81-2.16-3.79-4.63-5.74-7.06l2.69-6.04c1.15-2.65,2.16-3.35,4.19-3.75.66-.13.88-.44.88-.88,0-.35-.22-.71-.66-.71-.93,0-1.99.18-4.85.18-3.13,0-4.77-.18-5.56-.18-.35,0-.66.35-.66.75s.22.75.66.84c2.34.49,3.75,1.06,3.75,3.09,0,1.01-.93,3.62-1.63,5.21-3.79-4.85-7.1-9.18-7.72-10.1,5.87-3.35,7.63-5.69,7.63-9,0-4.15-2.69-7.1-7.94-7.1-4.63,0-8.74,3.18-8.74,7.94,0,2.6,1.06,5.69,3.22,9.27-4.68,3.18-7.01,6.53-7.01,11.03,0,6.44,4.28,11.12,10.41,11.12,4.01,0,6.84-1.9,8.82-5.96l1.06,1.28c1.1,1.24,1.99,2.29.04,2.65-.48.09-.79.22-.79.66,0,.4.22.66.71.66,1.76,0,4.01-.22,6-.22,2.25,0,3.4.22,4.81.22.57,0,.84-.18.84-.62,0-.4-.27-.57-.79-.71-1.32-.31-2.25-.93-3.62-2.56ZM647.72,146.51c2.96-2.56,3.88-5.74,3.88-8.29,0-2.16-.97-3.4-2.6-3.4-1.5,0-2.47,1.06-2.47,2.74s.93,2.78,2.29,2.78c1.63,0-.62,3.62-2.03,4.99-.4.4-.49.79-.18,1.15.35.4.79.31,1.1.04ZM621.47,103.36v32.52c0,2.29-1.37,2.78-2.34,3-.57.13-.71.4-.71.75,0,.31.18.71.75.71.49,0,2.65-.27,4.9-.27s4.5.27,4.99.27c.57,0,.75-.4.75-.71,0-.35-.13-.62-.71-.75-.97-.22-2.34-.71-2.34-3v-15.22c0-3.31,2.47-6.26,5.51-6.26,2.6,0,3.97,1.81,3.97,5.25v16.24c0,2.29-1.37,2.78-2.34,3-.57.13-.71.4-.71.75,0,.31.18.71.75.71.49,0,2.65-.27,4.94-.27s4.46.27,4.94.27c.57,0,.75-.4.75-.71,0-.35-.13-.62-.71-.75-.97-.22-2.34-.71-2.34-3v-16.24c0-5.34-2.78-8.47-7.5-8.47-2.65,0-5.03,1.46-6.88,3.66-.27.31-.4.31-.4-.09v-16.77c0-.31-.13-.44-.49-.44-.22,0-.31.04-.57.31-1.19,1.19-3.93,1.94-5.65,2.21-.57.09-.66.4-.66.71,0,.35.13.62.62.75.97.27,1.46.62,1.46,1.85ZM613.66,141.04c2.25,0,3.93-.88,5.21-2.78.27-.4.31-.79.04-1.06-.22-.22-.66-.35-1.01,0-.62.62-1.1,1.1-2.16,1.1-1.76,0-2.6-1.59-2.6-5.07v-18.35c0-.53.31-.79.97-.79h3.18c1.01,0,1.28-.4,1.28-1.15s-.44-1.06-1.28-1.06h-3.13c-.66,0-1.02-.22-1.02-.79v-3.62c0-.44-.26-.57-.62-.57-.26,0-.44.09-.53.26-1.37,2.38-3.75,4.46-5.91,5.38-.49.22-.62.49-.62.88,0,.44.31.79.75.79l1.24-.09c.27,0,.4.18.4.57v20.03c0,3.97,2.16,6.31,5.82,6.31ZM582.64,116.33v16.24c0,5.34,2.78,8.47,7.5,8.47,2.69,0,5.12-1.5,6.97-3.75.22-.26.31-.22.31.18v3.04c0,.31.13.44.49.44.22,0,.31-.04.57-.31,1.19-1.19,3.93-1.94,5.65-2.21.57-.09.66-.4.66-.71,0-.35-.13-.62-.62-.75-.97-.26-1.46-.62-1.46-1.85v-22.54c0-.49-.22-.71-.75-.71s-1.68.22-3.31.22c-1.41,0-3.04-.22-3.53-.22-.57,0-.75.4-.75.71,0,.35.13.62.71.75.97.22,2.34.71,2.34,3v15.93c0,.75-.13,1.5-.49,2.25-.97,1.9-2.74,3.31-4.85,3.31-2.74,0-4.15-1.81-4.15-5.25v-19.99c0-.49-.22-.71-.75-.71s-1.68.22-3.31.22c-1.41,0-3.04-.22-3.53-.22-.57,0-.75.4-.75.71,0,.35.13.62.71.75.97.22,2.34.71,2.34,3ZM562.17,124.23l3.84-12.88c.13-.49.26-.53.4,0l3.44,12.88c.09.35,0,.57-.26.57h-7.19c-.26,0-.35-.18-.22-.57ZM578.98,136.36l-9.09-32.78c-.22-.79-.71-1.37-1.81-1.37s-1.59.57-1.85,1.37l-10.19,33.35c-.44,1.41-1.76,1.68-2.74,1.85-.53.09-.79.31-.79.79s.31.75.75.75,1.99-.18,3.84-.18c1.72,0,3.53.18,4.01.18.53,0,.84-.27.84-.75,0-.44-.22-.75-.79-.84-1.85-.31-2.78-.57-2.78-1.5,0-.22.04-.44.13-.71l2.74-9.18c.13-.35.4-.57.97-.57h7.46c.53,0,.84.18.93.57l2.43,9.04c.44,1.72-.93,2.12-2.38,2.38-.53.09-.79.35-.79.79s.27.75.84.75c.62,0,3.26-.18,6-.18s4.63.18,5.21.18c.49,0,.79-.18.79-.71,0-.49-.27-.71-.84-.84-1.41-.31-2.43-.79-2.87-2.43ZM541.87,139.06c-5.25,0-8.69-7.1-8.69-17.65s3.44-17.74,8.69-17.74,8.65,7.15,8.65,17.74-3.4,17.65-8.65,17.65ZM541.87,141.04c9,0,14.82-7.72,14.82-19.63s-5.82-19.72-14.82-19.72-14.87,7.76-14.87,19.72,5.87,19.63,14.87,19.63Z" style="fill:#fff;"/><path d="M839.22,190.78l4.1-7.24c.22-.35.4-.4.57,0l3.88,7.24c.75,1.37.31,1.99-1.46,2.16-.49.04-.71.22-.71.66,0,.4.22.66.71.66,1.46,0,2.87-.22,5.91-.22,1.99,0,2.96.22,4.32.22.57,0,.75-.22.75-.66-.04-.4-.22-.57-.79-.66-1.37-.22-2.25-1.1-3.04-2.6l-6.18-11.6c-.22-.4-.26-.79-.04-1.19l4.54-7.94c.84-1.5,1.72-1.99,3.27-2.43.44-.13.75-.31.75-.75,0-.4-.27-.62-.71-.62-.57,0-1.72.22-3.75.22-2.16,0-3.13-.22-3.71-.22-.4,0-.66.18-.66.57,0,.44.35.66.79.79,1.5.48,2.03,1.06,1.24,2.43l-3.13,5.47c-.22.35-.4.4-.57,0l-2.78-5.21c-.84-1.59-.71-2.38,1.02-2.74.57-.13.75-.35.75-.71,0-.4-.26-.62-.79-.62-.66,0-2.69.22-4.9.22-3.31,0-4.19-.22-4.9-.22-.49,0-.75.22-.75.62,0,.44.31.62.88.75,1.41.35,1.85,1.06,2.43,2.12l5.6,10.54c.22.4.26.79,0,1.28l-5.21,9.35c-.79,1.41-1.81,2.21-3.22,2.47-.44.09-.66.22-.66.66,0,.49.26.66.71.66,1.46,0,2.51-.22,4.28-.22s2.43.22,3.44.22c.44,0,.62-.22.62-.66,0-.4-.18-.57-.71-.66-1.99-.31-2.6-.88-1.9-2.16ZM830.62,189.81v-23.56c0-.31-.13-.44-.49-.44-.22,0-.31.04-.57.31-1.19,1.19-3.93,1.94-5.65,2.21-.57.09-.66.4-.66.71,0,.35.13.62.62.75.97.27,1.46.62,1.46,1.85v18.18c0,2.29-1.37,2.78-2.34,3-.57.13-.71.4-.71.75,0,.31.18.71.75.71.49,0,2.65-.27,4.9-.27s4.5.27,4.99.27c.57,0,.75-.4.75-.71,0-.35-.13-.62-.71-.75-.97-.22-2.34-.71-2.34-3ZM827.97,162.9c1.63,0,2.82-1.41,2.82-3.31s-1.19-3.26-2.82-3.26-2.82,1.37-2.82,3.26,1.19,3.31,2.82,3.31ZM785.48,171.01v18.8c0,2.29-1.37,2.78-2.34,3-.57.13-.71.4-.71.75,0,.31.18.71.75.71.48,0,2.65-.27,4.9-.27s4.5.27,4.99.27c.57,0,.75-.4.75-.71,0-.35-.13-.62-.71-.75-.97-.22-2.34-.71-2.34-3v-16.72c0-2.96,2.56-4.77,5.03-4.77,2.82,0,4.24,1.81,4.24,5.25v16.24c0,2.29-1.37,2.78-2.34,3-.57.13-.71.4-.71.75,0,.31.18.71.75.71.49,0,2.65-.27,4.94-.27s4.46.27,4.94.27c.57,0,.75-.4.75-.71,0-.35-.13-.62-.71-.75-.97-.22-2.34-.71-2.34-3v-15.62c0-3.4,2.43-5.87,5.16-5.87,2.51,0,4.1,1.81,4.1,5.25v16.24c0,2.29-1.37,2.78-2.34,3-.57.13-.71.4-.71.75,0,.31.18.71.75.71.49,0,2.65-.27,4.94-.27s4.46.27,4.94.27c.57,0,.75-.4.75-.71,0-.35-.13-.62-.71-.75-.97-.22-2.34-.71-2.34-3v-16.24c0-5.34-3-8.47-7.72-8.47-2.96,0-5.43,1.81-7.19,4.5-.13.18-.22.18-.31-.04-1.1-2.87-3.49-4.46-6.84-4.46-2.56,0-4.94,1.37-6.71,3.53-.22.26-.35.26-.35-.13v-2.87c0-.31-.13-.44-.49-.44-.22,0-.31.04-.57.31-1.19,1.19-3.93,1.94-5.65,2.21-.57.09-.66.4-.66.71,0,.35.13.62.62.75.97.27,1.46.62,1.46,1.85ZM762.23,180.5c0,8.74,4.68,14.43,11.91,14.43,3.71,0,6.97-1.72,8.29-4.41.18-.35.13-.75-.18-.97s-.71-.18-1.06.13c-1.76,1.59-3.31,2.43-5.6,2.43-4.81,0-7.63-4.72-7.63-12l.04-1.72c0-.18.13-.31.4-.31h12.79c1.01,0,1.46-.57,1.46-2.25,0-6.75-3.53-10.72-8.91-10.72-6.97,0-11.51,6.09-11.51,15.4ZM773.83,175.87h-5.25c-.26,0-.4-.13-.35-.44.66-5.34,2.69-8.12,5.91-8.12,2.47,0,4.19,1.85,4.19,4.72,0,2.43-1.68,3.84-4.5,3.84ZM748.5,174.68c-1.9,0-3.35-.35-3.35-2.65v-11.91c0-1.59.88-2.03,2.47-2.03,4.32,0,6.57,2.69,6.57,8.25s-1.94,8.34-5.69,8.34ZM739.42,159.9v29.91c0,2.29-1.59,2.74-2.78,3-.57.13-.71.4-.71.75,0,.31.18.71.75.71.49,0,3.09-.27,5.6-.27s5.12.27,5.6.27c.57,0,.75-.4.75-.71,0-.35-.13-.62-.71-.75-1.24-.26-2.78-.71-2.78-3v-12.09c0-1.1.49-1.37,1.94-1.37,2.07,0,3.22,1.72,5.47,8.25.62,1.81,2.43,6.71,3.26,8.6.35.75.97,1.06,2.03,1.06.4,0,1.63-.09,2.78-.09l3.22.09c.53,0,.79-.27.79-.71s-.22-.66-.79-.79c-1.32-.31-2.21-.57-2.69-1.68-.97-2.21-2.12-5.07-2.78-6.75-1.19-2.91-2.87-7.1-4.5-8.47,4.01-1.54,6.49-5.03,6.49-9.79,0-5.91-4.28-9.75-10.85-9.75-1.59,0-4.01.18-6.88.18-3.71,0-5.12-.18-5.87-.18-.71,0-.88.4-.88.71,0,.35.13.66.84.79,1.15.22,2.69.66,2.69,2.07ZM714.13,171.01v18.8c0,2.29-1.37,2.78-2.34,3-.57.13-.71.4-.71.75,0,.31.18.71.75.71.48,0,2.65-.27,4.9-.27,2.56,0,5.38.27,5.87.27.57,0,.75-.4.75-.71,0-.35-.13-.62-.71-.75-1.68-.35-3.22-.71-3.22-3v-15.8c0-.88.13-1.72.49-2.6.71-1.63,1.81-2.91,2.91-2.91,1.46,0,1.59,2.38,3.79,2.38,1.24,0,1.99-.88,1.99-2.38,0-2.07-1.37-3.4-3.49-3.4s-4.19,1.68-5.43,4.06c-.18.35-.27.35-.27-.04v-3.49c0-.31-.13-.44-.49-.44-.22,0-.31.04-.57.31-1.19,1.19-3.93,1.94-5.65,2.21-.57.09-.66.4-.66.71,0,.35.13.62.62.75.97.27,1.46.62,1.46,1.85ZM699.08,192.99c-3.79,0-6.26-5.25-6.26-13.28s2.47-12.62,6.26-12.62,6.26,4.99,6.26,12.62c0,8.03-2.47,13.28-6.26,13.28ZM699.08,194.97c7.28,0,12-6,12-15.26s-4.72-14.6-12-14.6-12,5.78-12,14.6c0,9.27,4.72,15.26,12,15.26ZM688.14,165.81h-4.54c-.66,0-1.02-.22-1.02-.79v-1.41c0-7.59,1.54-10.1,3.44-10.1,1.5,0,2.12,1.41,2.91,3.57.49,1.28,1.24,1.68,2.25,1.68,1.1,0,1.85-.84,1.85-2.16,0-2.69-2.43-5.07-6.18-5.07-5.56,0-9.57,4.99-9.57,11.82v1.59c0,.4-.22.71-.71.93l-1.5.57c-.49.18-.62.44-.62.84,0,.53.35.84.79.84l1.24-.04c.53,0,.79.22.79.79v20.96c0,2.29-1.37,2.78-2.34,3-.57.13-.71.4-.71.75,0,.31.18.71.75.71.49,0,2.65-.27,4.94-.27s4.46.27,4.94.27c.57,0,.75-.4.75-.71,0-.35-.13-.62-.71-.75-.97-.22-2.34-.71-2.34-3v-21c0-.53.31-.79.97-.79h4.59c.88,0,1.19-.4,1.19-1.15,0-.66-.49-1.06-1.19-1.06ZM655.58,194.97c5.29,0,9.18-3.04,9.18-8.38,0-10.19-11.91-9.57-11.91-15.88,0-2.21,1.28-3.66,3.4-3.66s4.06,1.63,5.47,4.72c.22.49.4.75.79.75s.57-.26.57-.66c0-.53-.09-1.24-.09-2.21s.09-1.94.09-2.43c0-1.37-2.43-2.12-5.87-2.12-5.07,0-8.6,2.74-8.6,8.12,0,8.69,11.78,7.68,11.78,15.62,0,2.6-1.59,4.15-4.1,4.15-3.13,0-4.85-2.78-6.13-6.31-.18-.49-.4-.75-.79-.75-.35,0-.71.22-.71.93,0,.66.09,1.54.09,2.87,0,1.41-.09,2.21-.09,2.87,0,1.37,3.04,2.38,6.93,2.38ZM634.35,171.01v18.8c0,2.29-1.37,2.78-2.34,3-.57.13-.71.4-.71.75,0,.31.18.71.75.71.48,0,2.65-.27,4.9-.27,2.56,0,5.38.27,5.87.27.57,0,.75-.4.75-.71,0-.35-.13-.62-.71-.75-1.68-.35-3.22-.71-3.22-3v-15.8c0-.88.13-1.72.49-2.6.71-1.63,1.81-2.91,2.91-2.91,1.46,0,1.59,2.38,3.79,2.38,1.24,0,1.99-.88,1.99-2.38,0-2.07-1.37-3.4-3.49-3.4s-4.19,1.68-5.43,4.06c-.18.35-.27.35-.27-.04v-3.49c0-.31-.13-.44-.49-.44-.22,0-.31.04-.57.31-1.19,1.19-3.93,1.94-5.65,2.21-.57.09-.66.4-.66.71,0,.35.13.62.62.75.97.27,1.46.62,1.46,1.85ZM610.88,180.5c0,8.74,4.68,14.43,11.91,14.43,3.71,0,6.97-1.72,8.29-4.41.18-.35.13-.75-.18-.97s-.71-.18-1.06.13c-1.76,1.59-3.31,2.43-5.6,2.43-4.81,0-7.63-4.72-7.63-12l.04-1.72c0-.18.13-.31.4-.31h12.79c1.01,0,1.46-.57,1.46-2.25,0-6.75-3.53-10.72-8.91-10.72-6.97,0-11.51,6.09-11.51,15.4ZM622.48,175.87h-5.25c-.26,0-.4-.13-.35-.44.66-5.34,2.69-8.12,5.91-8.12,2.47,0,4.19,1.85,4.19,4.72,0,2.43-1.68,3.84-4.5,3.84ZM591.99,188.04v-14.03c0-3.31,2.78-6.04,5.78-6.04,3.93,0,6.04,3.97,6.04,11.56,0,8.82-2.25,13.46-6.53,13.46-2.82,0-5.29-1.94-5.29-4.94ZM586.7,172.07v28.55c0,2.29-1.37,2.78-2.34,3-.57.13-.71.4-.71.75,0,.31.18.71.75.71.49,0,2.65-.26,4.94-.26s5.34.26,5.82.26c.57,0,.75-.4.75-.71,0-.35-.18-.62-.75-.75-1.72-.35-3.18-.71-3.18-3v-6.44c0-.35.13-.49.44-.31,1.46.79,3.31,1.1,4.94,1.1,7.37,0,12.18-6.04,12.18-15.31s-3.97-14.56-10.5-14.56c-2.91,0-5.29,1.5-6.79,3.31-.18.22-.26.18-.26-.09v-2.74c0-.35-.18-.49-.44-.49-.22,0-.31.04-.53.26-1.37,1.24-3.71,2.21-5.96,2.56-.62.09-.88.31-.88.71,0,.35.22.53.71.71,1.37.53,1.81,1.02,1.81,2.74ZM581.49,189.81v-37.9c0-.31-.13-.44-.49-.44-.22,0-.31.04-.57.31-1.19,1.19-3.93,1.94-5.65,2.21-.57.09-.66.4-.66.71,0,.35.13.62.62.75.97.27,1.46.62,1.46,1.85v32.52c0,2.29-1.37,2.78-2.34,3-.57.13-.71.4-.71.75,0,.31.18.71.75.71.49,0,2.65-.27,4.9-.27s4.5.27,4.99.27c.57,0,.75-.4.75-.71,0-.35-.13-.62-.71-.75-.97-.22-2.34-.71-2.34-3ZM552.72,180.5c0,8.74,4.68,14.43,11.91,14.43,3.71,0,6.97-1.72,8.29-4.41.18-.35.13-.75-.18-.97s-.71-.18-1.06.13c-1.76,1.59-3.31,2.43-5.6,2.43-4.81,0-7.63-4.72-7.63-12l.04-1.72c0-.18.13-.31.4-.31h12.79c1.01,0,1.46-.57,1.46-2.25,0-6.75-3.53-10.72-8.91-10.72-6.97,0-11.51,6.09-11.51,15.4ZM564.33,175.87h-5.25c-.26,0-.4-.13-.35-.44.66-5.34,2.69-8.12,5.91-8.12,2.47,0,4.19,1.85,4.19,4.72,0,2.43-1.68,3.84-4.5,3.84ZM530.26,157.29v32.52c0,2.29-1.37,2.78-2.34,3-.57.13-.71.4-.71.75,0,.31.18.71.75.71.48,0,2.65-.27,4.9-.27s4.5.27,4.99.27c.57,0,.75-.4.75-.71,0-.35-.13-.62-.71-.75-.97-.22-2.34-.71-2.34-3v-15.22c0-3.31,2.47-6.26,5.51-6.26,2.6,0,3.97,1.81,3.97,5.25v16.24c0,2.29-1.37,2.78-2.34,3-.57.13-.71.4-.71.75,0,.31.18.71.75.71.49,0,2.65-.27,4.94-.27s4.46.27,4.94.27c.57,0,.75-.4.75-.71,0-.35-.13-.62-.71-.75-.97-.22-2.34-.71-2.34-3v-16.24c0-5.34-2.78-8.47-7.5-8.47-2.65,0-5.03,1.46-6.88,3.66-.27.31-.4.31-.4-.09v-16.77c0-.31-.13-.44-.49-.44-.22,0-.31.04-.57.31-1.19,1.19-3.93,1.94-5.65,2.21-.57.09-.66.4-.66.71,0,.35.13.62.62.75.97.27,1.46.62,1.46,1.85Z" style="fill:#fff;"/></g></svg>