<?xml version="1.0" encoding="UTF-8"?><svg id="Layer_2" xmlns="http://www.w3.org/2000/svg" viewBox="0 0 576.91 289.77"><g id="Layer_1-2"><polygon points="78.94 249.16 101.14 249.16 92.45 289.77 103.23 289.77 111.93 249.16 133.99 249.16 136.08 239.46 81.02 239.46 78.94 249.16" style="fill:#efefed;"/><path d="M274.73,279.35h-38.67c-2.3,0-3.31-1.29-2.8-3.59l4.67-22.21c.5-2.3,2.08-3.59,4.38-3.59h31.27c2.08,0,3.23,1.01,3.38,3.02l1.65,22.35c.22,2.44-1.29,4.03-3.88,4.03ZM232.04,289.77h42.48c9.06.07,15.81-6.25,15.31-13.8l-1.8-25.52c-.43-7.33-3.02-11-9.99-11h-35.29c-7.69.07-13.58,4.82-15.24,12.43l-5.39,25.52c-1.65,7.62,2.3,12.36,9.92,12.36ZM193.58,279.35h-38.67c-2.3,0-3.31-1.29-2.8-3.59l4.67-22.21c.5-2.3,2.08-3.59,4.38-3.59h31.27c2.08,0,3.23,1.01,3.38,3.02l1.65,22.35c.22,2.44-1.29,4.03-3.88,4.03ZM150.89,289.77h42.48c9.06.07,15.81-6.25,15.31-13.8l-1.8-25.52c-.43-7.33-3.02-11-9.99-11h-35.29c-7.69.07-13.58,4.82-15.24,12.43l-5.39,25.52c-1.65,7.62,2.3,12.36,9.92,12.36Z" style="fill:#efefed;"/><polygon points="300.61 289.77 345.54 289.77 347.62 280.07 313.48 280.07 322.1 239.46 311.32 239.46 300.61 289.77" style="fill:#efefed;"/><polygon points="400.24 289.77 413.97 289.77 396.07 263.25 423.17 239.46 409.29 239.46 387.52 258.58 375.87 258.58 379.97 239.46 369.19 239.46 358.48 289.77 369.26 289.77 373.86 268.28 385.65 268.28 400.24 289.77" style="fill:#efefed;"/><polygon points="437.62 239.46 426.91 289.77 437.69 289.77 448.4 239.46 437.62 239.46" style="fill:#efefed;"/><polygon points="459.97 249.16 482.18 249.16 473.48 289.77 484.26 289.77 492.96 249.16 515.03 249.16 517.11 239.46 462.05 239.46 459.97 249.16" style="fill:#efefed;"/><path d="M447.67,112.34h35.35c6.31,0,11.44-5.13,11.44-11.44s-5.13-11.44-11.44-11.44h-35.35c-6.31,0-11.44,5.13-11.44,11.44s5.13,11.44,11.44,11.44ZM565.47,89.46h-35.35c-6.31,0-11.44,5.13-11.44,11.44s5.13,11.44,11.44,11.44h35.35c6.31,0,11.44-5.13,11.44-11.44s-5.13-11.44-11.44-11.44ZM565.47,119.24h-117.81c-6.31,0-11.44,5.13-11.44,11.44,0,3.04,1.19,5.91,3.36,8.08,2.17,2.17,5.04,3.36,8.08,3.36h117.81c6.31,0,11.44-5.13,11.44-11.44s-5.13-11.44-11.44-11.44ZM466.69,52.79h79.32c6.31,0,11.44-5.13,11.44-11.44s-5.13-11.44-11.44-11.44h-79.32c-6.31,0-11.44,5.13-11.44,11.44s5.13,11.44,11.44,11.44ZM518.69,71.13c0,6.31,5.13,11.44,11.44,11.44h35.35c6.31,0,11.44-5.13,11.44-11.44s-5.13-11.44-11.44-11.44h-35.35c-6.31,0-11.44,5.13-11.44,11.44ZM565.47,149.02h-35.35c-6.31,0-11.44,5.13-11.44,11.44s5.13,11.44,11.44,11.44h35.35c6.31,0,11.44-5.13,11.44-11.44s-5.13-11.44-11.44-11.44ZM565.47,178.8h-35.35c-6.31,0-11.44,5.13-11.44,11.44s5.13,11.44,11.44,11.44h35.35c6.31,0,11.44-5.13,11.44-11.44s-5.13-11.44-11.44-11.44ZM488.68,23.01h35.35c6.31,0,11.44-5.13,11.44-11.44s-5.13-11.44-11.44-11.44h-35.35c-6.31,0-11.44,5.13-11.44,11.44s5.13,11.44,11.44,11.44ZM447.67,82.56h35.35c6.31,0,11.44-5.13,11.44-11.44s-5.13-11.44-11.44-11.44h-35.35c-6.31,0-11.44,5.13-11.44,11.44s5.13,11.44,11.44,11.44ZM483.02,149.02h-35.35c-6.31,0-11.44,5.13-11.44,11.44s5.13,11.44,11.44,11.44h35.35c6.31,0,11.44-5.13,11.44-11.44s-5.13-11.44-11.44-11.44ZM483.02,178.8h-35.35c-6.31,0-11.44,5.13-11.44,11.44s5.13,11.44,11.44,11.44h35.35c6.31,0,11.44-5.13,11.44-11.44s-5.13-11.44-11.44-11.44ZM385.71,89.41h-35.35c-6.31,0-11.44,5.13-11.44,11.44s5.13,11.44,11.44,11.44h35.35c6.31,0,11.44-5.13,11.44-11.44s-5.13-11.44-11.44-11.44ZM385.71,119.13h-35.35c-6.31,0-11.44,5.13-11.44,11.44s5.13,11.44,11.44,11.44h35.35c6.31,0,11.44-5.13,11.44-11.44s-5.13-11.44-11.44-11.44ZM385.71,149.04h-35.35c-6.31,0-11.44,5.13-11.44,11.44s5.13,11.44,11.44,11.44h35.35c6.31,0,11.44-5.13,11.44-11.44s-5.13-11.44-11.44-11.44ZM385.71,178.82h-35.35c-6.31,0-11.44,5.13-11.44,11.44s5.13,11.44,11.44,11.44h35.35c6.31,0,11.44-5.13,11.44-11.44s-5.13-11.44-11.44-11.44ZM309.13,22.87h117.8c6.31,0,11.44-5.13,11.44-11.44s-5.13-11.44-11.44-11.44h-117.8c-6.31,0-11.44,5.13-11.44,11.44s5.13,11.44,11.44,11.44h0ZM476.8,29.91h-167.67c-6.31,0-11.44,5.13-11.44,11.44s5.13,11.44,11.44,11.44h167.67c6.31,0,11.44-5.13,11.44-11.44s-5.13-11.44-11.44-11.44ZM385.71,59.69h-35.35c-6.31,0-11.44,5.13-11.44,11.44s5.13,11.44,11.44,11.44h35.35c6.31,0,11.44-5.13,11.44-11.44s-5.13-11.44-11.44-11.44ZM170.6,112.34h35.35c6.31,0,11.44-5.13,11.44-11.44s-5.13-11.44-11.44-11.44h-35.35c-6.31,0-11.44,5.13-11.44,11.44s5.13,11.44,11.44,11.44ZM288.41,89.46h-35.35c-6.31,0-11.44,5.13-11.44,11.44s5.13,11.44,11.44,11.44h35.35c6.31,0,11.44-5.13,11.44-11.44s-5.13-11.44-11.44-11.44ZM288.41,119.24h-117.81c-6.31,0-11.44,5.13-11.44,11.44,0,3.04,1.19,5.91,3.36,8.08,2.17,2.17,5.04,3.36,8.08,3.36h117.81c6.31,0,11.44-5.13,11.44-11.44s-5.13-11.44-11.44-11.44ZM189.63,52.79h79.32c6.31,0,11.44-5.13,11.44-11.44s-5.13-11.44-11.44-11.44h-79.32c-6.31,0-11.44,5.13-11.44,11.44s5.13,11.44,11.44,11.44ZM241.62,71.13c0,6.31,5.13,11.44,11.44,11.44h35.35c6.31,0,11.44-5.13,11.44-11.44s-5.13-11.44-11.44-11.44h-35.35c-6.31,0-11.44,5.13-11.44,11.44ZM288.41,149.02h-35.35c-6.31,0-11.44,5.13-11.44,11.44s5.13,11.44,11.44,11.44h35.35c6.31,0,11.44-5.13,11.44-11.44s-5.13-11.44-11.44-11.44ZM288.41,178.8h-35.35c-6.31,0-11.44,5.13-11.44,11.44s5.13,11.44,11.44,11.44h35.35c6.31,0,11.44-5.13,11.44-11.44s-5.13-11.44-11.44-11.44ZM211.61,23.01h35.35c6.31,0,11.44-5.13,11.44-11.44S253.27.14,246.96.14h-35.35c-6.31,0-11.44,5.13-11.44,11.44s5.13,11.44,11.44,11.44ZM170.6,82.56h35.35c6.31,0,11.44-5.13,11.44-11.44s-5.13-11.44-11.44-11.44h-35.35c-6.31,0-11.44,5.13-11.44,11.44s5.13,11.44,11.44,11.44ZM205.95,149.02h-35.35c-6.31,0-11.44,5.13-11.44,11.44s5.13,11.44,11.44,11.44h35.35c6.31,0,11.44-5.13,11.44-11.44s-5.13-11.44-11.44-11.44ZM205.95,178.8h-35.35c-6.31,0-11.44,5.13-11.44,11.44s5.13,11.44,11.44,11.44h35.35c6.31,0,11.44-5.13,11.44-11.44s-5.13-11.44-11.44-11.44ZM11.73,52.79h112.31c6.31,0,11.44-5.13,11.44-11.44s-5.13-11.44-11.44-11.44H11.73c-6.31,0-11.44,5.13-11.44,11.44s5.13,11.44,11.44,11.44h0ZM124.04,149.01H11.73c-6.31,0-11.44,5.13-11.44,11.44s5.13,11.44,11.44,11.44h112.31c6.31,0,11.44-5.13,11.44-11.44s-5.13-11.44-11.44-11.44ZM172.44,89.47h-72.76c-6.31,0-11.44,5.13-11.44,11.44s5.13,11.44,11.44,11.44h72.76c6.31,0,11.44-5.13,11.44-11.44s-5.13-11.44-11.44-11.44ZM11.73,112.34h35.35c6.31,0,11.44-5.13,11.44-11.44s-5.13-11.44-11.44-11.44H11.73c-6.31,0-11.44,5.13-11.44,11.44s5.13,11.44,11.44,11.44ZM95.82,178.72H11.44c-6.31,0-11.44,5.13-11.44,11.44s5.13,11.44,11.44,11.44h84.39c6.31,0,11.44-5.13,11.44-11.44s-5.13-11.44-11.44-11.44ZM11.73,23.01h84.39c6.31,0,11.44-5.13,11.44-11.44S102.42.14,96.12.14H11.73C5.42.14.29,5.26.29,11.57s5.13,11.44,11.44,11.44h0ZM135.03,119.24h-35.35c-6.31,0-11.44,5.13-11.44,11.44s5.13,11.44,11.44,11.44h35.35c6.31,0,11.44-5.13,11.44-11.44s-5.13-11.44-11.44-11.44ZM99.68,59.69c-6.31,0-11.44,5.13-11.44,11.44s5.13,11.44,11.44,11.44h35.35c6.31,0,11.44-5.13,11.44-11.44s-5.13-11.44-11.44-11.44h-35.35ZM11.73,142.11h35.35c6.31,0,11.44-5.13,11.44-11.44s-5.13-11.44-11.44-11.44H11.73c-6.31,0-11.44,5.13-11.44,11.44s5.13,11.44,11.44,11.44ZM11.73,82.56h35.35c6.31,0,11.44-5.13,11.44-11.44s-5.13-11.44-11.44-11.44H11.73c-6.31,0-11.44,5.13-11.44,11.44s5.13,11.44,11.44,11.44Z" style="fill:#efefed;"/></g></svg>