<?xml version="1.0" encoding="UTF-8"?><svg id="Layer_2" xmlns="http://www.w3.org/2000/svg" viewBox="0 0 1438.07 413.56"><g id="Layer_1-2"><polygon points="406.39 222.17 384.86 222.17 400.08 237.38 375.59 261.87 360.37 246.65 360.37 268.17 325.73 268.17 325.73 246.65 310.5 261.87 286.01 237.38 301.24 222.17 279.71 222.17 279.71 187.54 301.24 187.54 286.01 172.33 310.5 147.84 325.73 163.06 325.73 141.54 360.37 141.54 360.37 163.06 375.59 147.84 400.08 172.33 384.86 187.54 406.39 187.54 406.39 222.17" style="fill:#efefed;"/><path d="M561.89,168.67v99.5h-15.59v-99.5c0-11.55-5.21-11.55-8-11.55-6.43,0-12.02,7.54-19.82,19.03-1.05,1.55-2.25,3.3-3.56,5.22-3.38,4.94-8.77,12.82-14.3,21.37.99,1.61,1.97,3.23,2.93,4.83,9.84,16.52,14.23,27.12,14.23,34.36,0,8.6-3.57,15.98-10.06,20.77-4.62,3.41-10.73,5.45-16.34,5.45s-11.72-2.04-16.34-5.45c-6.49-4.79-10.06-12.17-10.06-20.77s7.19-23.02,17.17-39.18c-5.52-8.55-10.92-16.44-14.3-21.38-1.32-1.92-2.52-3.67-3.56-5.22-7.79-11.5-13.39-19.03-19.82-19.03-2.8,0-8,0-8,11.55v99.5h-15.59v-99.5c0-16.99,8.82-27.13,23.6-27.13s24.1,13.15,32.72,25.87c1.04,1.53,2.22,3.27,3.53,5.17,3.14,4.59,6.84,10,10.68,15.79,3.45-5.21,7.05-10.51,10.66-15.79,1.3-1.9,2.49-3.64,3.53-5.17,8.62-12.72,17.54-25.87,32.72-25.87s23.6,10.14,23.6,27.13ZM491.38,217.65c-6.1,10.35-10.81,19.79-10.81,24.29,0,10.52,10.7,10.64,10.81,10.64s10.81-.12,10.81-10.64c0-4.51-4.71-13.94-10.81-24.29Z" style="fill:#efefed;"/><path d="M678.92,185.37c0,24.17-19.67,43.83-43.85,43.83h-23.9v24.35c0,8.07-6.54,14.61-14.62,14.61s-14.62-6.54-14.62-14.61v-38.96h0v-58.44h0c0-8.07,6.54-14.61,14.62-14.61h38.52c24.18,0,43.85,19.66,43.85,43.83ZM589.74,169.07v32.61c2.04-1.08,4.36-1.69,6.82-1.69h6.82v-29.22h-6.82c-2.46,0-4.78-.61-6.82-1.69ZM603.38,229.21h-6.82c-2.46,0-4.78-.62-6.82-1.69v26.04c0,3.76,3.06,6.82,6.82,6.82s6.82-3.06,6.82-6.82v-24.35ZM649.69,185.37c0-8.06-6.56-14.61-14.62-14.61h-23.9v29.22h23.9c8.06,0,14.62-6.55,14.62-14.61Z" style="fill:#efefed;"/><path d="M813.23,204.85c0,34.97-28.36,63.31-63.34,63.31s-63.34-28.35-63.34-63.31,28.36-63.31,63.34-63.31,63.34,28.35,63.34,63.31ZM805.43,204.85c0-30.61-24.92-55.52-55.54-55.52s-55.54,24.91-55.54,55.52,24.92,55.52,55.54,55.52,55.54-24.91,55.54-55.52ZM792.76,204.85c0,23.67-19.2,42.86-42.88,42.86s-42.88-19.19-42.88-42.86,19.2-42.86,42.88-42.86,42.88,19.19,42.88,42.86ZM784.97,204.85c0-19.33-15.74-35.07-35.08-35.07s-35.08,15.73-35.08,35.07,15.74,35.07,35.08,35.07,35.08-15.73,35.08-35.07ZM773.27,204.85c0,12.91-10.47,23.38-23.39,23.38s-23.39-10.47-23.39-23.38,10.47-23.38,23.39-23.38,23.39,10.47,23.39,23.38ZM765.48,204.85c0-8.59-7-15.58-15.59-15.58s-15.59,6.99-15.59,15.58,6.99,15.58,15.59,15.58,15.59-6.99,15.59-15.58ZM745.01,204.85c0-2.69,2.18-4.87,4.87-4.87s4.87,2.18,4.87,4.87-2.18,4.87-4.87,4.87-4.87-2.18-4.87-4.87Z" style="fill:#efefed;"/><polygon points="945.82 268.17 891.41 214.62 891.41 268.17 828.07 268.17 828.07 141.54 882.48 195.09 882.48 141.54 945.82 141.54 945.82 268.17" style="fill:#efefed;"/><path d="M960.73,162.97v-21.43h81.08v21.43h-81.08ZM960.73,215.78v-21.43h81.08v21.43h-81.08ZM960.73,268.17v-21.43h81.08v21.43h-81.08Z" style="fill:#efefed;"/><path d="M1163.66,141.54c8.07,0,14.62,6.54,14.62,14.61v97.46c0,.13-.02.25-.02.37-.23,7.87-6.67,14.18-14.6,14.18-2.67,0-5.16-.72-7.31-1.97-2.15,1.24-4.64,1.97-7.3,1.97-5.1,0-9.59-2.62-12.21-6.58l-36.52-45.63v37.6c0,8.07-6.54,14.61-14.62,14.61-2.67,0-5.16-.72-7.31-1.97-2.15,1.25-4.64,1.97-7.31,1.97-8.07,0-14.62-6.54-14.62-14.61v-97.54c.02-4.27,1.89-8.5,5.49-11.38,4.84-3.87,11.38-4.15,16.44-1.23,2.27-1.32,4.79-1.97,7.3-1.97,4.29,0,8.54,1.88,11.42,5.48l37.31,46.62v-37.38c0-8.07,6.54-14.61,14.62-14.61,2.67,0,5.16.72,7.31,1.97,2.15-1.25,4.64-1.97,7.31-1.97h0ZM1080.2,144.64c.83.66,1.6,1.41,2.29,2.28l51.93,64.88v-15.14l-38.83-48.52c-2.42-3.02-6.03-4.75-9.9-4.75-1.93,0-3.79.44-5.49,1.26ZM1098.37,213.52l-12.67-15.83v55.86c0,4.61-2.14,8.72-5.48,11.4,1.66.8,3.52,1.27,5.48,1.27,6.99,0,12.67-5.68,12.67-12.66v-40.03ZM1176.33,156.15c0-6.98-5.68-12.66-12.67-12.66-1.97,0-3.82.46-5.48,1.26,3.34,2.68,5.48,6.79,5.48,11.4v97.46c0,.13-.02.25-.02.37-.13,4.43-2.23,8.37-5.46,10.96,1.69.81,3.55,1.27,5.48,1.27,6.89,0,12.45-5.4,12.65-12.29v-.23s.02-.11.02-.11v-.06s0-.03,0-.03v-97.35Z" style="fill:#efefed;"/><path d="M1239.41,141.54v25.33h-50.28v-25.33h50.28ZM1239.41,166.87h25.14v101.3h-25.14v-101.3ZM1314.83,141.54v25.33h-50.28v-25.33h50.28Z" style="fill:#efefed;"/><path d="M213.23,206.65l78.78,80.84c-20.16,20.69-48.01,33.48-78.78,33.48-61.53,0-111.41-51.18-111.41-114.32s49.88-114.32,111.41-114.32c30.76,0,58.62,12.79,78.78,33.48l-78.78,80.84Z" style="fill:#efefed;"/><path d="M1221.65,353.14c1.39.38,2.53.95,3.42,1.71.9.75,1.56,1.7,1.99,2.82s.65,2.45.65,3.96v8.63h-4.01v-8.63c0-.71-.1-1.41-.29-2.09-.19-.68-.54-1.29-1.06-1.83-.51-.54-1.23-.97-2.14-1.29-.91-.32-2.09-.49-3.54-.49s-2.68.17-3.6.5c-.92.33-1.64.76-2.17,1.29-.52.53-.88,1.14-1.06,1.82-.18.68-.27,1.38-.27,2.09v8.63h-4.01v-8.63c0-3,.91-5.26,2.73-6.78,1.82-1.52,4.61-2.28,8.38-2.28,1.93,0,3.58.19,4.97.57Z" style="fill:#fff;"/><rect x="1191.22" y="352.82" width="3.88" height="17.44" style="fill:#fff;"/><path d="M1154.58,353.19c1.38.42,2.52,1.01,3.44,1.78.91.77,1.59,1.71,2.04,2.81.45,1.1.67,2.35.67,3.75,0,2.87-.9,5.08-2.71,6.64s-4.57,2.34-8.29,2.34c-1.86,0-3.47-.18-4.84-.54-1.37-.36-2.51-.87-3.41-1.53-.9-.66-1.6-1.47-2.08-2.41-.48-.95-.76-2-.85-3.16h4.11c.08.58.27,1.12.57,1.63s.73.95,1.29,1.32c.56.37,1.26.67,2.08.9s1.8.34,2.93.34c2.46,0,4.27-.44,5.45-1.33,1.18-.89,1.77-2.29,1.77-4.19s-.61-3.3-1.83-4.18c-1.22-.88-3.02-1.32-5.39-1.32-1.13,0-2.1.1-2.93.31-.82.21-1.51.49-2.07.85s-.99.78-1.29,1.28c-.31.5-.5,1.03-.59,1.59h-4.13c.1-1.09.39-2.1.87-3.02s1.17-1.71,2.08-2.38c.91-.66,2.04-1.18,3.41-1.54,1.37-.37,2.98-.55,4.84-.55s3.48.21,4.85.62Z" style="fill:#fff;"/><path d="M1122.71,357.2c-1.23-.88-3-1.32-5.3-1.32s-4.15.44-5.38,1.33c-1.23.89-1.84,2.35-1.84,4.39s.61,3.44,1.84,4.31c1.23.86,3.02,1.29,5.38,1.29,1.16,0,2.19-.1,3.07-.31.89-.21,1.63-.53,2.24-.98s1.06-1.02,1.37-1.73c.31-.71.46-1.56.46-2.58,0-2.06-.61-3.53-1.84-4.4ZM1122.47,353.18c1.42.41,2.59,1,3.51,1.77.92.77,1.6,1.72,2.04,2.84.44,1.12.66,2.39.66,3.82,0,2.87-.9,5.07-2.7,6.61-1.8,1.53-4.66,2.3-8.58,2.3s-6.7-.77-8.55-2.31-2.78-3.74-2.78-6.59c0-1.41.23-2.67.68-3.79.46-1.12,1.15-2.07,2.09-2.85.94-.78,2.12-1.37,3.54-1.78,1.42-.41,3.09-.61,5.02-.61s3.65.2,5.07.61Z" style="fill:#fff;"/><polygon points="1069.81 370.26 1069.81 352.82 1073.69 352.82 1073.69 365.04 1081.23 352.82 1084.57 352.82 1092.04 364.99 1092.04 352.82 1095.92 352.82 1095.92 370.26 1090.62 370.26 1082.88 357.65 1075.14 370.26 1069.81 370.26" style="fill:#fff;"/><path d="M1055.56,360.81h-8.07c-.48,0-.98.02-1.49.05-.51.03-.98.14-1.39.34-.41.19-.76.49-1.02.88-.27.4-.4.97-.4,1.72s.13,1.29.4,1.69c.27.4.61.69,1.02.88.42.19.88.31,1.39.35.51.04,1.01.06,1.49.06h8.07v-5.97ZM1059.44,352.82v17.44h-13.2c-.76,0-1.55-.11-2.37-.32-.81-.22-1.56-.57-2.24-1.07-.68-.5-1.24-1.16-1.68-1.99-.44-.83-.66-1.86-.66-3.09s.21-2.21.64-3.04c.42-.83.97-1.5,1.64-2,.67-.51,1.42-.87,2.24-1.1.82-.22,1.63-.34,2.43-.34h9.31v-4.5h3.88Z" style="fill:#fff;"/><path d="M1023.45,357.2c-1.23-.88-3-1.32-5.3-1.32s-4.15.44-5.38,1.33c-1.23.89-1.84,2.35-1.84,4.39s.61,3.44,1.84,4.31c1.23.86,3.02,1.29,5.38,1.29,1.16,0,2.19-.1,3.07-.31.89-.21,1.63-.53,2.24-.98s1.06-1.02,1.37-1.73c.31-.71.46-1.56.46-2.58,0-2.06-.61-3.53-1.84-4.4ZM1023.21,353.18c1.42.41,2.59,1,3.51,1.77.92.77,1.6,1.72,2.04,2.84.44,1.12.66,2.39.66,3.82,0,2.87-.9,5.07-2.7,6.61-1.8,1.53-4.66,2.3-8.58,2.3s-6.7-.77-8.55-2.31-2.78-3.74-2.78-6.59c0-1.41.23-2.67.68-3.79.46-1.12,1.15-2.07,2.09-2.85.94-.78,2.12-1.37,3.54-1.78,1.42-.41,3.09-.61,5.02-.61s3.65.2,5.07.61Z" style="fill:#fff;"/><polygon points="996.68 352.82 996.68 370.26 991.28 370.26 978.19 357.1 978.19 370.26 974.3 370.26 974.3 352.82 979.65 352.82 992.8 366.06 992.8 352.82 996.68 352.82" style="fill:#fff;"/><polygon points="963.75 370.26 945.1 370.26 945.1 366.88 959.87 366.88 959.87 363.2 945.97 363.2 945.97 359.89 959.87 359.89 959.87 356.2 945.1 356.2 945.1 352.82 963.75 352.82 963.75 370.26" style="fill:#fff;"/><polygon points="934.78 352.82 934.78 370.26 929.38 370.26 916.28 357.1 916.28 370.26 912.4 370.26 912.4 352.82 917.75 352.82 930.89 366.06 930.89 352.82 934.78 352.82" style="fill:#fff;"/><polygon points="902.34 366.63 902.34 370.26 880.31 370.26 880.31 366.63 889.37 366.63 889.37 352.82 893.26 352.82 893.26 366.63 902.34 366.63" style="fill:#fff;"/><path d="M856.54,356.12c-.81.08-1.47.19-1.98.35-.51.16-.87.36-1.1.61-.22.25-.34.55-.34.9,0,.38.09.69.27.93.18.24.53.43,1.05.57.51.14,1.23.25,2.14.34.91.08,2.09.16,3.54.22,1.89.08,3.51.23,4.84.45,1.34.21,2.43.53,3.27.95.85.41,1.46.95,1.85,1.61.39.66.58,1.47.58,2.45s-.24,1.76-.71,2.4c-.47.64-1.16,1.15-2.05,1.54-.9.39-1.99.66-3.27.82-1.29.16-2.73.24-4.34.24s-3.12-.11-4.42-.32c-1.3-.22-2.41-.56-3.32-1.04-.91-.48-1.61-1.1-2.09-1.87-.48-.76-.72-1.69-.72-2.79h4.28c0,.53.13.96.39,1.29.26.33.66.6,1.21.8.55.2,1.25.34,2.1.41.85.07,1.88.11,3.07.11,1.13,0,2.06-.03,2.8-.1.74-.07,1.33-.17,1.77-.31.44-.14.75-.33.92-.56.17-.23.26-.51.26-.85s-.09-.63-.27-.86c-.18-.22-.51-.41-1-.55-.48-.14-1.14-.25-1.97-.34-.83-.08-1.89-.17-3.19-.25-1.73-.1-3.27-.22-4.64-.35-1.37-.13-2.54-.37-3.5-.72-.96-.35-1.7-.84-2.22-1.48-.51-.64-.77-1.51-.77-2.6,0-1.16.27-2.1.8-2.82.53-.72,1.27-1.29,2.23-1.69.96-.41,2.09-.68,3.41-.82,1.32-.14,2.78-.21,4.37-.21,1.79,0,3.39.09,4.81.27,1.41.18,2.61.51,3.6.98s1.74,1.12,2.27,1.94c.52.82.78,1.87.78,3.15h-4.31c0-.51-.11-.95-.34-1.32-.22-.37-.62-.66-1.18-.9-.56-.23-1.32-.41-2.27-.52-.95-.12-2.15-.17-3.61-.17-1.19,0-2.2.04-3.01.11Z" style="fill:#fff;"/><polygon points="818.53 370.26 800.08 370.26 800.08 366.7 814.65 366.7 814.65 362.13 801.8 362.13 801.8 358.64 814.65 358.64 814.65 352.82 818.53 352.82 818.53 370.26" style="fill:#fff;"/><path d="M784.92,357.2c-1.23-.88-3-1.32-5.3-1.32s-4.15.44-5.38,1.33c-1.23.89-1.84,2.35-1.84,4.39s.61,3.44,1.84,4.31c1.23.86,3.02,1.29,5.38,1.29,1.16,0,2.19-.1,3.07-.31.89-.21,1.63-.53,2.24-.98s1.06-1.02,1.37-1.73c.31-.71.46-1.56.46-2.58,0-2.06-.61-3.53-1.84-4.4ZM784.68,353.18c1.42.41,2.59,1,3.51,1.77.92.77,1.6,1.72,2.04,2.84.44,1.12.66,2.39.66,3.82,0,2.87-.9,5.07-2.7,6.61-1.8,1.53-4.66,2.3-8.58,2.3s-6.7-.77-8.55-2.31-2.78-3.74-2.78-6.59c0-1.41.23-2.67.68-3.79.46-1.12,1.15-2.07,2.09-2.85.94-.78,2.12-1.37,3.54-1.78,1.42-.41,3.09-.61,5.02-.61s3.65.2,5.07.61Z" style="fill:#fff;"/><path d="M754.26,366.78v-5.97h-8.22c-.45,0-.92.02-1.41.05s-.94.14-1.34.34c-.41.19-.74.49-1.01.88-.27.4-.4.97-.4,1.72s.13,1.29.4,1.69c.27.4.6.69,1.01.88.41.19.85.31,1.34.35s.96.06,1.41.06h8.22ZM738.1,352.82h4.68l2.76,4.5h8.71v-4.5h3.88v17.44h-13.2c-.76,0-1.55-.11-2.37-.32-.81-.22-1.56-.57-2.24-1.07-.68-.5-1.24-1.16-1.68-1.99-.44-.83-.66-1.86-.66-3.09,0-.76.09-1.45.27-2.07.18-.61.44-1.16.76-1.63.32-.47.7-.88,1.12-1.21.42-.33.88-.61,1.36-.85l-3.41-5.23Z" style="fill:#fff;"/><path d="M703.31,366.78v-5.97h-8.22c-.45,0-.92.02-1.41.05s-.94.14-1.34.34c-.41.19-.74.49-1.01.88-.27.4-.4.97-.4,1.72s.13,1.29.4,1.69c.27.4.6.69,1.01.88.41.19.85.31,1.34.35s.96.06,1.41.06h8.22ZM687.15,352.82h4.68l2.76,4.5h8.71v-4.5h3.88v17.44h-13.2c-.76,0-1.55-.11-2.37-.32-.81-.22-1.56-.57-2.24-1.07-.68-.5-1.24-1.16-1.68-1.99-.44-.83-.66-1.86-.66-3.09,0-.76.09-1.45.27-2.07.18-.61.44-1.16.76-1.63.32-.47.7-.88,1.12-1.21.42-.33.88-.61,1.36-.85l-3.41-5.23Z" style="fill:#fff;"/><polygon points="676.59 370.26 657.94 370.26 657.94 366.88 672.7 366.88 672.7 363.2 658.81 363.2 658.81 359.89 672.7 359.89 672.7 356.2 657.94 356.2 657.94 352.82 676.59 352.82 676.59 370.26" style="fill:#fff;"/><polygon points="621.41 370.26 621.41 352.82 625.3 352.82 625.3 365.04 632.84 352.82 636.18 352.82 643.64 364.99 643.64 352.82 647.53 352.82 647.53 370.26 642.23 370.26 634.48 357.65 626.74 370.26 621.41 370.26" style="fill:#fff;"/><rect x="607.08" y="352.82" width="3.88" height="17.44" style="fill:#fff;"/><polygon points="596.81 352.82 586.98 361.55 596.76 370.26 591.18 370.26 584.09 364.07 576.99 370.26 571.42 370.26 581.25 361.53 571.44 352.82 577.02 352.82 584.11 359.01 591.23 352.82 596.81 352.82" style="fill:#fff;"/><rect x="510.67" y="359.19" width="29.88" height="3.63" style="fill:#fff;"/><path d="M473.58,353.14c1.39.38,2.53.95,3.42,1.71.9.75,1.56,1.7,1.99,2.82s.65,2.45.65,3.96v8.63h-4.01v-8.63c0-.71-.1-1.41-.29-2.09-.19-.68-.54-1.29-1.06-1.83-.51-.54-1.23-.97-2.14-1.29-.91-.32-2.09-.49-3.54-.49s-2.68.17-3.6.5c-.92.33-1.64.76-2.17,1.29-.52.53-.88,1.14-1.06,1.82-.18.68-.27,1.38-.27,2.09v8.63h-4.01v-8.63c0-3,.91-5.26,2.73-6.78,1.82-1.52,4.61-2.28,8.38-2.28,1.93,0,3.58.19,4.97.57Z" style="fill:#fff;"/><rect x="443.16" y="352.82" width="3.88" height="17.44" style="fill:#fff;"/><path d="M406.51,353.19c1.38.42,2.52,1.01,3.44,1.78.91.77,1.59,1.71,2.04,2.81.45,1.1.67,2.35.67,3.75,0,2.87-.9,5.08-2.71,6.64s-4.57,2.34-8.29,2.34c-1.86,0-3.47-.18-4.84-.54-1.37-.36-2.51-.87-3.41-1.53-.9-.66-1.6-1.47-2.08-2.41-.48-.95-.76-2-.85-3.16h4.11c.08.58.27,1.12.57,1.63s.73.95,1.29,1.32c.56.37,1.26.67,2.08.9s1.8.34,2.93.34c2.46,0,4.27-.44,5.45-1.33,1.18-.89,1.77-2.29,1.77-4.19s-.61-3.3-1.83-4.18c-1.22-.88-3.02-1.32-5.39-1.32-1.13,0-2.1.1-2.93.31-.82.21-1.51.49-2.07.85s-.99.78-1.29,1.28c-.31.5-.5,1.03-.59,1.59h-4.13c.1-1.09.39-2.1.87-3.02s1.17-1.71,2.08-2.38c.91-.66,2.04-1.18,3.41-1.54,1.37-.37,2.98-.55,4.84-.55s3.48.21,4.85.62Z" style="fill:#fff;"/><path d="M374.63,357.2c-1.23-.88-3-1.32-5.3-1.32s-4.15.44-5.38,1.33c-1.23.89-1.84,2.35-1.84,4.39s.61,3.44,1.84,4.31c1.23.86,3.02,1.29,5.38,1.29,1.16,0,2.19-.1,3.07-.31.89-.21,1.63-.53,2.24-.98s1.06-1.02,1.37-1.73c.31-.71.46-1.56.46-2.58,0-2.06-.61-3.53-1.84-4.4ZM374.39,353.18c1.42.41,2.59,1,3.51,1.77.92.77,1.6,1.72,2.04,2.84.44,1.12.66,2.39.66,3.82,0,2.87-.9,5.07-2.7,6.61-1.8,1.53-4.66,2.3-8.58,2.3s-6.7-.77-8.55-2.31-2.78-3.74-2.78-6.59c0-1.41.23-2.67.68-3.79.46-1.12,1.15-2.07,2.09-2.85.94-.78,2.12-1.37,3.54-1.78,1.42-.41,3.09-.61,5.02-.61s3.65.2,5.07.61Z" style="fill:#fff;"/><polygon points="321.76 370.26 321.76 352.82 325.64 352.82 325.64 365.04 333.18 352.82 336.52 352.82 343.99 364.99 343.99 352.82 347.87 352.82 347.87 370.26 342.57 370.26 334.83 357.65 327.08 370.26 321.76 370.26" style="fill:#fff;"/><path d="M307.5,360.81h-8.07c-.48,0-.98.02-1.49.05-.51.03-.98.14-1.39.34-.41.19-.76.49-1.02.88-.27.4-.4.97-.4,1.72s.13,1.29.4,1.69c.27.4.61.69,1.02.88.42.19.88.31,1.39.35.51.04,1.01.06,1.49.06h8.07v-5.97ZM311.38,352.82v17.44h-13.2c-.76,0-1.55-.11-2.37-.32-.81-.22-1.56-.57-2.24-1.07-.68-.5-1.24-1.16-1.68-1.99-.44-.83-.66-1.86-.66-3.09s.21-2.21.64-3.04c.42-.83.97-1.5,1.64-2,.67-.51,1.42-.87,2.24-1.1.82-.22,1.63-.34,2.43-.34h9.31v-4.5h3.88Z" style="fill:#fff;"/><path d="M275.41,357.2c-1.23-.88-3-1.32-5.3-1.32s-4.15.44-5.38,1.33c-1.23.89-1.84,2.35-1.84,4.39s.61,3.44,1.84,4.31c1.23.86,3.02,1.29,5.38,1.29,1.16,0,2.19-.1,3.07-.31.89-.21,1.63-.53,2.24-.98s1.06-1.02,1.37-1.73c.31-.71.46-1.56.46-2.58,0-2.06-.61-3.53-1.84-4.4ZM275.18,353.18c1.42.41,2.59,1,3.51,1.77.92.77,1.6,1.72,2.04,2.84.44,1.12.66,2.39.66,3.82,0,2.87-.9,5.07-2.7,6.61-1.8,1.53-4.66,2.3-8.58,2.3s-6.7-.77-8.55-2.31-2.78-3.74-2.78-6.59c0-1.41.23-2.67.68-3.79.46-1.12,1.15-2.07,2.09-2.85.94-.78,2.12-1.37,3.54-1.78,1.42-.41,3.09-.61,5.02-.61s3.65.2,5.07.61Z" style="fill:#fff;"/><polygon points="248.64 352.82 248.64 370.26 243.24 370.26 230.15 357.1 230.15 370.26 226.26 370.26 226.26 352.82 231.61 352.82 244.76 366.06 244.76 352.82 248.64 352.82" style="fill:#fff;"/><polygon points="215.45 370.4 196.81 370.07 196.87 366.68 211.63 366.95 211.7 363.27 197.81 363.02 197.87 359.71 211.76 359.96 211.82 356.28 197.06 356.01 197.12 352.63 215.77 352.96 215.45 370.4" style="fill:#fff;"/><polygon points="187.66 351.68 183.8 368.7 178.53 367.5 168.68 351.76 165.76 364.6 161.97 363.74 165.83 346.73 171.05 347.91 180.94 363.73 183.87 350.82 187.66 351.68" style="fill:#fff;"/><polygon points="151.25 356.22 149.7 359.5 129.77 350.11 131.32 346.83 139.52 350.69 145.4 338.19 148.92 339.85 143.03 352.34 151.25 356.22" style="fill:#fff;"/><path d="M116.39,323.81c-.69-.43-1.29-.74-1.79-.92-.5-.18-.91-.24-1.24-.17-.33.06-.6.23-.81.51-.23.3-.35.61-.34.91,0,.3.16.67.49,1.09.33.42.83.94,1.5,1.56.68.62,1.57,1.39,2.68,2.31,1.46,1.21,2.66,2.3,3.59,3.28.94.98,1.62,1.89,2.04,2.73.43.84.6,1.64.51,2.4-.08.76-.42,1.53-1.01,2.31-.58.77-1.25,1.26-2.02,1.49-.76.22-1.62.22-2.57,0-.95-.23-1.98-.67-3.11-1.32-1.12-.65-2.32-1.46-3.61-2.43-1.31-.99-2.42-1.97-3.33-2.92-.91-.96-1.58-1.9-2.02-2.84-.44-.93-.62-1.85-.54-2.75.08-.9.45-1.79,1.11-2.66l3.42,2.58c-.32.42-.48.85-.47,1.27s.17.87.48,1.36c.32.49.79,1.02,1.43,1.6.64.58,1.43,1.22,2.38,1.94.9.68,1.67,1.22,2.29,1.61.63.39,1.16.67,1.6.82.44.15.79.19,1.07.11.28-.08.52-.25.72-.52.21-.28.31-.56.3-.85-.01-.29-.16-.63-.46-1.04-.3-.4-.75-.89-1.37-1.45-.61-.57-1.41-1.27-2.39-2.12-1.32-1.12-2.48-2.15-3.49-3.08-1.01-.93-1.8-1.83-2.35-2.69-.56-.86-.85-1.7-.87-2.52-.02-.82.29-1.67.95-2.54.7-.93,1.48-1.52,2.34-1.77.86-.25,1.79-.26,2.8,0,1.01.25,2.08.72,3.22,1.4,1.14.68,2.34,1.51,3.61,2.47,1.43,1.08,2.65,2.12,3.67,3.12,1.02,1,1.77,1.98,2.28,2.95.5.97.71,1.95.64,2.92-.08.97-.5,1.96-1.27,2.98l-3.43-2.6c.31-.41.49-.83.53-1.25.04-.43-.09-.9-.4-1.43-.31-.53-.81-1.12-1.49-1.78-.68-.66-1.61-1.44-2.77-2.32-.95-.72-1.78-1.3-2.47-1.73Z" style="fill:#fff;"/><polygon points="78.16 304.87 67.95 289.5 70.92 287.53 78.97 299.66 82.79 297.13 75.68 286.43 78.58 284.5 85.69 295.2 90.54 291.98 92.69 295.22 78.16 304.87" style="fill:#fff;"/><path d="M72.06,268.64c.35-1.47.09-3.27-.78-5.41-.89-2.18-1.98-3.67-3.26-4.48-1.29-.8-2.87-.82-4.76-.05-1.86.76-2.96,1.87-3.29,3.33-.33,1.46-.06,3.29.83,5.47.44,1.08.92,1.99,1.45,2.73.53.74,1.11,1.31,1.76,1.7.64.39,1.35.6,2.12.62.77.02,1.62-.16,2.56-.55,1.91-.78,3.03-1.9,3.38-3.37ZM75.69,266.9c.16,1.47.06,2.77-.31,3.92-.37,1.14-.99,2.13-1.86,2.96-.87.83-1.97,1.51-3.29,2.05-2.66,1.08-5.04,1.08-7.14,0-2.1-1.09-3.89-3.45-5.37-7.07-1.45-3.57-1.82-6.5-1.09-8.79.73-2.3,2.42-3.98,5.06-5.06,1.31-.53,2.56-.8,3.77-.8s2.35.29,3.43.86c1.08.57,2.07,1.44,2.98,2.6.91,1.16,1.73,2.63,2.46,4.42.74,1.81,1.19,3.45,1.35,4.92Z" style="fill:#fff;"/><path d="M52.95,241.21l5.88-1.04-1.43-8.09c-.08-.44-.18-.9-.29-1.38-.12-.48-.31-.9-.56-1.27-.26-.37-.61-.65-1.05-.84-.44-.19-1.03-.22-1.76-.09-.72.13-1.25.36-1.6.69-.35.33-.58.71-.69,1.15-.12.43-.15.9-.11,1.38s.11.95.18,1.4l1.43,8.09ZM63.88,222.87l.81,4.61-3.95,3.51,1.52,8.58,4.44-.78.68,3.82-17.18,3.04-2.3-12.99c-.13-.75-.16-1.55-.09-2.39.07-.84.29-1.64.66-2.39s.93-1.42,1.67-2c.74-.58,1.71-.97,2.92-1.19.75-.13,1.45-.16,2.08-.09.64.07,1.22.23,1.74.46s.98.53,1.38.89c.4.36.76.76,1.07,1.19l4.55-4.27Z" style="fill:#fff;"/><path d="M50.43,187.28l5.9.94,1.3-8.11c.07-.44.13-.91.17-1.4.04-.49,0-.95-.12-1.38-.12-.43-.36-.81-.71-1.13s-.9-.55-1.63-.67c-.72-.12-1.3-.07-1.73.12-.44.2-.78.49-1.03.86-.25.37-.44.8-.56,1.27-.12.48-.21.94-.28,1.38l-1.3,8.11ZM66.77,173.53l-.74,4.62-4.88,2.02-1.38,8.6,4.45.71-.61,3.83-17.22-2.76,2.09-13.03c.12-.75.35-1.52.69-2.28.34-.77.81-1.45,1.41-2.04.6-.59,1.34-1.04,2.23-1.34.89-.3,1.94-.36,3.15-.16.75.12,1.42.32,2,.6.58.28,1.07.61,1.49,1.01.42.39.75.83,1.01,1.3.26.47.47.96.62,1.47l5.7-2.54Z" style="fill:#fff;"/><polygon points="52.98 158 59.52 140.53 62.69 141.72 57.51 155.55 60.96 156.84 65.83 143.83 68.93 144.99 64.06 158 67.51 159.29 72.69 145.47 75.86 146.65 69.32 164.11 52.98 158" style="fill:#fff;"/><polygon points="79.45 106.55 94.07 116.08 91.95 119.33 81.71 112.66 87.83 125.65 86 128.45 71.73 128.06 81.93 134.7 79.81 137.96 65.19 128.43 68.09 123.99 82.88 124.39 76.54 111.01 79.45 106.55" style="fill:#fff;"/><rect x="93.78" y="92.89" width="3.88" height="17.44" transform="translate(-43.87 102.86) rotate(-47.22)" style="fill:#fff;"/><polygon points="109.93 98.97 112.35 86.04 99.28 85.15 103.69 81.73 113.1 82.29 114.91 73.04 119.32 69.63 116.9 82.56 129.98 83.44 125.57 86.85 116.17 86.3 114.33 95.55 109.93 98.97" style="fill:#fff;"/><rect x="153.38" y="56.21" width="29.88" height="3.63" transform="translate(-9.36 46.61) rotate(-15.34)" style="fill:#fff;"/><path d="M220.91,60.42c-1.39-.38-2.53-.95-3.42-1.71-.9-.75-1.56-1.7-1.99-2.82s-.65-2.45-.65-3.96v-8.63h4.01v8.63c0,.71.1,1.41.29,2.09.19.68.54,1.29,1.06,1.83.51.54,1.23.97,2.14,1.29.91.32,2.09.49,3.54.49s2.68-.17,3.6-.5c.92-.33,1.64-.76,2.17-1.29.52-.53.88-1.14,1.06-1.82.18-.68.27-1.38.27-2.09v-8.63h4.01v8.63c0,3-.91,5.26-2.73,6.78-1.82,1.52-4.61,2.28-8.38,2.28-1.93,0-3.58-.19-4.97-.57Z" style="fill:#fff;"/><rect x="247.46" y="43.3" width="3.88" height="17.44" style="fill:#fff;"/><path d="M287.97,60.37c-1.38-.42-2.52-1.01-3.44-1.78-.91-.77-1.59-1.71-2.04-2.81-.45-1.1-.67-2.35-.67-3.75,0-2.87.9-5.08,2.71-6.64s4.57-2.34,8.29-2.34c1.86,0,3.47.18,4.84.54,1.37.36,2.51.87,3.41,1.53.9.66,1.6,1.47,2.08,2.41.48.95.76,2,.85,3.16h-4.11c-.08-.58-.27-1.12-.57-1.63s-.73-.95-1.29-1.32c-.56-.37-1.26-.67-2.08-.9s-1.8-.34-2.93-.34c-2.46,0-4.27.44-5.45,1.33-1.18.89-1.77,2.29-1.77,4.19s.61,3.3,1.83,4.18c1.22.88,3.02,1.32,5.39,1.32,1.13,0,2.1-.1,2.93-.31.82-.21,1.51-.49,2.07-.85s.99-.78,1.29-1.28c.31-.5.5-1.03.59-1.59h4.13c-.1,1.09-.39,2.1-.87,3.02s-1.17,1.71-2.08,2.38c-.91.66-2.04,1.18-3.41,1.54-1.37.37-2.98.55-4.84.55s-3.48-.21-4.85-.62Z" style="fill:#fff;"/><path d="M319.85,56.36c1.23.88,3,1.32,5.3,1.32s4.15-.44,5.38-1.33c1.23-.89,1.84-2.35,1.84-4.39s-.61-3.44-1.84-4.31c-1.23-.86-3.02-1.29-5.38-1.29-1.16,0-2.19.1-3.07.31-.89.21-1.63.53-2.24.98s-1.06,1.02-1.37,1.73c-.31.71-.46,1.56-.46,2.58,0,2.06.61,3.53,1.84,4.4ZM320.09,60.38c-1.42-.41-2.59-1-3.51-1.77-.92-.77-1.6-1.72-2.04-2.84-.44-1.12-.66-2.39-.66-3.82,0-2.87.9-5.07,2.7-6.61,1.8-1.53,4.66-2.3,8.58-2.3s6.7.77,8.55,2.31,2.78,3.74,2.78,6.59c0,1.41-.23,2.67-.68,3.79-.46,1.12-1.15,2.07-2.09,2.85-.94.78-2.12,1.37-3.54,1.78-1.42.41-3.09.61-5.02.61s-3.65-.2-5.07-.61Z" style="fill:#fff;"/><polygon points="372.75 43.3 372.75 60.74 368.87 60.74 368.87 48.52 361.33 60.74 357.99 60.74 350.52 48.57 350.52 60.74 346.64 60.74 346.64 43.3 351.94 43.3 359.68 55.91 367.43 43.3 372.75 43.3" style="fill:#fff;"/><path d="M387,52.75h8.07c.48,0,.98-.02,1.49-.05.51-.03.98-.14,1.39-.34.41-.19.76-.49,1.02-.88.27-.4.4-.97.4-1.72s-.13-1.29-.4-1.69c-.27-.4-.61-.69-1.02-.88-.42-.19-.88-.31-1.39-.35-.51-.04-1.01-.06-1.49-.06h-8.07v5.97ZM383.12,60.74v-17.44h13.2c.76,0,1.55.11,2.37.32.81.22,1.56.57,2.24,1.07.68.5,1.24,1.16,1.68,1.99.44.83.66,1.86.66,3.09s-.21,2.21-.64,3.04c-.42.83-.97,1.5-1.64,2-.67.51-1.42.87-2.24,1.1-.82.22-1.63.34-2.43.34h-9.31v4.5h-3.88Z" style="fill:#fff;"/><path d="M419.1,56.36c1.23.88,3,1.32,5.3,1.32s4.15-.44,5.38-1.33c1.23-.89,1.84-2.35,1.84-4.39s-.61-3.44-1.84-4.31c-1.23-.86-3.02-1.29-5.38-1.29-1.16,0-2.19.1-3.07.31-.89.21-1.63.53-2.24.98s-1.06,1.02-1.37,1.73c-.31.71-.46,1.56-.46,2.58,0,2.06.61,3.53,1.84,4.4ZM419.33,60.38c-1.42-.41-2.59-1-3.51-1.77-.92-.77-1.6-1.72-2.04-2.84-.44-1.12-.66-2.39-.66-3.82,0-2.87.9-5.07,2.7-6.61,1.8-1.53,4.66-2.3,8.58-2.3s6.7.77,8.55,2.31,2.78,3.74,2.78,6.59c0,1.41-.23,2.67-.68,3.79-.46,1.12-1.15,2.07-2.09,2.85-.94.78-2.12,1.37-3.54,1.78-1.42.41-3.09.61-5.02.61s-3.65-.2-5.07-.61Z" style="fill:#fff;"/><polygon points="445.85 60.74 445.85 43.3 451.25 43.3 464.35 56.46 464.35 43.3 468.23 43.3 468.23 60.74 462.88 60.74 449.73 47.5 449.73 60.74 445.85 60.74" style="fill:#fff;"/><polygon points="478.79 43.3 497.44 43.3 497.44 46.68 482.68 46.68 482.68 50.37 496.57 50.37 496.57 53.68 482.68 53.68 482.68 57.36 497.44 57.36 497.44 60.74 478.79 60.74 478.79 43.3" style="fill:#fff;"/><polygon points="507.74 60.74 507.74 43.3 513.15 43.3 526.24 56.46 526.24 43.3 530.13 43.3 530.13 60.74 524.77 60.74 511.63 47.5 511.63 60.74 507.74 60.74" style="fill:#fff;"/><polygon points="540.2 46.93 540.2 43.3 562.23 43.3 562.23 46.93 553.17 46.93 553.17 60.74 549.29 60.74 549.29 46.93 540.2 46.93" style="fill:#fff;"/><path d="M586.02,57.45c.81-.08,1.47-.19,1.98-.35.51-.16.87-.36,1.1-.61.22-.25.34-.55.34-.9,0-.38-.09-.69-.27-.93-.18-.24-.53-.43-1.05-.57-.51-.14-1.23-.25-2.14-.34-.91-.08-2.09-.16-3.54-.22-1.89-.08-3.51-.23-4.84-.45-1.34-.21-2.43-.53-3.27-.95-.85-.41-1.46-.95-1.85-1.61-.39-.66-.58-1.47-.58-2.45s.24-1.76.71-2.4c.47-.64,1.16-1.15,2.05-1.54.9-.39,1.99-.66,3.27-.82,1.29-.16,2.73-.24,4.34-.24s3.12.11,4.42.32c1.3.22,2.41.56,3.32,1.04.91.48,1.61,1.1,2.09,1.87.48.76.72,1.69.72,2.79h-4.28c0-.53-.13-.96-.39-1.29-.26-.33-.66-.6-1.21-.8-.55-.2-1.25-.34-2.1-.41-.85-.07-1.88-.11-3.07-.11-1.13,0-2.06.03-2.8.1-.74.07-1.33.17-1.77.31-.44.14-.75.33-.92.56-.17.23-.26.51-.26.85s.09.63.27.86c.18.22.51.41,1,.55.48.14,1.14.25,1.97.34.83.08,1.89.17,3.19.25,1.73.1,3.27.22,4.64.35,1.37.13,2.54.37,3.5.72.96.35,1.7.84,2.22,1.48.51.64.77,1.51.77,2.6,0,1.16-.27,2.1-.8,2.82-.53.72-1.27,1.29-2.23,1.69-.96.41-2.09.68-3.41.82-1.32.14-2.78.21-4.37.21-1.79,0-3.39-.09-4.81-.27-1.41-.18-2.61-.51-3.6-.98s-1.74-1.12-2.27-1.94c-.52-.82-.78-1.87-.78-3.15h4.31c0,.51.11.95.34,1.32.22.37.62.66,1.18.9.56.23,1.32.41,2.27.52.95.12,2.15.17,3.61.17,1.19,0,2.2-.04,3.01-.11Z" style="fill:#fff;"/><polygon points="624.01 43.3 642.45 43.3 642.45 46.86 627.89 46.86 627.89 51.43 640.74 51.43 640.74 54.92 627.89 54.92 627.89 60.74 624.01 60.74 624.01 43.3" style="fill:#fff;"/><path d="M657.63,56.36c1.23.88,3,1.32,5.3,1.32s4.15-.44,5.38-1.33c1.23-.89,1.84-2.35,1.84-4.39s-.61-3.44-1.84-4.31c-1.23-.86-3.02-1.29-5.38-1.29-1.16,0-2.19.1-3.07.31-.89.21-1.63.53-2.24.98s-1.06,1.02-1.37,1.73c-.31.71-.46,1.56-.46,2.58,0,2.06.61,3.53,1.84,4.4ZM657.86,60.38c-1.42-.41-2.59-1-3.51-1.77-.92-.77-1.6-1.72-2.04-2.84-.44-1.12-.66-2.39-.66-3.82,0-2.87.9-5.07,2.7-6.61,1.8-1.53,4.66-2.3,8.58-2.3s6.7.77,8.55,2.31,2.78,3.74,2.78,6.59c0,1.41-.23,2.67-.68,3.79-.46,1.12-1.15,2.07-2.09,2.85-.94.78-2.12,1.37-3.54,1.78-1.42.41-3.09.61-5.02.61s-3.65-.2-5.07-.61Z" style="fill:#fff;"/><path d="M688.28,46.78v5.97h8.22c.45,0,.92-.02,1.41-.05s.94-.14,1.34-.34c.41-.19.74-.49,1.01-.88.27-.4.4-.97.4-1.72s-.13-1.29-.4-1.69c-.27-.4-.6-.69-1.01-.88-.41-.19-.85-.31-1.34-.35s-.96-.06-1.41-.06h-8.22ZM704.44,60.74h-4.68l-2.76-4.5h-8.71v4.5h-3.88v-17.44h13.2c.76,0,1.55.11,2.37.32.81.22,1.56.57,2.24,1.07.68.5,1.24,1.16,1.68,1.99.44.83.66,1.86.66,3.09,0,.76-.09,1.45-.27,2.07-.18.61-.44,1.16-.76,1.63-.32.47-.7.88-1.12,1.21-.42.33-.88.61-1.36.85l3.41,5.23Z" style="fill:#fff;"/><path d="M739.24,46.78v5.97h8.22c.45,0,.92-.02,1.41-.05s.94-.14,1.34-.34c.41-.19.74-.49,1.01-.88.27-.4.4-.97.4-1.72s-.13-1.29-.4-1.69c-.27-.4-.6-.69-1.01-.88-.41-.19-.85-.31-1.34-.35s-.96-.06-1.41-.06h-8.22ZM755.4,60.74h-4.68l-2.76-4.5h-8.71v4.5h-3.88v-17.44h13.2c.76,0,1.55.11,2.37.32.81.22,1.56.57,2.24,1.07.68.5,1.24,1.16,1.68,1.99.44.83.66,1.86.66,3.09,0,.76-.09,1.45-.27,2.07-.18.61-.44,1.16-.76,1.63-.32.47-.7.88-1.12,1.21-.42.33-.88.61-1.36.85l3.41,5.23Z" style="fill:#fff;"/><polygon points="765.94 43.3 784.59 43.3 784.59 46.68 769.83 46.68 769.83 50.37 783.72 50.37 783.72 53.68 769.83 53.68 769.83 57.36 784.59 57.36 784.59 60.74 765.94 60.74 765.94 43.3" style="fill:#fff;"/><polygon points="821.13 43.3 821.13 60.74 817.24 60.74 817.24 48.52 809.7 60.74 806.36 60.74 798.89 48.57 798.89 60.74 795.01 60.74 795.01 43.3 800.31 43.3 808.06 55.91 815.8 43.3 821.13 43.3" style="fill:#fff;"/><rect x="831.55" y="43.3" width="3.88" height="17.44" style="fill:#fff;"/><polygon points="845.73 60.74 855.56 52.01 845.78 43.3 851.35 43.3 858.45 49.49 865.54 43.3 871.12 43.3 861.29 52.03 871.1 60.74 865.52 60.74 858.42 54.55 851.3 60.74 845.73 60.74" style="fill:#fff;"/><rect x="901.98" y="50.74" width="29.88" height="3.63" style="fill:#fff;"/><path d="M968.95,60.42c-1.39-.38-2.53-.95-3.42-1.71-.9-.75-1.56-1.7-1.99-2.82s-.65-2.45-.65-3.96v-8.63h4.01v8.63c0,.71.1,1.41.29,2.09.19.68.54,1.29,1.06,1.83.51.54,1.23.97,2.14,1.29.91.32,2.09.49,3.54.49s2.68-.17,3.6-.5c.92-.33,1.64-.76,2.17-1.29.52-.53.88-1.14,1.06-1.82.18-.68.27-1.38.27-2.09v-8.63h4.01v8.63c0,3-.91,5.26-2.73,6.78-1.82,1.52-4.61,2.28-8.38,2.28-1.93,0-3.58-.19-4.97-.57Z" style="fill:#fff;"/><rect x="995.48" y="43.3" width="3.88" height="17.44" style="fill:#fff;"/><path d="M1036.01,60.37c-1.38-.42-2.52-1.01-3.44-1.78-.91-.77-1.59-1.71-2.04-2.81-.45-1.1-.67-2.35-.67-3.75,0-2.87.9-5.08,2.71-6.64s4.57-2.34,8.29-2.34c1.86,0,3.47.18,4.84.54,1.37.36,2.51.87,3.41,1.53.9.66,1.6,1.47,2.08,2.41.48.95.76,2,.85,3.16h-4.11c-.08-.58-.27-1.12-.57-1.63s-.73-.95-1.29-1.32c-.56-.37-1.26-.67-2.08-.9s-1.8-.34-2.93-.34c-2.46,0-4.27.44-5.45,1.33-1.18.89-1.77,2.29-1.77,4.19s.61,3.3,1.83,4.18c1.22.88,3.02,1.32,5.39,1.32,1.13,0,2.1-.1,2.93-.31.82-.21,1.51-.49,2.07-.85s.99-.78,1.29-1.28c.31-.5.5-1.03.59-1.59h4.13c-.1,1.09-.39,2.1-.87,3.02s-1.17,1.71-2.08,2.38c-.91.66-2.04,1.18-3.41,1.54-1.37.37-2.98.55-4.84.55s-3.48-.21-4.85-.62Z" style="fill:#fff;"/><path d="M1067.88,56.36c1.23.88,3,1.32,5.3,1.32s4.15-.44,5.38-1.33c1.23-.89,1.84-2.35,1.84-4.39s-.61-3.44-1.84-4.31c-1.23-.86-3.02-1.29-5.38-1.29-1.16,0-2.19.1-3.07.31-.89.21-1.63.53-2.24.98s-1.06,1.02-1.37,1.73c-.31.71-.46,1.56-.46,2.58,0,2.06.61,3.53,1.84,4.4ZM1068.12,60.38c-1.42-.41-2.59-1-3.51-1.77-.92-.77-1.6-1.72-2.04-2.84-.44-1.12-.66-2.39-.66-3.82,0-2.87.9-5.07,2.7-6.61,1.8-1.53,4.66-2.3,8.58-2.3s6.7.77,8.55,2.31,2.78,3.74,2.78,6.59c0,1.41-.23,2.67-.68,3.79-.46,1.12-1.15,2.07-2.09,2.85-.94.78-2.12,1.37-3.54,1.78-1.42.41-3.09.61-5.02.61s-3.65-.2-5.07-.61Z" style="fill:#fff;"/><polygon points="1120.77 43.3 1120.77 60.74 1116.88 60.74 1116.88 48.52 1109.34 60.74 1106 60.74 1098.53 48.57 1098.53 60.74 1094.65 60.74 1094.65 43.3 1099.95 43.3 1107.69 55.91 1115.44 43.3 1120.77 43.3" style="fill:#fff;"/><path d="M1135.02,52.75h8.07c.48,0,.98-.02,1.49-.05.51-.03.98-.14,1.39-.34.41-.19.76-.49,1.02-.88.27-.4.4-.97.4-1.72s-.13-1.29-.4-1.69c-.27-.4-.61-.69-1.02-.88-.42-.19-.88-.31-1.39-.35-.51-.04-1.01-.06-1.49-.06h-8.07v5.97ZM1131.13,60.74v-17.44h13.2c.76,0,1.55.11,2.37.32.81.22,1.56.57,2.24,1.07.68.5,1.24,1.16,1.68,1.99.44.83.66,1.86.66,3.09s-.21,2.21-.64,3.04c-.42.83-.97,1.5-1.64,2-.67.51-1.42.87-2.24,1.1-.82.22-1.63.34-2.43.34h-9.31v4.5h-3.88Z" style="fill:#fff;"/><path d="M1167.1,56.36c1.23.88,3,1.32,5.3,1.32s4.15-.44,5.38-1.33c1.23-.89,1.84-2.35,1.84-4.39s-.61-3.44-1.84-4.31c-1.23-.86-3.02-1.29-5.38-1.29-1.16,0-2.19.1-3.07.31-.89.21-1.63.53-2.24.98s-1.06,1.02-1.37,1.73c-.31.71-.46,1.56-.46,2.58,0,2.06.61,3.53,1.84,4.4ZM1167.33,60.38c-1.42-.41-2.59-1-3.51-1.77-.92-.77-1.6-1.72-2.04-2.84-.44-1.12-.66-2.39-.66-3.82,0-2.87.9-5.07,2.7-6.61,1.8-1.53,4.66-2.3,8.58-2.3s6.7.77,8.55,2.31,2.78,3.74,2.78,6.59c0,1.41-.23,2.67-.68,3.79-.46,1.12-1.15,2.07-2.09,2.85-.94.78-2.12,1.37-3.54,1.78-1.42.41-3.09.61-5.02.61s-3.65-.2-5.07-.61Z" style="fill:#fff;"/><polygon points="1193.88 60.74 1193.88 43.3 1199.28 43.3 1212.38 56.46 1212.38 43.3 1216.26 43.3 1216.26 60.74 1210.91 60.74 1197.76 47.5 1197.76 60.74 1193.88 60.74" style="fill:#fff;"/><polygon points="1227.44 43.04 1246.07 43.93 1245.91 47.3 1231.16 46.61 1230.99 50.29 1244.86 50.94 1244.71 54.25 1230.83 53.59 1230.66 57.27 1245.4 57.97 1245.24 61.35 1226.62 60.47 1227.44 43.04" style="fill:#fff;"/><polygon points="1254.66 62.57 1259.03 45.68 1264.26 47.04 1273.64 63.06 1276.94 50.31 1280.7 51.29 1276.33 68.18 1271.15 66.84 1261.73 50.73 1258.42 63.55 1254.66 62.57" style="fill:#fff;"/><polygon points="1291.21 59.13 1292.85 55.89 1312.49 65.88 1310.85 69.11 1302.77 65.01 1296.51 77.32 1293.05 75.56 1299.31 63.25 1291.21 59.13" style="fill:#fff;"/><path d="M1325.08,92.56c.68.45,1.27.78,1.76.97.49.19.91.26,1.24.21s.6-.22.82-.49c.24-.3.36-.6.37-.9s-.14-.67-.46-1.1c-.31-.43-.8-.97-1.46-1.6-.66-.64-1.53-1.43-2.61-2.39-1.42-1.25-2.59-2.38-3.49-3.38-.91-1-1.56-1.93-1.96-2.79s-.55-1.66-.44-2.41c.11-.75.47-1.51,1.08-2.28.6-.75,1.29-1.22,2.06-1.43.77-.2,1.62-.17,2.57.08s1.96.73,3.07,1.41c1.1.68,2.28,1.53,3.53,2.54,1.28,1.03,2.36,2.04,3.24,3.02.88.98,1.52,1.95,1.94,2.9.41.95.56,1.87.46,2.76s-.5,1.77-1.18,2.62l-3.34-2.68c.33-.41.5-.83.51-1.25,0-.42-.14-.88-.44-1.38s-.76-1.04-1.38-1.64c-.62-.59-1.39-1.26-2.33-2.01-.88-.71-1.63-1.27-2.25-1.68-.62-.41-1.14-.7-1.57-.87-.43-.17-.79-.21-1.07-.14-.28.07-.53.24-.73.5-.22.27-.33.55-.32.84s.15.64.43,1.05c.29.41.73.91,1.32,1.49.59.58,1.37,1.32,2.33,2.19,1.28,1.16,2.42,2.22,3.4,3.18.98.96,1.74,1.88,2.27,2.75.53.87.8,1.72.8,2.54,0,.82-.34,1.66-1.03,2.51-.73.9-1.52,1.47-2.39,1.7s-1.8.2-2.8-.08c-1-.28-2.06-.78-3.17-1.5-1.12-.72-2.3-1.57-3.54-2.57-1.4-1.12-2.59-2.2-3.57-3.22-.99-1.03-1.71-2.03-2.19-3.02-.47-.99-.66-1.96-.55-2.93.11-.97.56-1.95,1.36-2.94l3.36,2.7c-.32.4-.51.81-.56,1.24-.05.42.07.9.36,1.44.29.54.77,1.14,1.44,1.83.66.68,1.57,1.48,2.7,2.4.93.75,1.74,1.35,2.42,1.8Z" style="fill:#fff;"/><polygon points="1362.75 112.63 1372.49 128.29 1369.47 130.17 1361.77 117.81 1357.89 120.22 1364.67 131.13 1361.71 132.97 1354.93 122.06 1349.98 125.14 1347.93 121.84 1362.75 112.63" style="fill:#fff;"/><path d="M1367.76,149.03c-.4,1.46-.19,3.27.62,5.43.82,2.21,1.87,3.73,3.13,4.57,1.26.84,2.85.9,4.76.19,1.88-.7,3.01-1.78,3.39-3.23.38-1.45.16-3.28-.67-5.49-.41-1.09-.86-2.01-1.37-2.77-.51-.76-1.07-1.34-1.7-1.76s-1.33-.64-2.1-.68-1.63.12-2.57.47c-1.93.72-3.09,1.81-3.48,3.27ZM1364.08,150.65c-.12-1.47.03-2.77.43-3.91.4-1.13,1.05-2.1,1.94-2.9s2.01-1.46,3.35-1.95c2.69-1,5.07-.93,7.13.22,2.07,1.15,3.79,3.56,5.16,7.23,1.35,3.61,1.62,6.55.82,8.82-.8,2.27-2.53,3.91-5.21,4.91-1.32.49-2.59.72-3.79.69-1.21-.04-2.34-.36-3.4-.96-1.06-.61-2.03-1.5-2.9-2.69s-1.65-2.68-2.33-4.49c-.68-1.83-1.08-3.49-1.2-4.96Z" style="fill:#fff;"/><path d="M1386.04,176.99l-5.91.86,1.19,8.13c.06.44.15.9.25,1.38s.28.91.53,1.28c.25.37.59.66,1.02.87.43.21,1.02.25,1.76.15.72-.11,1.26-.32,1.62-.64s.6-.7.73-1.13c.13-.43.18-.89.15-1.38s-.08-.96-.14-1.4l-1.19-8.13ZM1374.56,195l-.68-4.63,4.06-3.39-1.26-8.62-4.46.65-.56-3.84,17.26-2.53,1.91,13.06c.11.76.12,1.55.02,2.39-.1.83-.34,1.63-.73,2.37-.39.75-.97,1.4-1.73,1.95-.76.56-1.74.92-2.96,1.1-.76.11-1.45.12-2.08.03-.63-.09-1.21-.26-1.72-.51s-.97-.56-1.36-.93c-.39-.37-.73-.78-1.03-1.22l-4.68,4.13Z" style="fill:#fff;"/><path d="M1386.98,230.97l-5.87-1.12-1.54,8.07c-.08.44-.16.9-.21,1.39-.06.49-.03.95.08,1.38.11.43.34.82.68,1.16.34.34.88.57,1.61.71.72.14,1.3.11,1.74-.07.44-.19.79-.46,1.06-.83.26-.36.46-.78.59-1.25.13-.47.24-.93.32-1.37l1.54-8.07ZM1370.24,244.22l.88-4.6,4.94-1.87,1.63-8.56-4.42-.84.73-3.82,17.14,3.27-2.47,12.96c-.14.75-.4,1.5-.76,2.26-.36.76-.85,1.42-1.47,2-.62.57-1.37,1-2.27,1.28-.9.28-1.95.3-3.15.07-.75-.14-1.41-.36-1.98-.66-.57-.29-1.05-.64-1.46-1.05s-.73-.85-.98-1.33c-.25-.48-.44-.97-.58-1.49l-5.77,2.37Z" style="fill:#fff;"/><polygon points="1383.55 260.19 1376.49 277.45 1373.36 276.17 1378.95 262.51 1375.54 261.11 1370.28 273.97 1367.22 272.72 1372.48 259.86 1369.07 258.46 1363.48 272.13 1360.34 270.85 1367.4 253.59 1383.55 260.19" style="fill:#fff;"/><polygon points="1355.56 310.82 1341.24 300.86 1343.45 297.67 1353.49 304.64 1347.76 291.48 1349.66 288.74 1363.92 289.55 1353.92 282.6 1356.14 279.42 1370.47 289.37 1367.44 293.72 1352.66 292.88 1358.6 306.44 1355.56 310.82" style="fill:#fff;"/><rect x="1337.21" y="306.56" width="3.88" height="17.44" transform="translate(176.03 1050.05) rotate(-45.53)" style="fill:#fff;"/><polygon points="1324.87 317.51 1322.06 330.36 1335.09 331.64 1330.58 334.92 1321.2 334.09 1319.11 343.27 1314.6 346.56 1317.41 333.71 1304.36 332.44 1308.86 329.16 1318.25 329.99 1320.36 320.79 1324.87 317.51" style="fill:#fff;"/><rect x="1250.35" y="354.86" width="29.88" height="3.63" transform="translate(-48.41 308.12) rotate(-13.63)" style="fill:#fff;"/><path d="M1231.63,15.56c105.42,0,190.89,85.46,190.89,190.89v.67c0,105.42-85.46,190.89-190.89,190.89H206.44c-105.42,0-190.89-85.46-190.89-190.89v-.67C15.56,101.02,101.02,15.56,206.44,15.56h1025.19M1231.63,0H206.44c-27.86,0-54.9,5.46-80.36,16.23-24.58,10.4-46.66,25.28-65.62,44.24-18.95,18.95-33.84,41.03-44.24,65.62C5.46,151.54,0,178.58,0,206.44v.67c0,27.86,5.46,54.9,16.23,80.36,10.4,24.58,25.28,46.66,44.24,65.62s41.03,33.84,65.62,44.24c25.46,10.77,52.5,16.23,80.36,16.23h1025.19c27.86,0,54.9-5.46,80.36-16.23,24.59-10.4,46.66-25.28,65.62-44.24,18.95-18.95,33.84-41.03,44.24-65.62,10.77-25.46,16.23-52.5,16.23-80.36v-.67c0-27.86-5.46-54.9-16.23-80.36-10.4-24.59-25.28-46.66-44.24-65.62-18.95-18.95-41.03-33.84-65.62-44.24-25.46-10.77-52.5-16.23-80.36-16.23Z" style="fill:#efefed;"/></g></svg>