<?xml version="1.0" encoding="UTF-8"?><svg id="Layer_2" xmlns="http://www.w3.org/2000/svg" viewBox="0 0 796.98 287.53"><g id="Layer_1-2"><path d="M91.68,127.06h27.64c-2.64,13.82,4.66,20.96,20.18,20.96,10.09,0,20.18-2.95,20.18-11.96,0-5.28-3.41-8.23-10.4-9.47l-15.37-2.64c-21.74-3.73-32.61-13.66-32.61-30.43,0-22.67,19.72-35.56,47.05-35.56,29.5,0,47.04,15.22,42.7,39.28h-26.4c1.4-11.02-5.75-16.77-17.39-16.77-9.63,0-17.7,3.88-17.7,10.87,0,5.28,4.66,7.61,11.49,8.85l14.6,2.64c21.74,3.88,32.45,13.2,32.45,30.9,0,23.6-19.25,37.57-49.22,37.57-31.83,0-52.48-15.84-47.2-44.25Z" style="fill:#efefed;"/><polygon points="207.35 60.29 293.83 60.29 289.79 83.58 230.95 83.58 227.53 102.83 279.85 102.83 275.97 125.35 223.65 125.35 219.92 145.69 280.48 145.69 276.44 168.98 188.25 168.98 207.35 60.29" style="fill:#efefed;"/><polygon points="461.64 60.29 489.28 60.29 470.18 168.98 442.54 168.98 461.64 60.29" style="fill:#efefed;"/><path d="M484.46,124.42c0-32.92,22.98-66.45,64.59-66.45,29.35,0,49.06,16.61,49.06,46.89,0,32.76-23.13,66.45-64.9,66.45-29.34,0-48.75-16.61-48.75-46.89ZM569.39,106.41c0-15.06-7.92-24.38-22.05-24.38-21.43,0-34.16,20.96-34.16,40.83,0,15.06,7.92,24.38,22.05,24.38,21.74,0,34.16-21.43,34.16-40.83Z" style="fill:#efefed;"/><polygon points="632.27 94.92 619.23 168.98 593.14 168.98 612.24 60.29 642.83 60.29 670.93 126.28 682.57 60.29 708.66 60.29 689.56 168.98 663.79 168.98 632.27 94.92" style="fill:#efefed;"/><path d="M228.9,228.7h10.56c38.7,0,67.73-17.01,85.32-55.41l56-123.44c3.24-5.74,6.16-8.8,12.31-8.8h19.94L420.06,0h-9.09c-38.41,0-56.57,17.3-73.87,55.41l-45.43,100.67c-2.93,6.45-14.83,31.76-29.77,31.56h-15.32v-.02s-132.63,0-132.63,0c-40.19,0-72.89-32.7-72.89-72.89v-.8c0-40.19,32.7-72.89,72.89-72.89h224.97V0H113.94C51.01,0,0,51.01,0,113.94v.8c0,62.93,51.01,113.95,113.94,113.95h114.95" style="fill:#efefed;"/><path d="M683.04,0h-184.81s-9.09,0-9.09,0c-38.41,0-56.57,17.3-73.87,55.41l-45.43,100.67c-2.93,6.45-14.83,31.76-29.77,31.56h-15.39l-17.61,41.05h10.56c38.7,0,67.73-17.01,85.32-55.41l56-123.44c3.24-5.74,6.16-8.8,12.31-8.8h19.65,0s192.13,0,192.13,0c40.19,0,72.89,32.7,72.89,72.89v.8c0,40.19-32.7,72.89-72.89,72.89h-283.97v41.06h283.97c62.93,0,113.94-51.01,113.94-113.95v-.8c0-62.93-51.01-113.94-113.94-113.94Z" style="fill:#efefed;"/><path d="M401.12,254.39c.05,1.45.71,2.63,2.35,2.63,1.27,0,2.15-.71,2.33-2.04.19-1.27-.25-2.27-2.08-3.56-2.37-1.65-3.26-2.93-2.98-4.98.26-2.01,1.71-3.52,4.25-3.52,3.54,0,4.27,2.61,4.16,4.25h-2.17c0-1.06-.38-2.42-2.09-2.42-1.18,0-1.83.68-1.96,1.73-.15,1.12.29,1.81,2.09,3.07,2.77,1.91,3.41,3.4,3.04,5.56-.32,2.13-1.86,3.74-4.66,3.74-3.65,0-4.54-2.37-4.47-4.46h2.18Z" style="fill:#efefed;"/><path d="M423.2,251.47h-5.4l-1.09,5.21h6.34l-.72,1.95h-8.26l3.29-15.46h7.87l-.44,1.96h-5.65l-.91,4.38h5.4l-.43,1.96Z" style="fill:#efefed;"/><path d="M431.43,254.39c.05,1.45.71,2.63,2.35,2.63,1.27,0,2.15-.71,2.33-2.04.19-1.27-.25-2.27-2.08-3.56-2.37-1.65-3.26-2.93-2.98-4.98.26-2.01,1.71-3.52,4.25-3.52,3.54,0,4.27,2.61,4.16,4.25h-2.17c0-1.06-.38-2.42-2.09-2.42-1.18,0-1.83.68-1.96,1.73-.15,1.12.29,1.81,2.09,3.07,2.77,1.91,3.41,3.4,3.04,5.56-.32,2.13-1.86,3.74-4.66,3.74-3.65,0-4.54-2.37-4.47-4.46h2.18Z" style="fill:#efefed;"/><path d="M446.81,254.39c.05,1.45.71,2.63,2.35,2.63,1.27,0,2.15-.71,2.33-2.04.19-1.27-.25-2.27-2.08-3.56-2.37-1.65-3.26-2.93-2.98-4.98.26-2.01,1.71-3.52,4.25-3.52,3.54,0,4.27,2.61,4.16,4.25h-2.17c0-1.06-.38-2.42-2.09-2.42-1.18,0-1.83.68-1.96,1.73-.15,1.12.29,1.81,2.09,3.07,2.77,1.91,3.41,3.4,3.04,5.56-.32,2.13-1.86,3.74-4.66,3.74-3.65,0-4.54-2.37-4.47-4.46h2.18Z" style="fill:#efefed;"/><path d="M465.3,243.17l-3.29,15.46h-2.26l3.29-15.46h2.26Z" style="fill:#efefed;"/><path d="M480.97,250.93c-.76,4.56-2.67,7.93-6.34,7.93s-4.65-3.47-3.87-8.01c.67-4.04,2.58-7.93,6.31-7.93s4.75,3.23,3.9,8ZM473.03,251.09c-.56,3.32-.34,5.85,1.76,5.85s3.24-2.55,3.89-6.18c.59-3.24.55-5.9-1.75-5.9s-3.38,2.98-3.9,6.23Z" style="fill:#efefed;"/><path d="M486.44,258.63l3.29-15.46h2.73c1.19,6.85,2.33,11.58,2.38,12.19h.03c.29-1.96.82-4.54,1.36-7.06l1.09-5.13h2.09l-3.29,15.46h-2.6c-1.19-7.08-2.34-12.1-2.4-12.72h-.02c-.3,1.91-.83,4.65-1.42,7.42l-1.13,5.3h-2.11Z" style="fill:#efefed;"/><path d="M524.39,252.48c.58-2.75,1.27-5.77,1.67-7.47h-.06c-1.14,2.79-4.1,9.15-6.2,13.62h-2.1c-.04-3.87-.2-10.93-.15-13.65h-.08c-.28,1.8-.93,5.12-1.49,7.78l-1.24,5.87h-2.09l3.29-15.46h3.37c.22,4.3.39,9.91.28,11.87h.02c.66-1.82,3.65-7.88,5.63-11.87h3.31l-3.29,15.46h-2.19l1.31-6.15Z" style="fill:#efefed;"/><path d="M535.88,254.25l-1.96,4.37h-2.31c.62-1.2,6.32-14.02,7.07-15.46h3.01l.69,15.46h-2.23l-.15-4.37h-4.13ZM539.96,252.32c-.11-3.46-.2-5.99-.15-7.36h-.05c-.56,1.53-1.69,4.2-3.07,7.36h3.27Z" style="fill:#efefed;"/><path d="M548.55,258.63l3.29-15.46h2.73c1.19,6.85,2.33,11.58,2.38,12.19h.03c.29-1.96.82-4.54,1.36-7.06l1.09-5.13h2.09l-3.29,15.46h-2.6c-1.19-7.08-2.34-12.1-2.4-12.72h-.02c-.3,1.91-.83,4.65-1.42,7.42l-1.13,5.3h-2.11Z" style="fill:#efefed;"/><path d="M568.87,254.25l-1.96,4.37h-2.31c.62-1.2,6.32-14.02,7.07-15.46h3.01l.69,15.46h-2.23l-.15-4.37h-4.13ZM572.95,252.32c-.11-3.46-.2-5.99-.15-7.36h-.05c-.56,1.53-1.69,4.2-3.07,7.36h3.27Z" style="fill:#efefed;"/><path d="M590.57,258.63h-1.79c.03-.37.12-.93.23-1.5-.77,1.16-1.8,1.74-3.41,1.74-3.21,0-4.12-3.11-3.32-7.79.9-5.37,3.25-8.14,6.55-8.14,3.55,0,4.13,2.76,4.08,4.26h-2.23c-.02-.7-.04-2.36-2.01-2.36-2.16,0-3.5,2.57-4.1,6.29-.54,3.31-.38,5.86,1.81,5.86s2.75-1.96,3.18-4.05l.17-.82h-2.62l.44-1.96h4.82c-.32,1.5-1.77,8.34-1.8,8.47Z" style="fill:#efefed;"/><path d="M606.96,251.47h-5.4l-1.09,5.21h6.34l-.72,1.95h-8.26l3.29-15.46h7.87l-.44,1.96h-5.65l-.91,4.38h5.4l-.43,1.96Z" style="fill:#efefed;"/><path d="M624.48,252.48c.58-2.75,1.27-5.77,1.67-7.47h-.06c-1.14,2.79-4.1,9.15-6.2,13.62h-2.1c-.04-3.87-.2-10.93-.15-13.65h-.08c-.28,1.8-.93,5.12-1.49,7.78l-1.24,5.87h-2.09l3.29-15.46h3.37c.22,4.3.39,9.91.28,11.87h.02c.66-1.82,3.65-7.88,5.63-11.87h3.31l-3.29,15.46h-2.19l1.31-6.15Z" style="fill:#efefed;"/><path d="M642.15,251.47h-5.4l-1.09,5.21h6.34l-.72,1.95h-8.26l3.29-15.46h7.87l-.44,1.96h-5.65l-.91,4.38h5.4l-.43,1.96Z" style="fill:#efefed;"/><path d="M647.86,258.63l3.29-15.46h2.73c1.19,6.85,2.33,11.58,2.38,12.19h.03c.29-1.96.82-4.54,1.36-7.06l1.09-5.13h2.09l-3.29,15.46h-2.6c-1.19-7.08-2.34-12.1-2.4-12.72h-.02c-.3,1.91-.83,4.65-1.42,7.42l-1.13,5.3h-2.11Z" style="fill:#efefed;"/><path d="M670.11,245.13h-3.51l.43-1.96h9.28l-.43,1.96h-3.5l-2.86,13.5h-2.27l2.86-13.5Z" style="fill:#efefed;"/><path d="M402.08,271.83h7.97l-.44,1.96h-5.73l-.94,4.49h5.39l-.42,1.95h-5.39l-1.49,7.06h-2.25l3.29-15.46Z" style="fill:#efefed;"/><path d="M424.72,279.59c-.76,4.56-2.67,7.93-6.34,7.93s-4.65-3.47-3.87-8.01c.67-4.04,2.58-7.93,6.31-7.93s4.75,3.23,3.9,8ZM416.78,279.75c-.56,3.32-.34,5.85,1.76,5.85s3.24-2.55,3.89-6.18c.59-3.24.55-5.9-1.75-5.9s-3.38,2.98-3.9,6.23Z" style="fill:#efefed;"/><path d="M433.89,280.39l-1.45,6.89h-2.25l3.29-15.46h4.16c3.1,0,4.33,1.94,3.91,4.4-.37,2.24-1.78,3.03-2.85,3.36,1.14.54,1.58,1.73,1.13,3.96-.34,1.69-.55,2.82-.59,3.74h-2.18c0-.54.07-1.51.57-3.85.43-2.1.08-3.05-1.86-3.05h-1.86ZM434.3,278.53h1.76c1.74,0,2.92-.54,3.18-2.31.24-1.51-.43-2.52-2.1-2.52h-1.83l-1.02,4.83Z" style="fill:#efefed;"/><path d="M459.87,283.25c-.56,2.6-1.12,4.24-3.9,4.24-.59,0-1.3-.09-1.77-.21l.39-1.84c.37.1.76.13,1.21.13,1.24,0,1.49-.78,1.79-2.21l2.44-11.53h2.27l-2.42,11.42Z" style="fill:#efefed;"/><path d="M469.57,282.92l-1.96,4.37h-2.31c.62-1.2,6.32-14.02,7.07-15.46h3.01l.69,15.46h-2.23l-.15-4.37h-4.13ZM473.65,280.98c-.11-3.46-.2-5.99-.15-7.36h-.05c-.56,1.53-1.69,4.2-3.07,7.36h3.27Z" style="fill:#efefed;"/><path d="M483.76,287.29l-.76-15.46h2.25l.18,7.08c.05,2.1.14,4.5.07,6h.05c.5-1.35,1.66-3.9,2.61-5.98l3.28-7.1h2.35l-7.44,15.46h-2.59Z" style="fill:#efefed;"/><path d="M498.86,282.92l-1.96,4.37h-2.31c.62-1.2,6.32-14.02,7.07-15.46h3.01l.69,15.46h-2.23l-.15-4.37h-4.13ZM502.93,280.98c-.11-3.46-.2-5.99-.15-7.36h-.05c-.56,1.53-1.69,4.2-3.07,7.36h3.27Z" style="fill:#efefed;"/><path d="M513.94,283.06c.05,1.45.71,2.63,2.35,2.63,1.27,0,2.15-.71,2.33-2.04.19-1.27-.25-2.27-2.08-3.56-2.37-1.65-3.26-2.93-2.98-4.98.26-2.01,1.71-3.52,4.25-3.52,3.54,0,4.27,2.61,4.16,4.25h-2.17c0-1.06-.38-2.42-2.09-2.42-1.18,0-1.83.68-1.96,1.73-.15,1.12.29,1.81,2.09,3.07,2.77,1.91,3.41,3.4,3.04,5.56-.32,2.13-1.86,3.74-4.66,3.74-3.65,0-4.54-2.37-4.47-4.46h2.18Z" style="fill:#efefed;"/><path d="M536.84,283.04c-.57,1.91-1.86,4.49-5.27,4.49s-4.82-2.38-3.84-7.82c.72-4.31,2.62-8.12,6.46-8.12,3.45,0,4.08,2.63,3.93,4.5h-2.21c-.02-1.01-.1-2.61-1.95-2.61-2.13,0-3.38,2.83-3.92,6.27-.69,3.98-.12,5.88,1.75,5.88,1.65,0,2.45-1.61,2.79-2.59h2.27Z" style="fill:#efefed;"/><path d="M546.21,280.39l-1.45,6.89h-2.25l3.29-15.46h4.16c3.1,0,4.33,1.94,3.91,4.4-.37,2.24-1.78,3.03-2.85,3.36,1.14.54,1.58,1.73,1.13,3.96-.34,1.69-.55,2.82-.59,3.74h-2.18c0-.54.07-1.51.57-3.85.43-2.1.08-3.05-1.86-3.05h-1.86ZM546.61,278.53h1.76c1.74,0,2.92-.54,3.18-2.31.24-1.51-.43-2.52-2.1-2.52h-1.83l-1.02,4.83Z" style="fill:#efefed;"/><path d="M564.14,271.83l-3.29,15.46h-2.26l3.29-15.46h2.26Z" style="fill:#efefed;"/><path d="M571.78,271.83h3.75c3.18,0,4.65,2.01,4.16,4.94-.45,2.8-2.45,4.15-5.41,4.15h-2.18l-1.34,6.37h-2.27l3.29-15.46ZM572.52,279.04h1.93c1.68,0,2.8-.77,3.04-2.52.25-1.66-.43-2.79-2.16-2.79h-1.7l-1.12,5.31Z" style="fill:#efefed;"/><path d="M589.02,273.79h-3.51l.43-1.96h9.28l-.43,1.96h-3.5l-2.86,13.5h-2.27l2.86-13.5Z" style="fill:#efefed;"/></g></svg>