<?xml version="1.0" encoding="UTF-8"?><svg id="Layer_2" xmlns="http://www.w3.org/2000/svg" viewBox="0 0 1440 288.21"><g id="Layer_1-2"><path d="M358.13,141.4c10.06-47.45,63.47-82.33,119.41-82.64,59.07,0,94.58,35.19,84.53,82.64-10.06,47.45-63.47,82.33-119.41,82.33s-94.58-34.88-84.53-82.33ZM514.61,141.4c5.34-24.19-16.34-43.36-45.25-43.36s-58.45,19.17-63.79,43.36c-5.03,23.88,16.34,43.05,45.25,43.05s58.76-19.17,63.79-43.05Z" style="fill:#efefed;"/><path d="M932.37,167.36c-19.44,7.52-40.36,14.89-55.77,14.89-6.6,0-35.51-1.26-31.42-20.74l12.88-60.33h62.22l7.86-37.71h-62.22l9.43-44.62h-47.13l-9.4,44.15-34.25-.16h-.03s-47.13,0-47.13,0l-18.85,89.55c-14.14,18.22-40.53,28.59-63.16,28.59-26.39,0-46.19-1.89-40.53-28.91l18.85-88.61h-47.13l-21.37,101.18c-11,50.59,40.53,58.45,66.93,58.45,28.91,0,54.67-7.23,75.73-21.68l-3.77,18.54h47.13l25.18-118.78h34.52l-13.51,63.47c-6.91,32.05,9.74,58.45,64.42,58.45,15.95,0,39.64-5.09,61.49-13.06l-2.1,9.92h47.13l33.31-157.11h-47.13l-22.16,104.52Z" style="fill:#efefed;"/><path d="M991.92,0c-14.77,0-28.91,10.06-31.42,22.31-2.51,12.26,7.23,22.62,22,22.62s28.6-10.37,31.11-22.62c2.51-12.25-7.23-22.31-21.68-22.31Z" style="fill:#efefed;"/><path d="M987.21,219.96l33.31-157.11h47.13l-3.14,16.03c31.11-12.57,58.45-19.17,84.84-19.17,13.83,0,70.39-1.57,57.5,58.45l-21.37,101.18h-47.13l18.85-88.61c5.66-27.02-17.28-28.91-28.91-28.91-21.68,0-50.59,7.23-72.9,19.17l-21.05,98.98h-47.13Z" style="fill:#efefed;"/><path d="M330.53,205.88c-12.71-5.49-26.4-8.32-40.24-8.32h-106.4s-.84,0-.84,0c-4.44,0-7.37-.04-7.37-3.2,0-7.89,4.96-8.01,9.93-8.01h101.21c44.34,0,60.54-21.14,67.58-55.09l2.56-12.17c7.37-33.95-10.57-55.09-44.2-55.09h-150.22c-19.22,0-33.81,10.27-47.08,29.15L0,287.86l59.4.35,97.37-167.84c3.84-6.73,9.29-10.25,16.65-10.25h124.6c8.33,0,11.85,4.48,10.25,12.81l-2.24,10.57c-1.92,8.33-7.37,12.81-15.7,12.81h-106.02c-23.06,0-41.9,15.52-48.36,39.4l-2.56,12.81c-3.92,21.57,8.33,39.08,31.71,39.08h18.78s102.94,0,102.94,0c10.66,0,21.21,2.17,31,6.39l24.55,10.57,55.42,24.04c10.85,4.71,22.54,7.13,34.37,7.14l841.89.19h.29c.13,0,.26,0,.39,0,76.04,0,124.43-30.17,134.8-79.5l30.48-143.6h-47.13l-3.46,16.03c-17.28-11-44.93-19.8-67.24-19.17-40.22.31-98.67,16.97-111.23,76.36-13.2,62.22,47.13,74.16,78.24,74.47,27.97.63,55.3-9.11,76.67-19.8l-3.46,15.71c-5.65,27.02-36.14,35.51-78.56,35.51-2.93,0-6.12-.12-9.45-.35v-.04l-839.41.46c-13.68,0-27.22-2.79-39.78-8.21l-64.66-27.93ZM1374.64,149.26c-24.19,16.34-50.27,22.31-71.01,22.31-34.25,0-49.96-14.45-45.25-36.45,3.77-17.91,20.11-36.14,55.3-36.45,22.31-.31,49.02,5.66,66.93,22.31l-5.97,28.28Z" style="fill:#efefed;"/></g></svg>