<svg width="20" height="20" viewBox="0 0 20 20" fill="none" xmlns="http://www.w3.org/2000/svg">
<g clip-path="url(#clip0_647_1138)">
<path d="M19.8008 6C19.8008 6 19.6055 4.62109 19.0039 4.01563C18.2422 3.21875 17.3906 3.21484 17 3.16797C14.2031 2.96484 10.0039 2.96484 10.0039 2.96484H9.99609C9.99609 2.96484 5.79687 2.96484 3 3.16797C2.60938 3.21484 1.75781 3.21875 0.996094 4.01563C0.394531 4.62109 0.203125 6 0.203125 6C0.203125 6 0 7.62109 0 9.23828V10.7539C0 12.3711 0.199219 13.9922 0.199219 13.9922C0.199219 13.9922 0.394531 15.3711 0.992187 15.9766C1.75391 16.7734 2.75391 16.7461 3.19922 16.832C4.80078 16.9844 10 17.0313 10 17.0313C10 17.0313 14.2031 17.0234 17 16.8242C17.3906 16.7773 18.2422 16.7734 19.0039 15.9766C19.6055 15.3711 19.8008 13.9922 19.8008 13.9922C19.8008 13.9922 20 12.375 20 10.7539V9.23828C20 7.62109 19.8008 6 19.8008 6ZM7.93359 12.5938V6.97266L13.3359 9.79297L7.93359 12.5938Z" fill="#DEE2E6"/>
</g>
<defs>
<clipPath id="clip0_647_1138">
<rect width="20" height="20" fill="white"/>
</clipPath>
</defs>
</svg>
