<svg width="20" height="20" viewBox="0 0 20 20" fill="none" xmlns="http://www.w3.org/2000/svg">
<g clip-path="url(#clip0_647_1136)">
<path fill-rule="evenodd" clip-rule="evenodd" d="M10.0083 0C4.47396 0 0 4.50694 0 10.0826C0 14.5396 2.86662 18.3123 6.84338 19.6476C7.34058 19.748 7.5227 19.4306 7.5227 19.1637C7.5227 18.93 7.50631 18.1288 7.50631 17.2939C4.72225 17.895 4.14249 16.092 4.14249 16.092C3.69508 14.9235 3.03215 14.6232 3.03215 14.6232C2.12092 14.0055 3.09852 14.0055 3.09852 14.0055C4.1093 14.0723 4.63969 15.0405 4.63969 15.0405C5.53432 16.5761 6.97592 16.1422 7.55588 15.8751C7.63865 15.224 7.90394 14.7733 8.18563 14.523C5.96514 14.2893 3.62891 13.4213 3.62891 9.54836C3.62891 8.44662 4.02634 7.54523 4.65608 6.8442C4.55672 6.59386 4.20866 5.5587 4.75564 4.17322C4.75564 4.17322 5.60069 3.90608 7.5061 5.20818C8.32188 4.98747 9.16317 4.8752 10.0083 4.87426C10.8533 4.87426 11.7148 4.99123 12.5102 5.20818C14.4159 3.90608 15.2609 4.17322 15.2609 4.17322C15.8079 5.5587 15.4596 6.59386 15.3603 6.8442C16.0066 7.54523 16.3876 8.44662 16.3876 9.54836C16.3876 13.4213 14.0514 14.2725 11.8143 14.523C12.179 14.8401 12.4936 15.441 12.4936 16.3926C12.4936 17.7446 12.4773 18.8298 12.4773 19.1635C12.4773 19.4306 12.6596 19.748 13.1566 19.6478C17.1333 18.3121 20 14.5396 20 10.0826C20.0163 4.50694 15.526 0 10.0083 0Z" fill="#DEE2E6"/>
</g>
<defs>
<clipPath id="clip0_647_1136">
<rect width="20" height="20" fill="white"/>
</clipPath>
</defs>
</svg>
