<svg version="1.1" xmlns="http://www.w3.org/2000/svg" viewBox="0 0 576.30078125 473.76171875">
  <!-- svg-source:excalidraw -->
  <defs>
    <style>
      @font-face {
        font-family: "Virgil";
        src: url("https://excalidraw.com/FG_Virgil.woff2");
      }
      @font-face {
        font-family: "Cascadia";
        src: url("https://excalidraw.com/Cascadia.woff2");
      }
    </style>
  </defs>
  <g transform="translate(10 49.9765625) rotate(0 278.150390625 206.892578125)"><path d="M0.03207426443696022 -0.5431813634932041 C122.79267716513095 -0.05175131992039683, 246.7388307555222 -0.21472536758122446, 556.3188086785376 -0.19799706116318705 M0.3938467424362898 0.1761041421443224 C117.01466579032167 -1.01556106041513, 234.4973908898428 -0.39779798220239193, 556.6564798634499 0.32776984162628653 M556.589023926207 1.006638403039635 C554.4680597726341 142.74857762369132, 555.0934191508057 284.95283861098454, 555.9049584807748 414.7740790969868 M556.8397125845739 -0.44583615572495605 C558.0980532035694 148.00595840849405, 557.8919676180866 295.46436729731045, 556.7457979995697 413.92014639116326 M556.2522735156119 413.0683096013963 C381.80593568775254 414.2425377935029, 207.51043175271553 413.93455794750224, -0.1049541674554348 413.1425390087068 M556.104338471219 413.6957817096263 C429.7251820976144 412.69966023924064, 302.56083704908303 412.52756049396703, 0.38757324628531936 413.5333276886493 M0.6067193290744917 413.92672902978734 C-2.174742545413609 291.8874807055368, -1.564499169803443 167.91880395637344, 0.9114901379144015 0.9187300098244984 M-0.49870922371389725 413.92149334709103 C-1.2409708406575133 279.01242930594907, -0.9472754258221099 143.75637793409066, 0.4745703271272375 0.2125027182560863" stroke="#000000" stroke-width="1" fill="none"></path></g><g transform="translate(30.140625 64.21875) rotate(0 152.5 12.5)"><text x="0" y="18" font-family="Virgil, Segoe UI Emoji" font-size="20px" fill="#000000" text-anchor="start" style="white-space: pre;" direction="ltr">Invoices  Projects  Customers</text></g><g><g transform="translate(11.40625 107.74609375) rotate(0 276.75983728133144 0.0851854653815991)"><path d="M-1.1168853465467692 0.4274368409067393 C91.51402082604666 0.6839295152574778, 461.83987424137695 1.092682588472962, 554.6365599092096 0.8911899570375679 M0.49761111717671147 -0.3937627629563212 C93.07135064781956 -0.4082436863705515, 461.2003338803972 -0.8500822643563151, 553.6904818354175 -0.7635100642964243" stroke="#000000" stroke-width="1" fill="none"></path></g></g><g><g transform="translate(30.8984375 94.33984375) rotate(0 37.934897112837064 -0.1321685675531512)"><path d="M1.1917319778352977 0.49430208764970307 C13.697714627161623 0.5181843853245179, 63.22456729449332 -0.6350441797326007, 75.51154168881476 -0.7586392227560281 M0.3582525368593634 -0.29179326167330144 C12.634501272644847 -0.06365149389331537, 61.557078677024684 0.11190199225520092, 74.3829345180653 0.30462153026834127" stroke="#000000" stroke-width="1" fill="none"></path></g></g><g transform="translate(512.7734375 65.234375) rotate(0 16.927734375 13.841796875)"><path d="M19.640776220704453 0.26394283827240983 C22.971752016902148 0.7522350003668914, 28.142086140413365 2.9905246838888213, 30.55770913947139 5.519747951270899 C32.97333213852941 8.048971218652976, 34.47140115819313 12.598123440337872, 34.13451421505258 15.439282442564876 C33.797627271912035 18.28044144479188, 31.04139500279813 20.587591969694028, 28.536387480628118 22.566701964632927 C26.031379958458107 24.545811959571825, 22.489748708622 26.986629845453784, 19.10446908203251 27.31394241219826 C15.71918945544302 27.641254978942733, 11.255364010464167 26.0639726298744, 8.224709721091184 24.530577365099774 C5.194055431718201 22.997182100325148, 2.0875499362239447 20.666871932908233, 0.9205433457946164 18.113570823550504 C-0.2464632446347117 15.560269714192776, -0.03616371775976579 11.85803369153335, 1.2226701785152159 9.210770708953405 C2.4815040747901973 6.563507726373459, 4.967156840675118 3.783419843909626, 8.473546723444507 2.2299929280708284 C11.979936606213895 0.6765660122320307, 19.66195652799053 0.046657889912983336, 22.26100947513155 -0.10979078607938142 C24.860062422272573 -0.2662394620717462, 23.983983418789695 1.0642541122879743, 24.06786440629064 1.29130087211664 M19.15234119767774 1.142940748488341 C22.594017321016505 1.1736862124031466, 25.320232464159474 2.595874238211713, 27.94634767731862 4.571517247502106 C30.572462890477766 6.547160256792499, 34.19744596930788 10.212413279592539, 34.9090324766326 12.996798804230702 C35.62061898395733 15.781184328868864, 34.34917775078598 18.89142368673563, 32.21586672126695 21.277830395331087 C30.08255569174792 23.664237103926542, 25.840608728876237 26.471621749894275, 22.109166299518428 27.31523905580343 C18.37772387016062 28.158856361712587, 13.083195734735007 27.403016368761257, 9.827212145120086 26.33953423078603 C6.571228555505165 25.2760520928108, 4.133219693599464 23.62324335653055, 2.573264761828904 20.934346227952055 C1.0133098300583445 18.24544909937356, -0.38142474972130513 13.170982991455489, 0.4674825544967298 10.206151459315059 C1.3163898587147647 7.241319927174629, 4.990524458056791 4.873724815745762, 7.666708587137114 3.145357035109477 C10.342892716217436 1.416989254473192, 14.928706293995887 0.1758824254772267, 16.52458732897866 -0.16405522450265053 C18.120468363961436 -0.5039928744825277, 17.296751468145867 1.020089160965237, 17.24199479703376 1.1057311352302133" stroke="#000000" stroke-width="1" fill="none"></path></g><g><g transform="translate(519.578125 87.5859375) rotate(0 11.472502831127485 -8.00192810431264)"><path d="M1.1739913824945687 0.9380243953317404 C2.5467481457938748 -0.436790842190385, 8.274495613947511 -4.33784413971007, 9.127930808439851 -7.1511645499616865 C9.981366002932191 -9.964484960213303, 4.835948721940319 -14.568071343873939, 6.2946025494486095 -15.941898066177965 C7.7532563769569 -17.31572478848199, 15.800555694475769 -16.996905293439827, 17.879853773489593 -15.394124883785844 C19.959151852503418 -13.791344474131863, 19.356194949522614 -7.876872843876481, 18.770391023531555 -6.325215608254075 C18.184587097540497 -4.773558372631668, 13.80506782171627 -7.504250850652655, 14.365030217543245 -6.084181470051408 C14.92499261337022 -4.66411208945016, 20.709662104025483 0.7074963307629025, 22.13016539849341 2.1952006753534077 M0.33119812896475187 0.3848832575418055 C1.5533008260590333 -0.2923617627285421, 7.786676395442337 -2.7093406029604377, 8.692068550493568 -5.738217874970287 C9.5974607055448 -8.767095146980136, 4.170171163386355 -16.276600302265336, 5.763551059272141 -17.788380374517292 C7.356930955157926 -19.300160446769247, 16.33920518329367 -16.267430564568688, 18.25234792580828 -14.808898308482021 C20.16549066832289 -13.350366052395355, 17.670832288172093 -10.837898894753307, 17.2424075143598 -9.037186837997288 C16.81398274054751 -7.236474781241268, 14.78656594644611 -5.688272016452005, 15.681799282934517 -4.004625967945904 C16.577032619422923 -2.320979919439803, 21.543967803623527 -0.1120783720475933, 22.613807533290238 1.0646894530393183" stroke="#000000" stroke-width="1" fill="none"></path></g></g><g><g transform="translate(132.96484375 109.0234375) rotate(0 0.43335525213743153 177.45460395256057)"><path d="M0.9695943597704171 0.8893404778093099 C0.8995493296533822 59.99321774008374, 0.8244343761354684 294.7094006435325, 0.5542043332010507 353.4825241979212 M0.019492669310420707 0.3106402833200992 C-0.24534729043021802 59.64846968461449, 0.19364355465397232 295.57565691023444, -0.10288385549560197 354.59856762180107" stroke="#000000" stroke-width="1" fill="none"></path></g></g><g transform="translate(25.99609375 135.30078125) rotate(0 34.5 162.5)"><text x="0" y="18" font-family="Virgil, Segoe UI Emoji" font-size="20px" fill="#000000" text-anchor="start" style="white-space: pre;" direction="ltr">#10123</text><text x="0" y="43" font-family="Virgil, Segoe UI Emoji" font-size="20px" fill="#000000" text-anchor="start" style="white-space: pre;" direction="ltr"></text><text x="0" y="68" font-family="Virgil, Segoe UI Emoji" font-size="20px" fill="#000000" text-anchor="start" style="white-space: pre;" direction="ltr">#10122</text><text x="0" y="93" font-family="Virgil, Segoe UI Emoji" font-size="20px" fill="#000000" text-anchor="start" style="white-space: pre;" direction="ltr"></text><text x="0" y="118" font-family="Virgil, Segoe UI Emoji" font-size="20px" fill="#000000" text-anchor="start" style="white-space: pre;" direction="ltr">#10121</text><text x="0" y="143" font-family="Virgil, Segoe UI Emoji" font-size="20px" fill="#000000" text-anchor="start" style="white-space: pre;" direction="ltr"></text><text x="0" y="168" font-family="Virgil, Segoe UI Emoji" font-size="20px" fill="#000000" text-anchor="start" style="white-space: pre;" direction="ltr">#10119</text><text x="0" y="193" font-family="Virgil, Segoe UI Emoji" font-size="20px" fill="#000000" text-anchor="start" style="white-space: pre;" direction="ltr"></text><text x="0" y="218" font-family="Virgil, Segoe UI Emoji" font-size="20px" fill="#000000" text-anchor="start" style="white-space: pre;" direction="ltr">#10118</text><text x="0" y="243" font-family="Virgil, Segoe UI Emoji" font-size="20px" fill="#000000" text-anchor="start" style="white-space: pre;" direction="ltr"></text><text x="0" y="268" font-family="Virgil, Segoe UI Emoji" font-size="20px" fill="#000000" text-anchor="start" style="white-space: pre;" direction="ltr">#10117</text><text x="0" y="293" font-family="Virgil, Segoe UI Emoji" font-size="20px" fill="#000000" text-anchor="start" style="white-space: pre;" direction="ltr"></text><text x="0" y="318" font-family="Virgil, Segoe UI Emoji" font-size="20px" fill="#000000" text-anchor="start" style="white-space: pre;" direction="ltr">#10116</text></g><g><g transform="translate(128.83203125 112.921875) rotate(0 0.5350001777615319 52.63759136162699)"><path d="M0.9063642147928477 -0.89298773445189 C1.2369235598792634 16.97817455691596, 1.2184005303929248 88.21708072188, 0.9031327728182077 106.16817045770586 M-0.07693330178037283 1.2525897596217694 C0.27666794191425054 18.829239767783633, 0.22203959614659363 86.87842371721442, 0.47434920242056267 104.15644379297271" stroke="#000000" stroke-width="1" fill="none"></path></g></g><g><g transform="translate(26.0234375 263.78515625) rotate(0 32.29819489112123 -0.3778746489435605)"><path d="M0.3669394019991159 0.5318738993257284 C10.92118153211971 0.2011327839146057, 52.568022195870675 -0.9636039598534505, 63.36936935223639 -1.2876231972128154 M-0.8995561412908137 -0.23449624886736276 C10.005259005830931 -0.42513370166843134, 54.55070091725016 0.22095574944590535, 65.49594592353328 0.23004987547174105" stroke="#000000" stroke-width="1" fill="none"></path></g></g><g transform="translate(286.04296875 131.3125) rotate(0 67 12.5)"><text x="0" y="18" font-family="Virgil, Segoe UI Emoji" font-size="20px" fill="#000000" text-anchor="start" style="white-space: pre;" direction="ltr">Invoice #10121</text></g><g transform="translate(258.33203125 178.8828125) rotate(0 94.5 12.5)"><text x="0" y="18" font-family="Virgil, Segoe UI Emoji" font-size="20px" fill="#000000" text-anchor="start" style="white-space: pre;" direction="ltr">Details    Activity</text></g><g><g transform="translate(364.5078125 171.61328125) rotate(0 47.312383836880315 -1.2276224497705641)"><path d="M-0.7389356609433889 -0.36328939832746976 C14.988626476501425 -0.8472902997086444, 79.53215140538911 -2.099197962259253, 95.36370333470404 -2.0919555012136697 M1.0739843877218664 -1.59962027778849 C16.59619848351305 -2.008939841693888, 79.31142764926578 -0.8256297917229435, 94.65582087179646 -0.9063225131295622" stroke="#000000" stroke-width="1" fill="none"></path></g></g><g><g transform="translate(458.1640625 170.6875) rotate(0 0.2784828516443554 127.8883064125292)"><path d="M-0.46380124725401395 -0.9500061985105276 C-0.5583316031843424 41.473750396942094, -1.1865096870809795 212.6837334557126, -1.0312395516783 255.62700718678533 M1.4935643685981632 1.1656366019323467 C1.808562021367252 44.23590112694849, 1.4328425301238896 213.8946101519341, 1.1823806263133885 256.7266190235689" stroke="#000000" stroke-width="1" fill="none"></path></g></g><g><g transform="translate(458.25390625 422.734375) rotate(0 -109.07097555238755 -0.3105767987295849)"><path d="M-0.4054784003645181 -0.8478639956563712 C-36.94618935423592 -1.0162141557782889, -182.18006341693302 -0.19067794047296072, -218.75387182869017 -0.40641770325601123 M1.5825067101046444 1.3214034612849357 C-35.16289175211141 0.7923379965499046, -183.20218042352548 -1.5307031647488474, -219.7244578148797 -1.9425570587441325" stroke="#000000" stroke-width="1" fill="none"></path></g></g><g><g transform="translate(239.0859375 419.5) rotate(0 -0.52391676575877 -108.9448538499139)"><path d="M0.25911570824682717 -1.0256472174078226 C0.07761908409496154 -37.318332277114195, -0.09717378181715802 -181.02132522103688, -0.5105814930051564 -217.09409260191023 M-1.063987274263054 1.050284048113972 C-1.4030877899068097 -35.65984721661235, -1.3432932612237831 -182.7547156582338, -1.152463490460068 -218.93999174794183" stroke="#000000" stroke-width="1" fill="none"></path></g></g><g><g transform="translate(238.03125 204.4609375) rotate(0 64.09861199297012 -0.7175250609125783)"><path d="M-0.7851968999952077 0.960440331324935 C20.52893775738776 0.8069608227660259, 107.53722124136985 -0.13108804461856688, 128.98242088593543 -0.4465712610632182 M1.0034359981678427 0.4190675599314271 C22.117341155614703 -0.15260336429501586, 107.3799989928864 -2.376244589195897, 128.35737294992433 -2.3954904531501233" stroke="#000000" stroke-width="1" fill="none"></path></g></g><g><g transform="translate(365.75 170.62109375) rotate(0 -0.24307055923082999 15.623927998170274)"><path d="M0.22301753796637058 -1.1204248253256082 C0.4401707652956247 4.270641793434818, 0.7013202313333751 26.967037735010184, 0.6177879575639964 32.36828082166612 M-1.1190369839407504 0.9057481960393488 C-1.0022960854507983 5.913289412849892, -0.8860879380442204 25.177293709112952, -0.34429773459211 30.389834754262118" stroke="#000000" stroke-width="1" fill="none"></path></g></g><g transform="translate(263.75 237.93359375) rotate(0 89 37.5)"><text x="0" y="18" font-family="Virgil, Segoe UI Emoji" font-size="20px" fill="#000000" text-anchor="start" style="white-space: pre;" direction="ltr">Viewed     10/10</text><text x="0" y="43" font-family="Virgil, Segoe UI Emoji" font-size="20px" fill="#000000" text-anchor="start" style="white-space: pre;" direction="ltr">Sent       10/09</text><text x="0" y="68" font-family="Virgil, Segoe UI Emoji" font-size="20px" fill="#000000" text-anchor="start" style="white-space: pre;" direction="ltr">Created   09/28</text></g><g transform="translate(17.015625 10) rotate(0 109.5 12.5)"><text x="0" y="18" font-family="Virgil, Segoe UI Emoji" font-size="20px" fill="#000000" text-anchor="start" style="white-space: pre;" direction="ltr">/invoices/10121/activity</text></g></svg>