<?xml version="1.0" encoding="UTF-8"?><svg id="Layer_2" xmlns="http://www.w3.org/2000/svg" viewBox="0 0 1096.78 492.21"><g id="Layer_1-2"><path d="M331.77,23.97c-2.51-2.4-5.24-4.7-8.12-6.85-13.15-9.78-28.65-15.57-44.97-16.85l-.06-.05-2.25-.11c-2.08-.1-3.97-.13-5.87-.1-.72.01-1.44.03-2.16.05h-.02s0,0,0,0h0l-2.25.08-.06.06c-16.66,1.11-32.5,6.92-45.93,16.91-2.88,2.14-5.61,4.44-8.1,6.83-17.4,16.56-26.99,38.91-26.99,62.92s9.51,46.18,26.76,62.7c2.68,2.59,5.59,5.04,8.64,7.29,13.07,9.64,28.45,15.35,44.59,16.61l.04.03,2.25.13c1.42.08,2.93.12,4.61.12s3.16-.04,4.53-.12c0,0,0,0,.01,0,0,0,.02,0,.02,0l2.23-.13.04-.03c16.17-1.26,31.57-6.97,44.67-16.62,3.07-2.26,5.97-4.72,8.61-7.27,17.27-16.52,26.78-38.8,26.78-62.72s-9.58-46.36-26.97-62.91ZM198.15,93.31h27.41c.49,9.39,2.11,18.56,4.85,27.45h-24.37c-4.38-8.47-7.07-17.75-7.89-27.45ZM300.08,53.2c3.12,8.76,4.98,17.87,5.56,27.24h-27.34v-27.24h21.78ZM278.3,40.32v-22.67c4.76,5.04,9,10.55,12.66,16.48,1.23,1.99,2.4,4.07,3.5,6.19h-16.16ZM265.42,18.51v21.81h-15.54c1.07-2.04,2.22-4.06,3.45-6.04,3.51-5.66,7.57-10.93,12.1-15.78ZM265.42,53.2v27.24h-26.91c.62-9.36,2.52-18.48,5.68-27.24h21.22ZM225.61,80.44h-27.46c.82-9.62,3.46-18.82,7.78-27.24h24.68c-2.78,8.81-4.45,17.91-5,27.24ZM238.47,93.31h26.96v27.45h-21.44c-3.12-8.83-4.97-18.02-5.52-27.45ZM265.42,133.64v22.43c-4.63-4.95-8.75-10.35-12.3-16.14-1.25-2.02-2.43-4.13-3.55-6.29h15.85ZM278.3,156.09v-22.45h16.04c-1.12,2.13-2.32,4.24-3.6,6.3-3.59,5.79-7.76,11.19-12.45,16.15ZM278.3,120.76v-27.45h27.34c-.59,9.44-2.47,18.62-5.64,27.45h-21.7ZM318.54,93.31h27.02c-.83,9.7-3.51,18.97-7.89,27.45h-24.09c2.78-8.88,4.44-18.05,4.96-27.45ZM318.54,80.44c-.51-9.32-2.15-18.43-4.89-27.24h24.13c4.31,8.41,6.96,17.62,7.78,27.24h-27.02ZM322.89,33.29c2.34,2.22,4.49,4.58,6.49,7.04h-20.6c-.23-.51-.46-1.03-.7-1.54-1.85-3.95-3.92-7.79-6.16-11.41-2.38-3.86-4.99-7.56-7.8-11.09,7.81,2.46,15.18,6.21,21.84,11.17,2.46,1.83,4.78,3.79,6.93,5.84ZM220.86,33.26c2.12-2.03,4.44-3.99,6.89-5.81,6.95-5.17,14.67-9.02,22.82-11.47-2.96,3.66-5.7,7.5-8.2,11.52-2.31,3.73-4.4,7.59-6.21,11.46l-.61,1.31h0s-.01.04-.02.06h-21.19c2.01-2.46,4.16-4.83,6.51-7.06ZM220.66,140.29c-2.2-2.11-4.23-4.33-6.13-6.65h20.75c.14.31.27.63.42.95,1.93,4.2,4.1,8.27,6.46,12.09,2.31,3.76,4.84,7.37,7.56,10.83-7.75-2.43-15.07-6.12-21.69-11.01-2.59-1.91-5.06-4-7.35-6.21ZM323.03,140.31c-2.25,2.18-4.71,4.26-7.31,6.18-6.6,4.86-13.89,8.55-21.6,10.97,2.72-3.43,5.25-7.01,7.57-10.73,2.43-3.91,4.62-7.97,6.52-12.06.16-.34.31-.69.46-1.03h20.52c-1.91,2.32-3.95,4.56-6.16,6.67Z" style="fill:#f4f3ef;"/><path d="M86.43.83C38.69.83,0,39.52,0,87.25s38.69,86.42,86.43,86.42,86.42-38.69,86.42-86.42S134.16.83,86.43.83ZM81,129.68h-28.86v-16.38h23.99c4.01,0,4.88,2.97,4.88,4.74v11.64ZM122.63,110.26c.76,9.8.76,14.4.76,19.42h-22.68c0-1.09.02-2.09.04-3.11.06-3.15.13-6.44-.38-13.07-.67-9.71-4.86-11.87-12.55-11.87h-35.68v-17.67h36.76c9.72,0,14.58-2.96,14.58-10.78,0-6.88-4.86-11.05-14.58-11.05h-36.76v-17.3h40.81c22,0,32.93,10.39,32.93,26.98,0,12.41-7.69,20.51-18.08,21.86,8.77,1.75,13.9,6.75,14.84,16.59Z" style="fill:#f4f3ef;"/><path d="M451.55,79.98c3.67-.29,6.76,1.15,6.76,1.15l2.73-10.36s-2.37-1.15-7.05-.86c-12.08.79-17.55,9.21-16.97,17.55.65,9.93,10.57,9.57,10.93,15.61.07,1.44-.86,3.52-3.38,3.67-3.88.29-8.7-3.38-8.7-3.38l-1.87,7.91s4.82,5.18,13.59,4.6c7.26-.43,12.3-6.26,11.8-14.82-.72-10.86-12.87-11.87-13.16-16.47-.07-.86,0-4.24,5.32-4.6Z" style="fill:#f4f3ef;"/><path d="M453.78,48.26c1.08-1.08,2.23-2.01,3.38-2.59-.72-.43-1.58-.65-2.59-.65-6.62.14-12.44,10.57-14.03,17.48,2.37-.72,4.96-1.51,7.55-2.3.86-4.39,2.95-8.99,5.68-11.94Z" style="fill:#f4f3ef;"/><path d="M451.33,59.19c3.09-.94,6.26-1.94,9.14-2.81.07-2.37-.22-5.9-1.44-8.49-1.22.57-2.3,1.51-3.09,2.3-2.01,2.23-3.74,5.61-4.6,8.99Z" style="fill:#f4f3ef;"/><path d="M458.47.83c-47.73,0-86.43,38.69-86.43,86.43s38.69,86.42,86.43,86.42,86.42-38.69,86.42-86.42S506.2.83,458.47.83ZM473.85,131.19l-54.38-9.42s6.62-50.64,6.83-52.43c.29-2.37.36-2.45,2.88-3.24.07-.07,3.52-1.15,8.49-2.66.5-3.81,2.37-8.7,4.82-12.59,3.45-5.54,7.77-8.63,12.08-8.77,2.23-.07,4.1.65,5.54,2.23.07.14.22.22.29.36.29-.07.5-.07.72-.07,3.31,0,6.11,1.94,7.98,5.54.58,1.15,1.01,2.23,1.29,3.16,1.65-.5,2.66-.79,2.66-.79.14,0,.36-.07.79-.07v78.76ZM475.5,131.05V53.3c1.44,1.44,5.32,5.18,5.32,5.18,0,0,6.33.14,6.69.14s.72.29.79.72,9.78,66.1,9.78,66.1l-22.59,5.61Z" style="fill:#f4f3ef;"/><path d="M462.05,47.68c1.01,2.59,1.29,5.68,1.29,7.84,1.58-.5,3.02-.93,4.32-1.29-.72-2.23-2.3-5.9-5.61-6.55Z" style="fill:#f4f3ef;"/><path d="M79.48,327.08c-2.51-3.28-4.06-11.2-5.02-24.14-.97-13.71-7.15-18.15-19.31-18.15h-24.53v42.29H1.85v-121.66h58.71c31.48,0,46.93,14.68,46.93,38.04,0,17.96-11.39,29.16-26.26,31.09,12.94,2.51,20.28,10.04,21.63,24.33,1.74,17.96,2.32,23.75,6.37,28.2h-29.74ZM55.92,262.2c15.26,0,22.79-4.44,22.79-16.42,0-10.81-7.53-16.8-22.79-16.8h-25.3v33.22h25.3Z" style="fill:#f4f3ef;"/><path d="M211.38,327.08h-93.85v-121.66h92.12v24.14h-63.34v23.95h49.24v23.75h-49.24v25.68h65.08v24.14Z" style="fill:#f4f3ef;"/><path d="M273.95,327.08l-24.91-89.8h-.77v89.8h-27.04v-121.66h45.58l21.44,81.3h.58l20.47-81.3h44.61v121.66h-29.35v-89.8h-.77l-24.72,89.8h-25.11Z" style="fill:#f4f3ef;"/><path d="M397.16,205.42v121.66h-29.35v-121.66h29.35Z" style="fill:#f4f3ef;"/><path d="M481.56,262.97l46.93,64.11h-34.37l-30.32-41.33-29.74,41.33h-32.25l46.73-62.38-43.26-59.29h34.37l26.46,36.69,26.26-36.69h32.44l-43.26,57.55Z" style="fill:#f4f3ef;"/><path d="M650.53,205.42v78.02c0,31.86-19.7,45.96-47.89,45.96-30.13,0-48.47-17.38-48.86-49.05l28.19-1.16c.97,16.42,7.34,25.49,20.47,25.49s18.73-7.53,18.73-23.56v-75.7h29.35Z" style="fill:#f4f3ef;"/><path d="M729.71,205.42l49.05,121.66h-31.28l-10.43-26.26h-49.05l-10.24,26.26h-29.35l48.67-121.66h32.64ZM696.5,278.8h32.06l-15.64-39.97h-.77l-15.64,39.97Z" style="fill:#f4f3ef;"/><path d="M835.93,327.08l-24.91-89.8h-.77v89.8h-27.04v-121.66h45.58l21.44,81.3h.58l20.47-81.3h44.61v121.66h-29.35v-89.8h-.77l-24.72,89.8h-25.1Z" style="fill:#f4f3ef;"/><path d="M42.93,489.89v-97.52H.64v-24.14h114.32v24.14h-42.87v97.52h-29.16Z" style="fill:#f4f3ef;"/><path d="M174.06,492.21c-35.34,0-62.38-25.68-62.38-63.15s27.04-63.15,62.38-63.15,62.57,25.68,62.57,63.15-27.04,63.15-62.57,63.15ZM174.06,391.6c-19.7,0-32.25,14.87-32.25,37.46s12.55,37.46,32.25,37.46,32.44-14.87,32.44-37.46-12.55-37.46-32.44-37.46Z" style="fill:#f4f3ef;"/><path d="M322.76,489.89c-2.51-3.28-4.06-11.2-5.02-24.14-.96-13.71-7.14-18.15-19.31-18.15h-24.53v42.29h-28.77v-121.66h58.71c31.48,0,46.93,14.68,46.93,38.04,0,17.96-11.39,29.16-26.26,31.09,12.94,2.51,20.28,10.04,21.63,24.33,1.74,17.96,2.32,23.75,6.37,28.2h-29.74ZM299.2,425.01c15.26,0,22.79-4.44,22.79-16.42,0-10.81-7.53-16.8-22.79-16.8h-25.3v33.22h25.3Z" style="fill:#f4f3ef;"/><path d="M417.39,492.21c-35.34,0-62.38-25.68-62.38-63.15s27.04-63.15,62.38-63.15,62.57,25.68,62.57,63.15-27.04,63.15-62.57,63.15ZM417.39,391.6c-19.7,0-32.25,14.87-32.25,37.46s12.55,37.46,32.25,37.46,32.44-14.87,32.44-37.46-12.55-37.46-32.44-37.46Z" style="fill:#f4f3ef;"/><path d="M568.41,441.23v-73h26.84v121.66h-23.37l-56.39-77.63v77.63h-27.04v-121.66h28.2l51.75,73Z" style="fill:#f4f3ef;"/><path d="M646.24,489.89v-97.52h-42.29v-24.14h114.32v24.14h-42.87v97.52h-29.16Z" style="fill:#f4f3ef;"/><path d="M777.37,492.21c-35.34,0-62.38-25.68-62.38-63.15s27.04-63.15,62.38-63.15,62.57,25.68,62.57,63.15-27.04,63.15-62.57,63.15ZM777.37,391.6c-19.7,0-32.25,14.87-32.25,37.46s12.55,37.46,32.25,37.46,32.44-14.87,32.44-37.46-12.55-37.46-32.44-37.46Z" style="fill:#f4f3ef;"/><path d="M903.47,419.02h-29.74v-25.11c0-17.77,9.27-25.68,29.74-26.07v13.71c-8.88.39-13.32,2.9-13.52,10.81h13.52v26.65Z" style="fill:#f4f3ef;"/><path d="M1001.57,465.56v24.33h-93.08v-20.47l33.6-27.23c18.73-15.26,26.65-22.98,26.65-35.73,0-9.08-4.44-15.84-15.45-15.84-11.59,0-16.61,8.3-16.61,19.89,0,4.44.58,7.53,1.35,10.24l-28.58-.77c-.77-3.86-1.54-7.72-1.54-11.39,0-25.88,18.73-42.68,46.35-42.68,29.16,0,45.19,16.61,45.19,38.82s-12.55,32.64-31.67,47.51l-16.8,13.33h50.6Z" style="fill:#f4f3ef;"/><path d="M1087.9,393.91h-53.49c-.39,5.41-1.93,15.84-2.9,20.86,4.44-4.06,11.78-7.34,22.98-7.34,28.2,0,42.29,18.35,42.29,41.91,0,26.46-19.5,42.87-46.15,42.87-31.67,0-48.67-17.38-47.7-45.19l28.2,2.12c.19,12.17,7.34,19.5,19.5,19.5,11.39,0,18.93-7.34,18.93-19.31,0-11.01-6.57-19.89-18.73-19.89-9.08,0-14.48,4.06-17.77,9.46l-28.19-2.12c2.9-16.61,7.34-48.47,7.92-68.56h75.12v25.68Z" style="fill:#f4f3ef;"/></g></svg>