<?xml version="1.0" encoding="UTF-8"?><svg id="Layer_2" xmlns="http://www.w3.org/2000/svg" viewBox="0 0 3917.59 1545"><defs><style>.cls-1{fill:#ffc100;}.cls-2{fill:#9fd1d6;}.cls-3{fill:#fff6d2;}.cls-4{fill:#f30;}.cls-5{fill:#cee9ea;}.cls-6{fill:#ffea94;}.cls-7{fill:#0089ce;}</style></defs><g id="Layer_1-2"><path class="cls-5" d="M2205.44,323.68l-19.31-269.06c-2.21-30.78-27.82-54.62-58.68-54.62h-170.81c-30.86,0-56.47,23.84-58.68,54.62l-5.76,80.28-.5,6.19c0,11.5-9.32,20.82-20.82,20.82s-20.82-9.32-20.82-20.82l-.49-6.13-5.77-80.34c-2.21-30.78-27.82-54.62-58.68-54.62h-170.81c-7.71,0-15.1,1.49-21.87,4.21-1.69.68-3.35,1.43-4.96,2.26-3.23,1.66-6.28,3.6-9.13,5.81-12.82,9.91-21.47,25.03-22.71,42.34l-3.62,50.5-2.14,29.81-.49,6.15c0,11.5-9.32,20.82-20.82,20.82s-20.82-9.32-20.82-20.82l-.49-6.13-5.77-80.34c-2.21-30.78-27.82-54.62-58.68-54.62h-170.81c-1.93,0-3.84.09-5.72.28-5.65.55-11.07,1.89-16.15,3.93-1.69.68-3.35,1.43-4.96,2.26-2.07,1.06-4.07,2.26-5.99,3.56-1.87,1.26-3.66,2.61-5.37,4.07-.24.2-.46.41-.69.62-.49.43-.97.86-1.45,1.31-.27.25-.53.52-.79.77-.42.41-.84.83-1.26,1.26-.27.28-.54.57-.8.86-.39.42-.78.85-1.15,1.28-.26.3-.52.6-.77.91-.37.44-.73.89-1.09,1.34-.24.31-.49.62-.72.93-.36.47-.7.95-1.05,1.44-.22.3-.44.61-.65.91-.37.54-.72,1.09-1.07,1.64-.17.27-.34.53-.51.79-1.01,1.65-1.94,3.35-2.79,5.11-.14.28-.26.57-.39.86-.28.6-.55,1.2-.81,1.81-.15.35-.28.7-.42,1.05-.22.56-.45,1.13-.65,1.7-.14.38-.27.76-.4,1.14-.19.56-.37,1.12-.55,1.68-.12.39-.24.79-.35,1.18-.16.57-.31,1.14-.46,1.72-.1.4-.2.79-.29,1.19-.14.6-.26,1.2-.38,1.81-.08.38-.16.76-.22,1.15-.12.67-.22,1.34-.31,2.02-.05.33-.1.66-.14.99-.13,1.01-.23,2.03-.3,3.05l-3.9,54.37-1.86,25.95-.49,6.15c0,11.5-9.32,20.82-20.82,20.82s-20.82-9.32-20.82-20.82l-.49-6.13-5.77-80.34c-2.21-30.78-27.82-54.62-58.68-54.62h-170.81c-1.93,0-3.84.09-5.72.28-5.65.55-11.07,1.89-16.16,3.93-1.69.68-3.35,1.43-4.96,2.26s-3.18,1.73-4.71,2.7c-.93.59-1.84,1.22-2.74,1.87-.57.41-1.13.81-1.68,1.24-.02.01-.03.03-.05.04-.74.58-1.47,1.17-2.18,1.78-.24.21-.48.43-.72.64-.48.42-.96.85-1.43,1.29-.27.26-.54.52-.81.78-.42.41-.84.82-1.25,1.25-.27.28-.54.57-.81.86-.39.42-.77.84-1.15,1.27-.26.3-.52.61-.78.91-.37.44-.73.88-1.08,1.33-.25.31-.49.62-.73.94-.36.47-.7.95-1.04,1.43-.22.31-.44.61-.65.93-.36.53-.71,1.08-1.06,1.62-.17.27-.35.54-.52.81-.5.81-.97,1.63-1.43,2.47-.02.03-.03.06-.05.09-.45.83-.89,1.68-1.3,2.54-.14.3-.27.6-.41.9-.27.59-.54,1.18-.79,1.77-.15.36-.29.72-.43,1.08-.22.55-.44,1.1-.64,1.66-.14.39-.27.78-.41,1.17-.19.55-.37,1.1-.54,1.65-.12.4-.24.81-.36,1.21-.16.56-.31,1.12-.45,1.68-.1.41-.21.81-.3,1.22-.13.58-.25,1.18-.37,1.77-.08.4-.16.79-.23,1.19-.11.65-.21,1.3-.3,1.96-.05.35-.11.7-.15,1.05-.12.96-.22,1.92-.29,2.9,0,.05-.01.1-.01.15l-3.62,50.5-2.14,29.81-.49,6.15c0,11.5-9.32,20.82-20.82,20.82s-20.82-9.32-20.82-20.82l-.49-6.13-5.77-80.34c-2.21-30.78-27.82-54.62-58.68-54.62h-170.81c-7.71,0-15.1,1.49-21.87,4.21-1.69.68-3.35,1.43-4.96,2.26-3.23,1.66-6.28,3.6-9.13,5.81-12.82,9.91-21.47,25.03-22.71,42.34l-3.62,50.5-2.14,29.81-.49,6.15c0,11.5-9.32,20.82-20.82,20.82s-20.82-9.32-20.82-20.82l-.5-6.19-5.76-80.28c-2.21-30.78-27.82-54.62-58.68-54.62h-170.81c-30.86,0-56.47,23.84-58.68,54.62l-19.31,269.06c-2.44,34.06,24.53,63.04,58.68,63.04h1920.96c34.15,0,61.12-28.98,58.67-63.04Z"/><path class="cls-5" d="M3917.44,323.68l-19.31-269.06c-2.21-30.78-27.82-54.62-58.68-54.62h-170.81c-30.86,0-56.47,23.84-58.68,54.62l-5.76,80.28-.5,6.19c0,11.5-9.32,20.82-20.82,20.82s-20.82-9.32-20.82-20.82l-.49-6.13-5.77-80.34c-2.21-30.78-27.82-54.62-58.68-54.62h-170.81c-7.71,0-15.1,1.49-21.87,4.21-1.69.68-3.35,1.43-4.96,2.26-3.23,1.66-6.28,3.6-9.13,5.81-12.82,9.91-21.47,25.03-22.71,42.34l-3.62,50.5-2.14,29.81-.49,6.15c0,11.5-9.32,20.82-20.82,20.82s-20.82-9.32-20.82-20.82l-.49-6.13-5.77-80.34c-2.21-30.78-27.82-54.62-58.68-54.62h-170.81c-1.93,0-3.84.09-5.72.28-5.65.55-11.07,1.89-16.15,3.93-1.69.68-3.35,1.43-4.96,2.26-2.07,1.06-4.07,2.26-5.99,3.56-1.87,1.26-3.66,2.61-5.37,4.07-.24.2-.46.41-.69.62-.49.43-.97.86-1.45,1.31-.27.25-.53.52-.79.77-.42.41-.84.83-1.26,1.26-.27.28-.54.57-.8.86-.39.42-.78.85-1.15,1.28-.26.3-.52.6-.77.91-.37.44-.73.89-1.09,1.34-.24.31-.49.62-.72.93-.36.47-.7.95-1.05,1.44-.22.3-.44.61-.65.91-.37.54-.72,1.09-1.07,1.64-.17.27-.34.53-.51.79-1.01,1.65-1.94,3.35-2.79,5.11-.14.28-.26.57-.39.86-.28.6-.55,1.2-.81,1.81-.15.35-.28.7-.42,1.05-.22.56-.45,1.13-.65,1.7-.14.38-.27.76-.4,1.14-.19.56-.37,1.12-.55,1.68-.12.39-.24.79-.35,1.18-.16.57-.31,1.14-.46,1.72-.1.4-.2.79-.29,1.19-.14.6-.26,1.2-.38,1.81-.08.38-.16.76-.22,1.15-.12.67-.22,1.34-.31,2.02-.05.33-.1.66-.14.99-.13,1.01-.23,2.03-.3,3.05l-3.9,54.37-1.86,25.95-.49,6.15c0,11.5-9.32,20.82-20.82,20.82s-20.82-9.32-20.82-20.82l-.49-6.13-5.77-80.34c-2.21-30.78-27.82-54.62-58.68-54.62h-170.81c-1.93,0-3.84.09-5.72.28-5.65.55-11.07,1.89-16.16,3.93-1.69.68-3.35,1.43-4.96,2.26s-3.18,1.73-4.71,2.7c-.93.59-1.84,1.22-2.74,1.87-.57.41-1.13.81-1.68,1.24-.02.01-.03.03-.05.04-.74.58-1.47,1.17-2.18,1.78-.24.21-.48.43-.72.64-.48.42-.96.85-1.43,1.29-.27.26-.54.52-.81.78-.42.41-.84.82-1.25,1.25-.27.28-.54.57-.81.86-.39.42-.77.84-1.15,1.27-.26.3-.52.61-.78.91-.37.44-.73.88-1.08,1.33-.25.31-.49.62-.73.94-.36.47-.7.95-1.04,1.43-.22.31-.44.61-.65.93-.36.53-.71,1.08-1.06,1.62-.17.27-.35.54-.52.81-.5.81-.97,1.63-1.43,2.47-.02.03-.03.06-.05.09-.45.83-.89,1.68-1.3,2.54-.14.3-.27.6-.41.9-.27.59-.54,1.18-.79,1.77-.15.36-.29.72-.43,1.08-.22.55-.44,1.1-.64,1.66-.14.39-.27.78-.41,1.17-.19.55-.37,1.1-.54,1.65-.12.4-.24.81-.36,1.21-.16.56-.31,1.12-.45,1.68-.1.41-.21.81-.3,1.22-.13.58-.25,1.18-.37,1.77-.08.4-.16.79-.23,1.19-.11.65-.21,1.3-.3,1.96-.05.35-.11.7-.15,1.05-.12.96-.22,1.92-.29,2.9,0,.05-.01.1-.01.15l-3.62,50.5-2.14,29.81-.49,6.15c0,11.5-9.32,20.82-20.82,20.82s-20.82-9.32-20.82-20.82l-.49-6.13-5.77-80.34c-2.21-30.78-27.82-54.62-58.68-54.62h-170.81c-7.71,0-15.1,1.49-21.87,4.21-1.69.68-3.35,1.43-4.96,2.26-3.23,1.66-6.28,3.6-9.13,5.81-12.82,9.91-21.47,25.03-22.71,42.34l-3.62,50.5-2.14,29.81-.49,6.15c0,11.5-9.32,20.82-20.82,20.82s-20.82-9.32-20.82-20.82l-.5-6.19-5.76-80.28c-2.21-30.78-27.82-54.62-58.68-54.62h-170.81c-30.86,0-56.47,23.84-58.68,54.62l-19.31,269.06c-2.44,34.06,24.53,63.04,58.68,63.04h1920.96c34.15,0,61.12-28.98,58.67-63.04Z"/><path class="cls-2" d="M2038.46,508.71l-19.31-269.06c-2.21-30.78-27.82-54.62-58.68-54.62h-170.81c-30.86,0-56.47,23.84-58.68,54.62l-5.76,80.28-.5,6.19c0,11.5-9.32,20.82-20.82,20.82s-20.82-9.32-20.82-20.82l-.49-6.13-5.77-80.34c-2.21-30.78-27.82-54.62-58.68-54.62h-170.81c-7.71,0-15.1,1.49-21.87,4.21-1.69.68-3.35,1.43-4.96,2.26-3.23,1.66-6.28,3.6-9.13,5.81-12.82,9.91-21.47,25.03-22.71,42.34l-3.62,50.5-2.14,29.81-.49,6.15c0,11.5-9.32,20.82-20.82,20.82s-20.82-9.32-20.82-20.82l-.49-6.13-5.77-80.34c-2.21-30.78-27.82-54.62-58.68-54.62h-170.81c-1.93,0-3.84.09-5.72.28-5.65.55-11.07,1.89-16.15,3.93-1.69.68-3.35,1.43-4.96,2.26-2.07,1.06-4.07,2.26-5.99,3.56-1.87,1.26-3.66,2.61-5.37,4.07-.24.2-.46.41-.69.62-.49.43-.97.86-1.45,1.31-.27.25-.53.52-.79.77-.42.41-.84.83-1.26,1.26-.27.28-.54.57-.8.86-.39.42-.78.85-1.15,1.28-.26.3-.52.6-.77.91-.37.44-.73.89-1.09,1.34-.24.31-.49.62-.72.93-.36.47-.7.95-1.05,1.44-.22.3-.44.61-.65.91-.37.54-.72,1.09-1.07,1.64-.17.27-.34.53-.51.79-1.01,1.65-1.94,3.35-2.79,5.11-.14.28-.26.57-.39.86-.28.6-.55,1.2-.81,1.81-.15.35-.28.7-.42,1.05-.22.56-.45,1.13-.65,1.7-.14.38-.27.76-.4,1.14-.19.56-.37,1.12-.55,1.68-.12.39-.24.79-.35,1.18-.16.57-.31,1.14-.46,1.72-.1.4-.2.79-.29,1.19-.14.6-.26,1.2-.38,1.81-.08.38-.16.76-.22,1.15-.12.67-.22,1.34-.31,2.02-.05.33-.1.66-.14.99-.13,1.01-.23,2.03-.3,3.05l-3.9,54.37-1.86,25.95-.49,6.15c0,11.5-9.32,20.82-20.82,20.82s-20.82-9.32-20.82-20.82l-.49-6.13-5.77-80.34c-2.21-30.78-27.82-54.62-58.68-54.62h-170.81c-1.93,0-3.84.09-5.72.28-5.65.55-11.07,1.89-16.16,3.93-1.69.68-3.35,1.43-4.96,2.26s-3.18,1.73-4.71,2.7c-.93.59-1.84,1.22-2.74,1.87-.57.41-1.13.81-1.68,1.24-.02.01-.03.03-.05.04-.74.58-1.47,1.17-2.18,1.78-.24.21-.48.43-.72.64-.48.42-.96.85-1.43,1.29-.27.26-.54.52-.81.78-.42.41-.84.82-1.25,1.25-.27.28-.54.57-.81.86-.39.42-.77.84-1.15,1.27-.26.3-.52.61-.78.91-.37.44-.73.88-1.08,1.33-.25.31-.49.62-.73.94-.36.47-.7.95-1.04,1.43-.22.31-.44.61-.65.93-.36.53-.71,1.08-1.06,1.62-.17.27-.35.54-.52.81-.5.81-.97,1.63-1.43,2.47-.02.03-.03.06-.05.09-.45.83-.89,1.68-1.3,2.54-.14.3-.27.6-.41.9-.27.59-.54,1.18-.79,1.77-.15.36-.29.72-.43,1.08-.22.55-.44,1.1-.64,1.66-.14.39-.27.78-.41,1.17-.19.55-.37,1.1-.54,1.65-.12.4-.24.81-.36,1.21-.16.56-.31,1.12-.45,1.68-.1.41-.21.81-.3,1.22-.13.58-.25,1.18-.37,1.77-.08.4-.16.79-.23,1.19-.11.65-.21,1.3-.3,1.96-.05.35-.11.7-.15,1.05-.12.96-.22,1.92-.29,2.9,0,.05-.01.1-.01.15l-3.62,50.5-2.14,29.81-.49,6.15c0,11.5-9.32,20.82-20.82,20.82s-20.82-9.32-20.82-20.82l-.49-6.13-5.77-80.34c-2.21-30.78-27.82-54.62-58.68-54.62h-170.81c-7.71,0-15.1,1.49-21.87,4.21-1.69.68-3.35,1.43-4.96,2.26-3.23,1.66-6.28,3.6-9.13,5.81-12.82,9.91-21.47,25.03-22.71,42.34l-3.62,50.5-2.14,29.81-.49,6.15c0,11.5-9.32,20.82-20.82,20.82s-20.82-9.32-20.82-20.82l-.5-6.19-5.76-80.28c-2.21-30.78-27.82-54.62-58.68-54.62H78.14c-30.86,0-56.47,23.84-58.68,54.62L.15,508.71c-2.44,34.06,24.53,63.04,58.68,63.04h1920.96c34.15,0,61.12-28.98,58.67-63.04Z"/><path class="cls-2" d="M3750.46,508.71l-19.31-269.06c-2.21-30.78-27.82-54.62-58.68-54.62h-170.81c-30.86,0-56.47,23.84-58.68,54.62l-5.76,80.28-.5,6.19c0,11.5-9.32,20.82-20.82,20.82s-20.82-9.32-20.82-20.82l-.49-6.13-5.77-80.34c-2.21-30.78-27.82-54.62-58.68-54.62h-170.81c-7.71,0-15.1,1.49-21.87,4.21-1.69.68-3.35,1.43-4.96,2.26-3.23,1.66-6.28,3.6-9.13,5.81-12.82,9.91-21.47,25.03-22.71,42.34l-3.62,50.5-2.14,29.81-.49,6.15c0,11.5-9.32,20.82-20.82,20.82s-20.82-9.32-20.82-20.82l-.49-6.13-5.77-80.34c-2.21-30.78-27.82-54.62-58.68-54.62h-170.81c-1.93,0-3.84.09-5.72.28-5.65.55-11.07,1.89-16.15,3.93-1.69.68-3.35,1.43-4.96,2.26-2.07,1.06-4.07,2.26-5.99,3.56-1.87,1.26-3.66,2.61-5.37,4.07-.24.2-.46.41-.69.62-.49.43-.97.86-1.45,1.31-.27.25-.53.52-.79.77-.42.41-.84.83-1.26,1.26-.27.28-.54.57-.8.86-.39.42-.78.85-1.15,1.28-.26.3-.52.6-.77.91-.37.44-.73.89-1.09,1.34-.24.31-.49.62-.72.93-.36.47-.7.95-1.05,1.44-.22.3-.44.61-.65.91-.37.54-.72,1.09-1.07,1.64-.17.27-.34.53-.51.79-1.01,1.65-1.94,3.35-2.79,5.11-.14.28-.26.57-.39.86-.28.6-.55,1.2-.81,1.81-.15.35-.28.7-.42,1.05-.22.56-.45,1.13-.65,1.7-.14.38-.27.76-.4,1.14-.19.56-.37,1.12-.55,1.68-.12.39-.24.79-.35,1.18-.16.57-.31,1.14-.46,1.72-.1.4-.2.79-.29,1.19-.14.6-.26,1.2-.38,1.81-.08.38-.16.76-.22,1.15-.12.67-.22,1.34-.31,2.02-.05.33-.1.66-.14.99-.13,1.01-.23,2.03-.3,3.05l-3.9,54.37-1.86,25.95-.49,6.15c0,11.5-9.32,20.82-20.82,20.82s-20.82-9.32-20.82-20.82l-.49-6.13-5.77-80.34c-2.21-30.78-27.82-54.62-58.68-54.62h-170.81c-1.93,0-3.84.09-5.72.28-5.65.55-11.07,1.89-16.16,3.93-1.69.68-3.35,1.43-4.96,2.26s-3.18,1.73-4.71,2.7c-.93.59-1.84,1.22-2.74,1.87-.57.41-1.13.81-1.68,1.24-.02.01-.03.03-.05.04-.74.58-1.47,1.17-2.18,1.78-.24.21-.48.43-.72.64-.48.42-.96.85-1.43,1.29-.27.26-.54.52-.81.78-.42.41-.84.82-1.25,1.25-.27.28-.54.57-.81.86-.39.42-.77.84-1.15,1.27-.26.3-.52.61-.78.91-.37.44-.73.88-1.08,1.33-.25.31-.49.62-.73.94-.36.47-.7.95-1.04,1.43-.22.31-.44.61-.65.93-.36.53-.71,1.08-1.06,1.62-.17.27-.35.54-.52.81-.5.81-.97,1.63-1.43,2.47-.02.03-.03.06-.05.09-.45.83-.89,1.68-1.3,2.54-.14.3-.27.6-.41.9-.27.59-.54,1.18-.79,1.77-.15.36-.29.72-.43,1.08-.22.55-.44,1.1-.64,1.66-.14.39-.27.78-.41,1.17-.19.55-.37,1.1-.54,1.65-.12.4-.24.81-.36,1.21-.16.56-.31,1.12-.45,1.68-.1.41-.21.81-.3,1.22-.13.58-.25,1.18-.37,1.77-.08.4-.16.79-.23,1.19-.11.65-.21,1.3-.3,1.96-.05.35-.11.7-.15,1.05-.12.96-.22,1.92-.29,2.9,0,.05-.01.1-.01.15l-3.62,50.5-2.14,29.81-.49,6.15c0,11.5-9.32,20.82-20.82,20.82s-20.82-9.32-20.82-20.82l-.49-6.13-5.77-80.34c-2.21-30.78-27.82-54.62-58.68-54.62h-170.81c-7.71,0-15.1,1.49-21.87,4.21-1.69.68-3.35,1.43-4.96,2.26-3.23,1.66-6.28,3.6-9.13,5.81-12.82,9.91-21.47,25.03-22.71,42.34l-3.62,50.5-2.14,29.81-.49,6.15c0,11.5-9.32,20.82-20.82,20.82s-20.82-9.32-20.82-20.82l-.5-6.19-5.76-80.28c-2.21-30.78-27.82-54.62-58.68-54.62h-170.81c-30.86,0-56.47,23.84-58.68,54.62l-19.31,269.06c-2.44,34.06,24.53,63.04,58.68,63.04h1920.96c34.15,0,61.12-28.98,58.67-63.04Z"/><path class="cls-7" d="M2205.44,698.36l-19.31-269.06c-2.21-30.78-27.82-54.62-58.68-54.62h-170.81c-30.86,0-56.47,23.84-58.68,54.62l-5.76,80.28-.5,6.19c0,11.5-9.32,20.82-20.82,20.82s-20.82-9.32-20.82-20.82l-.49-6.13-5.77-80.34c-2.21-30.78-27.82-54.62-58.68-54.62h-170.81c-7.71,0-15.1,1.49-21.87,4.21-1.69.68-3.35,1.43-4.96,2.26-3.23,1.66-6.28,3.6-9.13,5.81-12.82,9.91-21.47,25.03-22.71,42.34l-3.62,50.5-2.14,29.81-.49,6.15c0,11.5-9.32,20.82-20.82,20.82s-20.82-9.32-20.82-20.82l-.49-6.13-5.77-80.34c-2.21-30.78-27.82-54.62-58.68-54.62h-170.81c-1.93,0-3.84.09-5.72.28-5.65.55-11.07,1.89-16.15,3.93-1.69.68-3.35,1.43-4.96,2.26-2.07,1.06-4.07,2.26-5.99,3.56-1.87,1.26-3.66,2.61-5.37,4.07-.24.2-.46.41-.69.62-.49.43-.97.86-1.45,1.31-.27.25-.53.52-.79.77-.42.41-.84.83-1.26,1.26-.27.28-.54.57-.8.86-.39.42-.78.85-1.15,1.28-.26.3-.52.6-.77.91-.37.44-.73.89-1.09,1.34-.24.31-.49.62-.72.93-.36.47-.7.95-1.05,1.44-.22.3-.44.61-.65.91-.37.54-.72,1.09-1.07,1.64-.17.27-.34.53-.51.79-1.01,1.65-1.94,3.35-2.79,5.11-.14.28-.26.57-.39.86-.28.6-.55,1.2-.81,1.81-.15.35-.28.7-.42,1.05-.22.56-.45,1.13-.65,1.7-.14.38-.27.76-.4,1.14-.19.56-.37,1.12-.55,1.68-.12.39-.24.79-.35,1.18-.16.57-.31,1.14-.46,1.72-.1.4-.2.79-.29,1.19-.14.6-.26,1.2-.38,1.81-.08.38-.16.76-.22,1.15-.12.67-.22,1.34-.31,2.02-.05.33-.1.66-.14.99-.13,1.01-.23,2.03-.3,3.05l-3.9,54.37-1.86,25.95-.49,6.15c0,11.5-9.32,20.82-20.82,20.82s-20.82-9.32-20.82-20.82l-.49-6.13-5.77-80.34c-2.21-30.78-27.82-54.62-58.68-54.62h-170.81c-1.93,0-3.84.09-5.72.28-5.65.55-11.07,1.89-16.16,3.93-1.69.68-3.35,1.43-4.96,2.26s-3.18,1.73-4.71,2.7c-.93.59-1.84,1.22-2.74,1.87-.57.41-1.13.81-1.68,1.24-.02.01-.03.03-.05.04-.74.58-1.47,1.17-2.18,1.78-.24.21-.48.43-.72.64-.48.42-.96.85-1.43,1.29-.27.26-.54.52-.81.78-.42.41-.84.82-1.25,1.25-.27.28-.54.57-.81.86-.39.42-.77.84-1.15,1.27-.26.3-.52.61-.78.91-.37.44-.73.88-1.08,1.33-.25.31-.49.62-.73.94-.36.47-.7.95-1.04,1.43-.22.31-.44.61-.65.93-.36.53-.71,1.08-1.06,1.62-.17.27-.35.54-.52.81-.5.81-.97,1.63-1.43,2.47-.02.03-.03.06-.05.09-.45.83-.89,1.68-1.3,2.54-.14.3-.27.6-.41.9-.27.59-.54,1.18-.79,1.77-.15.36-.29.72-.43,1.08-.22.55-.44,1.1-.64,1.66-.14.39-.27.78-.41,1.17-.19.55-.37,1.1-.54,1.65-.12.4-.24.81-.36,1.21-.16.56-.31,1.12-.45,1.68-.1.41-.21.81-.3,1.22-.13.58-.25,1.18-.37,1.77-.08.4-.16.79-.23,1.19-.11.65-.21,1.3-.3,1.96-.05.35-.11.7-.15,1.05-.12.96-.22,1.92-.29,2.9,0,.05-.01.1-.01.15l-3.62,50.5-2.14,29.81-.49,6.15c0,11.5-9.32,20.82-20.82,20.82s-20.82-9.32-20.82-20.82l-.49-6.13-5.77-80.34c-2.21-30.78-27.82-54.62-58.68-54.62h-170.81c-7.71,0-15.1,1.49-21.87,4.21-1.69.68-3.35,1.43-4.96,2.26-3.23,1.66-6.28,3.6-9.13,5.81-12.82,9.91-21.47,25.03-22.71,42.34l-3.62,50.5-2.14,29.81-.49,6.15c0,11.5-9.32,20.82-20.82,20.82s-20.82-9.32-20.82-20.82l-.5-6.19-5.76-80.28c-2.21-30.78-27.82-54.62-58.68-54.62h-170.81c-30.86,0-56.47,23.84-58.68,54.62l-19.31,269.06c-2.44,34.06,24.53,63.04,58.68,63.04h1920.96c34.15,0,61.12-28.98,58.67-63.04Z"/><path class="cls-7" d="M3917.44,698.36l-19.31-269.06c-2.21-30.78-27.82-54.62-58.68-54.62h-170.81c-30.86,0-56.47,23.84-58.68,54.62l-5.76,80.28-.5,6.19c0,11.5-9.32,20.82-20.82,20.82s-20.82-9.32-20.82-20.82l-.49-6.13-5.77-80.34c-2.21-30.78-27.82-54.62-58.68-54.62h-170.81c-7.71,0-15.1,1.49-21.87,4.21-1.69.68-3.35,1.43-4.96,2.26-3.23,1.66-6.28,3.6-9.13,5.81-12.82,9.91-21.47,25.03-22.71,42.34l-3.62,50.5-2.14,29.81-.49,6.15c0,11.5-9.32,20.82-20.82,20.82s-20.82-9.32-20.82-20.82l-.49-6.13-5.77-80.34c-2.21-30.78-27.82-54.62-58.68-54.62h-170.81c-1.93,0-3.84.09-5.72.28-5.65.55-11.07,1.89-16.15,3.93-1.69.68-3.35,1.43-4.96,2.26-2.07,1.06-4.07,2.26-5.99,3.56-1.87,1.26-3.66,2.61-5.37,4.07-.24.2-.46.41-.69.62-.49.43-.97.86-1.45,1.31-.27.25-.53.52-.79.77-.42.41-.84.83-1.26,1.26-.27.28-.54.57-.8.86-.39.42-.78.85-1.15,1.28-.26.3-.52.6-.77.91-.37.44-.73.89-1.09,1.34-.24.31-.49.62-.72.93-.36.47-.7.95-1.05,1.44-.22.3-.44.61-.65.91-.37.54-.72,1.09-1.07,1.64-.17.27-.34.53-.51.79-1.01,1.65-1.94,3.35-2.79,5.11-.14.28-.26.57-.39.86-.28.6-.55,1.2-.81,1.81-.15.35-.28.7-.42,1.05-.22.56-.45,1.13-.65,1.7-.14.38-.27.76-.4,1.14-.19.56-.37,1.12-.55,1.68-.12.39-.24.79-.35,1.18-.16.57-.31,1.14-.46,1.72-.1.4-.2.79-.29,1.19-.14.6-.26,1.2-.38,1.81-.08.38-.16.76-.22,1.15-.12.67-.22,1.34-.31,2.02-.05.33-.1.66-.14.99-.13,1.01-.23,2.03-.3,3.05l-3.9,54.37-1.86,25.95-.49,6.15c0,11.5-9.32,20.82-20.82,20.82s-20.82-9.32-20.82-20.82l-.49-6.13-5.77-80.34c-2.21-30.78-27.82-54.62-58.68-54.62h-170.81c-1.93,0-3.84.09-5.72.28-5.65.55-11.07,1.89-16.16,3.93-1.69.68-3.35,1.43-4.96,2.26s-3.18,1.73-4.71,2.7c-.93.59-1.84,1.22-2.74,1.87-.57.41-1.13.81-1.68,1.24-.02.01-.03.03-.05.04-.74.58-1.47,1.17-2.18,1.78-.24.21-.48.43-.72.64-.48.42-.96.85-1.43,1.29-.27.26-.54.52-.81.78-.42.41-.84.82-1.25,1.25-.27.28-.54.57-.81.86-.39.42-.77.84-1.15,1.27-.26.3-.52.61-.78.91-.37.44-.73.88-1.08,1.33-.25.31-.49.62-.73.94-.36.47-.7.95-1.04,1.43-.22.31-.44.61-.65.93-.36.53-.71,1.08-1.06,1.62-.17.27-.35.54-.52.81-.5.81-.97,1.63-1.43,2.47-.02.03-.03.06-.05.09-.45.83-.89,1.68-1.3,2.54-.14.3-.27.6-.41.9-.27.59-.54,1.18-.79,1.77-.15.36-.29.72-.43,1.08-.22.55-.44,1.1-.64,1.66-.14.39-.27.78-.41,1.17-.19.55-.37,1.1-.54,1.65-.12.4-.24.81-.36,1.21-.16.56-.31,1.12-.45,1.68-.1.41-.21.81-.3,1.22-.13.58-.25,1.18-.37,1.77-.08.4-.16.79-.23,1.19-.11.65-.21,1.3-.3,1.96-.05.35-.11.7-.15,1.05-.12.96-.22,1.92-.29,2.9,0,.05-.01.1-.01.15l-3.62,50.5-2.14,29.81-.49,6.15c0,11.5-9.32,20.82-20.82,20.82s-20.82-9.32-20.82-20.82l-.49-6.13-5.77-80.34c-2.21-30.78-27.82-54.62-58.68-54.62h-170.81c-7.71,0-15.1,1.49-21.87,4.21-1.69.68-3.35,1.43-4.96,2.26-3.23,1.66-6.28,3.6-9.13,5.81-12.82,9.91-21.47,25.03-22.71,42.34l-3.62,50.5-2.14,29.81-.49,6.15c0,11.5-9.32,20.82-20.82,20.82s-20.82-9.32-20.82-20.82l-.5-6.19-5.76-80.28c-2.21-30.78-27.82-54.62-58.68-54.62h-170.81c-30.86,0-56.47,23.84-58.68,54.62l-19.31,269.06c-2.44,34.06,24.53,63.04,58.68,63.04h1920.96c34.15,0,61.12-28.98,58.67-63.04Z"/><path class="cls-3" d="M2038.46,895.42l-19.31-269.06c-2.21-30.78-27.82-54.62-58.68-54.62h-170.81c-30.86,0-56.47,23.84-58.68,54.62l-5.76,80.28-.5,6.19c0,11.5-9.32,20.82-20.82,20.82s-20.82-9.32-20.82-20.82l-.49-6.13-5.77-80.34c-2.21-30.78-27.82-54.62-58.68-54.62h-170.81c-7.71,0-15.1,1.49-21.87,4.21-1.69.68-3.35,1.43-4.96,2.26-3.23,1.66-6.28,3.6-9.13,5.81-12.82,9.91-21.47,25.03-22.71,42.34l-3.62,50.5-2.14,29.81-.49,6.15c0,11.5-9.32,20.82-20.82,20.82s-20.82-9.32-20.82-20.82l-.49-6.13-5.77-80.34c-2.21-30.78-27.82-54.62-58.68-54.62h-170.81c-1.93,0-3.84.09-5.72.28-5.65.55-11.07,1.89-16.15,3.93-1.69.68-3.35,1.43-4.96,2.26-2.07,1.06-4.07,2.26-5.99,3.56-1.87,1.26-3.66,2.61-5.37,4.07-.24.2-.46.41-.69.62-.49.43-.97.86-1.45,1.31-.27.25-.53.52-.79.77-.42.41-.84.83-1.26,1.26-.27.28-.54.57-.8.86-.39.42-.78.85-1.15,1.28-.26.3-.52.6-.77.91-.37.44-.73.89-1.09,1.34-.24.31-.49.62-.72.93-.36.47-.7.95-1.05,1.44-.22.3-.44.61-.65.91-.37.54-.72,1.09-1.07,1.64-.17.27-.34.53-.51.79-1.01,1.65-1.94,3.35-2.79,5.11-.14.28-.26.57-.39.86-.28.6-.55,1.2-.81,1.81-.15.35-.28.7-.42,1.05-.22.56-.45,1.13-.65,1.7-.14.38-.27.76-.4,1.14-.19.56-.37,1.12-.55,1.68-.12.39-.24.79-.35,1.18-.16.57-.31,1.14-.46,1.72-.1.4-.2.79-.29,1.19-.14.6-.26,1.2-.38,1.81-.08.38-.16.76-.22,1.15-.12.67-.22,1.34-.31,2.02-.05.33-.1.66-.14.99-.13,1.01-.23,2.03-.3,3.05l-3.9,54.37-1.86,25.95-.49,6.15c0,11.5-9.32,20.82-20.82,20.82s-20.82-9.32-20.82-20.82l-.49-6.13-5.77-80.34c-2.21-30.78-27.82-54.62-58.68-54.62h-170.81c-1.93,0-3.84.09-5.72.28-5.65.55-11.07,1.89-16.16,3.93-1.69.68-3.35,1.43-4.96,2.26s-3.18,1.73-4.71,2.7c-.93.59-1.84,1.22-2.74,1.87-.57.41-1.13.81-1.68,1.24-.02.01-.03.03-.05.04-.74.58-1.47,1.17-2.18,1.78-.24.21-.48.43-.72.64-.48.42-.96.85-1.43,1.29-.27.26-.54.52-.81.78-.42.41-.84.82-1.25,1.25-.27.28-.54.57-.81.86-.39.42-.77.84-1.15,1.27-.26.3-.52.61-.78.91-.37.44-.73.88-1.08,1.33-.25.31-.49.62-.73.94-.36.47-.7.95-1.04,1.43-.22.31-.44.61-.65.93-.36.53-.71,1.08-1.06,1.62-.17.27-.35.54-.52.81-.5.81-.97,1.63-1.43,2.47-.02.03-.03.06-.05.09-.45.83-.89,1.68-1.3,2.54-.14.3-.27.6-.41.9-.27.59-.54,1.18-.79,1.77-.15.36-.29.72-.43,1.08-.22.55-.44,1.1-.64,1.66-.14.39-.27.78-.41,1.17-.19.55-.37,1.1-.54,1.65-.12.4-.24.81-.36,1.21-.16.56-.31,1.12-.45,1.68-.1.41-.21.81-.3,1.22-.13.58-.25,1.18-.37,1.77-.08.4-.16.79-.23,1.19-.11.65-.21,1.3-.3,1.96-.05.35-.11.7-.15,1.05-.12.96-.22,1.92-.29,2.9,0,.05-.01.1-.01.15l-3.62,50.5-2.14,29.81-.49,6.15c0,11.5-9.32,20.82-20.82,20.82s-20.82-9.32-20.82-20.82l-.49-6.13-5.77-80.34c-2.21-30.78-27.82-54.62-58.68-54.62h-170.81c-7.71,0-15.1,1.49-21.87,4.21-1.69.68-3.35,1.43-4.96,2.26-3.23,1.66-6.28,3.6-9.13,5.81-12.82,9.91-21.47,25.03-22.71,42.34l-3.62,50.5-2.14,29.81-.49,6.15c0,11.5-9.32,20.82-20.82,20.82s-20.82-9.32-20.82-20.82l-.5-6.19-5.76-80.28c-2.21-30.78-27.82-54.62-58.68-54.62H78.14c-30.86,0-56.47,23.84-58.68,54.62L.15,895.42c-2.44,34.06,24.53,63.04,58.68,63.04h1920.96c34.15,0,61.12-28.98,58.67-63.04Z"/><path class="cls-3" d="M3750.46,895.42l-19.31-269.06c-2.21-30.78-27.82-54.62-58.68-54.62h-170.81c-30.86,0-56.47,23.84-58.68,54.62l-5.76,80.28-.5,6.19c0,11.5-9.32,20.82-20.82,20.82s-20.82-9.32-20.82-20.82l-.49-6.13-5.77-80.34c-2.21-30.78-27.82-54.62-58.68-54.62h-170.81c-7.71,0-15.1,1.49-21.87,4.21-1.69.68-3.35,1.43-4.96,2.26-3.23,1.66-6.28,3.6-9.13,5.81-12.82,9.91-21.47,25.03-22.71,42.34l-3.62,50.5-2.14,29.81-.49,6.15c0,11.5-9.32,20.82-20.82,20.82s-20.82-9.32-20.82-20.82l-.49-6.13-5.77-80.34c-2.21-30.78-27.82-54.62-58.68-54.62h-170.81c-1.93,0-3.84.09-5.72.28-5.65.55-11.07,1.89-16.15,3.93-1.69.68-3.35,1.43-4.96,2.26-2.07,1.06-4.07,2.26-5.99,3.56-1.87,1.26-3.66,2.61-5.37,4.07-.24.2-.46.41-.69.62-.49.43-.97.86-1.45,1.31-.27.25-.53.52-.79.77-.42.41-.84.83-1.26,1.26-.27.28-.54.57-.8.86-.39.42-.78.85-1.15,1.28-.26.3-.52.6-.77.91-.37.44-.73.89-1.09,1.34-.24.31-.49.62-.72.93-.36.47-.7.95-1.05,1.44-.22.3-.44.61-.65.91-.37.54-.72,1.09-1.07,1.64-.17.27-.34.53-.51.79-1.01,1.65-1.94,3.35-2.79,5.11-.14.28-.26.57-.39.86-.28.6-.55,1.2-.81,1.81-.15.35-.28.7-.42,1.05-.22.56-.45,1.13-.65,1.7-.14.38-.27.76-.4,1.14-.19.56-.37,1.12-.55,1.68-.12.39-.24.79-.35,1.18-.16.57-.31,1.14-.46,1.72-.1.4-.2.79-.29,1.19-.14.6-.26,1.2-.38,1.81-.08.38-.16.76-.22,1.15-.12.67-.22,1.34-.31,2.02-.05.33-.1.66-.14.99-.13,1.01-.23,2.03-.3,3.05l-3.9,54.37-1.86,25.95-.49,6.15c0,11.5-9.32,20.82-20.82,20.82s-20.82-9.32-20.82-20.82l-.49-6.13-5.77-80.34c-2.21-30.78-27.82-54.62-58.68-54.62h-170.81c-1.93,0-3.84.09-5.72.28-5.65.55-11.07,1.89-16.16,3.93-1.69.68-3.35,1.43-4.96,2.26s-3.18,1.73-4.71,2.7c-.93.59-1.84,1.22-2.74,1.87-.57.41-1.13.81-1.68,1.24-.02.01-.03.03-.05.04-.74.58-1.47,1.17-2.18,1.78-.24.21-.48.43-.72.64-.48.42-.96.85-1.43,1.29-.27.26-.54.52-.81.78-.42.41-.84.82-1.25,1.25-.27.28-.54.57-.81.86-.39.42-.77.84-1.15,1.27-.26.3-.52.61-.78.91-.37.44-.73.88-1.08,1.33-.25.31-.49.62-.73.94-.36.47-.7.95-1.04,1.43-.22.31-.44.61-.65.93-.36.53-.71,1.08-1.06,1.62-.17.27-.35.54-.52.81-.5.81-.97,1.63-1.43,2.47-.02.03-.03.06-.05.09-.45.83-.89,1.68-1.3,2.54-.14.3-.27.6-.41.9-.27.59-.54,1.18-.79,1.77-.15.36-.29.72-.43,1.08-.22.55-.44,1.1-.64,1.66-.14.39-.27.78-.41,1.17-.19.55-.37,1.1-.54,1.65-.12.4-.24.81-.36,1.21-.16.56-.31,1.12-.45,1.68-.1.41-.21.81-.3,1.22-.13.58-.25,1.18-.37,1.77-.08.4-.16.79-.23,1.19-.11.65-.21,1.3-.3,1.96-.05.35-.11.7-.15,1.05-.12.96-.22,1.92-.29,2.9,0,.05-.01.1-.01.15l-3.62,50.5-2.14,29.81-.49,6.15c0,11.5-9.32,20.82-20.82,20.82s-20.82-9.32-20.82-20.82l-.49-6.13-5.77-80.34c-2.21-30.78-27.82-54.62-58.68-54.62h-170.81c-7.71,0-15.1,1.49-21.87,4.21-1.69.68-3.35,1.43-4.96,2.26-3.23,1.66-6.28,3.6-9.13,5.81-12.82,9.91-21.47,25.03-22.71,42.34l-3.62,50.5-2.14,29.81-.49,6.15c0,11.5-9.32,20.82-20.82,20.82s-20.82-9.32-20.82-20.82l-.5-6.19-5.76-80.28c-2.21-30.78-27.82-54.62-58.68-54.62h-170.81c-30.86,0-56.47,23.84-58.68,54.62l-19.31,269.06c-2.44,34.06,24.53,63.04,58.68,63.04h1920.96c34.15,0,61.12-28.98,58.67-63.04Z"/><path class="cls-6" d="M2205.44,1086.92l-19.31-269.06c-2.21-30.78-27.82-54.62-58.68-54.62h-170.81c-30.86,0-56.47,23.84-58.68,54.62l-5.76,80.28-.5,6.19c0,11.5-9.32,20.82-20.82,20.82s-20.82-9.32-20.82-20.82l-.49-6.13-5.77-80.34c-2.21-30.78-27.82-54.62-58.68-54.62h-170.81c-7.71,0-15.1,1.49-21.87,4.21-1.69.68-3.35,1.43-4.96,2.26-3.23,1.66-6.28,3.6-9.13,5.81-12.82,9.91-21.47,25.03-22.71,42.34l-3.62,50.5-2.14,29.81-.49,6.15c0,11.5-9.32,20.82-20.82,20.82s-20.82-9.32-20.82-20.82l-.49-6.13-5.77-80.34c-2.21-30.78-27.82-54.62-58.68-54.62h-170.81c-1.93,0-3.84.09-5.72.28-5.65.55-11.07,1.89-16.15,3.93-1.69.68-3.35,1.43-4.96,2.26-2.07,1.06-4.07,2.26-5.99,3.56-1.87,1.26-3.66,2.61-5.37,4.07-.24.2-.46.41-.69.62-.49.43-.97.86-1.45,1.31-.27.25-.53.52-.79.77-.42.41-.84.83-1.26,1.26-.27.28-.54.57-.8.86-.39.42-.78.85-1.15,1.28-.26.3-.52.6-.77.91-.37.44-.73.89-1.09,1.34-.24.31-.49.62-.72.93-.36.47-.7.95-1.05,1.44-.22.3-.44.61-.65.91-.37.54-.72,1.09-1.07,1.64-.17.27-.34.53-.51.79-1.01,1.65-1.94,3.35-2.79,5.11-.14.28-.26.57-.39.86-.28.6-.55,1.2-.81,1.81-.15.35-.28.7-.42,1.05-.22.56-.45,1.13-.65,1.7-.14.38-.27.76-.4,1.14-.19.56-.37,1.12-.55,1.68-.12.39-.24.79-.35,1.18-.16.57-.31,1.14-.46,1.72-.1.4-.2.79-.29,1.19-.14.6-.26,1.2-.38,1.81-.08.38-.16.76-.22,1.15-.12.67-.22,1.34-.31,2.02-.05.33-.1.66-.14.99-.13,1.01-.23,2.03-.3,3.05l-3.9,54.37-1.86,25.95-.49,6.15c0,11.5-9.32,20.82-20.82,20.82s-20.82-9.32-20.82-20.82l-.49-6.13-5.77-80.34c-2.21-30.78-27.82-54.62-58.68-54.62h-170.81c-1.93,0-3.84.09-5.72.28-5.65.55-11.07,1.89-16.16,3.93-1.69.68-3.35,1.43-4.96,2.26s-3.18,1.73-4.71,2.7c-.93.59-1.84,1.22-2.74,1.87-.57.41-1.13.81-1.68,1.24-.02.01-.03.03-.05.04-.74.58-1.47,1.17-2.18,1.78-.24.21-.48.43-.72.64-.48.42-.96.85-1.43,1.29-.27.26-.54.52-.81.78-.42.41-.84.82-1.25,1.25-.27.28-.54.57-.81.86-.39.42-.77.84-1.15,1.27-.26.3-.52.61-.78.91-.37.44-.73.88-1.08,1.33-.25.31-.49.62-.73.94-.36.47-.7.95-1.04,1.43-.22.31-.44.61-.65.93-.36.53-.71,1.08-1.06,1.62-.17.27-.35.54-.52.81-.5.81-.97,1.63-1.43,2.47-.02.03-.03.06-.05.09-.45.83-.89,1.68-1.3,2.54-.14.3-.27.6-.41.9-.27.59-.54,1.18-.79,1.77-.15.36-.29.72-.43,1.08-.22.55-.44,1.1-.64,1.66-.14.39-.27.78-.41,1.17-.19.55-.37,1.1-.54,1.65-.12.4-.24.81-.36,1.21-.16.56-.31,1.12-.45,1.68-.1.41-.21.81-.3,1.22-.13.58-.25,1.18-.37,1.77-.08.4-.16.79-.23,1.19-.11.65-.21,1.3-.3,1.96-.05.35-.11.7-.15,1.05-.12.96-.22,1.92-.29,2.9,0,.05-.01.1-.01.15l-3.62,50.5-2.14,29.81-.49,6.15c0,11.5-9.32,20.82-20.82,20.82s-20.82-9.32-20.82-20.82l-.49-6.13-5.77-80.34c-2.21-30.78-27.82-54.62-58.68-54.62h-170.81c-7.71,0-15.1,1.49-21.87,4.21-1.69.68-3.35,1.43-4.96,2.26-3.23,1.66-6.28,3.6-9.13,5.81-12.82,9.91-21.47,25.03-22.71,42.34l-3.62,50.5-2.14,29.81-.49,6.15c0,11.5-9.32,20.82-20.82,20.82s-20.82-9.32-20.82-20.82l-.5-6.19-5.76-80.28c-2.21-30.78-27.82-54.62-58.68-54.62h-170.81c-30.86,0-56.47,23.84-58.68,54.62l-19.31,269.06c-2.44,34.06,24.53,63.04,58.68,63.04h1920.96c34.15,0,61.12-28.98,58.67-63.04Z"/><path class="cls-6" d="M3917.44,1086.92l-19.31-269.06c-2.21-30.78-27.82-54.62-58.68-54.62h-170.81c-30.86,0-56.47,23.84-58.68,54.62l-5.76,80.28-.5,6.19c0,11.5-9.32,20.82-20.82,20.82s-20.82-9.32-20.82-20.82l-.49-6.13-5.77-80.34c-2.21-30.78-27.82-54.62-58.68-54.62h-170.81c-7.71,0-15.1,1.49-21.87,4.21-1.69.68-3.35,1.43-4.96,2.26-3.23,1.66-6.28,3.6-9.13,5.81-12.82,9.91-21.47,25.03-22.71,42.34l-3.62,50.5-2.14,29.81-.49,6.15c0,11.5-9.32,20.82-20.82,20.82s-20.82-9.32-20.82-20.82l-.49-6.13-5.77-80.34c-2.21-30.78-27.82-54.62-58.68-54.62h-170.81c-1.93,0-3.84.09-5.72.28-5.65.55-11.07,1.89-16.15,3.93-1.69.68-3.35,1.43-4.96,2.26-2.07,1.06-4.07,2.26-5.99,3.56-1.87,1.26-3.66,2.61-5.37,4.07-.24.2-.46.41-.69.62-.49.43-.97.86-1.45,1.31-.27.25-.53.52-.79.77-.42.41-.84.83-1.26,1.26-.27.28-.54.57-.8.86-.39.42-.78.85-1.15,1.28-.26.3-.52.6-.77.91-.37.44-.73.89-1.09,1.34-.24.31-.49.62-.72.93-.36.47-.7.95-1.05,1.44-.22.3-.44.61-.65.91-.37.54-.72,1.09-1.07,1.64-.17.27-.34.53-.51.79-1.01,1.65-1.94,3.35-2.79,5.11-.14.28-.26.57-.39.86-.28.6-.55,1.2-.81,1.81-.15.35-.28.7-.42,1.05-.22.56-.45,1.13-.65,1.7-.14.38-.27.76-.4,1.14-.19.56-.37,1.12-.55,1.68-.12.39-.24.79-.35,1.18-.16.57-.31,1.14-.46,1.72-.1.4-.2.79-.29,1.19-.14.6-.26,1.2-.38,1.81-.08.38-.16.76-.22,1.15-.12.67-.22,1.34-.31,2.02-.05.33-.1.66-.14.99-.13,1.01-.23,2.03-.3,3.05l-3.9,54.37-1.86,25.95-.49,6.15c0,11.5-9.32,20.82-20.82,20.82s-20.82-9.32-20.82-20.82l-.49-6.13-5.77-80.34c-2.21-30.78-27.82-54.62-58.68-54.62h-170.81c-1.93,0-3.84.09-5.72.28-5.65.55-11.07,1.89-16.16,3.93-1.69.68-3.35,1.43-4.96,2.26s-3.18,1.73-4.71,2.7c-.93.59-1.84,1.22-2.74,1.87-.57.41-1.13.81-1.68,1.24-.02.01-.03.03-.05.04-.74.58-1.47,1.17-2.18,1.78-.24.21-.48.43-.72.64-.48.42-.96.85-1.43,1.29-.27.26-.54.52-.81.78-.42.41-.84.82-1.25,1.25-.27.28-.54.57-.81.86-.39.42-.77.84-1.15,1.27-.26.3-.52.61-.78.91-.37.44-.73.88-1.08,1.33-.25.31-.49.62-.73.94-.36.47-.7.95-1.04,1.43-.22.31-.44.61-.65.93-.36.53-.71,1.08-1.06,1.62-.17.27-.35.54-.52.81-.5.81-.97,1.63-1.43,2.47-.02.03-.03.06-.05.09-.45.83-.89,1.68-1.3,2.54-.14.3-.27.6-.41.9-.27.59-.54,1.18-.79,1.77-.15.36-.29.72-.43,1.08-.22.55-.44,1.1-.64,1.66-.14.39-.27.78-.41,1.17-.19.55-.37,1.1-.54,1.65-.12.4-.24.81-.36,1.21-.16.56-.31,1.12-.45,1.68-.1.41-.21.81-.3,1.22-.13.58-.25,1.18-.37,1.77-.08.4-.16.79-.23,1.19-.11.65-.21,1.3-.3,1.96-.05.35-.11.7-.15,1.05-.12.96-.22,1.92-.29,2.9,0,.05-.01.1-.01.15l-3.62,50.5-2.14,29.81-.49,6.15c0,11.5-9.32,20.82-20.82,20.82s-20.82-9.32-20.82-20.82l-.49-6.13-5.77-80.34c-2.21-30.78-27.82-54.62-58.68-54.62h-170.81c-7.71,0-15.1,1.49-21.87,4.21-1.69.68-3.35,1.43-4.96,2.26-3.23,1.66-6.28,3.6-9.13,5.81-12.82,9.91-21.47,25.03-22.71,42.34l-3.62,50.5-2.14,29.81-.49,6.15c0,11.5-9.32,20.82-20.82,20.82s-20.82-9.32-20.82-20.82l-.5-6.19-5.76-80.28c-2.21-30.78-27.82-54.62-58.68-54.62h-170.81c-30.86,0-56.47,23.84-58.68,54.62l-19.31,269.06c-2.44,34.06,24.53,63.04,58.68,63.04h1920.96c34.15,0,61.12-28.98,58.67-63.04Z"/><path class="cls-1" d="M2038.46,1283.06l-19.31-269.06c-2.21-30.78-27.82-54.62-58.68-54.62h-170.81c-30.86,0-56.47,23.84-58.68,54.62l-5.76,80.28-.5,6.19c0,11.5-9.32,20.82-20.82,20.82s-20.82-9.32-20.82-20.82l-.49-6.13-5.77-80.34c-2.21-30.78-27.82-54.62-58.68-54.62h-170.81c-7.71,0-15.1,1.49-21.87,4.21-1.69.68-3.35,1.43-4.96,2.26-3.23,1.66-6.28,3.6-9.13,5.81-12.82,9.91-21.47,25.03-22.71,42.34l-3.62,50.5-2.14,29.81-.49,6.15c0,11.5-9.32,20.82-20.82,20.82s-20.82-9.32-20.82-20.82l-.49-6.13-5.77-80.34c-2.21-30.78-27.82-54.62-58.68-54.62h-170.81c-1.93,0-3.84.09-5.72.28-5.65.55-11.07,1.89-16.15,3.93-1.69.68-3.35,1.43-4.96,2.26-2.07,1.06-4.07,2.26-5.99,3.56-1.87,1.26-3.66,2.61-5.37,4.07-.24.2-.46.41-.69.62-.49.43-.97.86-1.45,1.31-.27.25-.53.52-.79.77-.42.41-.84.83-1.26,1.26-.27.28-.54.57-.8.86-.39.42-.78.85-1.15,1.28-.26.3-.52.6-.77.91-.37.44-.73.89-1.09,1.34-.24.31-.49.62-.72.93-.36.47-.7.95-1.05,1.44-.22.3-.44.61-.65.91-.37.54-.72,1.09-1.07,1.64-.17.27-.34.53-.51.79-1.01,1.65-1.94,3.35-2.79,5.11-.14.28-.26.57-.39.86-.28.6-.55,1.2-.81,1.81-.15.35-.28.7-.42,1.05-.22.56-.45,1.13-.65,1.7-.14.38-.27.76-.4,1.14-.19.56-.37,1.12-.55,1.68-.12.39-.24.79-.35,1.18-.16.57-.31,1.14-.46,1.72-.1.4-.2.79-.29,1.19-.14.6-.26,1.2-.38,1.81-.08.38-.16.76-.22,1.15-.12.67-.22,1.34-.31,2.02-.05.33-.1.66-.14.99-.13,1.01-.23,2.03-.3,3.05l-3.9,54.37-1.86,25.95-.49,6.15c0,11.5-9.32,20.82-20.82,20.82s-20.82-9.32-20.82-20.82l-.49-6.13-5.77-80.34c-2.21-30.78-27.82-54.62-58.68-54.62h-170.81c-1.93,0-3.84.09-5.72.28-5.65.55-11.07,1.89-16.16,3.93-1.69.68-3.35,1.43-4.96,2.26s-3.18,1.73-4.71,2.7c-.93.59-1.84,1.22-2.74,1.87-.57.41-1.13.81-1.68,1.24-.02.01-.03.03-.05.04-.74.58-1.47,1.17-2.18,1.78-.24.21-.48.43-.72.64-.48.42-.96.85-1.43,1.29-.27.26-.54.52-.81.78-.42.41-.84.82-1.25,1.25-.27.28-.54.57-.81.86-.39.42-.77.84-1.15,1.27-.26.3-.52.61-.78.91-.37.44-.73.88-1.08,1.33-.25.31-.49.62-.73.94-.36.47-.7.95-1.04,1.43-.22.31-.44.61-.65.93-.36.53-.71,1.08-1.06,1.62-.17.27-.35.54-.52.81-.5.81-.97,1.63-1.43,2.47-.02.03-.03.06-.05.09-.45.83-.89,1.68-1.3,2.54-.14.3-.27.6-.41.9-.27.59-.54,1.18-.79,1.77-.15.36-.29.72-.43,1.08-.22.55-.44,1.1-.64,1.66-.14.39-.27.78-.41,1.17-.19.55-.37,1.1-.54,1.65-.12.4-.24.81-.36,1.21-.16.56-.31,1.12-.45,1.68-.1.41-.21.81-.3,1.22-.13.58-.25,1.18-.37,1.77-.08.4-.16.79-.23,1.19-.11.65-.21,1.3-.3,1.96-.05.35-.11.7-.15,1.05-.12.96-.22,1.92-.29,2.9,0,.05-.01.1-.01.15l-3.62,50.5-2.14,29.81-.49,6.15c0,11.5-9.32,20.82-20.82,20.82s-20.82-9.32-20.82-20.82l-.49-6.13-5.77-80.34c-2.21-30.78-27.82-54.62-58.68-54.62h-170.81c-7.71,0-15.1,1.49-21.87,4.21-1.69.68-3.35,1.43-4.96,2.26-3.23,1.66-6.28,3.6-9.13,5.81-12.82,9.91-21.47,25.03-22.71,42.34l-3.62,50.5-2.14,29.81-.49,6.15c0,11.5-9.32,20.82-20.82,20.82s-20.82-9.32-20.82-20.82l-.5-6.19-5.76-80.28c-2.21-30.78-27.82-54.62-58.68-54.62H78.14c-30.86,0-56.47,23.84-58.68,54.62L.15,1283.06c-2.44,34.06,24.53,63.04,58.68,63.04h1920.96c34.15,0,61.12-28.98,58.67-63.04Z"/><path class="cls-1" d="M3750.46,1283.06l-19.31-269.06c-2.21-30.78-27.82-54.62-58.68-54.62h-170.81c-30.86,0-56.47,23.84-58.68,54.62l-5.76,80.28-.5,6.19c0,11.5-9.32,20.82-20.82,20.82s-20.82-9.32-20.82-20.82l-.49-6.13-5.77-80.34c-2.21-30.78-27.82-54.62-58.68-54.62h-170.81c-7.71,0-15.1,1.49-21.87,4.21-1.69.68-3.35,1.43-4.96,2.26-3.23,1.66-6.28,3.6-9.13,5.81-12.82,9.91-21.47,25.03-22.71,42.34l-3.62,50.5-2.14,29.81-.49,6.15c0,11.5-9.32,20.82-20.82,20.82s-20.82-9.32-20.82-20.82l-.49-6.13-5.77-80.34c-2.21-30.78-27.82-54.62-58.68-54.62h-170.81c-1.93,0-3.84.09-5.72.28-5.65.55-11.07,1.89-16.15,3.93-1.69.68-3.35,1.43-4.96,2.26-2.07,1.06-4.07,2.26-5.99,3.56-1.87,1.26-3.66,2.61-5.37,4.07-.24.2-.46.41-.69.62-.49.43-.97.86-1.45,1.31-.27.25-.53.52-.79.77-.42.41-.84.83-1.26,1.26-.27.28-.54.57-.8.86-.39.42-.78.85-1.15,1.28-.26.3-.52.6-.77.91-.37.44-.73.89-1.09,1.34-.24.31-.49.62-.72.93-.36.47-.7.95-1.05,1.44-.22.3-.44.61-.65.91-.37.54-.72,1.09-1.07,1.64-.17.27-.34.53-.51.79-1.01,1.65-1.94,3.35-2.79,5.11-.14.28-.26.57-.39.86-.28.6-.55,1.2-.81,1.81-.15.35-.28.7-.42,1.05-.22.56-.45,1.13-.65,1.7-.14.38-.27.76-.4,1.14-.19.56-.37,1.12-.55,1.68-.12.39-.24.79-.35,1.18-.16.57-.31,1.14-.46,1.72-.1.4-.2.79-.29,1.19-.14.6-.26,1.2-.38,1.81-.08.38-.16.76-.22,1.15-.12.67-.22,1.34-.31,2.02-.05.33-.1.66-.14.99-.13,1.01-.23,2.03-.3,3.05l-3.9,54.37-1.86,25.95-.49,6.15c0,11.5-9.32,20.82-20.82,20.82s-20.82-9.32-20.82-20.82l-.49-6.13-5.77-80.34c-2.21-30.78-27.82-54.62-58.68-54.62h-170.81c-1.93,0-3.84.09-5.72.28-5.65.55-11.07,1.89-16.16,3.93-1.69.68-3.35,1.43-4.96,2.26s-3.18,1.73-4.71,2.7c-.93.59-1.84,1.22-2.74,1.87-.57.41-1.13.81-1.68,1.24-.02.01-.03.03-.05.04-.74.58-1.47,1.17-2.18,1.78-.24.21-.48.43-.72.64-.48.42-.96.85-1.43,1.29-.27.26-.54.52-.81.78-.42.41-.84.82-1.25,1.25-.27.28-.54.57-.81.86-.39.42-.77.84-1.15,1.27-.26.3-.52.61-.78.91-.37.44-.73.88-1.08,1.33-.25.31-.49.62-.73.94-.36.47-.7.95-1.04,1.43-.22.31-.44.61-.65.93-.36.53-.71,1.08-1.06,1.62-.17.27-.35.54-.52.81-.5.81-.97,1.63-1.43,2.47-.02.03-.03.06-.05.09-.45.83-.89,1.68-1.3,2.54-.14.3-.27.6-.41.9-.27.59-.54,1.18-.79,1.77-.15.36-.29.72-.43,1.08-.22.55-.44,1.1-.64,1.66-.14.39-.27.78-.41,1.17-.19.55-.37,1.1-.54,1.65-.12.4-.24.81-.36,1.21-.16.56-.31,1.12-.45,1.68-.1.41-.21.81-.3,1.22-.13.58-.25,1.18-.37,1.77-.08.4-.16.79-.23,1.19-.11.65-.21,1.3-.3,1.96-.05.35-.11.7-.15,1.05-.12.96-.22,1.92-.29,2.9,0,.05-.01.1-.01.15l-3.62,50.5-2.14,29.81-.49,6.15c0,11.5-9.32,20.82-20.82,20.82s-20.82-9.32-20.82-20.82l-.49-6.13-5.77-80.34c-2.21-30.78-27.82-54.62-58.68-54.62h-170.81c-7.71,0-15.1,1.49-21.87,4.21-1.69.68-3.35,1.43-4.96,2.26-3.23,1.66-6.28,3.6-9.13,5.81-12.82,9.91-21.47,25.03-22.71,42.34l-3.62,50.5-2.14,29.81-.49,6.15c0,11.5-9.32,20.82-20.82,20.82s-20.82-9.32-20.82-20.82l-.5-6.19-5.76-80.28c-2.21-30.78-27.82-54.62-58.68-54.62h-170.81c-30.86,0-56.47,23.84-58.68,54.62l-19.31,269.06c-2.44,34.06,24.53,63.04,58.68,63.04h1920.96c34.15,0,61.12-28.98,58.67-63.04Z"/><path class="cls-4" d="M2205.44,1481.96l-19.31-269.06c-2.21-30.78-27.82-54.62-58.68-54.62h-170.81c-30.86,0-56.47,23.84-58.68,54.62l-5.76,80.28-.5,6.19c0,11.5-9.32,20.82-20.82,20.82s-20.82-9.32-20.82-20.82l-.49-6.13-5.77-80.34c-2.21-30.78-27.82-54.62-58.68-54.62h-170.81c-7.71,0-15.1,1.49-21.87,4.21-1.69.68-3.35,1.43-4.96,2.26-3.23,1.66-6.28,3.6-9.13,5.81-12.82,9.91-21.47,25.03-22.71,42.34l-3.62,50.5-2.14,29.81-.49,6.15c0,11.5-9.32,20.82-20.82,20.82s-20.82-9.32-20.82-20.82l-.49-6.13-5.77-80.34c-2.21-30.78-27.82-54.62-58.68-54.62h-170.81c-1.93,0-3.84.09-5.72.28-5.65.55-11.07,1.89-16.15,3.93-1.69.68-3.35,1.43-4.96,2.26-2.07,1.06-4.07,2.26-5.99,3.56-1.87,1.26-3.66,2.61-5.37,4.07-.24.2-.46.41-.69.62-.49.43-.97.86-1.45,1.31-.27.25-.53.52-.79.77-.42.41-.84.83-1.26,1.26-.27.28-.54.57-.8.86-.39.42-.78.85-1.15,1.28-.26.3-.52.6-.77.91-.37.44-.73.89-1.09,1.34-.24.31-.49.62-.72.93-.36.47-.7.95-1.05,1.44-.22.3-.44.61-.65.91-.37.54-.72,1.09-1.07,1.64-.17.27-.34.53-.51.79-1.01,1.65-1.94,3.35-2.79,5.11-.14.28-.26.57-.39.86-.28.6-.55,1.2-.81,1.81-.15.35-.28.7-.42,1.05-.22.56-.45,1.13-.65,1.7-.14.38-.27.76-.4,1.14-.19.56-.37,1.12-.55,1.68-.12.39-.24.79-.35,1.18-.16.57-.31,1.14-.46,1.72-.1.4-.2.79-.29,1.19-.14.6-.26,1.2-.38,1.81-.08.38-.16.76-.22,1.15-.12.67-.22,1.34-.31,2.02-.05.33-.1.66-.14.99-.13,1.01-.23,2.03-.3,3.05l-3.9,54.37-1.86,25.95-.49,6.15c0,11.5-9.32,20.82-20.82,20.82s-20.82-9.32-20.82-20.82l-.49-6.13-5.77-80.34c-2.21-30.78-27.82-54.62-58.68-54.62h-170.81c-1.93,0-3.84.09-5.72.28-5.65.55-11.07,1.89-16.16,3.93-1.69.68-3.35,1.43-4.96,2.26s-3.18,1.73-4.71,2.7c-.93.59-1.84,1.22-2.74,1.87-.57.41-1.13.81-1.68,1.24-.02.01-.03.03-.05.04-.74.58-1.47,1.17-2.18,1.78-.24.21-.48.43-.72.64-.48.42-.96.85-1.43,1.29-.27.26-.54.52-.81.78-.42.41-.84.82-1.25,1.25-.27.28-.54.57-.81.86-.39.42-.77.84-1.15,1.27-.26.3-.52.61-.78.91-.37.44-.73.88-1.08,1.33-.25.31-.49.62-.73.94-.36.47-.7.95-1.04,1.43-.22.31-.44.61-.65.93-.36.53-.71,1.08-1.06,1.62-.17.27-.35.54-.52.81-.5.81-.97,1.63-1.43,2.47-.02.03-.03.06-.05.09-.45.83-.89,1.68-1.3,2.54-.14.3-.27.6-.41.9-.27.59-.54,1.18-.79,1.77-.15.36-.29.72-.43,1.08-.22.55-.44,1.1-.64,1.66-.14.39-.27.78-.41,1.17-.19.55-.37,1.1-.54,1.65-.12.4-.24.81-.36,1.21-.16.56-.31,1.12-.45,1.68-.1.41-.21.81-.3,1.22-.13.58-.25,1.18-.37,1.77-.08.4-.16.79-.23,1.19-.11.65-.21,1.3-.3,1.96-.05.35-.11.7-.15,1.05-.12.96-.22,1.92-.29,2.9,0,.05-.01.1-.01.15l-3.62,50.5-2.14,29.81-.49,6.15c0,11.5-9.32,20.82-20.82,20.82s-20.82-9.32-20.82-20.82l-.49-6.13-5.77-80.34c-2.21-30.78-27.82-54.62-58.68-54.62h-170.81c-7.71,0-15.1,1.49-21.87,4.21-1.69.68-3.35,1.43-4.96,2.26-3.23,1.66-6.28,3.6-9.13,5.81-12.82,9.91-21.47,25.03-22.71,42.34l-3.62,50.5-2.14,29.81-.49,6.15c0,11.5-9.32,20.82-20.82,20.82s-20.82-9.32-20.82-20.82l-.5-6.19-5.76-80.28c-2.21-30.78-27.82-54.62-58.68-54.62h-170.81c-30.86,0-56.47,23.84-58.68,54.62l-19.31,269.06c-2.44,34.06,24.53,63.04,58.68,63.04h1920.96c34.15,0,61.12-28.98,58.67-63.04Z"/><path class="cls-4" d="M3917.44,1481.96l-19.31-269.06c-2.21-30.78-27.82-54.62-58.68-54.62h-170.81c-30.86,0-56.47,23.84-58.68,54.62l-5.76,80.28-.5,6.19c0,11.5-9.32,20.82-20.82,20.82s-20.82-9.32-20.82-20.82l-.49-6.13-5.77-80.34c-2.21-30.78-27.82-54.62-58.68-54.62h-170.81c-7.71,0-15.1,1.49-21.87,4.21-1.69.68-3.35,1.43-4.96,2.26-3.23,1.66-6.28,3.6-9.13,5.81-12.82,9.91-21.47,25.03-22.71,42.34l-3.62,50.5-2.14,29.81-.49,6.15c0,11.5-9.32,20.82-20.82,20.82s-20.82-9.32-20.82-20.82l-.49-6.13-5.77-80.34c-2.21-30.78-27.82-54.62-58.68-54.62h-170.81c-1.93,0-3.84.09-5.72.28-5.65.55-11.07,1.89-16.15,3.93-1.69.68-3.35,1.43-4.96,2.26-2.07,1.06-4.07,2.26-5.99,3.56-1.87,1.26-3.66,2.61-5.37,4.07-.24.2-.46.41-.69.62-.49.43-.97.86-1.45,1.31-.27.25-.53.52-.79.77-.42.41-.84.83-1.26,1.26-.27.28-.54.57-.8.86-.39.42-.78.85-1.15,1.28-.26.3-.52.6-.77.91-.37.44-.73.89-1.09,1.34-.24.31-.49.62-.72.93-.36.47-.7.95-1.05,1.44-.22.3-.44.61-.65.91-.37.54-.72,1.09-1.07,1.64-.17.27-.34.53-.51.79-1.01,1.65-1.94,3.35-2.79,5.11-.14.28-.26.57-.39.86-.28.6-.55,1.2-.81,1.81-.15.35-.28.7-.42,1.05-.22.56-.45,1.13-.65,1.7-.14.38-.27.76-.4,1.14-.19.56-.37,1.12-.55,1.68-.12.39-.24.79-.35,1.18-.16.57-.31,1.14-.46,1.72-.1.4-.2.79-.29,1.19-.14.6-.26,1.2-.38,1.81-.08.38-.16.76-.22,1.15-.12.67-.22,1.34-.31,2.02-.05.33-.1.66-.14.99-.13,1.01-.23,2.03-.3,3.05l-3.9,54.37-1.86,25.95-.49,6.15c0,11.5-9.32,20.82-20.82,20.82s-20.82-9.32-20.82-20.82l-.49-6.13-5.77-80.34c-2.21-30.78-27.82-54.62-58.68-54.62h-170.81c-1.93,0-3.84.09-5.72.28-5.65.55-11.07,1.89-16.16,3.93-1.69.68-3.35,1.43-4.96,2.26s-3.18,1.73-4.71,2.7c-.93.59-1.84,1.22-2.74,1.87-.57.41-1.13.81-1.68,1.24-.02.01-.03.03-.05.04-.74.58-1.47,1.17-2.18,1.78-.24.21-.48.43-.72.64-.48.42-.96.85-1.43,1.29-.27.26-.54.52-.81.78-.42.41-.84.82-1.25,1.25-.27.28-.54.57-.81.86-.39.42-.77.84-1.15,1.27-.26.3-.52.61-.78.91-.37.44-.73.88-1.08,1.33-.25.31-.49.62-.73.94-.36.47-.7.95-1.04,1.43-.22.31-.44.61-.65.93-.36.53-.71,1.08-1.06,1.62-.17.27-.35.54-.52.81-.5.81-.97,1.63-1.43,2.47-.02.03-.03.06-.05.09-.45.83-.89,1.68-1.3,2.54-.14.3-.27.6-.41.9-.27.59-.54,1.18-.79,1.77-.15.36-.29.72-.43,1.08-.22.55-.44,1.1-.64,1.66-.14.39-.27.78-.41,1.17-.19.55-.37,1.1-.54,1.65-.12.4-.24.81-.36,1.21-.16.56-.31,1.12-.45,1.68-.1.41-.21.81-.3,1.22-.13.58-.25,1.18-.37,1.77-.08.4-.16.79-.23,1.19-.11.65-.21,1.3-.3,1.96-.05.35-.11.7-.15,1.05-.12.96-.22,1.92-.29,2.9,0,.05-.01.1-.01.15l-3.62,50.5-2.14,29.81-.49,6.15c0,11.5-9.32,20.82-20.82,20.82s-20.82-9.32-20.82-20.82l-.49-6.13-5.77-80.34c-2.21-30.78-27.82-54.62-58.68-54.62h-170.81c-7.71,0-15.1,1.49-21.87,4.21-1.69.68-3.35,1.43-4.96,2.26-3.23,1.66-6.28,3.6-9.13,5.81-12.82,9.91-21.47,25.03-22.71,42.34l-3.62,50.5-2.14,29.81-.49,6.15c0,11.5-9.32,20.82-20.82,20.82s-20.82-9.32-20.82-20.82l-.5-6.19-5.76-80.28c-2.21-30.78-27.82-54.62-58.68-54.62h-170.81c-30.86,0-56.47,23.84-58.68,54.62l-19.31,269.06c-2.44,34.06,24.53,63.04,58.68,63.04h1920.96c34.15,0,61.12-28.98,58.67-63.04Z"/></g></svg>