<svg width="374" height="134" viewBox="0 0 374 134" fill="none" xmlns="http://www.w3.org/2000/svg">
<g clip-path="url(#clip0_93_826)">
<path d="M77.4517 104.945H54.2339L46.4814 134H69.6908L77.4517 104.945Z" fill="#FECC1B"/>
<path d="M64.3718 66.9525L56.835 95.1956H80.0563L87.6003 66.9525H64.3718Z" fill="#FECC1B"/>
<path d="M90.4214 56.3899L97.9642 28.1505H74.7261L67.1904 56.3899H90.4214Z" fill="#FECC1B"/>
<path d="M54.218 104.945H31.0003L23.249 134H46.4572L54.218 104.945Z" fill="#6BD968"/>
<path d="M67.188 56.3899L74.7308 28.1505H51.4927L43.957 56.3899H67.188Z" fill="#6BD968"/>
<path d="M41.1384 66.9525L33.6016 95.1956H56.8229L64.367 66.9525H41.1384Z" fill="#6BD968"/>
<path d="M30.9702 104.945H7.75244L0 134H23.2094L30.9702 104.945Z" fill="#3992FF"/>
<path d="M17.8901 66.9525L10.3545 95.1956H33.5747L41.1187 66.9525H17.8901Z" fill="#3992FF"/>
<path d="M43.939 56.3899L51.483 28.1505H28.2436L20.708 56.3899H43.939Z" fill="#3992FF"/>
<path d="M100.397 104.945H77.1792L69.4268 134H92.6362L100.397 104.945Z" fill="#D83BD2"/>
<path d="M87.3181 66.9525L79.7812 95.1956H103.001L110.545 66.9525H87.3181Z" fill="#D83BD2"/>
<path d="M113.367 56.3899L120.91 28.1505H97.6716L90.1348 56.3899H113.367Z" fill="#D83BD2"/>
<path d="M123.627 104.945H100.409L92.6582 134H115.866L123.627 104.945Z" fill="#F44250"/>
<path d="M110.548 66.9525L103.011 95.1956H126.232L133.776 66.9525H110.548Z" fill="#F44250"/>
<path d="M136.597 56.3899L144.14 28.1505H120.902L113.366 56.3899H136.597Z" fill="#F44250"/>
</g>
<defs>
<clipPath id="clip0_93_826">
<rect width="374" height="134" fill="white"/>
</clipPath>
</defs>
</svg>
