<svg viewBox="0 0 429.31 87.15" xmlns="http://www.w3.org/2000/svg" >
  <path d="M15.66 9.01h-.22c-8.63 0-10.54 5.19-11.85 9.07-.51 1.54-.88 1.83-1.61 1.83S.81 19.47.81 18.67l.07-5.49-.15-5.85c0-1.61.88-2.2 2.71-2.2 3.51 0 11.12.88 20.19.88s17.34-.88 20.19-.88c1.83 0 2.71.59 2.71 2.2l-.15 5.85.07 5.49c0 .81-.37 1.24-1.1 1.24s-1.17-.29-1.68-1.83c-1.32-3.88-3.22-9.07-11.85-9.07h-.22c-2.27 0-3.22 1.17-3.22 3.29v48.36c0 3.8 2.71 4.54 4.61 4.98.95.22 1.17.66 1.17 1.24 0 .51-.29 1.17-1.24 1.17-.8 0-5.12-.44-9.29-.44s-8.49.44-9.29.44c-.95 0-1.24-.66-1.24-1.17 0-.59.22-1.02 1.17-1.24 2.05-.44 4.61-1.17 4.61-4.98V12.3c0-2.12-.95-3.29-3.22-3.29Z" style="fill:#1d1e22"></path>
  <path d="M40.32 43.91c0-14.63 7.83-24.22 19.9-24.22s19.9 9.58 19.9 24.22c0 15.36-7.83 25.31-19.9 25.31s-19.9-9.95-19.9-25.31Zm30.29 0c0-12.66-4.1-20.93-10.39-20.93s-10.39 8.27-10.39 20.93c0 13.32 4.1 22.02 10.39 22.02s10.39-8.71 10.39-22.02Zm12.88-17.49c-.81-.22-1.02-.66-1.02-1.24 0-.51.15-1.02 1.1-1.17 2.85-.44 7.39-1.68 9.37-3.66.44-.44.58-.51.95-.51.58 0 .8.22.8.73v5.78c0 .66.15.66.44.07 2.05-3.95 5.49-6.73 9-6.73s5.78 2.2 5.78 5.63c0 2.49-1.24 3.95-3.29 3.95-3.66 0-3.88-3.95-6.29-3.95-1.83 0-3.66 2.12-4.83 4.83-.59 1.46-.8 2.85-.8 4.32v26.19c0 3.8 2.56 4.39 5.34 4.98.95.22 1.17.66 1.17 1.24 0 .51-.29 1.17-1.24 1.17-.8 0-5.49-.44-9.73-.44-3.73 0-7.32.44-8.12.44-.95 0-1.24-.66-1.24-1.17 0-.59.22-1.02 1.17-1.24 1.61-.37 3.88-1.17 3.88-4.98V29.49c0-2.05-.8-2.63-2.41-3.07Zm24.95 17.49c0-14.63 7.83-24.22 19.9-24.22s19.9 9.58 19.9 24.22c0 15.36-7.83 25.31-19.9 25.31s-19.9-9.95-19.9-25.31Zm30.29 0c0-12.66-4.1-20.93-10.39-20.93s-10.39 8.27-10.39 20.93c0 13.32 4.1 22.02 10.39 22.02s10.39-8.71 10.39-22.02Zm12.15-17.49c-.81-.22-1.02-.66-1.02-1.24 0-.51.15-1.02 1.1-1.17 2.85-.44 7.39-1.68 9.37-3.66.44-.44.58-.51.95-.51.58 0 .8.22.8.73v5.05c0 .66.29.58.8 0 3.07-3.59 6.95-5.93 11.27-5.93 7.83 0 12.44 5.19 12.44 14.05v26.93c0 3.8 2.27 4.61 3.88 4.98.95.22 1.17.66 1.17 1.24 0 .51-.29 1.17-1.24 1.17-.8 0-4.39-.44-8.19-.44s-7.39.44-8.19.44c-.95 0-1.24-.66-1.24-1.17 0-.59.22-1.02 1.17-1.24 1.61-.37 3.88-1.17 3.88-4.98V33.74c0-5.71-2.27-8.71-6.58-8.71-5.05 0-9.15 4.46-9.15 10.1v25.54c0 3.8 2.27 4.61 3.88 4.98.95.22 1.17.66 1.17 1.24 0 .51-.29 1.17-1.24 1.17-.81 0-4.39-.44-8.27-.44s-7.32.44-8.12.44c-.95 0-1.24-.66-1.24-1.17 0-.59.22-1.02 1.17-1.24 1.61-.37 3.88-1.17 3.88-4.98V29.5c0-2.05-.8-2.63-2.41-3.07Zm44.35 32.34V25.54c0-.66-.22-.95-.66-.95l-2.05.15c-.73 0-1.24-.59-1.24-1.32 0-.66.22-1.1 1.02-1.46 3.58-1.54 7.54-4.98 9.8-8.93.15-.29.44-.44.88-.44.58 0 1.02.22 1.02.95v6c0 .95.59 1.32 1.68 1.32h5.19c1.39 0 2.12.51 2.12 1.76s-.44 1.9-2.12 1.9h-5.27c-1.1 0-1.61.44-1.61 1.32v30.44c0 5.78 1.39 8.41 4.32 8.41 1.76 0 2.56-.8 3.58-1.83.58-.59 1.32-.37 1.68 0 .44.44.37 1.1-.07 1.76-2.12 3.15-4.9 4.61-8.63 4.61-6.07 0-9.66-3.88-9.66-10.46Z" style="fill:#1d1e22"></path>
  <path d="M213.15 43.91c0-14.63 7.83-24.22 19.9-24.22s19.9 9.58 19.9 24.22c0 15.36-7.83 25.31-19.9 25.31s-19.9-9.95-19.9-25.31Zm30.29 0c0-12.66-4.1-20.93-10.39-20.93s-10.39 8.27-10.39 20.93c0 13.32 4.1 22.02 10.39 22.02s10.39-8.71 10.39-22.02Zm44.06 23.92c-6.95 0-12.8.22-16.1.22-.66 0-1.24-.37-1.24-1.02 0-.44.07-.66.73-1.46 18-22.83 25.17-34.1 25.17-46.68 0-6.22-4.02-9.15-9-9.15-5.63 0-8.93 2.85-11.12 5.78-.51.66-.8 1.02-1.54 1.02-.51 0-1.1-.44-1.1-1.24 0-.22.07-.59.22-.95 1.46-3.66 6.88-10.39 16.54-10.39s16.24 6.44 16.24 16.39c0 11.19-9.51 21.95-26.19 39.51h11.63c10.17 0 11.34-1.61 12.73-7.17.22-.88.59-1.46 1.32-1.46.88 0 1.02.8 1.02 1.54 0 .95-.15 3.66-.15 7.32 0 4.1.15 5.12.15 6.15 0 1.46-.51 1.83-2.56 1.83-2.93 0-9-.22-16.75-.22Zm20.71-31.17c0-19.83 8.27-32.71 21-32.71s20.93 12.88 20.93 32.71-8.27 32.56-20.93 32.56-21-12.8-21-32.56Zm31.68 0c0-18.8-3.95-29.78-10.68-29.78s-10.75 10.97-10.75 29.78 3.95 29.63 10.75 29.63 10.68-10.9 10.68-29.63Z" style="fill:#1d1e22"></path>
  <path d="M365.42 67.83c-6.95 0-12.8.22-16.1.22-.66 0-1.24-.37-1.24-1.02 0-.44.07-.66.73-1.46 18-22.83 25.17-34.1 25.17-46.68 0-6.22-4.02-9.15-9-9.15-5.63 0-8.93 2.85-11.12 5.78-.51.66-.8 1.02-1.54 1.02-.51 0-1.1-.44-1.1-1.24 0-.22.07-.59.22-.95 1.46-3.66 6.88-10.39 16.54-10.39s16.24 6.44 16.24 16.39c0 11.19-9.51 21.95-26.19 39.51h11.63c10.17 0 11.34-1.61 12.73-7.17.22-.88.59-1.46 1.32-1.46.88 0 1.02.8 1.02 1.54 0 .95-.15 3.66-.15 7.32 0 4.1.15 5.12.15 6.15 0 1.46-.51 1.83-2.56 1.83-2.93 0-9-.22-16.75-.22Zm20.71-8.12c0-2.56 1.54-4.24 3.88-4.24 5.41 0 5.41 10.02 14.63 10.02 7.46 0 11.34-6.07 11.34-17.78 0-9.95-4.32-15.8-11.78-15.8-5.41 0-9.51 4.1-10.97 5.56-.66.66-1.46.73-2.2.44-.66-.29-1.02-.73-.88-1.61l5.12-29.92c.15-.88.66-1.24 1.54-1.24 3 .07 7.39.22 11.85.22 6.15 0 9.8-.15 12.37-.22.66 0 .95.37.95.95v7.54c0 1.1-.51 1.46-1.54 1.46-1.9 0-8.63-.95-18.8-.95h-2.27c-.66 0-1.02.37-1.1.95l-2.49 14.34c-.07.44.07.66.44.66s.07-.22.58-.51c1.76-.95 5.41-2.71 10.1-2.71 11.27 0 19.39 7.83 19.39 19.9 0 13.61-9.73 22.46-23.85 22.46-9.44 0-16.32-4.32-16.32-9.51Z" style="fill:#1d1e22"></path>
</svg>
