<?xml version="1.0" encoding="UTF-8"?><svg id="Layer_2" xmlns="http://www.w3.org/2000/svg" xmlns:xlink="http://www.w3.org/1999/xlink" viewBox="0 0 1300.81 383.85"><defs><filter id="drop-shadow-1" x="-6.98" y="-6.85" width="1320" height="403" filterUnits="userSpaceOnUse"><feOffset dx="3" dy="3"/><feGaussianBlur result="blur" stdDeviation="3"/><feFlood flood-color="#000" flood-opacity=".4"/><feComposite in2="blur" operator="in"/><feComposite in="SourceGraphic"/></filter><linearGradient id="linear-gradient" x1="274.16" y1="-198.1" x2="1125.72" y2="785.25" gradientUnits="userSpaceOnUse"><stop offset="0" stop-color="#c2d4fa"/><stop offset=".35" stop-color="#f1e3f4"/><stop offset=".75" stop-color="#f0fdeb"/><stop offset="1" stop-color="#e7f0f5"/></linearGradient></defs><g id="Layer_1-2"><g style="filter:url(#drop-shadow-1);"><path d="M1292.9,315.11l-65.72-87.35,58.88-77.03c9.09-11.9,10.65-27.93,4.01-41.35-6.64-13.43-20.32-21.92-35.29-21.92h-79.39c-12.69,0-24.6,6.11-31.99,16.42l-3.71,5.17-3.33-4.76c-7.36-10.55-19.42-16.83-32.28-16.83h-59.47v-48.08c0-21.74-17.63-39.37-39.37-39.37h-77.96c-21.74,0-39.37,17.63-39.37,39.37v57.08c-15.06-8.57-34.91-14.71-60.93-14.71s-50.35,7.18-69.84,20.26c-18.09-13.28-41.27-20.26-68.49-20.26-17.89,0-34.43,3.3-49.04,9.57-5.15-2.48-10.93-3.87-17.03-3.87h-77.01c-15.28,0-28.51,8.71-35.04,21.42-24.7-17.8-55.44-27.13-90.31-27.13-31.63,0-60.47,8.52-84.46,23.49-5.42-28.33-19.01-52.27-40.09-70.23C268.43,11.78,230.55,0,183.11,0H39.37C17.63,0,0,17.63,0,39.37v60.92c0,18.83,13.22,34.57,30.87,38.45-17.66,3.88-30.87,19.63-30.87,38.45v62.26c0,10.06,3.77,19.24,9.98,26.2-6.21,6.96-9.98,16.14-9.98,26.2v46.41c0,21.74,17.63,39.37,39.37,39.37h101.67c15.02,0,28.08-8.42,34.72-20.79,6.64,12.37,19.69,20.79,34.72,20.79h79.91c15.33,0,28.6-8.77,35.1-21.56,25.7,17.75,58.42,27.78,95.71,27.78,34.74,0,65.9-8.75,90.37-25.28,6.82,11.71,19.5,19.58,34.03,19.58h77.01c12.95,0,24.44-6.25,31.61-15.9,7.18,9.65,18.66,15.9,31.61,15.9h77.01c12.81,0,24.19-6.11,31.37-15.58,7.19,9.47,18.57,15.58,31.37,15.58h77.01c4.41,0,8.64-.73,12.59-2.07,3.96,1.34,8.19,2.07,12.6,2.07h77.01c1.31,0,2.61-.07,3.9-.19,1.21.11,2.43.19,3.67.19h79.39c12.52,0,24.29-5.95,31.71-16.04l10.6-14.4,10.6,14.4c7.42,10.08,19.19,16.04,31.71,16.04h85.09c14.92,0,28.56-8.44,35.23-21.79,6.66-13.35,5.21-29.32-3.77-41.25ZM1044.16,233.06v-5.58l2.1,2.86-2.1,2.73Z" style="fill:url(#linear-gradient);"/><path d="M1254.79,126.81h-79.39l-36.13,50.38-35.18-50.38h-85.09l76.53,104.08-83.19,107.88h79.39l42.31-57.5,42.31,57.5h85.09l-83.67-111.21,77.01-100.75Z" style="fill:#f44250;"/><path d="M465.4,263.21c-7.13,16.63-20.44,23.76-41.36,23.76-23.29,0-42.31-12.36-44.21-38.49h148.79v-21.39c0-57.5-37.55-105.98-108.38-105.98-66.08,0-115.51,48-115.51,115.01s48.49,108.36,116.46,108.36c56.09,0,95.07-27.09,106.01-75.56l-61.8-5.7ZM380.78,211.41c2.85-19.96,13.79-35.17,38.5-35.17,22.82,0,35.18,16.16,36.13,35.17h-74.63Z" style="fill:#6bd968;"/><path d="M754.75,162.93c-9.03-24.71-28.52-41.82-66.08-41.82-31.85,0-54.67,14.26-66.08,37.54v-31.84h-77.01v211.96h77.01v-104.08c0-31.84,9.03-52.75,34.23-52.75,23.29,0,29,15.21,29,44.2v112.63h77.01v-104.08c0-31.84,8.56-52.75,34.23-52.75,23.29,0,28.52,15.21,28.52,44.2v112.63h77.01v-133.07c0-44.2-17.11-84.59-75.58-84.59-35.65,0-60.85,18.06-72.25,41.82Z" style="fill:#fecc1b;"/><path d="M927.78,126.81v211.96h77.01V126.81h-77.01ZM927.3,106.85h77.96V39.37h-77.96v67.49Z" style="fill:#d83bd2;"/><path d="M287.69,269.86c2.69,34.53,2.69,50.72,2.69,68.39h-79.91c0-3.85.07-7.37.14-10.94.22-11.1.44-22.67-1.35-46.04-2.38-34.22-17.11-41.82-44.21-41.82H39.37v-62.26h129.48c34.23,0,51.34-10.41,51.34-37.97,0-24.24-17.11-38.93-51.34-38.93H39.37v-60.92h143.74c77.48,0,115.99,36.59,115.99,95.05,0,43.72-27.1,72.24-63.7,76.99,30.9,6.18,48.96,23.76,52.29,58.45ZM39.37,338.26v-48.05h84.49c14.11,0,17.18,12.11,17.18,18.35v29.7H39.37Z" style="fill:#3992ff;"/></g></g></svg>