<svg xmlns="http://www.w3.org/2000/svg" aria-hidden="true">
    <symbol id="logo" viewBox="0 0 38 38" fill="none">
        <path d="M13.582 20.41c-1.39 0-2.523-1.142-2.523-2.542s1.133-2.542 2.523-2.542c1.39 0 2.523 1.142 2.523 2.542 0 1.399-1.134 2.542-2.523 2.542zM7.524 25.457c-1.388-.003-2.518-1.15-2.514-2.55a2.537 2.537 0 012.532-2.534c1.389.003 2.519 1.15 2.514 2.551a2.538 2.538 0 01-2.532 2.533zM30.486 25.457a2.538 2.538 0 01-2.543-2.523c-.007-1.402 1.118-2.553 2.505-2.56a2.538 2.538 0 012.542 2.522c.008 1.401-1.118 2.553-2.504 2.561z" fill="currentColor" />
        <path d="M25.757 15.474c-.686-.214-1.419-.303-2.138-.381-1.112-.12-1.555-.554-1.743-1.668-.106-.622-.254-1.26-.523-1.825-.513-1.075-1.715-1.557-2.922-1.282-1.02.233-1.867 1.248-1.914 2.29-.054 1.188.626 2.203 1.794 2.553.555.167 1.145.25 1.724.293 1.063.077 1.418.394 1.705.878.182.306.357.607.357 1.517 0 .911-.177 1.212-.357 1.517-.287.484-.642.8-1.705.879-.58.042-1.17.126-1.724.293-1.168.351-1.848 1.364-1.794 2.554.047 1.041.895 2.056 1.914 2.289 1.207.276 2.409-.207 2.922-1.282.27-.564.417-1.203.523-1.825.189-1.114.632-1.547 1.743-1.668.72-.078 1.452-.168 2.138-.382 1.041-.325 1.667-1.296 1.667-2.375 0-1.078-.626-2.048-1.667-2.375z" fill="#F44250" />
    </symbol>

    <symbol id="edit" fill="none" viewBox="0 0 24 24" stroke="currentColor" stroke-width="2">
        <path stroke-linecap="round" stroke-linejoin="round" d="M11 5H6a2 2 0 00-2 2v11a2 2 0 002 2h11a2 2 0 002-2v-5m-1.414-9.414a2 2 0 112.828 2.828L11.828 15H9v-2.828l8.586-8.586z" />
    </symbol>

    <symbol id="menu" fill="none" viewBox="0 0 24 24" stroke="currentColor" stroke-width="2">
        <path stroke-linecap="round" stroke-linejoin="round" d="M4 6h16M4 12h16M4 18h16" />
    </symbol>

    <symbol id="chevron-r" fill="none" viewBox="0 0 24 24" stroke="currentColor" stroke-width="2">
        <path stroke-linecap="round" stroke-linejoin="round" d="M9 5l7 7-7 7" />
    </symbol>

    <symbol id="chevron-d" fill="none" viewBox="0 0 24 24" stroke="currentColor" stroke-width="2">
        <path stroke-linecap="round" stroke-linejoin="round" d="M19 9l-7 7-7-7" />
    </symbol>

    <symbol id="triangle-d" viewBox="0 0 48 48" fill="currentColor">
        <path d="M24 36L4.94744 15L43.0526 15L24 36Z"/>
    </symbol>

    <symbol id="remix-r" viewBox="0 0 174 200" fill="none">
        <path fill-rule="evenodd" clip-rule="evenodd" d="M166.357 154.236C168.158 177.344 168.158 188.176 168.158 200H114.627C114.627 197.424 114.673 195.068 114.719 192.679C114.864 185.253 115.015 177.508 113.811 161.868C112.218 138.971 102.346 133.883 84.1936 133.883H68.1112H0V92.2236H86.7412C109.671 92.2236 121.135 85.2571 121.135 66.8124C121.135 50.5938 109.671 40.7652 86.7412 40.7652H0V0H96.2951C148.205 0 174 24.487 174 63.6025C174 92.8596 155.848 111.94 131.326 115.12C152.026 119.255 164.128 131.021 166.357 154.236Z" fill="currentColor"/>
        <path d="M0 200V168.944H56.6017C66.0561 168.944 68.1089 175.948 68.1089 180.124V200H0Z" fill="currentColor"/>
    </symbol>

    <symbol id="logotype" viewBox="0 0 721 83" fill="none">
        <path d="M73.232 81C70.544 78.056 70.16 74.472 69.008 62.44C68.112 53.096 63.248 48.36 54.928 46.696C64.784 45.416 72.08 37.736 72.08 25.96C72.08 10.216 61.712 0.359993 40.848 0.359993H0.144V81H21.52V54.248H35.984C43.28 54.248 47.248 56.296 47.888 65.512C48.528 73.832 49.552 78.824 51.216 81H73.232ZM21.52 37.48V17.768H37.008C46.224 17.768 50.832 21.224 50.832 27.752C50.832 35.176 46.224 37.48 37.008 37.48H21.52ZM120.699 60.648C118.779 65.128 115.195 67.048 109.563 67.048C103.291 67.048 98.171 63.72 97.659 56.68H137.723V50.92C137.723 35.432 127.611 22.376 108.539 22.376C90.747 22.376 77.435 35.304 77.435 53.352C77.435 71.528 90.491 82.536 108.795 82.536C123.899 82.536 134.395 75.24 137.339 62.184L120.699 60.648ZM97.915 46.696C98.683 41.32 101.627 37.224 108.283 37.224C114.427 37.224 117.755 41.576 118.011 46.696H97.915ZM179.156 57.192C179.156 64.616 174.42 68.968 168.532 68.968C165.076 68.968 162.772 67.048 162.772 64.104C162.772 60.392 165.716 58.856 170.708 57.832L179.156 56.296V57.192ZM199.508 44.776C199.508 28.904 188.372 22.376 173.268 22.376C156.116 22.376 146.772 31.08 144.98 43.624L164.18 44.904C165.076 40.68 167.38 37.736 171.988 37.736C176.98 37.736 179.156 40.552 179.156 45.288V46.184L163.156 48.872C150.74 51.048 142.804 55.784 142.804 66.792C142.804 76.52 150.1 82.28 161.236 82.28C170.324 82.28 176.852 78.824 180.18 72.168C182.1 78.696 187.604 82.28 194.644 82.28C200.532 82.28 204.628 80.616 207.572 78.568V67.56C205.908 68.2 204.628 68.456 202.964 68.456C200.788 68.456 199.508 67.176 199.508 64.232V44.776ZM209.935 52.456C209.935 70.632 223.119 82.536 241.167 82.536C258.319 82.536 267.919 71.528 269.327 57.704L252.303 56.424C250.895 63.464 247.439 66.92 241.423 66.92C235.151 66.92 230.799 62.696 230.799 52.456C230.799 42.216 235.151 37.992 241.423 37.992C247.439 37.992 250.895 41.32 252.303 48.36L269.327 47.208C267.919 33.512 258.319 22.376 241.167 22.376C223.119 22.376 209.935 34.408 209.935 52.456ZM279.305 65.128C279.305 78.568 288.393 82.536 297.993 82.536C305.801 82.536 310.793 80.616 315.145 77.416V63.976C311.689 65.384 308.873 65.896 306.313 65.896C302.089 65.896 299.785 63.976 299.785 59.112V38.248H314.633V23.912H299.785V8.168H286.729L284.809 15.592C283.401 20.84 281.609 23.912 275.849 24.808L271.625 25.448V38.248H279.305V65.128ZM419.732 81C417.044 78.056 416.66 74.472 415.508 62.44C414.612 53.096 409.748 48.36 401.428 46.696C411.284 45.416 418.58 37.736 418.58 25.96C418.58 10.216 408.212 0.359993 387.348 0.359993H346.644V81H368.02V54.248H382.484C389.78 54.248 393.748 56.296 394.388 65.512C395.028 73.832 396.052 78.824 397.716 81H419.732ZM368.02 37.48V17.768H383.508C392.724 17.768 397.332 21.224 397.332 27.752C397.332 35.176 392.724 37.48 383.508 37.48H368.02ZM444.799 52.456C444.799 43.88 447.871 37.992 455.167 37.992C462.335 37.992 465.535 43.88 465.535 52.456C465.535 61.032 462.335 66.92 455.167 66.92C447.871 66.92 444.799 61.032 444.799 52.456ZM486.399 52.456C486.399 34.792 473.727 22.376 455.167 22.376C436.479 22.376 423.935 34.792 423.935 52.456C423.935 70.248 436.479 82.536 455.167 82.536C473.727 82.536 486.399 70.248 486.399 52.456ZM532.264 51.944C532.264 60.648 529.704 66.28 523.176 66.28C516.904 66.28 514.728 62.056 514.728 54.376V23.912H493.992V59.88C493.992 71.784 498.728 82.536 514.344 82.536C522.92 82.536 529.192 78.824 532.264 72.424V81H553V23.912H532.264V51.944ZM566.305 65.128C566.305 78.568 575.393 82.536 584.993 82.536C592.801 82.536 597.793 80.616 602.145 77.416V63.976C598.689 65.384 595.873 65.896 593.313 65.896C589.089 65.896 586.785 63.976 586.785 59.112V38.248H601.633V23.912H586.785V8.168H573.729L571.809 15.592C570.401 20.84 568.609 23.912 562.849 24.808L558.625 25.448V38.248H566.305V65.128ZM650.324 60.648C648.404 65.128 644.82 67.048 639.188 67.048C632.916 67.048 627.796 63.72 627.284 56.68H667.348V50.92C667.348 35.432 657.236 22.376 638.164 22.376C620.372 22.376 607.06 35.304 607.06 53.352C607.06 71.528 620.116 82.536 638.42 82.536C653.524 82.536 664.02 75.24 666.964 62.184L650.324 60.648ZM627.54 46.696C628.308 41.32 631.252 37.224 637.908 37.224C644.052 37.224 647.38 41.576 647.636 46.696H627.54ZM720.045 24.552C718.637 23.4 715.565 22.376 712.109 22.376C704.557 22.376 698.541 27.624 696.493 34.024V23.912H675.757V81H696.493V54.888C696.493 45.288 701.229 41.704 708.909 41.704C712.877 41.704 715.949 42.472 718.765 44.136L720.045 24.552Z" fill="currentColor"/>
    </symbol>

    <symbol id="github" width="24" height="24" viewBox="0 0 24 24" fill="none"
        xmlns="http://www.w3.org/2000/svg">
        <path d="M12 0C5.374 0 0 5.373 0 12C0 17.302 3.438 21.8 8.207 23.387C8.806 23.498 9 23.126 9 22.81V20.576C5.662 21.302 4.967 19.16 4.967 19.16C4.421 17.773 3.634 17.404 3.634 17.404C2.545 16.659 3.717 16.675 3.717 16.675C4.922 16.759 5.556 17.912 5.556 17.912C6.626 19.746 8.363 19.216 9.048 18.909C9.155 18.134 9.466 17.604 9.81 17.305C7.145 17 4.343 15.971 4.343 11.374C4.343 10.063 4.812 8.993 5.579 8.153C5.455 7.85 5.044 6.629 5.696 4.977C5.696 4.977 6.704 4.655 8.997 6.207C9.954 5.941 10.98 5.808 12 5.803C13.02 5.808 14.047 5.941 15.006 6.207C17.297 4.655 18.303 4.977 18.303 4.977C18.956 6.63 18.545 7.851 18.421 8.153C19.191 8.993 19.656 10.064 19.656 11.374C19.656 15.983 16.849 16.998 14.177 17.295C14.607 17.667 15 18.397 15 19.517V22.81C15 23.129 15.192 23.504 15.801 23.386C20.566 21.797 24 17.3 24 12C24 5.373 18.627 0 12 0Z" fill="currentColor"/>
    </symbol>

    <symbol id="discord" viewBox="0 0 24 20" fill="none"
        xmlns="http://www.w3.org/2000/svg">
        <path fill-rule="evenodd" clip-rule="evenodd" d="M15.376 0.852539C17.0905 1.13465 18.7399 1.65548 20.3243 2.37173C23.0371 6.36501 24.3826 10.8792 23.9052 16.0879C22.0822 17.4551 20.0204 18.4752 17.8284 19.1479C17.3293 18.4752 16.8952 17.7807 16.5262 17.0428C17.2424 16.7823 17.937 16.4568 18.588 16.0662C18.5012 16.0011 18.4198 15.9359 18.3384 15.8708C18.2571 15.8058 18.1757 15.7407 18.0888 15.6755C14.2475 17.4986 9.77668 17.4986 5.93526 15.6755C5.84849 15.7407 5.76711 15.8058 5.68574 15.8708C5.60427 15.9359 5.5229 16.0011 5.43612 16.0662C6.08721 16.4568 6.75998 16.7823 7.47615 17.0428C7.10726 17.7807 6.67321 18.4752 6.17398 19.1479C3.98201 18.4969 1.94196 17.4551 0.0972232 16.0879C-0.315129 11.5954 0.531278 7.05948 3.65651 2.39343C5.2191 1.65548 6.89024 1.13465 8.60467 0.852539C8.84349 1.2649 9.06051 1.69896 9.25575 2.15471C11.0788 1.8725 12.9235 1.8725 14.7466 2.15471C14.9203 1.74234 15.159 1.24321 15.376 0.852539ZM5.84848 10.9009C5.84848 12.2248 6.80337 13.3099 7.99707 13.3099C9.21237 13.3099 10.1457 12.2248 10.1673 10.9009C10.1673 9.55534 9.21237 8.4702 7.99707 8.4702C6.80337 8.4702 5.84848 9.57703 5.84848 10.9009ZM13.8351 10.9009C13.8351 12.2248 14.79 13.3099 15.9837 13.3099C17.1773 13.3099 18.1105 12.2464 18.1322 10.9009C18.154 9.55534 17.199 8.4702 15.9837 8.4702C14.79 8.4702 13.8351 9.57703 13.8351 10.9009Z" fill="currentColor"/>
    </symbol>

    <symbol id="remix" viewBox="0 0 122 17" fill="none"
        xmlns="http://www.w3.org/2000/svg">
        <path d="M7.45607 13.9999L9.26407 6.91192H9.32807V13.9999H12.0481V3.91992H7.93607L6.51207 10.2559H6.46407L4.97607 3.91992H0.768066V13.9999H3.26407V6.91192H3.32807L5.13607 13.9999H7.45607Z" fill="currentColor"/>
        <path d="M17.6446 11.0239C17.6446 11.9519 17.0526 12.4959 16.3166 12.4959C15.8846 12.4959 15.5966 12.2559 15.5966 11.8879C15.5966 11.4239 15.9646 11.2319 16.5886 11.1039L17.6446 10.9119V11.0239ZM20.1886 9.47192C20.1886 7.48792 18.7966 6.67192 16.9086 6.67192C14.7646 6.67192 13.5966 7.75992 13.3726 9.32792L15.7726 9.48792C15.8846 8.95992 16.1726 8.59192 16.7486 8.59192C17.3726 8.59192 17.6446 8.94392 17.6446 9.53592V9.64792L15.6446 9.98392C14.0926 10.2559 13.1006 10.8479 13.1006 12.2239C13.1006 13.4399 14.0126 14.1599 15.4046 14.1599C16.5406 14.1599 17.3566 13.7279 17.7726 12.8959C18.0126 13.7119 18.7006 14.1599 19.5806 14.1599C20.3166 14.1599 20.8286 13.9519 21.1966 13.6959V12.3199C20.9886 12.3999 20.8286 12.4319 20.6206 12.4319C20.3486 12.4319 20.1886 12.2719 20.1886 11.9039V9.47192Z" fill="currentColor"/>
        <path d="M26.9959 10.4799C26.9959 11.5199 26.4359 12.1919 25.5719 12.1919C24.5479 12.1919 24.0999 11.4719 24.0999 10.4319C24.0999 9.40792 24.5479 8.68792 25.5719 8.68792C26.4359 8.68792 26.9959 9.35992 26.9959 10.3839V10.4799ZM26.9959 13.9999H29.5879V3.91992H26.9959V8.09592C26.6599 7.24792 25.8439 6.67192 24.6599 6.67192C22.5479 6.67192 21.4919 8.33592 21.4919 10.4319C21.4919 12.5439 22.5479 14.1919 24.6599 14.1919C25.8439 14.1919 26.6599 13.6159 26.9959 12.7839V13.9999Z" fill="currentColor"/>
        <path d="M36.0249 11.4559C35.7849 12.0159 35.3369 12.2559 34.6329 12.2559C33.8489 12.2559 33.2089 11.8399 33.1449 10.9599H38.1529V10.2399C38.1529 8.30392 36.8889 6.67192 34.5049 6.67192C32.2809 6.67192 30.6169 8.28792 30.6169 10.5439C30.6169 12.8159 32.2489 14.1919 34.5369 14.1919C36.4249 14.1919 37.7369 13.2799 38.1049 11.6479L36.0249 11.4559ZM33.1769 9.71192C33.2729 9.03992 33.6409 8.52792 34.4729 8.52792C35.2409 8.52792 35.6569 9.07192 35.6889 9.71192H33.1769Z" fill="currentColor"/>
        <path d="M44.6711 10.3839C44.6711 9.35992 45.2311 8.68792 46.1111 8.68792C47.1191 8.68792 47.5831 9.40792 47.5831 10.4319C47.5831 11.4719 47.1191 12.1919 46.1111 12.1919C45.2311 12.1919 44.6711 11.5199 44.6711 10.4799V10.3839ZM44.5271 12.7679C44.9271 13.6319 45.8231 14.1919 46.9751 14.1919C49.1191 14.1919 50.1911 12.5439 50.1911 10.4319C50.1911 8.33592 49.1191 6.67192 47.0231 6.67192C45.8231 6.67192 45.0231 7.24792 44.6711 8.09592V3.91992H42.0791V13.9999H44.0791L44.5271 12.7679Z" fill="currentColor"/>
        <path d="M54.7594 16.5599L58.8554 6.86392H56.3114L54.6954 11.0399H54.6314L53.0474 6.86392H50.3274L53.2394 14.0959L52.2154 16.5599H54.7594Z" fill="currentColor"/>
        <path fill-rule="evenodd" clip-rule="evenodd" d="M71.4212 14.0474C71.4212 13.4544 71.4212 12.8937 71.3309 11.7349C71.2193 10.5707 70.6133 9.98058 69.5766 9.77325C70.8047 9.61377 71.7137 8.65688 71.7137 7.18964C71.7137 5.22801 70.4219 4 67.8223 4H63V6.04436H67.3439C68.4922 6.04436 69.0663 6.53726 69.0663 7.35062C69.0663 8.27561 68.4922 8.62498 67.3439 8.62498H63V10.7141H66.4113V10.7142H67.2163C68.1254 10.7142 68.6197 10.9694 68.6995 12.1176C68.7599 12.903 68.7522 13.3013 68.745 13.6791V13.6791C68.7426 13.8 68.7404 13.9187 68.7404 14.0474H71.4212ZM63 12.5971V12.4724H66.4109V12.4725H65.848C66.0748 12.4725 66.4002 12.6486 66.4109 13.0009V14.0474H63V12.5971Z" fill="currentColor"/>
        <path d="M103.777 6.93408H101.113L99.9012 8.62459L98.7211 6.93408H95.8663L98.434 10.4267L95.6431 14.047H98.3064L99.7258 12.1172L101.145 14.047H104L101.193 10.3151L103.777 6.93408Z" fill="currentColor"/>
        <path d="M77.2928 11.5117C77.0536 12.0699 76.6071 12.3091 75.9053 12.3091C75.1239 12.3091 74.486 11.8944 74.4222 11.0173H79.4139V10.2996C79.4139 8.36988 78.154 6.74316 75.7778 6.74316C73.561 6.74316 71.9023 8.35393 71.9023 10.6026C71.9023 12.8673 73.5291 14.2388 75.8097 14.2388C77.6915 14.2388 78.9993 13.3298 79.3661 11.7031L77.2928 11.5117ZM74.4541 9.77332C74.5497 9.1035 74.9166 8.59316 75.7459 8.59316C76.5114 8.59316 76.926 9.13539 76.9579 9.77332H74.4541Z" fill="currentColor"/>
        <path d="M87.0001 8.14661C86.6971 7.3173 86.0432 6.74316 84.7833 6.74316C83.7148 6.74316 82.9493 7.22161 82.5665 8.00307V6.93454H79.9829V14.0474H82.5665V10.5548C82.5665 9.48626 82.8695 8.78453 83.7148 8.78453C84.4963 8.78453 84.6876 9.29488 84.6876 10.2677V14.0474H87.2712V10.5548C87.2712 9.48626 87.5583 8.78453 88.4195 8.78453C89.201 8.78453 89.3764 9.29488 89.3764 10.2677V14.0474H91.96V9.58194C91.96 8.09876 91.3859 6.74316 89.4242 6.74316C88.2281 6.74316 87.3829 7.3492 87.0001 8.14661Z" fill="currentColor"/>
        <path d="M92.8045 6.93447V14.0474H95.3881V6.93447H92.8045ZM92.7886 6.26465H95.4041V4H92.7886V6.26465Z" fill="currentColor"/>
        <path d="M117.325 14.3732L115.469 14.3813L115.469 9.48777L109.736 15.221L108.378 13.863L114.111 8.12981L109.222 8.13383L109.226 6.27365L117.325 6.27365L117.325 14.3732Z" fill="currentColor"/>
    </symbol>

    <symbol id="sun" viewBox="0 0 24 24" fill="currentColor"
        xmlns="http://www.w3.org/2000/svg">
        <path d="M12 15.5C12.9667 15.5 13.7917 15.1583 14.475 14.475C15.1583 13.7917 15.5 12.9667 15.5 12C15.5 11.0333 15.1583 10.2083 14.475 9.525C13.7917 8.84167 12.9667 8.5 12 8.5C11.0333 8.5 10.2083 8.84167 9.525 9.525C8.84167 10.2083 8.5 11.0333 8.5 12C8.5 12.9667 8.84167 13.7917 9.525 14.475C10.2083 15.1583 11.0333 15.5 12 15.5ZM12 17C10.6167 17 9.4375 16.5125 8.4625 15.5375C7.4875 14.5625 7 13.3833 7 12C7 10.6167 7.4875 9.4375 8.4625 8.4625C9.4375 7.4875 10.6167 7 12 7C13.3833 7 14.5625 7.4875 15.5375 8.4625C16.5125 9.4375 17 10.6167 17 12C17 13.3833 16.5125 14.5625 15.5375 15.5375C14.5625 16.5125 13.3833 17 12 17ZM1.75 12.75C1.53333 12.75 1.35417 12.6792 1.2125 12.5375C1.07083 12.3958 1 12.2167 1 12C1 11.7833 1.07083 11.6042 1.2125 11.4625C1.35417 11.3208 1.53333 11.25 1.75 11.25H4.25C4.46667 11.25 4.64583 11.3208 4.7875 11.4625C4.92917 11.6042 5 11.7833 5 12C5 12.2167 4.92917 12.3958 4.7875 12.5375C4.64583 12.6792 4.46667 12.75 4.25 12.75H1.75ZM19.75 12.75C19.5333 12.75 19.3542 12.6792 19.2125 12.5375C19.0708 12.3958 19 12.2167 19 12C19 11.7833 19.0708 11.6042 19.2125 11.4625C19.3542 11.3208 19.5333 11.25 19.75 11.25H22.25C22.4667 11.25 22.6458 11.3208 22.7875 11.4625C22.9292 11.6042 23 11.7833 23 12C23 12.2167 22.9292 12.3958 22.7875 12.5375C22.6458 12.6792 22.4667 12.75 22.25 12.75H19.75ZM12 5C11.7833 5 11.6042 4.92917 11.4625 4.7875C11.3208 4.64583 11.25 4.46667 11.25 4.25V1.75C11.25 1.53333 11.3208 1.35417 11.4625 1.2125C11.6042 1.07083 11.7833 1 12 1C12.2167 1 12.3958 1.07083 12.5375 1.2125C12.6792 1.35417 12.75 1.53333 12.75 1.75V4.25C12.75 4.46667 12.6792 4.64583 12.5375 4.7875C12.3958 4.92917 12.2167 5 12 5ZM12 23C11.7833 23 11.6042 22.9292 11.4625 22.7875C11.3208 22.6458 11.25 22.4667 11.25 22.25V19.75C11.25 19.5333 11.3208 19.3542 11.4625 19.2125C11.6042 19.0708 11.7833 19 12 19C12.2167 19 12.3958 19.0708 12.5375 19.2125C12.6792 19.3542 12.75 19.5333 12.75 19.75V22.25C12.75 22.4667 12.6792 22.6458 12.5375 22.7875C12.3958 22.9292 12.2167 23 12 23ZM6 7.05L4.575 5.65C4.425 5.5 4.35417 5.32083 4.3625 5.1125C4.37083 4.90417 4.44167 4.725 4.575 4.575C4.725 4.425 4.90417 4.35 5.1125 4.35C5.32083 4.35 5.5 4.425 5.65 4.575L7.05 6C7.18333 6.15 7.25 6.325 7.25 6.525C7.25 6.725 7.18333 6.89167 7.05 7.025C6.91667 7.175 6.74583 7.25 6.5375 7.25C6.32917 7.25 6.15 7.18333 6 7.05ZM18.35 19.425L16.95 18C16.8167 17.85 16.75 17.6708 16.75 17.4625C16.75 17.2542 16.825 17.0833 16.975 16.95C17.1083 16.8 17.275 16.725 17.475 16.725C17.675 16.725 17.85 16.8 18 16.95L19.425 18.35C19.575 18.5 19.6458 18.6792 19.6375 18.8875C19.6292 19.0958 19.5583 19.275 19.425 19.425C19.275 19.575 19.0958 19.65 18.8875 19.65C18.6792 19.65 18.5 19.575 18.35 19.425ZM16.95 7.05C16.8 6.9 16.725 6.725 16.725 6.525C16.725 6.325 16.8 6.15 16.95 6L18.35 4.575C18.5 4.425 18.6792 4.35417 18.8875 4.3625C19.0958 4.37083 19.275 4.44167 19.425 4.575C19.575 4.725 19.65 4.90417 19.65 5.1125C19.65 5.32083 19.575 5.5 19.425 5.65L18 7.05C17.8667 7.18333 17.6958 7.25 17.4875 7.25C17.2792 7.25 17.1 7.18333 16.95 7.05ZM4.575 19.425C4.425 19.275 4.35 19.0958 4.35 18.8875C4.35 18.6792 4.425 18.5 4.575 18.35L6 16.95C6.15 16.8 6.325 16.725 6.525 16.725C6.725 16.725 6.9 16.8 7.05 16.95C7.2 17.1 7.275 17.275 7.275 17.475C7.275 17.675 7.2 17.85 7.05 18L5.65 19.425C5.5 19.575 5.32083 19.6458 5.1125 19.6375C4.90417 19.6292 4.725 19.5583 4.575 19.425Z"/>
    </symbol>

    <symbol id="moon" viewBox="0 0 24 24" fill="currentColor"
        xmlns="http://www.w3.org/2000/svg">
        <path d="M12 21.0001C9.5 21.0001 7.375 20.1251 5.625 18.3751C3.875 16.6251 3 14.5001 3 12.0001C3 9.75011 3.6625 7.84178 4.9875 6.27511C6.3125 4.70844 8.05 3.70011 10.2 3.25011C10.8833 3.11678 11.35 3.23344 11.6 3.60011C11.85 3.96678 11.8417 4.46678 11.575 5.10011C11.425 5.48344 11.3083 5.87511 11.225 6.27511C11.1417 6.67511 11.1 7.08344 11.1 7.50011C11.1 9.00011 11.625 10.2751 12.675 11.3251C13.725 12.3751 15 12.9001 16.5 12.9001C16.9167 12.9001 17.3208 12.8626 17.7125 12.7876C18.1042 12.7126 18.4833 12.6084 18.85 12.4751C19.5667 12.2084 20.1 12.2209 20.45 12.5126C20.8 12.8043 20.8917 13.3001 20.725 14.0001C20.275 16.0168 19.2667 17.6876 17.7 19.0126C16.1333 20.3376 14.2333 21.0001 12 21.0001ZM12 19.5001C13.8167 19.5001 15.4 18.9376 16.75 17.8126C18.1 16.6876 18.9417 15.3668 19.275 13.8501C18.8583 14.0334 18.4125 14.1709 17.9375 14.2626C17.4625 14.3543 16.9833 14.4001 16.5 14.4001C14.5833 14.4001 12.9542 13.7293 11.6125 12.3876C10.2708 11.0459 9.6 9.41678 9.6 7.50011C9.6 7.10011 9.64167 6.67094 9.725 6.21261C9.80833 5.75428 9.95833 5.23344 10.175 4.65011C8.54167 5.10011 7.1875 6.01261 6.1125 7.38761C5.0375 8.76261 4.5 10.3001 4.5 12.0001C4.5 14.0834 5.22917 15.8543 6.6875 17.3126C8.14583 18.7709 9.91667 19.5001 12 19.5001Z" />
    </symbol>

    <symbol id="dropdown-arrows" viewBox="0 0 19 18" fill="none"
        xmlns="http://www.w3.org/2000/svg">
        <path d="M9.1542 15.325C9.0917 15.325 9.02607 15.3125 8.95732 15.2875C8.88857 15.2625 8.82295 15.2188 8.76045 15.1562L5.0667 11.4625C4.9542 11.35 4.89795 11.2125 4.89795 11.05C4.89795 10.8875 4.9542 10.75 5.0667 10.6375C5.1792 10.525 5.31045 10.4688 5.46045 10.4688C5.61045 10.4688 5.7417 10.525 5.8542 10.6375L9.1542 13.9375L12.4542 10.6375C12.5667 10.525 12.7011 10.4688 12.8573 10.4688C13.0136 10.4688 13.1479 10.525 13.2604 10.6375C13.3729 10.75 13.4292 10.8844 13.4292 11.0406C13.4292 11.1969 13.3729 11.3313 13.2604 11.4438L9.54795 15.1562C9.48545 15.2188 9.42295 15.2625 9.36045 15.2875C9.29795 15.3125 9.2292 15.325 9.1542 15.325Z" fill="currentColor"/>
        <path d="M9.15439 2.675C9.2169 2.675 9.28252 2.6875 9.35127 2.7125C9.42002 2.7375 9.48564 2.78125 9.54814 2.84375L13.2419 6.5375C13.3544 6.65 13.4106 6.7875 13.4106 6.95C13.4106 7.1125 13.3544 7.25 13.2419 7.3625C13.1294 7.475 12.9981 7.53125 12.8481 7.53125C12.6981 7.53125 12.5669 7.475 12.4544 7.3625L9.15439 4.0625L5.85439 7.3625C5.74189 7.475 5.60752 7.53125 5.45127 7.53125C5.29502 7.53125 5.16064 7.475 5.04814 7.3625C4.93564 7.25 4.87939 7.11562 4.87939 6.95937C4.87939 6.80312 4.93564 6.66875 5.04814 6.55625L8.76065 2.84375C8.82315 2.78125 8.88564 2.7375 8.94815 2.7125C9.01065 2.6875 9.07939 2.675 9.15439 2.675Z" fill="currentColor"/>
    </symbol>

    <symbol id="setting" viewBox="0 0 24 24" fill="currentColor"
        xmlns="http://www.w3.org/2000/svg">
        <path d="M13.6501 22H10.3501C10.1668 22 10.0043 21.9417 9.8626 21.825C9.72093 21.7083 9.63343 21.5583 9.6001 21.375L9.2001 18.85C8.88343 18.7333 8.5501 18.575 8.2001 18.375C7.8501 18.175 7.54176 17.9667 7.2751 17.75L4.9501 18.825C4.76676 18.9083 4.58343 18.9208 4.4001 18.8625C4.21676 18.8042 4.0751 18.6833 3.9751 18.5L2.3251 15.575C2.2251 15.4083 2.2001 15.2333 2.2501 15.05C2.3001 14.8667 2.4001 14.7167 2.5501 14.6L4.7001 13.025C4.66676 12.875 4.64593 12.7042 4.6376 12.5125C4.62926 12.3208 4.6251 12.15 4.6251 12C4.6251 11.85 4.62926 11.6792 4.6376 11.4875C4.64593 11.2958 4.66676 11.125 4.7001 10.975L2.5501 9.4C2.4001 9.28333 2.3001 9.13333 2.2501 8.95C2.2001 8.76667 2.2251 8.59167 2.3251 8.425L3.9751 5.5C4.0751 5.31667 4.21676 5.19583 4.4001 5.1375C4.58343 5.07917 4.76676 5.09167 4.9501 5.175L7.2751 6.25C7.54176 6.03333 7.8501 5.825 8.2001 5.625C8.5501 5.425 8.88343 5.275 9.2001 5.175L9.6001 2.625C9.63343 2.44167 9.72093 2.29167 9.8626 2.175C10.0043 2.05833 10.1668 2 10.3501 2H13.6501C13.8334 2 13.9959 2.05833 14.1376 2.175C14.2793 2.29167 14.3668 2.44167 14.4001 2.625L14.8001 5.15C15.1168 5.26667 15.4543 5.42083 15.8126 5.6125C16.1709 5.80417 16.4751 6.01667 16.7251 6.25L19.0501 5.175C19.2334 5.09167 19.4168 5.07917 19.6001 5.1375C19.7834 5.19583 19.9251 5.31667 20.0251 5.5L21.6751 8.4C21.7751 8.56667 21.8043 8.74583 21.7626 8.9375C21.7209 9.12917 21.6168 9.28333 21.4501 9.4L19.3001 10.925C19.3334 11.0917 19.3543 11.2708 19.3626 11.4625C19.3709 11.6542 19.3751 11.8333 19.3751 12C19.3751 12.1667 19.3709 12.3417 19.3626 12.525C19.3543 12.7083 19.3334 12.8833 19.3001 13.05L21.4501 14.6C21.6001 14.7167 21.7001 14.8667 21.7501 15.05C21.8001 15.2333 21.7751 15.4083 21.6751 15.575L20.0251 18.5C19.9251 18.6833 19.7834 18.8042 19.6001 18.8625C19.4168 18.9208 19.2334 18.9083 19.0501 18.825L16.7251 17.75C16.4584 17.9667 16.1543 18.1792 15.8126 18.3875C15.4709 18.5958 15.1334 18.75 14.8001 18.85L14.4001 21.375C14.3668 21.5583 14.2793 21.7083 14.1376 21.825C13.9959 21.9417 13.8334 22 13.6501 22ZM12.0001 15.25C12.9001 15.25 13.6668 14.9333 14.3001 14.3C14.9334 13.6667 15.2501 12.9 15.2501 12C15.2501 11.1 14.9334 10.3333 14.3001 9.7C13.6668 9.06667 12.9001 8.75 12.0001 8.75C11.1001 8.75 10.3334 9.06667 9.7001 9.7C9.06676 10.3333 8.7501 11.1 8.7501 12C8.7501 12.9 9.06676 13.6667 9.7001 14.3C10.3334 14.9333 11.1001 15.25 12.0001 15.25ZM12.0001 13.75C11.5168 13.75 11.1043 13.5792 10.7626 13.2375C10.4209 12.8958 10.2501 12.4833 10.2501 12C10.2501 11.5167 10.4209 11.1042 10.7626 10.7625C11.1043 10.4208 11.5168 10.25 12.0001 10.25C12.4834 10.25 12.8959 10.4208 13.2376 10.7625C13.5793 11.1042 13.7501 11.5167 13.7501 12C13.7501 12.4833 13.5793 12.8958 13.2376 13.2375C12.8959 13.5792 12.4834 13.75 12.0001 13.75ZM10.9001 20.5H13.1001L13.4501 17.7C14.0001 17.5667 14.5209 17.3583 15.0126 17.075C15.5043 16.7917 15.9501 16.45 16.3501 16.05L19.0001 17.2L20.0001 15.4L17.6501 13.675C17.7168 13.3917 17.7709 13.1125 17.8126 12.8375C17.8543 12.5625 17.8751 12.2833 17.8751 12C17.8751 11.7167 17.8584 11.4375 17.8251 11.1625C17.7918 10.8875 17.7334 10.6083 17.6501 10.325L20.0001 8.6L19.0001 6.8L16.3501 7.95C15.9668 7.51667 15.5334 7.15417 15.0501 6.8625C14.5668 6.57083 14.0334 6.38333 13.4501 6.3L13.1001 3.5H10.9001L10.5501 6.3C9.98343 6.41667 9.45426 6.61667 8.9626 6.9C8.47093 7.18333 8.03343 7.53333 7.6501 7.95L5.0001 6.8L4.0001 8.6L6.3501 10.325C6.28343 10.6083 6.22926 10.8875 6.1876 11.1625C6.14593 11.4375 6.1251 11.7167 6.1251 12C6.1251 12.2833 6.14593 12.5625 6.1876 12.8375C6.22926 13.1125 6.28343 13.3917 6.3501 13.675L4.0001 15.4L5.0001 17.2L7.6501 16.05C8.0501 16.45 8.49593 16.7917 8.9876 17.075C9.47926 17.3583 10.0001 17.5667 10.5501 17.7L10.9001 20.5Z" />
    </symbol>

    <symbol id="stat-star" viewBox="0 0 32 32" fill="none"
        xmlns="http://www.w3.org/2000/svg">
        <path d="M8.99995 28.3999C8.79995 28.5555 8.60551 28.561 8.41662 28.4166C8.22773 28.2721 8.16662 28.0777 8.23328 27.8332L10.8666 19.1999L3.93329 14.2332C3.73329 14.0999 3.67217 13.9166 3.74995 13.6832C3.82773 13.4499 3.98884 13.3332 4.23329 13.3332H12.8L15.5333 4.26657C15.5777 4.15546 15.6388 4.06657 15.7166 3.9999C15.7944 3.93324 15.8888 3.8999 16 3.8999C16.1111 3.8999 16.2055 3.93324 16.2833 3.9999C16.3611 4.06657 16.4222 4.15546 16.4666 4.26657L19.2 13.3332H27.7666C28.0111 13.3332 28.1722 13.4499 28.25 13.6832C28.3277 13.9166 28.2666 14.0999 28.0666 14.2332L21.1333 19.1999L23.7666 27.8332C23.8333 28.0777 23.7722 28.2721 23.5833 28.4166C23.3944 28.561 23.2 28.5555 23 28.3999L16 23.0666L8.99995 28.3999ZM11.4333 23.8999L16 20.4332L20.5666 23.8999L18.7333 18.1332L22.9333 15.3999H17.9L16 9.63324L14.1 15.3999H9.06662L13.2666 18.1332L11.4333 23.8999Z" fill="currentColor"/>
    </symbol>

    <symbol id="stat-box" viewBox="0 0 32 32" fill="none"
        xmlns="http://www.w3.org/2000/svg">
        <path d="M5.62822 9.29806C5.24078 9.51684 5 9.93239 5 10.3822V21.3211C5 21.7733 5.24078 22.1864 5.62822 22.4052C7.58011 23.5064 13.5189 26.8528 15.4121 27.9198C15.5979 28.0237 15.802 28.0763 16.0073 28.0763C16.2078 28.0763 16.4082 28.0262 16.5903 27.9259C18.4836 26.8809 24.4003 23.6201 26.3608 22.5384C26.7556 22.3221 27 21.9041 27 21.4494V10.3822C27 9.93239 26.7592 9.51684 26.3706 9.29806C24.4211 8.19928 18.4946 4.85895 16.594 3.78828C16.4094 3.68439 16.2041 3.63184 16 3.63184C15.7947 3.63184 15.5906 3.68439 15.406 3.78828C13.5054 4.85895 7.57767 8.19928 5.62822 9.29806V9.29806ZM25.1667 11.8831V21.0803L16.9167 25.6294V16.3674L25.1667 11.8831ZM6.83333 20.9581V11.8427L15.0833 16.4261V25.6062L6.83333 20.9581ZM7.73289 10.2404L16 5.58006L24.3123 10.2661L16 14.8078L7.73289 10.2404Z" fill="currentColor"/>
    </symbol>

    <symbol id="stat-users" viewBox="0 0 32 32" fill="none"
        xmlns="http://www.w3.org/2000/svg">
        <path d="M2.2666 26.6668C1.97771 26.6668 1.73882 26.5723 1.54993 26.3835C1.36105 26.1946 1.2666 25.9557 1.2666 25.6668V23.5335C1.2666 22.7557 1.4666 22.0501 1.8666 21.4168C2.2666 20.7835 2.82216 20.3112 3.53327 20.0001C5.15549 19.289 6.6166 18.7779 7.9166 18.4668C9.2166 18.1557 10.5555 18.0001 11.9333 18.0001C13.311 18.0001 14.6444 18.1557 15.9333 18.4668C17.2222 18.7779 18.6777 19.289 20.2999 20.0001C21.011 20.3112 21.5722 20.7835 21.9833 21.4168C22.3944 22.0501 22.5999 22.7557 22.5999 23.5335V25.6668C22.5999 25.9557 22.5055 26.1946 22.3166 26.3835C22.1277 26.5723 21.8888 26.6668 21.5999 26.6668H2.2666ZM23.8666 26.6668C24.0888 26.6223 24.2666 26.5057 24.3999 26.3168C24.5333 26.1279 24.5999 25.889 24.5999 25.6001V23.5335C24.5999 22.1335 24.2444 20.9835 23.5333 20.0835C22.8222 19.1835 21.8888 18.4557 20.7333 17.9001C22.2666 18.0779 23.711 18.339 25.0666 18.6835C26.4222 19.0279 27.5222 19.4223 28.3666 19.8668C29.0999 20.289 29.6777 20.8112 30.0999 21.4335C30.5222 22.0557 30.7333 22.7557 30.7333 23.5335V25.6668C30.7333 25.9557 30.6388 26.1946 30.4499 26.3835C30.261 26.5723 30.0222 26.6668 29.7333 26.6668H23.8666ZM11.9333 15.9668C10.4666 15.9668 9.2666 15.5001 8.33327 14.5668C7.39994 13.6335 6.93327 12.4335 6.93327 10.9668C6.93327 9.50013 7.39994 8.30013 8.33327 7.3668C9.2666 6.43346 10.4666 5.9668 11.9333 5.9668C13.3999 5.9668 14.5999 6.43346 15.5333 7.3668C16.4666 8.30013 16.9333 9.50013 16.9333 10.9668C16.9333 12.4335 16.4666 13.6335 15.5333 14.5668C14.5999 15.5001 13.3999 15.9668 11.9333 15.9668ZM23.9333 10.9668C23.9333 12.4335 23.4666 13.6335 22.5333 14.5668C21.5999 15.5001 20.3999 15.9668 18.9333 15.9668C18.6888 15.9668 18.4166 15.9501 18.1166 15.9168C17.8166 15.8835 17.5444 15.8224 17.2999 15.7335C17.8333 15.1779 18.2388 14.4946 18.5166 13.6835C18.7944 12.8724 18.9333 11.9668 18.9333 10.9668C18.9333 9.9668 18.7944 9.08346 18.5166 8.3168C18.2388 7.55013 17.8333 6.84457 17.2999 6.20013C17.5444 6.13346 17.8166 6.07791 18.1166 6.03346C18.4166 5.98902 18.6888 5.9668 18.9333 5.9668C20.3999 5.9668 21.5999 6.43346 22.5333 7.3668C23.4666 8.30013 23.9333 9.50013 23.9333 10.9668ZM3.2666 24.6668H20.5999V23.5335C20.5999 23.1779 20.4944 22.8335 20.2833 22.5001C20.0722 22.1668 19.811 21.9335 19.4999 21.8001C17.8999 21.089 16.5555 20.6112 15.4666 20.3668C14.3777 20.1223 13.1999 20.0001 11.9333 20.0001C10.6666 20.0001 9.48327 20.1223 8.38327 20.3668C7.28327 20.6112 5.93327 21.089 4.33327 21.8001C4.02216 21.9335 3.7666 22.1668 3.5666 22.5001C3.3666 22.8335 3.2666 23.1779 3.2666 23.5335V24.6668ZM11.9333 13.9668C12.7999 13.9668 13.5166 13.6835 14.0833 13.1168C14.6499 12.5501 14.9333 11.8335 14.9333 10.9668C14.9333 10.1001 14.6499 9.38346 14.0833 8.8168C13.5166 8.25013 12.7999 7.9668 11.9333 7.9668C11.0666 7.9668 10.3499 8.25013 9.78327 8.8168C9.2166 9.38346 8.93327 10.1001 8.93327 10.9668C8.93327 11.8335 9.2166 12.5501 9.78327 13.1168C10.3499 13.6835 11.0666 13.9668 11.9333 13.9668Z" fill="currentColor"/>
    </symbol>

    <symbol id="stat-download" viewBox="0 0 32 32" fill="none"
        xmlns="http://www.w3.org/2000/svg">
        <path d="M16.0002 21.1668C15.8668 21.1668 15.7446 21.1446 15.6335 21.1002C15.5224 21.0557 15.4113 20.9779 15.3002 20.8668L10.2668 15.8335C10.0668 15.6335 9.97239 15.3946 9.9835 15.1168C9.99461 14.8391 10.1002 14.6002 10.3002 14.4002C10.5002 14.2002 10.7391 14.1002 11.0168 14.1002C11.2946 14.1002 11.5335 14.2002 11.7335 14.4002L15.0002 17.7002V6.3335C15.0002 6.04461 15.0946 5.80572 15.2835 5.61683C15.4724 5.42794 15.7113 5.3335 16.0002 5.3335C16.2891 5.3335 16.5279 5.42794 16.7168 5.61683C16.9057 5.80572 17.0002 6.04461 17.0002 6.3335V17.7002L20.3002 14.4002C20.5002 14.2002 20.7391 14.1002 21.0168 14.1002C21.2946 14.1002 21.5335 14.2002 21.7335 14.4002C21.9335 14.6002 22.0335 14.8391 22.0335 15.1168C22.0335 15.3946 21.9335 15.6335 21.7335 15.8335L16.7002 20.8668C16.5891 20.9779 16.4779 21.0557 16.3668 21.1002C16.2557 21.1446 16.1335 21.1668 16.0002 21.1668ZM7.3335 26.6668C6.80016 26.6668 6.3335 26.4668 5.9335 26.0668C5.5335 25.6668 5.3335 25.2002 5.3335 24.6668V20.9002C5.3335 20.6113 5.42794 20.3724 5.61683 20.1835C5.80572 19.9946 6.04461 19.9002 6.3335 19.9002C6.62239 19.9002 6.86127 19.9946 7.05016 20.1835C7.23905 20.3724 7.3335 20.6113 7.3335 20.9002V24.6668H24.6668V20.9002C24.6668 20.6113 24.7613 20.3724 24.9502 20.1835C25.1391 19.9946 25.3779 19.9002 25.6668 19.9002C25.9557 19.9002 26.1946 19.9946 26.3835 20.1835C26.5724 20.3724 26.6668 20.6113 26.6668 20.9002V24.6668C26.6668 25.2002 26.4668 25.6668 26.0668 26.0668C25.6668 26.4668 25.2002 26.6668 24.6668 26.6668H7.3335Z" fill="currentColor"/>
    </symbol>
</svg>
