<svg xmlns="http://www.w3.org/2000/svg" aria-hidden="true">
    <symbol id="edit" viewBox="0 0 24 24" fill="none" stroke="currentColor" stroke-width="1.5" stroke-linecap="round" stroke-linejoin="round"
        xmlns="http://www.w3.org/2000/svg">
        <path d="M11 4H4a2 2 0 0 0-2 2v14a2 2 0 0 0 2 2h14a2 2 0 0 0 2-2v-7M18.5 2.5a2.121 2.121 0 1 1 3 3L12 15l-4 1 1-4 9.5-9.5Z" vector-effect="non-scaling-stroke"/>
    </symbol>

    <symbol id="menu" viewBox="0 0 24 24" fill="none" stroke="currentColor" stroke-width="1.5" stroke-linecap="round" stroke-linejoin="round"
        xmlns="http://www.w3.org/2000/svg">
        <path d="M3 12h18M3 6h18M3 18h18" vector-effect="non-scaling-stroke"/>
    </symbol>

    <symbol id="chevron-r" viewBox="0 0 24 24" fill="none" stroke="currentColor" stroke-width="1.5" stroke-linecap="round" stroke-linejoin="round"
        xmlns="http://www.w3.org/2000/svg">
        <path d="m9 18 6-6-6-6" vector-effect="non-scaling-stroke"/>
    </symbol>

    <symbol id="chevron-d" viewBox="0 0 24 24" fill="none" stroke="currentColor" stroke-width="1.5" stroke-linecap="round" stroke-linejoin="round"
        xmlns="http://www.w3.org/2000/svg">
        <path d="m6 9 6 6 6-6" vector-effect="non-scaling-stroke"/>
    </symbol>


    <symbol id="github" viewBox="0 0 24 24" fill="none"
        xmlns="http://www.w3.org/2000/svg">
        <path d="M12 0C5.374 0 0 5.373 0 12C0 17.302 3.438 21.8 8.207 23.387C8.806 23.498 9 23.126 9 22.81V20.576C5.662 21.302 4.967 19.16 4.967 19.16C4.421 17.773 3.634 17.404 3.634 17.404C2.545 16.659 3.717 16.675 3.717 16.675C4.922 16.759 5.556 17.912 5.556 17.912C6.626 19.746 8.363 19.216 9.048 18.909C9.155 18.134 9.466 17.604 9.81 17.305C7.145 17 4.343 15.971 4.343 11.374C4.343 10.063 4.812 8.993 5.579 8.153C5.455 7.85 5.044 6.629 5.696 4.977C5.696 4.977 6.704 4.655 8.997 6.207C9.954 5.941 10.98 5.808 12 5.803C13.02 5.808 14.047 5.941 15.006 6.207C17.297 4.655 18.303 4.977 18.303 4.977C18.956 6.63 18.545 7.851 18.421 8.153C19.191 8.993 19.656 10.064 19.656 11.374C19.656 15.983 16.849 16.998 14.177 17.295C14.607 17.667 15 18.397 15 19.517V22.81C15 23.129 15.192 23.504 15.801 23.386C20.566 21.797 24 17.3 24 12C24 5.373 18.627 0 12 0Z" fill="currentColor"/>
    </symbol>

    <symbol id="twitter" viewBox="0 0 40 40" fill="none" xmlns="http://www.w3.org/2000/svg">
        <path d="M20 0C8.95599 0 0 8.95599 0 20C0 31.044 8.95599 40 20 40C31.044 40 40 31.044 40 20C40 8.95599 31.044 0 20 0ZM29.1318 15.5939C29.1406 15.7907 29.1449 15.9885 29.1449 16.1871C29.1449 22.2531 24.5276 29.248 16.0837 29.2484C13.4912 29.2484 11.0788 28.4885 9.04724 27.1863C9.40643 27.2287 9.77203 27.2498 10.1422 27.2498C12.2931 27.2498 14.2725 26.5161 15.8438 25.2847C13.8342 25.2475 12.1399 23.9203 11.5552 22.0963C11.835 22.15 12.1228 22.1793 12.4179 22.1793C12.8369 22.1793 13.2428 22.1228 13.6285 22.0175C11.528 21.597 9.94568 19.7406 9.94568 17.5177C9.94568 17.4969 9.94568 17.4783 9.94629 17.4591C10.5649 17.803 11.2723 18.0099 12.0255 18.0331C10.7928 17.2107 9.9826 15.8047 9.9826 14.212C9.9826 13.371 10.21 12.583 10.6042 11.9046C12.868 14.6823 16.2512 16.5091 20.0665 16.701C19.9878 16.3647 19.9472 16.0144 19.9472 15.6543C19.9472 13.1201 22.0032 11.0641 24.5383 11.0641C25.8588 11.0641 27.0514 11.6223 27.8891 12.5146C28.9349 12.3083 29.917 11.9263 30.8041 11.4005C30.4608 12.4719 29.7333 13.371 28.7854 13.9395C29.7141 13.8284 30.5991 13.5822 31.4215 13.2166C30.8072 14.1373 30.0281 14.946 29.1318 15.5939Z" fill="currentColor"/>
    </symbol>

    <symbol id="youtube" viewBox="0 0 40 40" fill="none" xmlns="http://www.w3.org/2000/svg">
        <path d="M17.5088 23.7468L24.0145 19.9999L17.5088 16.2529V23.7468Z" fill="currentColor"/>
        <path d="M20 0C8.95599 0 0 8.95599 0 20C0 31.044 8.95599 40 20 40C31.044 40 40 31.044 40 20C40 8.95599 31.044 0 20 0ZM32.4969 20.0204C32.4969 20.0204 32.4969 24.0765 31.9824 26.0324C31.694 27.103 30.8499 27.9471 29.7794 28.2352C27.8235 28.75 20 28.75 20 28.75C20 28.75 12.197 28.75 10.2206 28.2147C9.15009 27.9266 8.30597 27.0822 8.01758 26.0117C7.50275 24.0765 7.50275 20 7.50275 20C7.50275 20 7.50275 15.9442 8.01758 13.9883C8.30566 12.9178 9.17053 12.0529 10.2206 11.7648C12.1765 11.25 20 11.25 20 11.25C20 11.25 27.8235 11.25 29.7794 11.7853C30.8499 12.0734 31.694 12.9178 31.9824 13.9883C32.5177 15.9442 32.4969 20.0204 32.4969 20.0204Z" fill="currentColor"/>
    </symbol>

    <symbol id="discord" viewBox="0 0 40 40" fill="none"
        xmlns="http://www.w3.org/2000/svg">
        <path fillRule="evenodd" clipRule="evenodd" fill="currentColor" d="M20 0C8.95105 0 0 8.95105 0 20C0 31.0256 8.95105 39.9767 20 40C31.049 40 40 31.049 40 20C40 8.95105 31.049 0 20 0ZM23.6829 10.2331C25.5244 10.5361 27.2959 11.0955 28.9976 11.8648C31.9113 16.1538 33.3565 21.0023 32.8437 26.5967C30.8857 28.0652 28.6712 29.1608 26.3169 29.8834C25.7808 29.1608 25.3146 28.4149 24.9183 27.6224C25.6875 27.3426 26.4335 26.993 27.1328 26.5734C27.0395 26.5035 26.9521 26.4335 26.8647 26.3636C26.7773 26.2937 26.6899 26.2238 26.5966 26.1538C22.4708 28.1119 17.6689 28.1119 13.543 26.1538C13.4498 26.2238 13.3624 26.2937 13.275 26.3636C13.1875 26.4335 13.1001 26.5035 13.0069 26.5734C13.7062 26.993 14.4288 27.3426 15.198 27.6224C14.8018 28.4149 14.3356 29.1608 13.7994 29.8834C11.4451 29.1841 9.25397 28.0652 7.27262 26.5967C6.82973 21.7715 7.73882 16.8997 11.0955 11.8881C12.7738 11.0955 14.5687 10.5361 16.4101 10.2331C16.6666 10.676 16.8997 11.1422 17.1094 11.6317C19.0675 11.3286 21.0488 11.3286 23.0069 11.6317C23.1934 11.1888 23.4498 10.6527 23.6829 10.2331ZM13.4498 21.0256C13.4498 22.4475 14.4754 23.613 15.7575 23.613C17.0628 23.613 18.0652 22.4475 18.0885 21.0256C18.0885 19.5804 17.0628 18.4149 15.7575 18.4149C14.4754 18.4149 13.4498 19.6037 13.4498 21.0256ZM22.0279 21.0256C22.0279 22.4475 23.0535 23.613 24.3356 23.613C25.6176 23.613 26.6199 22.4708 26.6432 21.0256C26.6666 19.5804 25.6409 18.4149 24.3356 18.4149C23.0535 18.4149 22.0279 19.6037 22.0279 21.0256Z"
    />
    </symbol>
 
    <symbol id="sun" viewBox="0 0 24 24" fill="none" stroke="currentColor" stroke-width="1.5" stroke-linecap="round" stroke-linejoin="round"
        xmlns="http://www.w3.org/2000/svg">
        <path d="M12 1v2m0 18v2M4.22 4.22l1.42 1.42m12.72 12.72 1.42 1.42M1 12h2m18 0h2M4.22 19.78l1.42-1.42M18.36 5.64l1.42-1.42M17 12a5 5 0 1 1-10 0 5 5 0 0 1 10 0Z" vector-effect="non-scaling-stroke"/>
    </symbol>

    <symbol id="moon" viewBox="0 0 24 24" fill="none" stroke="currentColor" stroke-width="1.5" stroke-linecap="round" stroke-linejoin="round"
        xmlns="http://www.w3.org/2000/svg">
        <path d="M21 12.79A9 9 0 1 1 11.21 3 7 7 0 0 0 21 12.79Z" vector-effect="non-scaling-stroke"/>
    </symbol>

    <symbol id="chevrons-up-down" viewBox="0 0 24 24" fill="none" stroke="currentColor" stroke-width="1.5" stroke-linecap="round" stroke-linejoin="round"
        xmlns="http://www.w3.org/2000/svg">
        <path d="m7.5 15 5 5 5-5m-10-6 5-5 5 5" vector-effect="non-scaling-stroke"/>
    </symbol>

    <symbol id="monitor" viewBox="0 0 24 24" fill="none" stroke="currentColor" stroke-width="1.5" stroke-linecap="round" stroke-linejoin="round"
        xmlns="http://www.w3.org/2000/svg">
        <path d="M8 21h8m-4-4v4M4 3h16a2 2 0 0 1 2 2v10a2 2 0 0 1-2 2H4a2 2 0 0 1-2-2V5a2 2 0 0 1 2-2Z" vector-effect="non-scaling-stroke"/>
    </symbol>
 
    <symbol id="copy" xmlns="http://www.w3.org/2000/svg" viewBox="0 0 24 24" fill="none" stroke="currentColor" stroke-width="1.5" stroke-linecap="round" stroke-linejoin="round">
        <rect x="9" y="9" width="13" height="13" rx="2" ry="2" vector-effect="non-scaling-stroke"/>
        <path d="M5 15H4a2 2 0 0 1-2-2V4a2 2 0 0 1 2-2h9a2 2 0 0 1 2 2v1" vector-effect="non-scaling-stroke"/>
    </symbol>

    <symbol id="check-mark" xmlns="http://www.w3.org/2000/svg" viewBox="0 0 24 24" fill="none" stroke="currentColor" stroke-width="1.5" stroke-linecap="round" stroke-linejoin="round">
        <polyline points="20 6 9 17 4 12" vector-effect="non-scaling-stroke"/>
    </symbol>

    <symbol id="x-mark" xmlns="http://www.w3.org/2000/svg" fill="none" viewBox="0 0 14 14" stroke="currentColor">
        <path d="M4 4l6 6m0-6l-6 6" />
    </symbol>

    <symbol id="circle-minus" xmlns="http://www.w3.org/2000/svg" viewBox="0 0 24 24" fill="currentColor">
        <path d="M7 11v2h10v-2H7zm5-9C6.48 2 2 6.48 2 12s4.48 10 10 10 10-4.48 10-10S17.52 2 12 2zm0 18c-4.41 0-8-3.59-8-8s3.59-8 8-8 8 3.59 8 8-3.59 8-8 8z"></path>
    </symbol>

    <symbol id="circle-plus" xmlns="http://www.w3.org/2000/svg" viewBox="0 0 24 24" fill="currentColor">
        <path d="M13 7h-2v4H7v2h4v4h2v-4h4v-2h-4V7zm-1-5C6.48 2 2 6.48 2 12s4.48 10 10 10 10-4.48 10-10S17.52 2 12 2zm0 18c-4.41 0-8-3.59-8-8s3.59-8 8-8 8 3.59 8 8-3.59 8-8 8z"></path>
    </symbol>

    <symbol id="fast-forward" viewBox="0 0 24 24" xmlns="http://www.w3.org/2000/svg" fill="currentColor">
        <path d="M4.55 16.96l6.2-4.13c.59-.4.59-1.27 0-1.66l-6.2-4.13C3.89 6.59 3 7.07 3 7.87v8.26c0 .8.89 1.28 1.55.83zM13 7.87v8.26c0 .8.89 1.28 1.55.83l6.2-4.13c.59-.4.59-1.27 0-1.66l-6.2-4.13c-.66-.45-1.55.03-1.55.83z"></path>
    </symbol>
</svg>
