<?xml version="1.0" encoding="UTF-8"?><svg id="Layer_2" xmlns="http://www.w3.org/2000/svg" viewBox="0 0 2292.2 548.1"><g id="Layer_1-2"><path d="M898,131.79l-7.86-109.55c-.9-12.53-11.33-22.24-23.89-22.24h-69.55c-12.56,0-22.99,9.71-23.89,22.24l-2.35,32.69-.2,2.52c0,4.68-3.79,8.48-8.48,8.48s-8.48-3.79-8.48-8.48l-.2-2.5-2.35-32.71c-.9-12.53-11.33-22.24-23.89-22.24h-69.55c-3.14,0-6.15.61-8.91,1.71-.69.28-1.36.58-2.02.92-1.31.67-2.56,1.47-3.72,2.36-5.22,4.04-8.74,10.19-9.25,17.24l-1.48,20.56-.87,12.14-.2,2.51c0,4.68-3.79,8.48-8.48,8.48s-8.48-3.79-8.48-8.48l-.2-2.5-2.35-32.71c-.9-12.53-11.33-22.24-23.89-22.24h-69.55c-.79,0-1.56.04-2.33.11-2.3.22-4.51.77-6.58,1.6-.69.28-1.36.58-2.02.92-.84.43-1.66.92-2.44,1.45-.76.51-1.49,1.06-2.19,1.66-.1.08-.19.17-.28.25-.2.18-.4.35-.59.53-.11.1-.22.21-.32.32-.17.17-.34.34-.51.51-.11.11-.22.23-.33.35-.16.17-.32.35-.47.52-.11.12-.21.25-.32.37-.15.18-.3.36-.44.55-.1.13-.2.25-.29.38-.15.19-.29.39-.43.59-.09.12-.18.25-.26.37-.15.22-.29.44-.44.67-.07.11-.14.21-.21.32-.41.67-.79,1.37-1.14,2.08-.06.12-.11.23-.16.35-.11.24-.23.49-.33.74-.06.14-.11.29-.17.43-.09.23-.18.46-.27.69-.06.15-.11.31-.16.46-.08.23-.15.45-.22.69-.05.16-.1.32-.14.48-.07.23-.13.47-.19.7-.04.16-.08.32-.12.48-.06.24-.11.49-.15.74-.03.16-.06.31-.09.47-.05.27-.09.55-.13.82-.02.13-.04.27-.06.4-.05.41-.09.83-.12,1.24l-1.59,22.14-.76,10.57-.2,2.51c0,4.68-3.79,8.48-8.48,8.48s-8.48-3.79-8.48-8.48l-.2-2.5-2.35-32.71c-.9-12.53-11.33-22.24-23.89-22.24h-69.55c-.79,0-1.56.04-2.33.11-2.3.22-4.51.77-6.58,1.6-.69.28-1.36.58-2.02.92s-1.3.7-1.92,1.1c-.38.24-.75.5-1.12.76-.23.17-.46.33-.69.51,0,0-.01.01-.02.02-.3.23-.6.48-.89.72-.1.08-.19.17-.29.26-.2.17-.39.35-.58.53-.11.1-.22.21-.33.32-.17.17-.34.34-.51.51-.11.12-.22.23-.33.35-.16.17-.31.34-.47.52-.11.12-.21.25-.32.37-.15.18-.3.36-.44.54-.1.13-.2.25-.3.38-.14.19-.28.39-.42.58-.09.13-.18.25-.27.38-.15.22-.29.44-.43.66-.07.11-.14.22-.21.33-.2.33-.4.66-.58,1,0,.01-.01.02-.02.04-.19.34-.36.69-.53,1.04-.06.12-.11.24-.17.37-.11.24-.22.48-.32.72-.06.15-.12.29-.18.44-.09.22-.18.45-.26.68-.06.16-.11.32-.17.48-.08.22-.15.45-.22.67-.05.16-.1.33-.15.49-.06.23-.13.46-.18.69-.04.17-.08.33-.12.5-.05.24-.1.48-.15.72-.03.16-.07.32-.09.48-.05.26-.08.53-.12.8-.02.14-.04.28-.06.43-.05.39-.09.78-.12,1.18,0,.02,0,.04,0,.06l-1.48,20.56-.87,12.14-.2,2.51c0,4.68-3.79,8.48-8.48,8.48s-8.48-3.79-8.48-8.48l-.2-2.5-2.35-32.71c-.9-12.53-11.33-22.24-23.89-22.24h-69.55c-3.14,0-6.15.61-8.91,1.71-.69.28-1.36.58-2.02.92-1.31.67-2.56,1.47-3.72,2.36-5.22,4.04-8.74,10.19-9.25,17.24l-1.48,20.56-.87,12.14-.2,2.51c0,4.68-3.79,8.48-8.48,8.48s-8.48-3.79-8.48-8.48l-.2-2.52-2.35-32.69c-.9-12.53-11.33-22.24-23.89-22.24h-69.55c-12.56,0-22.99,9.71-23.89,22.24l-7.86,109.55c-1,13.87,9.99,25.67,23.89,25.67h782.17c13.9,0,24.89-11.8,23.89-25.67Z" style="fill:#f0ede0;"/><path d="M1595.09,131.79l-7.86-109.55c-.9-12.53-11.33-22.24-23.89-22.24h-69.55c-12.56,0-22.99,9.71-23.89,22.24l-2.35,32.69-.2,2.52c0,4.68-3.79,8.48-8.48,8.48s-8.48-3.79-8.48-8.48l-.2-2.5-2.35-32.71c-.9-12.53-11.33-22.24-23.89-22.24h-69.55c-3.14,0-6.15.61-8.91,1.71-.69.28-1.36.58-2.02.92-1.31.67-2.56,1.47-3.72,2.36-5.22,4.04-8.74,10.19-9.25,17.24l-1.48,20.56-.87,12.14-.2,2.51c0,4.68-3.79,8.48-8.48,8.48s-8.48-3.79-8.48-8.48l-.2-2.5-2.35-32.71c-.9-12.53-11.33-22.24-23.89-22.24h-69.55c-.79,0-1.56.04-2.33.11-2.3.22-4.51.77-6.58,1.6-.69.28-1.36.58-2.02.92-.84.43-1.66.92-2.44,1.45-.76.51-1.49,1.06-2.19,1.66-.1.08-.19.17-.28.25-.2.18-.4.35-.59.53-.11.1-.22.21-.32.32-.17.17-.34.34-.51.51-.11.11-.22.23-.33.35-.16.17-.32.35-.47.52-.11.12-.21.25-.32.37-.15.18-.3.36-.44.55-.1.13-.2.25-.29.38-.15.19-.29.39-.43.59-.09.12-.18.25-.26.37-.15.22-.29.44-.44.67-.07.11-.14.21-.21.32-.41.67-.79,1.37-1.14,2.08-.06.12-.11.23-.16.35-.11.24-.23.49-.33.74-.06.14-.11.29-.17.43-.09.23-.18.46-.27.69-.06.15-.11.31-.16.46-.08.23-.15.45-.22.69-.05.16-.1.32-.14.48-.07.23-.13.47-.19.7-.04.16-.08.32-.12.48-.06.24-.11.49-.15.74-.03.16-.06.31-.09.47-.05.27-.09.55-.13.82-.02.13-.04.27-.06.4-.05.41-.09.83-.12,1.24l-1.59,22.14-.76,10.57-.2,2.51c0,4.68-3.79,8.48-8.48,8.48s-8.48-3.79-8.48-8.48l-.2-2.5-2.35-32.71c-.9-12.53-11.33-22.24-23.89-22.24h-69.55c-.79,0-1.56.04-2.33.11-2.3.22-4.51.77-6.58,1.6-.69.28-1.36.58-2.02.92s-1.3.7-1.92,1.1c-.38.24-.75.5-1.12.76-.23.17-.46.33-.69.51,0,0-.01.01-.02.02-.3.23-.6.48-.89.72-.1.08-.19.17-.29.26-.2.17-.39.35-.58.53-.11.1-.22.21-.33.32-.17.17-.34.34-.51.51-.11.12-.22.23-.33.35-.16.17-.31.34-.47.52-.11.12-.21.25-.32.37-.15.18-.3.36-.44.54-.1.13-.2.25-.3.38-.14.19-.28.39-.42.58-.09.13-.18.25-.27.38-.15.22-.29.44-.43.66-.07.11-.14.22-.21.33-.2.33-.4.66-.58,1,0,.01-.01.02-.02.04-.19.34-.36.69-.53,1.04-.06.12-.11.24-.17.37-.11.24-.22.48-.32.72-.06.15-.12.29-.18.44-.09.22-.18.45-.26.68-.06.16-.11.32-.17.48-.08.22-.15.45-.22.67-.05.16-.1.33-.15.49-.06.23-.13.46-.18.69-.04.17-.08.33-.12.5-.05.24-.1.48-.15.72-.03.16-.07.32-.09.48-.05.26-.08.53-.12.8-.02.14-.04.28-.06.43-.05.39-.09.78-.12,1.18,0,.02,0,.04,0,.06l-1.48,20.56-.87,12.14-.2,2.51c0,4.68-3.79,8.48-8.48,8.48s-8.48-3.79-8.48-8.48l-.2-2.5-2.35-32.71c-.9-12.53-11.33-22.24-23.89-22.24h-69.55c-3.14,0-6.15.61-8.91,1.71-.69.28-1.36.58-2.02.92-1.31.67-2.56,1.47-3.72,2.36-5.22,4.04-8.74,10.19-9.25,17.24l-1.48,20.56-.87,12.14-.2,2.51c0,4.68-3.79,8.48-8.48,8.48s-8.48-3.79-8.48-8.48l-.2-2.52-2.35-32.69c-.9-12.53-11.33-22.24-23.89-22.24h-69.55c-12.56,0-22.99,9.71-23.89,22.24l-7.86,109.55c-1,13.87,9.99,25.67,23.89,25.67h782.17c13.9,0,24.89-11.8,23.89-25.67Z" style="fill:#f0ede0;"/><path d="M830.01,207.13l-7.86-109.55c-.9-12.53-11.33-22.24-23.89-22.24h-69.55c-12.56,0-22.99,9.71-23.89,22.24l-2.35,32.69-.2,2.52c0,4.68-3.79,8.48-8.48,8.48s-8.48-3.79-8.48-8.48l-.2-2.5-2.35-32.71c-.9-12.53-11.33-22.24-23.89-22.24h-69.55c-3.14,0-6.15.61-8.91,1.71-.69.28-1.36.58-2.02.92-1.31.67-2.56,1.47-3.72,2.36-5.22,4.04-8.74,10.19-9.25,17.24l-1.48,20.56-.87,12.14-.2,2.51c0,4.68-3.79,8.48-8.48,8.48s-8.48-3.79-8.48-8.48l-.2-2.5-2.35-32.71c-.9-12.53-11.33-22.24-23.89-22.24h-69.55c-.79,0-1.56.04-2.33.11-2.3.22-4.51.77-6.58,1.6-.69.28-1.36.58-2.02.92-.84.43-1.66.92-2.44,1.45-.76.51-1.49,1.06-2.19,1.66-.1.08-.19.17-.28.25-.2.18-.4.35-.59.53-.11.1-.22.21-.32.32-.17.17-.34.34-.51.51-.11.11-.22.23-.33.35-.16.17-.32.35-.47.52-.11.12-.21.25-.32.37-.15.18-.3.36-.44.55-.1.13-.2.25-.29.38-.15.19-.29.39-.43.59-.09.12-.18.25-.26.37-.15.22-.29.44-.44.67-.07.11-.14.21-.21.32-.41.67-.79,1.37-1.14,2.08-.06.12-.11.23-.16.35-.11.24-.23.49-.33.74-.06.14-.11.29-.17.43-.09.23-.18.46-.27.69-.06.15-.11.31-.16.46-.08.23-.15.45-.22.69-.05.16-.1.32-.14.48-.07.23-.13.47-.19.7-.04.16-.08.32-.12.48-.06.24-.11.49-.15.74-.03.16-.06.31-.09.47-.05.27-.09.55-.13.82-.02.13-.04.27-.06.4-.05.41-.09.83-.12,1.24l-1.59,22.14-.76,10.57-.2,2.51c0,4.68-3.79,8.48-8.48,8.48s-8.48-3.79-8.48-8.48l-.2-2.5-2.35-32.71c-.9-12.53-11.33-22.24-23.89-22.24h-69.55c-.79,0-1.56.04-2.33.11-2.3.22-4.51.77-6.58,1.6-.69.28-1.36.58-2.02.92s-1.3.7-1.92,1.1c-.38.24-.75.5-1.12.76-.23.17-.46.33-.69.51,0,0-.01.01-.02.02-.3.23-.6.48-.89.72-.1.08-.19.17-.29.26-.2.17-.39.35-.58.53-.11.1-.22.21-.33.32-.17.17-.34.34-.51.51-.11.12-.22.23-.33.35-.16.17-.31.34-.47.52-.11.12-.21.25-.32.37-.15.18-.3.36-.44.54-.1.13-.2.25-.3.38-.14.19-.28.39-.42.58-.09.13-.18.25-.27.38-.15.22-.29.44-.43.66-.07.11-.14.22-.21.33-.2.33-.4.66-.58,1,0,.01-.01.02-.02.04-.19.34-.36.69-.53,1.04-.06.12-.11.24-.17.37-.11.24-.22.48-.32.72-.06.15-.12.29-.18.44-.09.22-.18.45-.26.68-.06.16-.11.32-.17.48-.08.22-.15.45-.22.67-.05.16-.1.33-.15.49-.06.23-.13.46-.18.69-.04.17-.08.33-.12.5-.05.24-.1.48-.15.72-.03.16-.07.32-.09.48-.05.26-.08.53-.12.8-.02.14-.04.28-.06.43-.05.39-.09.78-.12,1.18,0,.02,0,.04,0,.06l-1.48,20.56-.87,12.14-.2,2.51c0,4.68-3.79,8.48-8.48,8.48s-8.48-3.79-8.48-8.48l-.2-2.5-2.35-32.71c-.9-12.53-11.33-22.24-23.89-22.24h-69.55c-3.14,0-6.15.61-8.91,1.71-.69.28-1.36.58-2.02.92-1.31.67-2.56,1.47-3.72,2.36-5.22,4.04-8.74,10.19-9.25,17.24l-1.48,20.56-.87,12.14-.2,2.51c0,4.68-3.79,8.48-8.48,8.48s-8.48-3.79-8.48-8.48l-.2-2.52-2.35-32.69c-.9-12.53-11.33-22.24-23.89-22.24H31.82c-12.56,0-22.99,9.71-23.89,22.24L.06,207.13c-1,13.87,9.99,25.67,23.89,25.67h782.17c13.9,0,24.89-11.8,23.89-25.67Z" style="fill:#028cbd;"/><path d="M1527.1,207.13l-7.86-109.55c-.9-12.53-11.33-22.24-23.89-22.24h-69.55c-12.56,0-22.99,9.71-23.89,22.24l-2.35,32.69-.2,2.52c0,4.68-3.79,8.48-8.48,8.48s-8.48-3.79-8.48-8.48l-.2-2.5-2.35-32.71c-.9-12.53-11.33-22.24-23.89-22.24h-69.55c-3.14,0-6.15.61-8.91,1.71-.69.28-1.36.58-2.02.92-1.31.67-2.56,1.47-3.72,2.36-5.22,4.04-8.74,10.19-9.25,17.24l-1.48,20.56-.87,12.14-.2,2.51c0,4.68-3.79,8.48-8.48,8.48s-8.48-3.79-8.48-8.48l-.2-2.5-2.35-32.71c-.9-12.53-11.33-22.24-23.89-22.24h-69.55c-.79,0-1.56.04-2.33.11-2.3.22-4.51.77-6.58,1.6-.69.28-1.36.58-2.02.92-.84.43-1.66.92-2.44,1.45-.76.51-1.49,1.06-2.19,1.66-.1.08-.19.17-.28.25-.2.18-.4.35-.59.53-.11.1-.22.21-.32.32-.17.17-.34.34-.51.51-.11.11-.22.23-.33.35-.16.17-.32.35-.47.52-.11.12-.21.25-.32.37-.15.18-.3.36-.44.55-.1.13-.2.25-.29.38-.15.19-.29.39-.43.59-.09.12-.18.25-.26.37-.15.22-.29.44-.44.67-.07.11-.14.21-.21.32-.41.67-.79,1.37-1.14,2.08-.06.12-.11.23-.16.35-.11.24-.23.49-.33.74-.06.14-.11.29-.17.43-.09.23-.18.46-.27.69-.06.15-.11.31-.16.46-.08.23-.15.45-.22.69-.05.16-.1.32-.14.48-.07.23-.13.47-.19.7-.04.16-.08.32-.12.48-.06.24-.11.49-.15.74-.03.16-.06.31-.09.47-.05.27-.09.55-.13.82-.02.13-.04.27-.06.4-.05.41-.09.83-.12,1.24l-1.59,22.14-.76,10.57-.2,2.51c0,4.68-3.79,8.48-8.48,8.48s-8.48-3.79-8.48-8.48l-.2-2.5-2.35-32.71c-.9-12.53-11.33-22.24-23.89-22.24h-69.55c-.79,0-1.56.04-2.33.11-2.3.22-4.51.77-6.58,1.6-.69.28-1.36.58-2.02.92s-1.3.7-1.92,1.1c-.38.24-.75.5-1.12.76-.23.17-.46.33-.69.51,0,0-.01.01-.02.02-.3.23-.6.48-.89.72-.1.08-.19.17-.29.26-.2.17-.39.35-.58.53-.11.1-.22.21-.33.32-.17.17-.34.34-.51.51-.11.12-.22.23-.33.35-.16.17-.31.34-.47.52-.11.12-.21.25-.32.37-.15.18-.3.36-.44.54-.1.13-.2.25-.3.38-.14.19-.28.39-.42.58-.09.13-.18.25-.27.38-.15.22-.29.44-.43.66-.07.11-.14.22-.21.33-.2.33-.4.66-.58,1,0,.01-.01.02-.02.04-.19.34-.36.69-.53,1.04-.06.12-.11.24-.17.37-.11.24-.22.48-.32.72-.06.15-.12.29-.18.44-.09.22-.18.45-.26.68-.06.16-.11.32-.17.48-.08.22-.15.45-.22.67-.05.16-.1.33-.15.49-.06.23-.13.46-.18.69-.04.17-.08.33-.12.5-.05.24-.1.48-.15.72-.03.16-.07.32-.09.48-.05.26-.08.53-.12.8-.02.14-.04.28-.06.43-.05.39-.09.78-.12,1.18,0,.02,0,.04,0,.06l-1.48,20.56-.87,12.14-.2,2.51c0,4.68-3.79,8.48-8.48,8.48s-8.48-3.79-8.48-8.48l-.2-2.5-2.35-32.71c-.9-12.53-11.33-22.24-23.89-22.24h-69.55c-3.14,0-6.15.61-8.91,1.71-.69.28-1.36.58-2.02.92-1.31.67-2.56,1.47-3.72,2.36-5.22,4.04-8.74,10.19-9.25,17.24l-1.48,20.56-.87,12.14-.2,2.51c0,4.68-3.79,8.48-8.48,8.48s-8.48-3.79-8.48-8.48l-.2-2.52-2.35-32.69c-.9-12.53-11.33-22.24-23.89-22.24h-69.55c-12.56,0-22.99,9.71-23.89,22.24l-7.86,109.55c-1,13.87,9.99,25.67,23.89,25.67h782.17c13.9,0,24.89-11.8,23.89-25.67Z" style="fill:#028cbd;"/><path d="M2292.13,131.79l-7.86-109.55c-.9-12.53-11.33-22.24-23.89-22.24h-69.55c-12.56,0-22.99,9.71-23.89,22.24l-2.35,32.69-.2,2.52c0,4.68-3.79,8.48-8.48,8.48s-8.48-3.79-8.48-8.48l-.2-2.5-2.35-32.71c-.9-12.53-11.33-22.24-23.89-22.24h-69.55c-3.14,0-6.15.61-8.91,1.71-.69.28-1.36.58-2.02.92-1.31.67-2.56,1.47-3.72,2.36-5.22,4.04-8.74,10.19-9.25,17.24l-1.48,20.56-.87,12.14-.2,2.51c0,4.68-3.79,8.48-8.48,8.48s-8.48-3.79-8.48-8.48l-.2-2.5-2.35-32.71c-.9-12.53-11.33-22.24-23.89-22.24h-69.55c-.79,0-1.56.04-2.33.11-2.3.22-4.51.77-6.58,1.6-.69.28-1.36.58-2.02.92-.84.43-1.66.92-2.44,1.45-.76.51-1.49,1.06-2.19,1.66-.1.08-.19.17-.28.25-.2.18-.4.35-.59.53-.11.1-.22.21-.32.32-.17.17-.34.34-.51.51-.11.11-.22.23-.33.35-.16.17-.32.35-.47.52-.11.12-.21.25-.32.37-.15.18-.3.36-.44.55-.1.13-.2.25-.29.38-.15.19-.29.39-.43.59-.09.12-.18.25-.26.37-.15.22-.29.44-.44.67-.07.11-.14.21-.21.32-.41.67-.79,1.37-1.14,2.08-.06.12-.11.23-.16.35-.11.24-.23.49-.33.74-.06.14-.11.29-.17.43-.09.23-.18.46-.27.69-.06.15-.11.31-.16.46-.08.23-.15.45-.22.69-.05.16-.1.32-.14.48-.07.23-.13.47-.19.7-.04.16-.08.32-.12.48-.06.24-.11.49-.15.74-.03.16-.06.31-.09.47-.05.27-.09.55-.13.82-.02.13-.04.27-.06.4-.05.41-.09.83-.12,1.24l-1.59,22.14-.76,10.57-.2,2.51c0,4.68-3.79,8.48-8.48,8.48s-8.48-3.79-8.48-8.48l-.2-2.5-2.35-32.71c-.9-12.53-11.33-22.24-23.89-22.24h-69.55c-.79,0-1.56.04-2.33.11-2.3.22-4.51.77-6.58,1.6-.69.28-1.36.58-2.02.92s-1.3.7-1.92,1.1c-.38.24-.75.5-1.12.76-.23.17-.46.33-.69.51,0,0-.01.01-.02.02-.3.23-.6.48-.89.72-.1.08-.19.17-.29.26-.2.17-.39.35-.58.53-.11.1-.22.21-.33.32-.17.17-.34.34-.51.51-.11.12-.22.23-.33.35-.16.17-.31.34-.47.52-.11.12-.21.25-.32.37-.15.18-.3.36-.44.54-.1.13-.2.25-.3.38-.14.19-.28.39-.42.58-.09.13-.18.25-.27.38-.15.22-.29.44-.43.66-.07.11-.14.22-.21.33-.2.33-.4.66-.58,1,0,.01-.01.02-.02.04-.19.34-.36.69-.53,1.04-.06.12-.11.24-.17.37-.11.24-.22.48-.32.72-.06.15-.12.29-.18.44-.09.22-.18.45-.26.68-.06.16-.11.32-.17.48-.08.22-.15.45-.22.67-.05.16-.1.33-.15.49-.06.23-.13.46-.18.69-.04.17-.08.33-.12.5-.05.24-.1.48-.15.72-.03.16-.07.32-.09.48-.05.26-.08.53-.12.8-.02.14-.04.28-.06.43-.05.39-.09.78-.12,1.18,0,.02,0,.04,0,.06l-1.48,20.56-.87,12.14-.2,2.51c0,4.68-3.79,8.48-8.48,8.48s-8.48-3.79-8.48-8.48l-.2-2.5-2.35-32.71c-.9-12.53-11.33-22.24-23.89-22.24h-69.55c-3.14,0-6.15.61-8.91,1.71-.69.28-1.36.58-2.02.92-1.31.67-2.56,1.47-3.72,2.36-5.22,4.04-8.74,10.19-9.25,17.24l-1.48,20.56-.87,12.14-.2,2.51c0,4.68-3.79,8.48-8.48,8.48s-8.48-3.79-8.48-8.48l-.2-2.52-2.35-32.69c-.9-12.53-11.33-22.24-23.89-22.24h-69.55c-12.56,0-22.99,9.71-23.89,22.24l-7.86,109.55c-1,13.87,9.99,25.67,23.89,25.67h782.17c13.9,0,24.89-11.8,23.89-25.67Z" style="fill:#f0ede0;"/><path d="M2224.14,207.13l-7.86-109.55c-.9-12.53-11.33-22.24-23.89-22.24h-69.55c-12.56,0-22.99,9.71-23.89,22.24l-2.35,32.69-.2,2.52c0,4.68-3.79,8.48-8.48,8.48s-8.48-3.79-8.48-8.48l-.2-2.5-2.35-32.71c-.9-12.53-11.33-22.24-23.89-22.24h-69.55c-3.14,0-6.15.61-8.91,1.71-.69.28-1.36.58-2.02.92-1.31.67-2.56,1.47-3.72,2.36-5.22,4.04-8.74,10.19-9.25,17.24l-1.48,20.56-.87,12.14-.2,2.51c0,4.68-3.79,8.48-8.48,8.48s-8.48-3.79-8.48-8.48l-.2-2.5-2.35-32.71c-.9-12.53-11.33-22.24-23.89-22.24h-69.55c-.79,0-1.56.04-2.33.11-2.3.22-4.51.77-6.58,1.6-.69.28-1.36.58-2.02.92-.84.43-1.66.92-2.44,1.45-.76.51-1.49,1.06-2.19,1.66-.1.08-.19.17-.28.25-.2.18-.4.35-.59.53-.11.1-.22.21-.32.32-.17.17-.34.34-.51.51-.11.11-.22.23-.33.35-.16.17-.32.35-.47.52-.11.12-.21.25-.32.37-.15.18-.3.36-.44.55-.1.13-.2.25-.29.38-.15.19-.29.39-.43.59-.09.12-.18.25-.26.37-.15.22-.29.44-.44.67-.07.11-.14.21-.21.32-.41.67-.79,1.37-1.14,2.08-.06.12-.11.23-.16.35-.11.24-.23.49-.33.74-.06.14-.11.29-.17.43-.09.23-.18.46-.27.69-.06.15-.11.31-.16.46-.08.23-.15.45-.22.69-.05.16-.1.32-.14.48-.07.23-.13.47-.19.7-.04.16-.08.32-.12.48-.06.24-.11.49-.15.74-.03.16-.06.31-.09.47-.05.27-.09.55-.13.82-.02.13-.04.27-.06.4-.05.41-.09.83-.12,1.24l-1.59,22.14-.76,10.57-.2,2.51c0,4.68-3.79,8.48-8.48,8.48s-8.48-3.79-8.48-8.48l-.2-2.5-2.35-32.71c-.9-12.53-11.33-22.24-23.89-22.24h-69.55c-.79,0-1.56.04-2.33.11-2.3.22-4.51.77-6.58,1.6-.69.28-1.36.58-2.02.92s-1.3.7-1.92,1.1c-.38.24-.75.5-1.12.76-.23.17-.46.33-.69.51,0,0-.01.01-.02.02-.3.23-.6.48-.89.72-.1.08-.19.17-.29.26-.2.17-.39.35-.58.53-.11.1-.22.21-.33.32-.17.17-.34.34-.51.51-.11.12-.22.23-.33.35-.16.17-.31.34-.47.52-.11.12-.21.25-.32.37-.15.18-.3.36-.44.54-.1.13-.2.25-.3.38-.14.19-.28.39-.42.58-.09.13-.18.25-.27.38-.15.22-.29.44-.43.66-.07.11-.14.22-.21.33-.2.33-.4.66-.58,1,0,.01-.01.02-.02.04-.19.34-.36.69-.53,1.04-.06.12-.11.24-.17.37-.11.24-.22.48-.32.72-.06.15-.12.29-.18.44-.09.22-.18.45-.26.68-.06.16-.11.32-.17.48-.08.22-.15.45-.22.67-.05.16-.1.33-.15.49-.06.23-.13.46-.18.69-.04.17-.08.33-.12.5-.05.24-.1.48-.15.72-.03.16-.07.32-.09.48-.05.26-.08.53-.12.8-.02.14-.04.28-.06.43-.05.39-.09.78-.12,1.18,0,.02,0,.04,0,.06l-1.48,20.56-.87,12.14-.2,2.51c0,4.68-3.79,8.48-8.48,8.48s-8.48-3.79-8.48-8.48l-.2-2.5-2.35-32.71c-.9-12.53-11.33-22.24-23.89-22.24h-69.55c-3.14,0-6.15.61-8.91,1.71-.69.28-1.36.58-2.02.92-1.31.67-2.56,1.47-3.72,2.36-5.22,4.04-8.74,10.19-9.25,17.24l-1.48,20.56-.87,12.14-.2,2.51c0,4.68-3.79,8.48-8.48,8.48s-8.48-3.79-8.48-8.48l-.2-2.52-2.35-32.69c-.9-12.53-11.33-22.24-23.89-22.24h-69.55c-12.56,0-22.99,9.71-23.89,22.24l-7.86,109.55c-1,13.87,9.99,25.67,23.89,25.67h782.17c13.9,0,24.89-11.8,23.89-25.67Z" style="fill:#028cbd;"/><path d="M898,284.36l-7.86-109.55c-.9-12.53-11.33-22.24-23.89-22.24h-69.55c-12.56,0-22.99,9.71-23.89,22.24l-2.35,32.69-.2,2.52c0,4.68-3.79,8.48-8.48,8.48s-8.48-3.79-8.48-8.48l-.2-2.5-2.35-32.71c-.9-12.53-11.33-22.24-23.89-22.24h-69.55c-3.14,0-6.15.61-8.91,1.71-.69.28-1.36.58-2.02.92-1.31.67-2.56,1.47-3.72,2.36-5.22,4.04-8.74,10.19-9.25,17.24l-1.48,20.56-.87,12.14-.2,2.51c0,4.68-3.79,8.48-8.48,8.48s-8.48-3.79-8.48-8.48l-.2-2.5-2.35-32.71c-.9-12.53-11.33-22.24-23.89-22.24h-69.55c-.79,0-1.56.04-2.33.11-2.3.22-4.51.77-6.58,1.6-.69.28-1.36.58-2.02.92-.84.43-1.66.92-2.44,1.45-.76.51-1.49,1.06-2.19,1.66-.1.08-.19.17-.28.25-.2.18-.4.35-.59.53-.11.1-.22.21-.32.32-.17.17-.34.34-.51.51-.11.11-.22.23-.33.35-.16.17-.32.35-.47.52-.11.12-.21.25-.32.37-.15.18-.3.36-.44.55-.1.13-.2.25-.29.38-.15.19-.29.39-.43.59-.09.12-.18.25-.26.37-.15.22-.29.44-.44.67-.07.11-.14.21-.21.32-.41.67-.79,1.37-1.14,2.08-.06.12-.11.23-.16.35-.11.24-.23.49-.33.74-.06.14-.11.29-.17.43-.09.23-.18.46-.27.69-.06.15-.11.31-.16.46-.08.23-.15.45-.22.69-.05.16-.1.32-.14.48-.07.23-.13.47-.19.7-.04.16-.08.32-.12.48-.06.24-.11.49-.15.74-.03.16-.06.31-.09.47-.05.27-.09.55-.13.82-.02.13-.04.27-.06.4-.05.41-.09.83-.12,1.24l-1.59,22.14-.76,10.57-.2,2.51c0,4.68-3.79,8.48-8.48,8.48s-8.48-3.79-8.48-8.48l-.2-2.5-2.35-32.71c-.9-12.53-11.33-22.24-23.89-22.24h-69.55c-.79,0-1.56.04-2.33.11-2.3.22-4.51.77-6.58,1.6-.69.28-1.36.58-2.02.92s-1.3.7-1.92,1.1c-.38.24-.75.5-1.12.76-.23.17-.46.33-.69.51,0,0-.01.01-.02.02-.3.23-.6.48-.89.72-.1.08-.19.17-.29.26-.2.17-.39.35-.58.53-.11.1-.22.21-.33.32-.17.17-.34.34-.51.51-.11.12-.22.23-.33.35-.16.17-.31.34-.47.52-.11.12-.21.25-.32.37-.15.18-.3.36-.44.54-.1.13-.2.25-.3.38-.14.19-.28.39-.42.58-.09.13-.18.25-.27.38-.15.22-.29.44-.43.66-.07.11-.14.22-.21.33-.2.33-.4.66-.58,1,0,.01-.01.02-.02.04-.19.34-.36.69-.53,1.04-.06.12-.11.24-.17.37-.11.24-.22.48-.32.72-.06.15-.12.29-.18.44-.09.22-.18.45-.26.68-.06.16-.11.32-.17.48-.08.22-.15.45-.22.67-.05.16-.1.33-.15.49-.06.23-.13.46-.18.69-.04.17-.08.33-.12.5-.05.24-.1.48-.15.72-.03.16-.07.32-.09.48-.05.26-.08.53-.12.8-.02.14-.04.28-.06.43-.05.39-.09.78-.12,1.18,0,.02,0,.04,0,.06l-1.48,20.56-.87,12.14-.2,2.51c0,4.68-3.79,8.48-8.48,8.48s-8.48-3.79-8.48-8.48l-.2-2.5-2.35-32.71c-.9-12.53-11.33-22.24-23.89-22.24h-69.55c-3.14,0-6.15.61-8.91,1.71-.69.28-1.36.58-2.02.92-1.31.67-2.56,1.47-3.72,2.36-5.22,4.04-8.74,10.19-9.25,17.24l-1.48,20.56-.87,12.14-.2,2.51c0,4.68-3.79,8.48-8.48,8.48s-8.48-3.79-8.48-8.48l-.2-2.52-2.35-32.69c-.9-12.53-11.33-22.24-23.89-22.24h-69.55c-12.56,0-22.99,9.71-23.89,22.24l-7.86,109.55c-1,13.87,9.99,25.67,23.89,25.67h782.17c13.9,0,24.89-11.8,23.89-25.67Z" style="fill:#64c146;"/><path d="M1595.09,284.36l-7.86-109.55c-.9-12.53-11.33-22.24-23.89-22.24h-69.55c-12.56,0-22.99,9.71-23.89,22.24l-2.35,32.69-.2,2.52c0,4.68-3.79,8.48-8.48,8.48s-8.48-3.79-8.48-8.48l-.2-2.5-2.35-32.71c-.9-12.53-11.33-22.24-23.89-22.24h-69.55c-3.14,0-6.15.61-8.91,1.71-.69.28-1.36.58-2.02.92-1.31.67-2.56,1.47-3.72,2.36-5.22,4.04-8.74,10.19-9.25,17.24l-1.48,20.56-.87,12.14-.2,2.51c0,4.68-3.79,8.48-8.48,8.48s-8.48-3.79-8.48-8.48l-.2-2.5-2.35-32.71c-.9-12.53-11.33-22.24-23.89-22.24h-69.55c-.79,0-1.56.04-2.33.11-2.3.22-4.51.77-6.58,1.6-.69.28-1.36.58-2.02.92-.84.43-1.66.92-2.44,1.45-.76.51-1.49,1.06-2.19,1.66-.1.08-.19.17-.28.25-.2.18-.4.35-.59.53-.11.1-.22.21-.32.32-.17.17-.34.34-.51.51-.11.11-.22.23-.33.35-.16.17-.32.35-.47.52-.11.12-.21.25-.32.37-.15.18-.3.36-.44.55-.1.13-.2.25-.29.38-.15.19-.29.39-.43.59-.09.12-.18.25-.26.37-.15.22-.29.44-.44.67-.07.11-.14.21-.21.32-.41.67-.79,1.37-1.14,2.08-.06.12-.11.23-.16.35-.11.24-.23.49-.33.74-.06.14-.11.29-.17.43-.09.23-.18.46-.27.69-.06.15-.11.31-.16.46-.08.23-.15.45-.22.69-.05.16-.1.32-.14.48-.07.23-.13.47-.19.7-.04.16-.08.32-.12.48-.06.24-.11.49-.15.74-.03.16-.06.31-.09.47-.05.27-.09.55-.13.82-.02.13-.04.27-.06.4-.05.41-.09.83-.12,1.24l-1.59,22.14-.76,10.57-.2,2.51c0,4.68-3.79,8.48-8.48,8.48s-8.48-3.79-8.48-8.48l-.2-2.5-2.35-32.71c-.9-12.53-11.33-22.24-23.89-22.24h-69.55c-.79,0-1.56.04-2.33.11-2.3.22-4.51.77-6.58,1.6-.69.28-1.36.58-2.02.92s-1.3.7-1.92,1.1c-.38.24-.75.5-1.12.76-.23.17-.46.33-.69.51,0,0-.01.01-.02.02-.3.23-.6.48-.89.72-.1.08-.19.17-.29.26-.2.17-.39.35-.58.53-.11.1-.22.21-.33.32-.17.17-.34.34-.51.51-.11.12-.22.23-.33.35-.16.17-.31.34-.47.52-.11.12-.21.25-.32.37-.15.18-.3.36-.44.54-.1.13-.2.25-.3.38-.14.19-.28.39-.42.58-.09.13-.18.25-.27.38-.15.22-.29.44-.43.66-.07.11-.14.22-.21.33-.2.33-.4.66-.58,1,0,.01-.01.02-.02.04-.19.34-.36.69-.53,1.04-.06.12-.11.24-.17.37-.11.24-.22.48-.32.72-.06.15-.12.29-.18.44-.09.22-.18.45-.26.68-.06.16-.11.32-.17.48-.08.22-.15.45-.22.67-.05.16-.1.33-.15.49-.06.23-.13.46-.18.69-.04.17-.08.33-.12.5-.05.24-.1.48-.15.72-.03.16-.07.32-.09.48-.05.26-.08.53-.12.8-.02.14-.04.28-.06.43-.05.39-.09.78-.12,1.18,0,.02,0,.04,0,.06l-1.48,20.56-.87,12.14-.2,2.51c0,4.68-3.79,8.48-8.48,8.48s-8.48-3.79-8.48-8.48l-.2-2.5-2.35-32.71c-.9-12.53-11.33-22.24-23.89-22.24h-69.55c-3.14,0-6.15.61-8.91,1.71-.69.28-1.36.58-2.02.92-1.31.67-2.56,1.47-3.72,2.36-5.22,4.04-8.74,10.19-9.25,17.24l-1.48,20.56-.87,12.14-.2,2.51c0,4.68-3.79,8.48-8.48,8.48s-8.48-3.79-8.48-8.48l-.2-2.52-2.35-32.69c-.9-12.53-11.33-22.24-23.89-22.24h-69.55c-12.56,0-22.99,9.71-23.89,22.24l-7.86,109.55c-1,13.87,9.99,25.67,23.89,25.67h782.17c13.9,0,24.89-11.8,23.89-25.67Z" style="fill:#64c146;"/><path d="M830.01,364.59l-7.86-109.55c-.9-12.53-11.33-22.24-23.89-22.24h-69.55c-12.56,0-22.99,9.71-23.89,22.24l-2.35,32.69-.2,2.52c0,4.68-3.79,8.48-8.48,8.48s-8.48-3.79-8.48-8.48l-.2-2.5-2.35-32.71c-.9-12.53-11.33-22.24-23.89-22.24h-69.55c-3.14,0-6.15.61-8.91,1.71-.69.28-1.36.58-2.02.92-1.31.67-2.56,1.47-3.72,2.36-5.22,4.04-8.74,10.19-9.25,17.24l-1.48,20.56-.87,12.14-.2,2.51c0,4.68-3.79,8.48-8.48,8.48s-8.48-3.79-8.48-8.48l-.2-2.5-2.35-32.71c-.9-12.53-11.33-22.24-23.89-22.24h-69.55c-.79,0-1.56.04-2.33.11-2.3.22-4.51.77-6.58,1.6-.69.28-1.36.58-2.02.92-.84.43-1.66.92-2.44,1.45-.76.51-1.49,1.06-2.19,1.66-.1.08-.19.17-.28.25-.2.18-.4.35-.59.53-.11.1-.22.21-.32.32-.17.17-.34.34-.51.51-.11.11-.22.23-.33.35-.16.17-.32.35-.47.52-.11.12-.21.25-.32.37-.15.18-.3.36-.44.55-.1.13-.2.25-.29.38-.15.19-.29.39-.43.59-.09.12-.18.25-.26.37-.15.22-.29.44-.44.67-.07.11-.14.21-.21.32-.41.67-.79,1.37-1.14,2.08-.06.12-.11.23-.16.35-.11.24-.23.49-.33.74-.06.14-.11.29-.17.43-.09.23-.18.46-.27.69-.06.15-.11.31-.16.46-.08.23-.15.45-.22.69-.05.16-.1.32-.14.48-.07.23-.13.47-.19.7-.04.16-.08.32-.12.48-.06.24-.11.49-.15.74-.03.16-.06.31-.09.47-.05.27-.09.55-.13.82-.02.13-.04.27-.06.4-.05.41-.09.83-.12,1.24l-1.59,22.14-.76,10.57-.2,2.51c0,4.68-3.79,8.48-8.48,8.48s-8.48-3.79-8.48-8.48l-.2-2.5-2.35-32.71c-.9-12.53-11.33-22.24-23.89-22.24h-69.55c-.79,0-1.56.04-2.33.11-2.3.22-4.51.77-6.58,1.6-.69.28-1.36.58-2.02.92s-1.3.7-1.92,1.1c-.38.24-.75.5-1.12.76-.23.17-.46.33-.69.51,0,0-.01.01-.02.02-.3.23-.6.48-.89.72-.1.08-.19.17-.29.26-.2.17-.39.35-.58.53-.11.1-.22.21-.33.32-.17.17-.34.34-.51.51-.11.12-.22.23-.33.35-.16.17-.31.34-.47.52-.11.12-.21.25-.32.37-.15.18-.3.36-.44.54-.1.13-.2.25-.3.38-.14.19-.28.39-.42.58-.09.13-.18.25-.27.38-.15.22-.29.44-.43.66-.07.11-.14.22-.21.33-.2.33-.4.66-.58,1,0,.01-.01.02-.02.04-.19.34-.36.69-.53,1.04-.06.12-.11.24-.17.37-.11.24-.22.48-.32.72-.06.15-.12.29-.18.44-.09.22-.18.45-.26.68-.06.16-.11.32-.17.48-.08.22-.15.45-.22.67-.05.16-.1.33-.15.49-.06.23-.13.46-.18.69-.04.17-.08.33-.12.5-.05.24-.1.48-.15.72-.03.16-.07.32-.09.48-.05.26-.08.53-.12.8-.02.14-.04.28-.06.43-.05.39-.09.78-.12,1.18,0,.02,0,.04,0,.06l-1.48,20.56-.87,12.14-.2,2.51c0,4.68-3.79,8.48-8.48,8.48s-8.48-3.79-8.48-8.48l-.2-2.5-2.35-32.71c-.9-12.53-11.33-22.24-23.89-22.24h-69.55c-3.14,0-6.15.61-8.91,1.71-.69.28-1.36.58-2.02.92-1.31.67-2.56,1.47-3.72,2.36-5.22,4.04-8.74,10.19-9.25,17.24l-1.48,20.56-.87,12.14-.2,2.51c0,4.68-3.79,8.48-8.48,8.48s-8.48-3.79-8.48-8.48l-.2-2.52-2.35-32.69c-.9-12.53-11.33-22.24-23.89-22.24H31.82c-12.56,0-22.99,9.71-23.89,22.24L.06,364.59c-1,13.87,9.99,25.67,23.89,25.67h782.17c13.9,0,24.89-11.8,23.89-25.67Z" style="fill:#ffc100;"/><path d="M1527.1,364.59l-7.86-109.55c-.9-12.53-11.33-22.24-23.89-22.24h-69.55c-12.56,0-22.99,9.71-23.89,22.24l-2.35,32.69-.2,2.52c0,4.68-3.79,8.48-8.48,8.48s-8.48-3.79-8.48-8.48l-.2-2.5-2.35-32.71c-.9-12.53-11.33-22.24-23.89-22.24h-69.55c-3.14,0-6.15.61-8.91,1.71-.69.28-1.36.58-2.02.92-1.31.67-2.56,1.47-3.72,2.36-5.22,4.04-8.74,10.19-9.25,17.24l-1.48,20.56-.87,12.14-.2,2.51c0,4.68-3.79,8.48-8.48,8.48s-8.48-3.79-8.48-8.48l-.2-2.5-2.35-32.71c-.9-12.53-11.33-22.24-23.89-22.24h-69.55c-.79,0-1.56.04-2.33.11-2.3.22-4.51.77-6.58,1.6-.69.28-1.36.58-2.02.92-.84.43-1.66.92-2.44,1.45-.76.51-1.49,1.06-2.19,1.66-.1.08-.19.17-.28.25-.2.18-.4.35-.59.53-.11.1-.22.21-.32.32-.17.17-.34.34-.51.51-.11.11-.22.23-.33.35-.16.17-.32.35-.47.52-.11.12-.21.25-.32.37-.15.18-.3.36-.44.55-.1.13-.2.25-.29.38-.15.19-.29.39-.43.59-.09.12-.18.25-.26.37-.15.22-.29.44-.44.67-.07.11-.14.21-.21.32-.41.67-.79,1.37-1.14,2.08-.06.12-.11.23-.16.35-.11.24-.23.49-.33.74-.06.14-.11.29-.17.43-.09.23-.18.46-.27.69-.06.15-.11.31-.16.46-.08.23-.15.45-.22.69-.05.16-.1.32-.14.48-.07.23-.13.47-.19.7-.04.16-.08.32-.12.48-.06.24-.11.49-.15.74-.03.16-.06.31-.09.47-.05.27-.09.55-.13.82-.02.13-.04.27-.06.4-.05.41-.09.83-.12,1.24l-1.59,22.14-.76,10.57-.2,2.51c0,4.68-3.79,8.48-8.48,8.48s-8.48-3.79-8.48-8.48l-.2-2.5-2.35-32.71c-.9-12.53-11.33-22.24-23.89-22.24h-69.55c-.79,0-1.56.04-2.33.11-2.3.22-4.51.77-6.58,1.6-.69.28-1.36.58-2.02.92s-1.3.7-1.92,1.1c-.38.24-.75.5-1.12.76-.23.17-.46.33-.69.51,0,0-.01.01-.02.02-.3.23-.6.48-.89.72-.1.08-.19.17-.29.26-.2.17-.39.35-.58.53-.11.1-.22.21-.33.32-.17.17-.34.34-.51.51-.11.12-.22.23-.33.35-.16.17-.31.34-.47.52-.11.12-.21.25-.32.37-.15.18-.3.36-.44.54-.1.13-.2.25-.3.38-.14.19-.28.39-.42.58-.09.13-.18.25-.27.38-.15.22-.29.44-.43.66-.07.11-.14.22-.21.33-.2.33-.4.66-.58,1,0,.01-.01.02-.02.04-.19.34-.36.69-.53,1.04-.06.12-.11.24-.17.37-.11.24-.22.48-.32.72-.06.15-.12.29-.18.44-.09.22-.18.45-.26.68-.06.16-.11.32-.17.48-.08.22-.15.45-.22.67-.05.16-.1.33-.15.49-.06.23-.13.46-.18.69-.04.17-.08.33-.12.5-.05.24-.1.48-.15.72-.03.16-.07.32-.09.48-.05.26-.08.53-.12.8-.02.14-.04.28-.06.43-.05.39-.09.78-.12,1.18,0,.02,0,.04,0,.06l-1.48,20.56-.87,12.14-.2,2.51c0,4.68-3.79,8.48-8.48,8.48s-8.48-3.79-8.48-8.48l-.2-2.5-2.35-32.71c-.9-12.53-11.33-22.24-23.89-22.24h-69.55c-3.14,0-6.15.61-8.91,1.71-.69.28-1.36.58-2.02.92-1.31.67-2.56,1.47-3.72,2.36-5.22,4.04-8.74,10.19-9.25,17.24l-1.48,20.56-.87,12.14-.2,2.51c0,4.68-3.79,8.48-8.48,8.48s-8.48-3.79-8.48-8.48l-.2-2.52-2.35-32.69c-.9-12.53-11.33-22.24-23.89-22.24h-69.55c-12.56,0-22.99,9.71-23.89,22.24l-7.86,109.55c-1,13.87,9.99,25.67,23.89,25.67h782.17c13.9,0,24.89-11.8,23.89-25.67Z" style="fill:#ffc100;"/><path d="M898,442.57l-7.86-109.55c-.9-12.53-11.33-22.24-23.89-22.24h-69.55c-12.56,0-22.99,9.71-23.89,22.24l-2.35,32.69-.2,2.52c0,4.68-3.79,8.48-8.48,8.48s-8.48-3.79-8.48-8.48l-.2-2.5-2.35-32.71c-.9-12.53-11.33-22.24-23.89-22.24h-69.55c-3.14,0-6.15.61-8.91,1.71-.69.28-1.36.58-2.02.92-1.31.67-2.56,1.47-3.72,2.36-5.22,4.04-8.74,10.19-9.25,17.24l-1.48,20.56-.87,12.14-.2,2.51c0,4.68-3.79,8.48-8.48,8.48s-8.48-3.79-8.48-8.48l-.2-2.5-2.35-32.71c-.9-12.53-11.33-22.24-23.89-22.24h-69.55c-.79,0-1.56.04-2.33.11-2.3.22-4.51.77-6.58,1.6-.69.28-1.36.58-2.02.92-.84.43-1.66.92-2.44,1.45-.76.51-1.49,1.06-2.19,1.66-.1.08-.19.17-.28.25-.2.18-.4.35-.59.53-.11.1-.22.21-.32.32-.17.17-.34.34-.51.51-.11.11-.22.23-.33.35-.16.17-.32.35-.47.52-.11.12-.21.25-.32.37-.15.18-.3.36-.44.55-.1.13-.2.25-.29.38-.15.19-.29.39-.43.59-.09.12-.18.25-.26.37-.15.22-.29.44-.44.67-.07.11-.14.21-.21.32-.41.67-.79,1.37-1.14,2.08-.06.12-.11.23-.16.35-.11.24-.23.49-.33.74-.06.14-.11.29-.17.43-.09.23-.18.46-.27.69-.06.15-.11.31-.16.46-.08.23-.15.45-.22.69-.05.16-.1.32-.14.48-.07.23-.13.47-.19.7-.04.16-.08.32-.12.48-.06.24-.11.49-.15.74-.03.16-.06.31-.09.47-.05.27-.09.55-.13.82-.02.13-.04.27-.06.4-.05.41-.09.83-.12,1.24l-1.59,22.14-.76,10.57-.2,2.51c0,4.68-3.79,8.48-8.48,8.48s-8.48-3.79-8.48-8.48l-.2-2.5-2.35-32.71c-.9-12.53-11.33-22.24-23.89-22.24h-69.55c-.79,0-1.56.04-2.33.11-2.3.22-4.51.77-6.58,1.6-.69.28-1.36.58-2.02.92s-1.3.7-1.92,1.1c-.38.24-.75.5-1.12.76-.23.17-.46.33-.69.51,0,0-.01.01-.02.02-.3.23-.6.48-.89.72-.1.08-.19.17-.29.26-.2.17-.39.35-.58.53-.11.1-.22.21-.33.32-.17.17-.34.34-.51.51-.11.12-.22.23-.33.35-.16.17-.31.34-.47.52-.11.12-.21.25-.32.37-.15.18-.3.36-.44.54-.1.13-.2.25-.3.38-.14.19-.28.39-.42.58-.09.13-.18.25-.27.38-.15.22-.29.44-.43.66-.07.11-.14.22-.21.33-.2.33-.4.66-.58,1,0,.01-.01.02-.02.04-.19.34-.36.69-.53,1.04-.06.12-.11.24-.17.37-.11.24-.22.48-.32.72-.06.15-.12.29-.18.44-.09.22-.18.45-.26.68-.06.16-.11.32-.17.48-.08.22-.15.45-.22.67-.05.16-.1.33-.15.49-.06.23-.13.46-.18.69-.04.17-.08.33-.12.5-.05.24-.1.48-.15.72-.03.16-.07.32-.09.48-.05.26-.08.53-.12.8-.02.14-.04.28-.06.43-.05.39-.09.78-.12,1.18,0,.02,0,.04,0,.06l-1.48,20.56-.87,12.14-.2,2.51c0,4.68-3.79,8.48-8.48,8.48s-8.48-3.79-8.48-8.48l-.2-2.5-2.35-32.71c-.9-12.53-11.33-22.24-23.89-22.24h-69.55c-3.14,0-6.15.61-8.91,1.71-.69.28-1.36.58-2.02.92-1.31.67-2.56,1.47-3.72,2.36-5.22,4.04-8.74,10.19-9.25,17.24l-1.48,20.56-.87,12.14-.2,2.51c0,4.68-3.79,8.48-8.48,8.48s-8.48-3.79-8.48-8.48l-.2-2.52-2.35-32.69c-.9-12.53-11.33-22.24-23.89-22.24h-69.55c-12.56,0-22.99,9.71-23.89,22.24l-7.86,109.55c-1,13.87,9.99,25.67,23.89,25.67h782.17c13.9,0,24.89-11.8,23.89-25.67Z" style="fill:#ff71e4;"/><path d="M830.01,522.43l-7.86-109.55c-.9-12.53-11.33-22.24-23.89-22.24h-69.55c-12.56,0-22.99,9.71-23.89,22.24l-2.35,32.69-.2,2.52c0,4.68-3.79,8.48-8.48,8.48s-8.48-3.79-8.48-8.48l-.2-2.5-2.35-32.71c-.9-12.53-11.33-22.24-23.89-22.24h-69.55c-3.14,0-6.15.61-8.91,1.71-.69.28-1.36.58-2.02.92-1.31.67-2.56,1.47-3.72,2.36-5.22,4.04-8.74,10.19-9.25,17.24l-1.48,20.56-.87,12.14-.2,2.51c0,4.68-3.79,8.48-8.48,8.48s-8.48-3.79-8.48-8.48l-.2-2.5-2.35-32.71c-.9-12.53-11.33-22.24-23.89-22.24h-69.55c-.79,0-1.56.04-2.33.11-2.3.22-4.51.77-6.58,1.6-.69.28-1.36.58-2.02.92-.84.43-1.66.92-2.44,1.45-.76.51-1.49,1.06-2.19,1.66-.1.08-.19.17-.28.25-.2.18-.4.35-.59.53-.11.1-.22.21-.32.32-.17.17-.34.34-.51.51-.11.11-.22.23-.33.35-.16.17-.32.35-.47.52-.11.12-.21.25-.32.37-.15.18-.3.36-.44.55-.1.13-.2.25-.29.38-.15.19-.29.39-.43.59-.09.12-.18.25-.26.37-.15.22-.29.44-.44.67-.07.11-.14.21-.21.32-.41.67-.79,1.37-1.14,2.08-.06.12-.11.23-.16.35-.11.24-.23.49-.33.74-.06.14-.11.29-.17.43-.09.23-.18.46-.27.69-.06.15-.11.31-.16.46-.08.23-.15.45-.22.69-.05.16-.1.32-.14.48-.07.23-.13.47-.19.7-.04.16-.08.32-.12.48-.06.24-.11.49-.15.74-.03.16-.06.31-.09.47-.05.27-.09.55-.13.82-.02.13-.04.27-.06.4-.05.41-.09.83-.12,1.24l-1.59,22.14-.76,10.57-.2,2.51c0,4.68-3.79,8.48-8.48,8.48s-8.48-3.79-8.48-8.48l-.2-2.5-2.35-32.71c-.9-12.53-11.33-22.24-23.89-22.24h-69.55c-.79,0-1.56.04-2.33.11-2.3.22-4.51.77-6.58,1.6-.69.28-1.36.58-2.02.92s-1.3.7-1.92,1.1c-.38.24-.75.5-1.12.76-.23.17-.46.33-.69.51,0,0-.01.01-.02.02-.3.23-.6.48-.89.72-.1.08-.19.17-.29.26-.2.17-.39.35-.58.53-.11.1-.22.21-.33.32-.17.17-.34.34-.51.51-.11.12-.22.23-.33.35-.16.17-.31.34-.47.52-.11.12-.21.25-.32.37-.15.18-.3.36-.44.54-.1.13-.2.25-.3.38-.14.19-.28.39-.42.58-.09.13-.18.25-.27.38-.15.22-.29.44-.43.66-.07.11-.14.22-.21.33-.2.33-.4.66-.58,1,0,.01-.01.02-.02.04-.19.34-.36.69-.53,1.04-.06.12-.11.24-.17.37-.11.24-.22.48-.32.72-.06.15-.12.29-.18.44-.09.22-.18.45-.26.68-.06.16-.11.32-.17.48-.08.22-.15.45-.22.67-.05.16-.1.33-.15.49-.06.23-.13.46-.18.69-.04.17-.08.33-.12.5-.05.24-.1.48-.15.72-.03.16-.07.32-.09.48-.05.26-.08.53-.12.8-.02.14-.04.28-.06.43-.05.39-.09.78-.12,1.18,0,.02,0,.04,0,.06l-1.48,20.56-.87,12.14-.2,2.51c0,4.68-3.79,8.48-8.48,8.48s-8.48-3.79-8.48-8.48l-.2-2.5-2.35-32.71c-.9-12.53-11.33-22.24-23.89-22.24h-69.55c-3.14,0-6.15.61-8.91,1.71-.69.28-1.36.58-2.02.92-1.31.67-2.56,1.47-3.72,2.36-5.22,4.04-8.74,10.19-9.25,17.24l-1.48,20.56-.87,12.14-.2,2.51c0,4.68-3.79,8.48-8.48,8.48s-8.48-3.79-8.48-8.48l-.2-2.52-2.35-32.69c-.9-12.53-11.33-22.24-23.89-22.24H31.82c-12.56,0-22.99,9.71-23.89,22.24L.06,522.43c-1,13.87,9.99,25.67,23.89,25.67h782.17c13.9,0,24.89-11.8,23.89-25.67Z" style="fill:#f30;"/><path d="M2292.13,284.36l-7.86-109.55c-.9-12.53-11.33-22.24-23.89-22.24h-69.55c-12.56,0-22.99,9.71-23.89,22.24l-2.35,32.69-.2,2.52c0,4.68-3.79,8.48-8.48,8.48s-8.48-3.79-8.48-8.48l-.2-2.5-2.35-32.71c-.9-12.53-11.33-22.24-23.89-22.24h-69.55c-3.14,0-6.15.61-8.91,1.71-.69.28-1.36.58-2.02.92-1.31.67-2.56,1.47-3.72,2.36-5.22,4.04-8.74,10.19-9.25,17.24l-1.48,20.56-.87,12.14-.2,2.51c0,4.68-3.79,8.48-8.48,8.48s-8.48-3.79-8.48-8.48l-.2-2.5-2.35-32.71c-.9-12.53-11.33-22.24-23.89-22.24h-69.55c-.79,0-1.56.04-2.33.11-2.3.22-4.51.77-6.58,1.6-.69.28-1.36.58-2.02.92-.84.43-1.66.92-2.44,1.45-.76.51-1.49,1.06-2.19,1.66-.1.08-.19.17-.28.25-.2.18-.4.35-.59.53-.11.1-.22.21-.32.32-.17.17-.34.34-.51.51-.11.11-.22.23-.33.35-.16.17-.32.35-.47.52-.11.12-.21.25-.32.37-.15.18-.3.36-.44.55-.1.13-.2.25-.29.38-.15.19-.29.39-.43.59-.09.12-.18.25-.26.37-.15.22-.29.44-.44.67-.07.11-.14.21-.21.32-.41.67-.79,1.37-1.14,2.08-.06.12-.11.23-.16.35-.11.24-.23.49-.33.74-.06.14-.11.29-.17.43-.09.23-.18.46-.27.69-.06.15-.11.31-.16.46-.08.23-.15.45-.22.69-.05.16-.1.32-.14.48-.07.23-.13.47-.19.7-.04.16-.08.32-.12.48-.06.24-.11.49-.15.74-.03.16-.06.31-.09.47-.05.27-.09.55-.13.82-.02.13-.04.27-.06.4-.05.41-.09.83-.12,1.24l-1.59,22.14-.76,10.57-.2,2.51c0,4.68-3.79,8.48-8.48,8.48s-8.48-3.79-8.48-8.48l-.2-2.5-2.35-32.71c-.9-12.53-11.33-22.24-23.89-22.24h-69.55c-.79,0-1.56.04-2.33.11-2.3.22-4.51.77-6.58,1.6-.69.28-1.36.58-2.02.92s-1.3.7-1.92,1.1c-.38.24-.75.5-1.12.76-.23.17-.46.33-.69.51,0,0-.01.01-.02.02-.3.23-.6.48-.89.72-.1.08-.19.17-.29.26-.2.17-.39.35-.58.53-.11.1-.22.21-.33.32-.17.17-.34.34-.51.51-.11.12-.22.23-.33.35-.16.17-.31.34-.47.52-.11.12-.21.25-.32.37-.15.18-.3.36-.44.54-.1.13-.2.25-.3.38-.14.19-.28.39-.42.58-.09.13-.18.25-.27.38-.15.22-.29.44-.43.66-.07.11-.14.22-.21.33-.2.33-.4.66-.58,1,0,.01-.01.02-.02.04-.19.34-.36.69-.53,1.04-.06.12-.11.24-.17.37-.11.24-.22.48-.32.72-.06.15-.12.29-.18.44-.09.22-.18.45-.26.68-.06.16-.11.32-.17.48-.08.22-.15.45-.22.67-.05.16-.1.33-.15.49-.06.23-.13.46-.18.69-.04.17-.08.33-.12.5-.05.24-.1.48-.15.72-.03.16-.07.32-.09.48-.05.26-.08.53-.12.8-.02.14-.04.28-.06.43-.05.39-.09.78-.12,1.18,0,.02,0,.04,0,.06l-1.48,20.56-.87,12.14-.2,2.51c0,4.68-3.79,8.48-8.48,8.48s-8.48-3.79-8.48-8.48l-.2-2.5-2.35-32.71c-.9-12.53-11.33-22.24-23.89-22.24h-69.55c-3.14,0-6.15.61-8.91,1.71-.69.28-1.36.58-2.02.92-1.31.67-2.56,1.47-3.72,2.36-5.22,4.04-8.74,10.19-9.25,17.24l-1.48,20.56-.87,12.14-.2,2.51c0,4.68-3.79,8.48-8.48,8.48s-8.48-3.79-8.48-8.48l-.2-2.52-2.35-32.69c-.9-12.53-11.33-22.24-23.89-22.24h-69.55c-12.56,0-22.99,9.71-23.89,22.24l-7.86,109.55c-1,13.87,9.99,25.67,23.89,25.67h782.17c13.9,0,24.89-11.8,23.89-25.67Z" style="fill:#64c146;"/><path d="M2224.14,364.59l-7.86-109.55c-.9-12.53-11.33-22.24-23.89-22.24h-69.55c-12.56,0-22.99,9.71-23.89,22.24l-2.35,32.69-.2,2.52c0,4.68-3.79,8.48-8.48,8.48s-8.48-3.79-8.48-8.48l-.2-2.5-2.35-32.71c-.9-12.53-11.33-22.24-23.89-22.24h-69.55c-3.14,0-6.15.61-8.91,1.71-.69.28-1.36.58-2.02.92-1.31.67-2.56,1.47-3.72,2.36-5.22,4.04-8.74,10.19-9.25,17.24l-1.48,20.56-.87,12.14-.2,2.51c0,4.68-3.79,8.48-8.48,8.48s-8.48-3.79-8.48-8.48l-.2-2.5-2.35-32.71c-.9-12.53-11.33-22.24-23.89-22.24h-69.55c-.79,0-1.56.04-2.33.11-2.3.22-4.51.77-6.58,1.6-.69.28-1.36.58-2.02.92-.84.43-1.66.92-2.44,1.45-.76.51-1.49,1.06-2.19,1.66-.1.08-.19.17-.28.25-.2.18-.4.35-.59.53-.11.1-.22.21-.32.32-.17.17-.34.34-.51.51-.11.11-.22.23-.33.35-.16.17-.32.35-.47.52-.11.12-.21.25-.32.37-.15.18-.3.36-.44.55-.1.13-.2.25-.29.38-.15.19-.29.39-.43.59-.09.12-.18.25-.26.37-.15.22-.29.44-.44.67-.07.11-.14.21-.21.32-.41.67-.79,1.37-1.14,2.08-.06.12-.11.23-.16.35-.11.24-.23.49-.33.74-.06.14-.11.29-.17.43-.09.23-.18.46-.27.69-.06.15-.11.31-.16.46-.08.23-.15.45-.22.69-.05.16-.1.32-.14.48-.07.23-.13.47-.19.7-.04.16-.08.32-.12.48-.06.24-.11.49-.15.74-.03.16-.06.31-.09.47-.05.27-.09.55-.13.82-.02.13-.04.27-.06.4-.05.41-.09.83-.12,1.24l-1.59,22.14-.76,10.57-.2,2.51c0,4.68-3.79,8.48-8.48,8.48s-8.48-3.79-8.48-8.48l-.2-2.5-2.35-32.71c-.9-12.53-11.33-22.24-23.89-22.24h-69.55c-.79,0-1.56.04-2.33.11-2.3.22-4.51.77-6.58,1.6-.69.28-1.36.58-2.02.92s-1.3.7-1.92,1.1c-.38.24-.75.5-1.12.76-.23.17-.46.33-.69.51,0,0-.01.01-.02.02-.3.23-.6.48-.89.72-.1.08-.19.17-.29.26-.2.17-.39.35-.58.53-.11.1-.22.21-.33.32-.17.17-.34.34-.51.51-.11.12-.22.23-.33.35-.16.17-.31.34-.47.52-.11.12-.21.25-.32.37-.15.18-.3.36-.44.54-.1.13-.2.25-.3.38-.14.19-.28.39-.42.58-.09.13-.18.25-.27.38-.15.22-.29.44-.43.66-.07.11-.14.22-.21.33-.2.33-.4.66-.58,1,0,.01-.01.02-.02.04-.19.34-.36.69-.53,1.04-.06.12-.11.24-.17.37-.11.24-.22.48-.32.72-.06.15-.12.29-.18.44-.09.22-.18.45-.26.68-.06.16-.11.32-.17.48-.08.22-.15.45-.22.67-.05.16-.1.33-.15.49-.06.23-.13.46-.18.69-.04.17-.08.33-.12.5-.05.24-.1.48-.15.72-.03.16-.07.32-.09.48-.05.26-.08.53-.12.8-.02.14-.04.28-.06.43-.05.39-.09.78-.12,1.18,0,.02,0,.04,0,.06l-1.48,20.56-.87,12.14-.2,2.51c0,4.68-3.79,8.48-8.48,8.48s-8.48-3.79-8.48-8.48l-.2-2.5-2.35-32.71c-.9-12.53-11.33-22.24-23.89-22.24h-69.55c-3.14,0-6.15.61-8.91,1.71-.69.28-1.36.58-2.02.92-1.31.67-2.56,1.47-3.72,2.36-5.22,4.04-8.74,10.19-9.25,17.24l-1.48,20.56-.87,12.14-.2,2.51c0,4.68-3.79,8.48-8.48,8.48s-8.48-3.79-8.48-8.48l-.2-2.52-2.35-32.69c-.9-12.53-11.33-22.24-23.89-22.24h-69.55c-12.56,0-22.99,9.71-23.89,22.24l-7.86,109.55c-1,13.87,9.99,25.67,23.89,25.67h782.17c13.9,0,24.89-11.8,23.89-25.67Z" style="fill:#ffc100;"/><path d="M2292.13,442.57l-7.86-109.55c-.9-12.53-11.33-22.24-23.89-22.24h-69.55c-12.56,0-22.99,9.71-23.89,22.24l-2.35,32.69-.2,2.52c0,4.68-3.79,8.48-8.48,8.48s-8.48-3.79-8.48-8.48l-.2-2.5-2.35-32.71c-.9-12.53-11.33-22.24-23.89-22.24h-69.55c-3.14,0-6.15.61-8.91,1.71-.69.28-1.36.58-2.02.92-1.31.67-2.56,1.47-3.72,2.36-5.22,4.04-8.74,10.19-9.25,17.24l-1.48,20.56-.87,12.14-.2,2.51c0,4.68-3.79,8.48-8.48,8.48s-8.48-3.79-8.48-8.48l-.2-2.5-2.35-32.71c-.9-12.53-11.33-22.24-23.89-22.24h-69.55c-.79,0-1.56.04-2.33.11-2.3.22-4.51.77-6.58,1.6-.69.28-1.36.58-2.02.92-.84.43-1.66.92-2.44,1.45-.76.51-1.49,1.06-2.19,1.66-.1.08-.19.17-.28.25-.2.18-.4.35-.59.53-.11.1-.22.21-.32.32-.17.17-.34.34-.51.51-.11.11-.22.23-.33.35-.16.17-.32.35-.47.52-.11.12-.21.25-.32.37-.15.18-.3.36-.44.55-.1.13-.2.25-.29.38-.15.19-.29.39-.43.59-.09.12-.18.25-.26.37-.15.22-.29.44-.44.67-.07.11-.14.21-.21.32-.41.67-.79,1.37-1.14,2.08-.06.12-.11.23-.16.35-.11.24-.23.49-.33.74-.06.14-.11.29-.17.43-.09.23-.18.46-.27.69-.06.15-.11.31-.16.46-.08.23-.15.45-.22.69-.05.16-.1.32-.14.48-.07.23-.13.47-.19.7-.04.16-.08.32-.12.48-.06.24-.11.49-.15.74-.03.16-.06.31-.09.47-.05.27-.09.55-.13.82-.02.13-.04.27-.06.4-.05.41-.09.83-.12,1.24l-1.59,22.14-.76,10.57-.2,2.51c0,4.68-3.79,8.48-8.48,8.48s-8.48-3.79-8.48-8.48l-.2-2.5-2.35-32.71c-.9-12.53-11.33-22.24-23.89-22.24h-69.55c-.79,0-1.56.04-2.33.11-2.3.22-4.51.77-6.58,1.6-.69.28-1.36.58-2.02.92s-1.3.7-1.92,1.1c-.38.24-.75.5-1.12.76-.23.17-.46.33-.69.51,0,0-.01.01-.02.02-.3.23-.6.48-.89.72-.1.08-.19.17-.29.26-.2.17-.39.35-.58.53-.11.1-.22.21-.33.32-.17.17-.34.34-.51.51-.11.12-.22.23-.33.35-.16.17-.31.34-.47.52-.11.12-.21.25-.32.37-.15.18-.3.36-.44.54-.1.13-.2.25-.3.38-.14.19-.28.39-.42.58-.09.13-.18.25-.27.38-.15.22-.29.44-.43.66-.07.11-.14.22-.21.33-.2.33-.4.66-.58,1,0,.01-.01.02-.02.04-.19.34-.36.69-.53,1.04-.06.12-.11.24-.17.37-.11.24-.22.48-.32.72-.06.15-.12.29-.18.44-.09.22-.18.45-.26.68-.06.16-.11.32-.17.48-.08.22-.15.45-.22.67-.05.16-.1.33-.15.49-.06.23-.13.46-.18.69-.04.17-.08.33-.12.5-.05.24-.1.48-.15.72-.03.16-.07.32-.09.48-.05.26-.08.53-.12.8-.02.14-.04.28-.06.43-.05.39-.09.78-.12,1.18,0,.02,0,.04,0,.06l-1.48,20.56-.87,12.14-.2,2.51c0,4.68-3.79,8.48-8.48,8.48s-8.48-3.79-8.48-8.48l-.2-2.5-2.35-32.71c-.9-12.53-11.33-22.24-23.89-22.24h-69.55c-3.14,0-6.15.61-8.91,1.71-.69.28-1.36.58-2.02.92-1.31.67-2.56,1.47-3.72,2.36-5.22,4.04-8.74,10.19-9.25,17.24l-1.48,20.56-.87,12.14-.2,2.51c0,4.68-3.79,8.48-8.48,8.48s-8.48-3.79-8.48-8.48l-.2-2.52-2.35-32.69c-.9-12.53-11.33-22.24-23.89-22.24h-69.55c-12.56,0-22.99,9.71-23.89,22.24l-7.86,109.55c-1,13.87,9.99,25.67,23.89,25.67h782.17c13.9,0,24.89-11.8,23.89-25.67Z" style="fill:#ff71e4;"/><path d="M1595.09,442.57l-7.86-109.55c-.9-12.53-11.33-22.24-23.89-22.24h-69.55c-12.56,0-22.99,9.71-23.89,22.24l-2.35,32.69-.2,2.52c0,4.68-3.79,8.48-8.48,8.48s-8.48-3.79-8.48-8.48l-.2-2.5-2.35-32.71c-.9-12.53-11.33-22.24-23.89-22.24h-69.55c-3.14,0-6.15.61-8.91,1.71-.69.28-1.36.58-2.02.92-1.31.67-2.56,1.47-3.72,2.36-5.22,4.04-8.74,10.19-9.25,17.24l-1.48,20.56-.87,12.14-.2,2.51c0,4.68-3.79,8.48-8.48,8.48s-8.48-3.79-8.48-8.48l-.2-2.5-2.35-32.71c-.9-12.53-11.33-22.24-23.89-22.24h-69.55c-.79,0-1.56.04-2.33.11-2.3.22-4.51.77-6.58,1.6-.69.28-1.36.58-2.02.92-.84.43-1.66.92-2.44,1.45-.76.51-1.49,1.06-2.19,1.66-.1.08-.19.17-.28.25-.2.18-.4.35-.59.53-.11.1-.22.21-.32.32-.17.17-.34.34-.51.51-.11.11-.22.23-.33.35-.16.17-.32.35-.47.52-.11.12-.21.25-.32.37-.15.18-.3.36-.44.55-.1.13-.2.25-.29.38-.15.19-.29.39-.43.59-.09.12-.18.25-.26.37-.15.22-.29.44-.44.67-.07.11-.14.21-.21.32-.41.67-.79,1.37-1.14,2.08-.06.12-.11.23-.16.35-.11.24-.23.49-.33.74-.06.14-.11.29-.17.43-.09.23-.18.46-.27.69-.06.15-.11.31-.16.46-.08.23-.15.45-.22.69-.05.16-.1.32-.14.48-.07.23-.13.47-.19.7-.04.16-.08.32-.12.48-.06.24-.11.49-.15.74-.03.16-.06.31-.09.47-.05.27-.09.55-.13.82-.02.13-.04.27-.06.4-.05.41-.09.83-.12,1.24l-1.59,22.14-.76,10.57-.2,2.51c0,4.68-3.79,8.48-8.48,8.48s-8.48-3.79-8.48-8.48l-.2-2.5-2.35-32.71c-.9-12.53-11.33-22.24-23.89-22.24h-69.55c-.79,0-1.56.04-2.33.11-2.3.22-4.51.77-6.58,1.6-.69.28-1.36.58-2.02.92s-1.3.7-1.92,1.1c-.38.24-.75.5-1.12.76-.23.17-.46.33-.69.51,0,0-.01.01-.02.02-.3.23-.6.48-.89.72-.1.08-.19.17-.29.26-.2.17-.39.35-.58.53-.11.1-.22.21-.33.32-.17.17-.34.34-.51.51-.11.12-.22.23-.33.35-.16.17-.31.34-.47.52-.11.12-.21.25-.32.37-.15.18-.3.36-.44.54-.1.13-.2.25-.3.38-.14.19-.28.39-.42.58-.09.13-.18.25-.27.38-.15.22-.29.44-.43.66-.07.11-.14.22-.21.33-.2.33-.4.66-.58,1,0,.01-.01.02-.02.04-.19.34-.36.69-.53,1.04-.06.12-.11.24-.17.37-.11.24-.22.48-.32.72-.06.15-.12.29-.18.44-.09.22-.18.45-.26.68-.06.16-.11.32-.17.48-.08.22-.15.45-.22.67-.05.16-.1.33-.15.49-.06.23-.13.46-.18.69-.04.17-.08.33-.12.5-.05.24-.1.48-.15.72-.03.16-.07.32-.09.48-.05.26-.08.53-.12.8-.02.14-.04.28-.06.43-.05.39-.09.78-.12,1.18,0,.02,0,.04,0,.06l-1.48,20.56-.87,12.14-.2,2.51c0,4.68-3.79,8.48-8.48,8.48s-8.48-3.79-8.48-8.48l-.2-2.5-2.35-32.71c-.9-12.53-11.33-22.24-23.89-22.24h-69.55c-3.14,0-6.15.61-8.91,1.71-.69.28-1.36.58-2.02.92-1.31.67-2.56,1.47-3.72,2.36-5.22,4.04-8.74,10.19-9.25,17.24l-1.48,20.56-.87,12.14-.2,2.51c0,4.68-3.79,8.48-8.48,8.48s-8.48-3.79-8.48-8.48l-.2-2.52-2.35-32.69c-.9-12.53-11.33-22.24-23.89-22.24h-69.55c-12.56,0-22.99,9.71-23.89,22.24l-7.86,109.55c-1,13.87,9.99,25.67,23.89,25.67h782.17c13.9,0,24.89-11.8,23.89-25.67Z" style="fill:#ff71e4;"/><path d="M2224.14,522.43l-7.86-109.55c-.9-12.53-11.33-22.24-23.89-22.24h-69.55c-12.56,0-22.99,9.71-23.89,22.24l-2.35,32.69-.2,2.52c0,4.68-3.79,8.48-8.48,8.48s-8.48-3.79-8.48-8.48l-.2-2.5-2.35-32.71c-.9-12.53-11.33-22.24-23.89-22.24h-69.55c-3.14,0-6.15.61-8.91,1.71-.69.28-1.36.58-2.02.92-1.31.67-2.56,1.47-3.72,2.36-5.22,4.04-8.74,10.19-9.25,17.24l-1.48,20.56-.87,12.14-.2,2.51c0,4.68-3.79,8.48-8.48,8.48s-8.48-3.79-8.48-8.48l-.2-2.5-2.35-32.71c-.9-12.53-11.33-22.24-23.89-22.24h-69.55c-.79,0-1.56.04-2.33.11-2.3.22-4.51.77-6.58,1.6-.69.28-1.36.58-2.02.92-.84.43-1.66.92-2.44,1.45-.76.51-1.49,1.06-2.19,1.66-.1.08-.19.17-.28.25-.2.18-.4.35-.59.53-.11.1-.22.21-.32.32-.17.17-.34.34-.51.51-.11.11-.22.23-.33.35-.16.17-.32.35-.47.52-.11.12-.21.25-.32.37-.15.18-.3.36-.44.55-.1.13-.2.25-.29.38-.15.19-.29.39-.43.59-.09.12-.18.25-.26.37-.15.22-.29.44-.44.67-.07.11-.14.21-.21.32-.41.67-.79,1.37-1.14,2.08-.06.12-.11.23-.16.35-.11.24-.23.49-.33.74-.06.14-.11.29-.17.43-.09.23-.18.46-.27.69-.06.15-.11.31-.16.46-.08.23-.15.45-.22.69-.05.16-.1.32-.14.48-.07.23-.13.47-.19.7-.04.16-.08.32-.12.48-.06.24-.11.49-.15.74-.03.16-.06.31-.09.47-.05.27-.09.55-.13.82-.02.13-.04.27-.06.4-.05.41-.09.83-.12,1.24l-1.59,22.14-.76,10.57-.2,2.51c0,4.68-3.79,8.48-8.48,8.48s-8.48-3.79-8.48-8.48l-.2-2.5-2.35-32.71c-.9-12.53-11.33-22.24-23.89-22.24h-69.55c-.79,0-1.56.04-2.33.11-2.3.22-4.51.77-6.58,1.6-.69.28-1.36.58-2.02.92s-1.3.7-1.92,1.1c-.38.24-.75.5-1.12.76-.23.17-.46.33-.69.51,0,0-.01.01-.02.02-.3.23-.6.48-.89.72-.1.08-.19.17-.29.26-.2.17-.39.35-.58.53-.11.1-.22.21-.33.32-.17.17-.34.34-.51.51-.11.12-.22.23-.33.35-.16.17-.31.34-.47.52-.11.12-.21.25-.32.37-.15.18-.3.36-.44.54-.1.13-.2.25-.3.38-.14.19-.28.39-.42.58-.09.13-.18.25-.27.38-.15.22-.29.44-.43.66-.07.11-.14.22-.21.33-.2.33-.4.66-.58,1,0,.01-.01.02-.02.04-.19.34-.36.69-.53,1.04-.06.12-.11.24-.17.37-.11.24-.22.48-.32.72-.06.15-.12.29-.18.44-.09.22-.18.45-.26.68-.06.16-.11.32-.17.48-.08.22-.15.45-.22.67-.05.16-.1.33-.15.49-.06.23-.13.46-.18.69-.04.17-.08.33-.12.5-.05.24-.1.48-.15.72-.03.16-.07.32-.09.48-.05.26-.08.53-.12.8-.02.14-.04.28-.06.43-.05.39-.09.78-.12,1.18,0,.02,0,.04,0,.06l-1.48,20.56-.87,12.14-.2,2.51c0,4.68-3.79,8.48-8.48,8.48s-8.48-3.79-8.48-8.48l-.2-2.5-2.35-32.71c-.9-12.53-11.33-22.24-23.89-22.24h-69.55c-3.14,0-6.15.61-8.91,1.71-.69.28-1.36.58-2.02.92-1.31.67-2.56,1.47-3.72,2.36-5.22,4.04-8.74,10.19-9.25,17.24l-1.48,20.56-.87,12.14-.2,2.51c0,4.68-3.79,8.48-8.48,8.48s-8.48-3.79-8.48-8.48l-.2-2.52-2.35-32.69c-.9-12.53-11.33-22.24-23.89-22.24h-69.55c-12.56,0-22.99,9.71-23.89,22.24l-7.86,109.55c-1,13.87,9.99,25.67,23.89,25.67h782.17c13.9,0,24.89-11.8,23.89-25.67Z" style="fill:#f30;"/><path d="M1527.1,522.43l-7.86-109.55c-.9-12.53-11.33-22.24-23.89-22.24h-69.55c-12.56,0-22.99,9.71-23.89,22.24l-2.35,32.69-.2,2.52c0,4.68-3.79,8.48-8.48,8.48s-8.48-3.79-8.48-8.48l-.2-2.5-2.35-32.71c-.9-12.53-11.33-22.24-23.89-22.24h-69.55c-3.14,0-6.15.61-8.91,1.71-.69.28-1.36.58-2.02.92-1.31.67-2.56,1.47-3.72,2.36-5.22,4.04-8.74,10.19-9.25,17.24l-1.48,20.56-.87,12.14-.2,2.51c0,4.68-3.79,8.48-8.48,8.48s-8.48-3.79-8.48-8.48l-.2-2.5-2.35-32.71c-.9-12.53-11.33-22.24-23.89-22.24h-69.55c-.79,0-1.56.04-2.33.11-2.3.22-4.51.77-6.58,1.6-.69.28-1.36.58-2.02.92-.84.43-1.66.92-2.44,1.45-.76.51-1.49,1.06-2.19,1.66-.1.08-.19.17-.28.25-.2.18-.4.35-.59.53-.11.1-.22.21-.32.32-.17.17-.34.34-.51.51-.11.11-.22.23-.33.35-.16.17-.32.35-.47.52-.11.12-.21.25-.32.37-.15.18-.3.36-.44.55-.1.13-.2.25-.29.38-.15.19-.29.39-.43.59-.09.12-.18.25-.26.37-.15.22-.29.44-.44.67-.07.11-.14.21-.21.32-.41.67-.79,1.37-1.14,2.08-.06.12-.11.23-.16.35-.11.24-.23.49-.33.74-.06.14-.11.29-.17.43-.09.23-.18.46-.27.69-.06.15-.11.31-.16.46-.08.23-.15.45-.22.69-.05.16-.1.32-.14.48-.07.23-.13.47-.19.7-.04.16-.08.32-.12.48-.06.24-.11.49-.15.74-.03.16-.06.31-.09.47-.05.27-.09.55-.13.82-.02.13-.04.27-.06.4-.05.41-.09.83-.12,1.24l-1.59,22.14-.76,10.57-.2,2.51c0,4.68-3.79,8.48-8.48,8.48s-8.48-3.79-8.48-8.48l-.2-2.5-2.35-32.71c-.9-12.53-11.33-22.24-23.89-22.24h-69.55c-.79,0-1.56.04-2.33.11-2.3.22-4.51.77-6.58,1.6-.69.28-1.36.58-2.02.92s-1.3.7-1.92,1.1c-.38.24-.75.5-1.12.76-.23.17-.46.33-.69.51,0,0-.01.01-.02.02-.3.23-.6.48-.89.72-.1.08-.19.17-.29.26-.2.17-.39.35-.58.53-.11.1-.22.21-.33.32-.17.17-.34.34-.51.51-.11.12-.22.23-.33.35-.16.17-.31.34-.47.52-.11.12-.21.25-.32.37-.15.18-.3.36-.44.54-.1.13-.2.25-.3.38-.14.19-.28.39-.42.58-.09.13-.18.25-.27.38-.15.22-.29.44-.43.66-.07.11-.14.22-.21.33-.2.33-.4.66-.58,1,0,.01-.01.02-.02.04-.19.34-.36.69-.53,1.04-.06.12-.11.24-.17.37-.11.24-.22.48-.32.72-.06.15-.12.29-.18.44-.09.22-.18.45-.26.68-.06.16-.11.32-.17.48-.08.22-.15.45-.22.67-.05.16-.1.33-.15.49-.06.23-.13.46-.18.69-.04.17-.08.33-.12.5-.05.24-.1.48-.15.72-.03.16-.07.32-.09.48-.05.26-.08.53-.12.8-.02.14-.04.28-.06.43-.05.39-.09.78-.12,1.18,0,.02,0,.04,0,.06l-1.48,20.56-.87,12.14-.2,2.51c0,4.68-3.79,8.48-8.48,8.48s-8.48-3.79-8.48-8.48l-.2-2.5-2.35-32.71c-.9-12.53-11.33-22.24-23.89-22.24h-69.55c-3.14,0-6.15.61-8.91,1.71-.69.28-1.36.58-2.02.92-1.31.67-2.56,1.47-3.72,2.36-5.22,4.04-8.74,10.19-9.25,17.24l-1.48,20.56-.87,12.14-.2,2.51c0,4.68-3.79,8.48-8.48,8.48s-8.48-3.79-8.48-8.48l-.2-2.52-2.35-32.69c-.9-12.53-11.33-22.24-23.89-22.24h-69.55c-12.56,0-22.99,9.71-23.89,22.24l-7.86,109.55c-1,13.87,9.99,25.67,23.89,25.67h782.17c13.9,0,24.89-11.8,23.89-25.67Z" style="fill:#f30;"/></g></svg>