<svg viewBox="0 0 107 23" fill="none" xmlns="http://www.w3.org/2000/svg"><g data-id="mark"><path d="M0 18.8703L8.44675 22.8044V22.7976L0 18.8635V18.8703Z" fill="#3F4DA0"/><path d="M16.9374 17.6142L12.7688 15.6956L8.47775 17.6938L8.34009 17.6292V17.6367L8.44674 17.6862V22.7978L8.47775 22.812L16.9555 18.8637V17.6051L16.9374 17.6142Z" fill="#DB4D72"/><path d="M8.42786 8.57837V13.6974L12.7689 15.6956L16.9555 13.7455V12.4877L8.42786 8.57837Z" fill="#31B3C4"/><path d="M12.7688 15.6955L16.9374 17.6141L16.9555 17.6051V13.7454L12.7688 15.6955Z" fill="#3F4DA0"/><path d="M0 13.7529V18.5874L0.000756403 13.7529H0Z" fill="#31B3C4"/><path d="M8.44674 17.6862L5.00586 16.0837L5.00737 21.196L8.44674 22.7977V17.6862Z" fill="#3F4DA0"/><path d="M5.00361 7.14258L0.000762939 9.47269V13.7529L5.00588 16.0838L5.00361 7.14258Z" fill="#3F4DA0"/><path d="M0 18.5874V18.8637L5.00739 21.2036V21.1961L0 18.8637V18.5874Z" fill="#44EAA6"/><path d="M0.000756403 13.7529L0 18.5874V18.8637L5.00739 21.1961L5.00588 16.0838L0.000756403 13.7529Z" fill="#31B3C4"/><path d="M4.75399 2.14136L2.98325 2.96587L4.40075 2.30581L4.75399 2.14136Z" fill="#31B3C4"/><path d="M0.00152588 4.35427V9.47255L5.00211 7.14169L8.47702 5.52421L2.98327 2.96582L0.00152588 4.35427Z" fill="#DB4D72"/><path d="M8.47777 0.406757V0.406006L5.00059 2.02574L4.754 2.14138L8.47777 0.406757Z" fill="#6077D8"/><path d="M8.47776 0.406738L4.75399 2.14137L4.40075 2.30582L2.98325 2.96588L8.477 5.52427H8.47776V0.406738Z" fill="#31B3C4"/><path d="M16.9555 4.35433V9.47261L12.3407 7.32347L8.47775 5.52427V0.406738L12.3407 2.20519L16.9555 4.35433Z" fill="#3F4DA0"/></g><path d="M30.3076 10.0357C30.2735 9.9516 30.238 9.869 30.1979 9.79015C29.9422 9.28253 29.5928 8.89731 29.1495 8.63374C28.7063 8.37091 28.1836 8.2395 27.5807 8.2395C27.0603 8.2395 26.5853 8.33262 26.1557 8.51809C25.726 8.70432 25.3562 8.96489 25.046 9.2998C24.7352 9.63546 24.4976 10.0297 24.3335 10.4833C24.1694 10.9368 24.0869 11.4264 24.0869 11.9521V12.2652C24.0869 12.7908 24.1641 13.2782 24.3199 13.7272C24.4749 14.1763 24.6988 14.5683 24.9916 14.9039C25.2835 15.2396 25.6375 15.5002 26.0536 15.6864C26.4688 15.8726 26.9325 15.965 27.4438 15.965C28.0376 15.965 28.5489 15.8403 28.9786 15.591C29.4037 15.344 29.7372 14.9873 29.9785 14.5225V15.163C29.9785 15.5985 29.8916 15.9537 29.7183 16.2308C29.5451 16.5071 29.2728 16.7136 28.9029 16.8496C28.533 16.9855 28.0512 17.0538 27.4574 17.0538C27.1375 17.0538 26.7835 17.038 26.3955 17.0065C26.0074 16.975 25.6534 16.9359 25.3335 16.8909V18.7269C25.6534 18.7719 26.0052 18.8087 26.3886 18.8357C26.7721 18.8628 27.1466 18.8763 27.5119 18.8763C28.5346 18.8763 29.3817 18.7449 30.0534 18.4821C30.7251 18.2192 31.2251 17.8062 31.5534 17.2445C31.8824 16.6821 32.0465 15.9432 32.0465 15.0278V8.45877H30.3068V10.0357H30.3076ZM29.9377 12.2389C29.9377 12.6384 29.8575 12.9778 29.6979 13.2587C29.5383 13.5395 29.3212 13.755 29.0474 13.9044C28.7736 14.0539 28.4672 14.129 28.1299 14.129C27.7736 14.129 27.4559 14.0494 27.1776 13.8909C26.8985 13.7325 26.6799 13.5012 26.5203 13.1971C26.3607 12.8937 26.2805 12.5288 26.2805 12.1022C26.2805 11.6855 26.3576 11.3228 26.5135 11.0142C26.6685 10.7063 26.8879 10.466 27.1708 10.2933C27.4537 10.1213 27.7782 10.035 28.1435 10.035C28.4536 10.035 28.7464 10.1055 29.0202 10.246C29.294 10.3864 29.5156 10.5906 29.6843 10.858C29.853 11.1253 29.9377 11.4542 29.9377 11.8439V12.2389Z M36.3293 9.21935C35.9881 9.65038 35.7764 10.2181 35.6924 10.9224V8.45792H33.9527V15.9108H36.1447V12.1164C36.1447 11.5089 36.3089 11.0441 36.6379 10.7227C36.9669 10.4005 37.4321 10.2399 38.035 10.2399H38.5834V8.36255H38.2959C37.4359 8.36255 36.7809 8.6479 36.3293 9.21935Z M44.3434 8.66137C43.8185 8.4436 43.1717 8.33472 42.4047 8.33472C42.14 8.33472 41.8563 8.33922 41.5553 8.34823C41.2542 8.35724 40.9615 8.37076 40.6786 8.38878C40.3957 8.40681 40.1491 8.42483 39.9389 8.44285V10.2789C40.2218 10.2608 40.5372 10.2428 40.8844 10.2248C41.2316 10.2068 41.5697 10.1932 41.8979 10.1842C42.227 10.1752 42.4917 10.1707 42.6922 10.1707C43.0938 10.1707 43.3865 10.2661 43.5688 10.4561C43.7511 10.6468 43.8427 10.9322 43.8427 11.3129V11.3399H42.4872C41.82 11.3399 41.2316 11.424 40.7202 11.5915C40.2089 11.7597 39.811 12.018 39.5281 12.3664C39.2452 12.7156 39.1038 13.1624 39.1038 13.7061C39.1038 14.2047 39.218 14.6334 39.4464 14.9916C39.6749 15.3498 39.9918 15.6239 40.3988 15.8146C40.8049 16.0054 41.2777 16.1 41.817 16.1C42.3374 16.1 42.7784 16.0046 43.1392 15.8146C43.5 15.6239 43.7829 15.3521 43.9886 14.9984C44.0802 14.8407 44.155 14.6665 44.2148 14.4765V15.91H45.9545V11.3399C45.9545 10.6513 45.8176 10.0866 45.5438 9.64658C45.2685 9.20804 44.8683 8.87914 44.3434 8.66137ZM43.1377 14.4622C42.941 14.5486 42.7202 14.5914 42.4736 14.5914C42.0901 14.5914 41.7951 14.4983 41.5901 14.3128C41.3843 14.1273 41.2815 13.884 41.2815 13.5852C41.2815 13.2675 41.3843 13.016 41.5901 12.8305C41.7958 12.645 42.0901 12.5519 42.4736 12.5519H43.8434V13.1504C43.8253 13.5221 43.7519 13.8127 43.6241 14.0207C43.4962 14.2287 43.3344 14.3759 43.1377 14.4622Z M54.9882 9.32156C54.6819 8.98139 54.3166 8.71632 53.8922 8.52558C53.4671 8.33485 52.9951 8.24023 52.474 8.24023C51.8893 8.24023 51.3643 8.36939 50.8984 8.62771C50.4324 8.88603 50.0626 9.272 49.7887 9.78413C49.6972 9.95459 49.6208 10.1393 49.5558 10.3353V8.458H47.816V18.6307H50.0081V14.982C50.26 15.3409 50.5724 15.6173 50.9468 15.8088C51.3991 16.0401 51.9082 16.1557 52.4747 16.1557C53.0224 16.1557 53.5087 16.0581 53.9338 15.8636C54.3589 15.6683 54.719 15.3988 55.0162 15.0541C55.3128 14.7094 55.5389 14.3039 55.6947 13.8368C55.8498 13.3698 55.9277 12.8689 55.9277 12.3343V12.0211C55.9277 11.4767 55.8475 10.9758 55.6879 10.5185C55.5268 10.0605 55.2946 9.66098 54.9882 9.32156ZM53.4883 13.2992C53.3332 13.6258 53.1162 13.8797 52.8378 14.0606C52.5587 14.2423 52.2327 14.3325 51.8583 14.3325C51.5474 14.3325 51.2463 14.2596 50.9544 14.1147C50.6616 13.9698 50.4218 13.7588 50.235 13.4824C50.0474 13.2061 49.9544 12.8727 49.9544 12.4829V11.9798C49.9544 11.5721 50.0436 11.2251 50.2214 10.939C50.3992 10.6529 50.6344 10.4337 50.9271 10.2797C51.2191 10.1258 51.53 10.0485 51.859 10.0485C52.2425 10.0485 52.5715 10.1371 52.8454 10.3135C53.1192 10.49 53.334 10.7378 53.4891 11.0547C53.6441 11.3723 53.722 11.744 53.722 12.1698C53.7213 12.5971 53.6434 12.9733 53.4883 13.2992Z M61.9547 8.22593H61.8587C61.2921 8.22593 60.8216 8.35959 60.4472 8.62692C60.0978 8.87623 59.8292 9.23592 59.6386 9.70224V5.98218H57.4466V15.9109H59.6386V11.708V11.6126C59.6386 11.1771 59.7642 10.8286 60.0153 10.565C60.2664 10.3022 60.5977 10.1708 61.0085 10.1708C61.401 10.1708 61.7187 10.2955 61.9608 10.5448C62.2028 10.7941 62.3239 11.123 62.3239 11.5307V15.9101H64.5159V11.6667C64.5159 10.5425 64.2965 9.68797 63.8586 9.10301C63.4206 8.51804 62.786 8.22593 61.9547 8.22593Z M71.0444 8.66137C70.5195 8.4436 69.8727 8.33472 69.1058 8.33472C68.841 8.33472 68.5574 8.33922 68.2563 8.34823C67.9553 8.35724 67.6625 8.37076 67.3796 8.38878C67.0967 8.40681 66.8502 8.42483 66.6399 8.44285V10.2789C66.9228 10.2608 67.2382 10.2428 67.5854 10.2248C67.9326 10.2068 68.2707 10.1932 68.599 10.1842C68.928 10.1752 69.1927 10.1707 69.3932 10.1707C69.7948 10.1707 70.0876 10.2661 70.2699 10.4561C70.4522 10.6468 70.5437 10.9322 70.5437 11.3129V11.3399H69.1882C68.5211 11.3399 67.9326 11.424 67.4212 11.5915C66.9099 11.7597 66.512 12.018 66.2292 12.3664C65.9463 12.7156 65.8048 13.1624 65.8048 13.7061C65.8048 14.2047 65.919 14.6334 66.1475 14.9916C66.3759 15.3498 66.6928 15.6239 67.0998 15.8146C67.506 16.0054 67.9787 16.1 68.518 16.1C69.0384 16.1 69.4794 16.0046 69.8402 15.8146C70.201 15.6239 70.4839 15.3521 70.6897 14.9984C70.7812 14.8407 70.8561 14.6665 70.9158 14.4765V15.91H72.6556V11.3399C72.6556 10.6513 72.5186 10.0866 72.2448 9.64658C71.9695 9.20804 71.5701 8.87914 71.0444 8.66137ZM69.8387 14.4622C69.642 14.5486 69.4212 14.5914 69.1746 14.5914C68.7911 14.5914 68.4961 14.4983 68.2911 14.3128C68.0854 14.1273 67.9825 13.884 67.9825 13.5852C67.9825 13.2675 68.0854 13.016 68.2911 12.8305C68.4969 12.645 68.7911 12.5519 69.1746 12.5519H70.5444V13.1504C70.5263 13.5221 70.4529 13.8127 70.3251 14.0207C70.1972 14.2287 70.0354 14.3759 69.8387 14.4622Z M81.7105 9.30726C81.4177 8.96709 81.0645 8.70427 80.6485 8.51879C80.2324 8.33331 79.7695 8.2402 79.2582 8.2402C78.6735 8.2402 78.1531 8.36936 77.6962 8.62767C77.2893 8.85821 76.961 9.19011 76.7099 9.62189V5.98218H74.5178V15.9109H76.2575V14.2859C76.306 14.412 76.3604 14.5322 76.4217 14.6463C76.6864 15.1359 77.0518 15.5099 77.5177 15.7682C77.9837 16.0265 78.5222 16.1557 79.1341 16.1557C79.6727 16.1557 80.1568 16.058 80.5864 15.8635C81.0153 15.6683 81.3829 15.3965 81.6893 15.0473C81.9949 14.6981 82.2278 14.2926 82.3882 13.8301C82.5478 13.3675 82.628 12.8644 82.628 12.3207V12.0218C82.628 11.4774 82.5478 10.9743 82.3882 10.5125C82.2286 10.0492 82.0024 9.64742 81.7105 9.30726ZM80.1893 13.2924C80.0343 13.6236 79.8172 13.8796 79.5388 14.0606C79.2597 14.2423 78.9337 14.3324 78.5593 14.3324C78.2484 14.3324 77.9474 14.2596 77.6554 14.1147C77.3627 13.9697 77.1229 13.7587 76.936 13.4824C76.7485 13.206 76.6554 12.8726 76.6554 12.4829V11.9798C76.6554 11.572 76.7447 11.2251 76.9224 10.939C77.1002 10.6529 77.3354 10.4336 77.6282 10.2797C77.9201 10.1258 78.231 10.0484 78.56 10.0484C78.9345 10.0484 79.2605 10.137 79.5396 10.3135C79.8179 10.49 80.035 10.7378 80.1901 11.0546C80.3452 11.3723 80.4231 11.744 80.4231 12.1698C80.4223 12.588 80.3444 12.962 80.1893 13.2924Z M88.8131 8.66137C88.2881 8.4436 87.6414 8.33472 86.8744 8.33472C86.6097 8.33472 86.326 8.33922 86.025 8.34823C85.7239 8.35724 85.4312 8.37076 85.1483 8.38878C84.8654 8.40681 84.6188 8.42483 84.4085 8.44285V10.2789C84.6914 10.2608 85.0068 10.2428 85.354 10.2248C85.7012 10.2068 86.0393 10.1932 86.3676 10.1842C86.6966 10.1752 86.9614 10.1707 87.1618 10.1707C87.5635 10.1707 87.8562 10.2661 88.0385 10.4561C88.2208 10.6468 88.3123 10.9322 88.3123 11.3129V11.3399H86.9561C86.2889 11.3399 85.7005 11.424 85.1891 11.5915C84.6778 11.7597 84.2799 12.018 83.997 12.3664C83.7141 12.7156 83.5727 13.1624 83.5727 13.7061C83.5727 14.2047 83.6869 14.6334 83.9153 14.9916C84.1438 15.3498 84.4607 15.6239 84.8677 15.8146C85.2738 16.0054 85.7466 16.1 86.2859 16.1C86.8063 16.1 87.2473 16.0046 87.6081 15.8146C87.9689 15.6239 88.2518 15.3521 88.4575 14.9984C88.5491 14.8407 88.6239 14.6665 88.6837 14.4765V15.91H90.4234V11.3399C90.4234 10.6513 90.2865 10.0866 90.0127 9.64658C89.7381 9.20804 89.3388 8.87914 88.8131 8.66137ZM87.6081 14.4622C87.4114 14.5486 87.1906 14.5914 86.944 14.5914C86.5605 14.5914 86.2655 14.4983 86.0605 14.3128C85.8548 14.1273 85.7519 13.884 85.7519 13.5852C85.7519 13.2675 85.8548 13.016 86.0605 12.8305C86.2662 12.645 86.5605 12.5519 86.944 12.5519H88.3138V13.1504C88.2957 13.5221 88.2223 13.8127 88.0945 14.0207C87.9659 14.2287 87.804 14.3759 87.6081 14.4622Z M97.7114 12.0617C97.2001 11.6539 96.483 11.4001 95.5602 11.3002L94.9709 11.2462C94.5784 11.2011 94.2947 11.1238 94.1215 11.0149C93.9483 10.906 93.8613 10.7476 93.8613 10.5388C93.8613 10.321 93.9619 10.1491 94.1623 10.0222C94.3635 9.89526 94.6328 9.83144 94.9709 9.83144C95.3998 9.83144 95.7243 9.91554 95.9437 10.083C96.163 10.2512 96.2909 10.457 96.3272 10.7018H98.2726C98.2454 9.90428 97.9345 9.29378 97.3408 8.87251C96.747 8.45049 95.9664 8.24023 94.9982 8.24023C94.3953 8.24023 93.859 8.3311 93.3885 8.51207C92.9181 8.69379 92.5505 8.96112 92.2857 9.3148C92.021 9.66849 91.8886 10.1085 91.8886 10.6342C91.8886 11.2687 92.1148 11.7906 92.5663 12.1983C93.0187 12.6061 93.6964 12.8561 94.6011 12.9463L95.1903 13.0003C95.6835 13.0544 96.0261 13.1475 96.2175 13.2789C96.4096 13.4103 96.5049 13.5853 96.5049 13.8023C96.5049 14.0471 96.3794 14.2356 96.1282 14.367C95.8771 14.4984 95.5594 14.5645 95.1759 14.5645C94.6737 14.5645 94.297 14.4714 94.0459 14.2859C93.7947 14.1004 93.651 13.8894 93.614 13.6536H91.6685C91.7048 14.4421 92.0247 15.0548 92.6276 15.4896C93.2305 15.9244 94.0663 16.1422 95.1351 16.1422C95.8105 16.1422 96.3998 16.0446 96.902 15.8501C97.4043 15.6556 97.7923 15.374 98.0669 15.0068C98.3407 14.6396 98.4776 14.2071 98.4776 13.7077C98.4791 13.0183 98.2227 12.4694 97.7114 12.0617Z M107 12.0212C107 11.3408 106.854 10.7131 106.561 10.1371C106.269 9.56115 105.847 9.09482 105.294 8.73588C104.741 8.37769 104.064 8.19897 103.26 8.19897C102.648 8.19897 102.102 8.30561 101.623 8.51887C101.143 8.73213 100.744 9.01973 100.424 9.38243C100.104 9.74512 99.8596 10.1559 99.6909 10.6132C99.5215 11.0712 99.4375 11.5496 99.4375 12.0482V12.32C99.4375 12.8006 99.5222 13.2699 99.6909 13.728C99.8596 14.1861 100.106 14.5983 100.431 14.9655C100.754 15.3327 101.161 15.6248 101.65 15.8426C102.139 16.0604 102.703 16.1693 103.342 16.1693C103.972 16.1693 104.53 16.0604 105.014 15.8426C105.498 15.6248 105.899 15.3215 106.219 14.931C106.539 14.5413 106.753 14.0967 106.863 13.5981H104.849C104.757 13.8249 104.584 14.0156 104.328 14.1695C104.073 14.3235 103.744 14.4008 103.342 14.4008C102.903 14.4008 102.548 14.31 102.273 14.129C101.999 13.948 101.798 13.692 101.67 13.3608C101.599 13.1768 101.549 12.9748 101.517 12.7556H106.999V12.0212H107ZM101.685 10.9804C101.822 10.6492 102.023 10.3977 102.288 10.2257C102.552 10.0538 102.877 9.96739 103.26 9.96739C103.635 9.96739 103.947 10.0515 104.199 10.219C104.45 10.3872 104.639 10.629 104.768 10.9466C104.837 11.1186 104.887 11.3093 104.918 11.518H101.534C101.568 11.3213 101.618 11.1418 101.685 10.9804Z" fill="#fff"/></svg>
