<svg width="464" height="201" viewBox="0 0 464 201" fill="none" xmlns="http://www.w3.org/2000/svg">
<g clip-path="url(#clip0_2004_1810)">
<path d="M380.685 0.149414L380.68 0.154297V0.15918C433.871 0.15918 470.618 24.03 462.763 53.4785L457.439 73.4189C449.582 102.868 400.099 126.739 346.907 126.739H341.464L453.195 200.005H273.808L183.487 130.286C179.872 127.968 175.675 126.737 171.386 126.737H20.3965L34.624 73.4121H299.088C309.03 73.4121 318.287 68.9481 319.757 63.4414H319.762C321.231 57.9345 314.357 53.4697 304.41 53.4697H39.9443L54.1689 0.149414H380.685ZM145.9 145.143C150.911 145.143 154.561 149.916 153.263 154.778L141.199 199.998H0.853516L15.4873 145.143H145.9Z" fill="#313539"/>
</g>
<defs>
<clipPath id="clip0_2004_1810">
<rect width="464" height="201" fill="white"/>
</clipPath>
</defs>
</svg>
