<svg width="745" height="186" viewBox="0 0 745 186" fill="none" xmlns="http://www.w3.org/2000/svg">
<g clip-path="url(#clip0_3_122)">
<path d="M62.1282 122.216H1V85.8755H79.1217C89.6401 85.8755 97.7436 84.2717 103.231 80.3624C108.796 76.3982 111.494 70.1988 111.494 61.489C111.494 53.7716 108.778 47.4675 103.271 43.1208C97.8003 38.8028 89.7038 36.5172 79.1217 36.5172H1V1H87.8364C111.367 1 128.822 6.6007 140.381 16.5265C151.917 26.4329 157.716 40.7641 157.716 58.5348C157.716 84.983 141.506 102.098 119.66 104.956L119.593 106.928C128.892 108.802 136.157 112.384 141.348 118.039C146.537 123.69 149.745 131.51 150.747 142.033C152.337 162.607 152.385 172.578 152.387 183.065H105.56C105.57 181.087 105.605 179.232 105.642 177.347C105.774 170.493 105.912 163.332 104.811 148.898C104.077 138.26 101.423 131.49 96.6155 127.427C91.8277 123.382 85.1248 122.216 76.7978 122.216H62.1282Z" stroke="#121212" stroke-width="2"/>
<path d="M61.1261 183.065H1V156.483H51.6297C55.6562 156.483 57.9682 157.969 59.3077 159.781C60.6856 161.645 61.1261 163.983 61.1261 165.772V183.065Z" stroke="#121212" stroke-width="2"/>
<path d="M595.173 184.745L644.656 120.074L645.111 119.481L644.67 118.877L599.173 56.5244H648.555L669.701 87.0431L670.512 88.2136L671.338 87.0534L693.063 56.5244H738.929L693.2 116.819L692.745 117.418L693.195 118.021L743.006 184.745H693.635L668.143 149.826L667.336 148.72L666.528 149.826L641.036 184.745H595.173Z" stroke="#121212" stroke-width="2"/>
<path d="M435.17 77.446L435.985 79.693L437.013 77.5352C443.797 63.2969 458.797 52.4114 480.159 52.4114C497.722 52.4114 508.916 58.5083 515.759 67.8072C522.643 77.1613 525.236 89.9065 525.236 103.383V184.135H480.29V115.938C480.29 107.032 479.505 100.003 476.792 95.1909C475.417 92.7522 473.547 90.8799 471.059 89.6288C468.584 88.3846 465.557 87.7841 461.902 87.7841C457.851 87.7841 454.416 88.6165 451.551 90.2251C448.683 91.835 446.442 94.1914 444.735 97.1535C441.341 103.042 440.037 111.36 440.037 121.193V184.135H395.091V115.938C395.091 107.024 394.232 99.9935 391.442 95.1805C390.029 92.7435 388.123 90.875 385.611 89.6267C383.111 88.3848 380.068 87.7841 376.413 87.7841C368.39 87.7841 362.839 91.1745 359.357 97.1493C355.927 103.036 354.548 111.353 354.548 121.193V184.135H309.602V55.9151H354.548V74.4774L356.447 74.9146C363.216 60.991 376.751 52.4114 395.829 52.4114C407.122 52.4114 415.604 55.0021 421.92 59.3863C428.235 63.7695 432.472 70.0049 435.17 77.446Z" stroke="#121212" stroke-width="2"/>
<path d="M296.156 138.992C292.749 153.128 285.378 164.135 274.82 171.668C263.977 179.405 249.704 183.526 232.765 183.526C212.244 183.526 194.75 177.311 182.399 166.05C170.058 154.798 162.766 138.435 162.766 117.956C162.766 77.3437 192.453 48.2982 232.185 48.2982C253.532 48.2982 269.774 55.6523 280.684 67.289C291.605 78.9369 297.258 94.9566 297.258 112.408V124.547H207.553H206.478L206.556 125.619C207.153 133.893 210.453 140.073 215.508 144.171C220.545 148.254 227.234 150.197 234.504 150.197C240.986 150.197 246.391 149.085 250.756 146.599C254.951 144.21 258.109 140.596 260.342 135.661L296.156 138.992ZM207.142 102.633L206.981 103.773H208.133H253.63H254.681L254.629 102.724C254.329 96.6902 252.23 91.05 248.346 86.9067C244.449 82.7487 238.817 80.1672 231.606 80.1672C223.849 80.1672 218.14 82.5805 214.154 86.674C210.189 90.745 208.03 96.3737 207.142 102.633Z" stroke="#121212" stroke-width="2"/>
<path d="M587.538 185H542.592V56.7797H587.538V185ZM587.828 3.05647V42.5168H542.302V3.05647H587.828Z" stroke="#121212" stroke-width="2"/>
</g>
<defs>
<clipPath id="clip0_3_122">
<rect width="745" height="186" fill="white"/>
</clipPath>
</defs>
</svg>
