<svg width="1200" height="628" viewBox="0 0 1200 628" fill="none" xmlns="http://www.w3.org/2000/svg">
<g filter="url(#filter0_dd_1_20)">
<path d="M768.592 276.78V407H815.538V276.78H768.592ZM768.302 264.517H815.828V223.056H768.302V264.517Z" fill="#FFF7FF"/>
</g>
<g filter="url(#filter1_dd_1_20)">
<path fill-rule="evenodd" clip-rule="evenodd" d="M378.744 362.947C380.387 384.214 380.387 394.183 380.387 405.065H331.558C331.558 402.694 331.6 400.526 331.642 398.327C331.774 391.492 331.912 384.365 330.813 369.971C329.361 348.899 320.356 344.216 303.798 344.216H289.128H227V305.876H306.122C327.037 305.876 337.494 299.464 337.494 282.489C337.494 267.563 327.037 258.517 306.122 258.517H227V221H314.836C362.186 221 385.716 243.536 385.716 279.535C385.716 306.461 369.158 324.021 346.79 326.948C365.672 330.753 376.71 341.582 378.744 362.947Z" fill="#E8F2FF"/>
<path d="M227 405.064V376.483H278.63C287.254 376.483 289.126 382.928 289.126 386.772V405.064H227Z" fill="#E8F2FF"/>
</g>
<g filter="url(#filter2_dd_1_20)">
<path d="M967.943 276.524H919.548L897.523 307.474L876.079 276.524H824.206L870.862 340.467L820.148 406.745H868.544L894.336 371.416L920.127 406.745H972L920.996 338.423L967.943 276.524Z" fill="#FFF0F1"/>
</g>
<g filter="url(#filter3_dd_1_20)">
<path d="M663.111 298.105C657.605 282.922 645.723 272.411 622.83 272.411C603.414 272.411 589.504 281.171 582.549 295.477V275.915H535.602V406.135H582.549V342.193C582.549 322.631 588.055 309.784 603.414 309.784C617.614 309.784 621.091 319.127 621.091 336.938V406.135H668.038V342.193C668.038 322.631 673.254 309.784 688.903 309.784C703.102 309.784 706.29 319.127 706.29 336.938V406.135H753.237V324.383C753.237 297.229 742.804 272.411 707.16 272.411C685.425 272.411 670.066 283.506 663.111 298.105Z" fill="#FFFAEA"/>
</g>
<g filter="url(#filter4_dd_1_20)">
<path d="M486.716 355.598C482.369 365.818 474.255 370.197 461.504 370.197C447.304 370.197 435.712 362.606 434.553 346.547H525.258V333.408C525.258 298.08 502.365 268.298 459.185 268.298C418.904 268.298 388.766 297.788 388.766 338.956C388.766 380.416 418.325 405.526 459.765 405.526C493.961 405.526 517.724 388.883 524.389 359.102L486.716 355.598ZM435.133 323.773C436.871 311.51 443.537 302.167 458.606 302.167C472.516 302.167 480.05 312.094 480.63 323.773H435.133Z" fill="#F1FFF0"/>
</g>
<defs>
<filter id="filter0_dd_1_20" x="740.302" y="195.056" width="103.526" height="239.944" filterUnits="userSpaceOnUse" color-interpolation-filters="sRGB">
<feFlood flood-opacity="0" result="BackgroundImageFix"/>
<feColorMatrix in="SourceAlpha" type="matrix" values="0 0 0 0 0 0 0 0 0 0 0 0 0 0 0 0 0 0 127 0" result="hardAlpha"/>
<feOffset/>
<feGaussianBlur stdDeviation="14"/>
<feComposite in2="hardAlpha" operator="out"/>
<feColorMatrix type="matrix" values="0 0 0 0 0.847059 0 0 0 0 0.231373 0 0 0 0 0.823529 0 0 0 1 0"/>
<feBlend mode="normal" in2="BackgroundImageFix" result="effect1_dropShadow_1_20"/>
<feColorMatrix in="SourceAlpha" type="matrix" values="0 0 0 0 0 0 0 0 0 0 0 0 0 0 0 0 0 0 127 0" result="hardAlpha"/>
<feOffset/>
<feGaussianBlur stdDeviation="14"/>
<feComposite in2="hardAlpha" operator="out"/>
<feColorMatrix type="matrix" values="0 0 0 0 0.847059 0 0 0 0 0.231373 0 0 0 0 0.823529 0 0 0 1 0"/>
<feBlend mode="normal" in2="effect1_dropShadow_1_20" result="effect2_dropShadow_1_20"/>
<feBlend mode="normal" in="SourceGraphic" in2="effect2_dropShadow_1_20" result="shape"/>
</filter>
<filter id="filter1_dd_1_20" x="185" y="179" width="242.716" height="268.065" filterUnits="userSpaceOnUse" color-interpolation-filters="sRGB">
<feFlood flood-opacity="0" result="BackgroundImageFix"/>
<feColorMatrix in="SourceAlpha" type="matrix" values="0 0 0 0 0 0 0 0 0 0 0 0 0 0 0 0 0 0 127 0" result="hardAlpha"/>
<feOffset/>
<feGaussianBlur stdDeviation="21"/>
<feComposite in2="hardAlpha" operator="out"/>
<feColorMatrix type="matrix" values="0 0 0 0 0.223529 0 0 0 0 0.572549 0 0 0 0 1 0 0 0 1 0"/>
<feBlend mode="normal" in2="BackgroundImageFix" result="effect1_dropShadow_1_20"/>
<feColorMatrix in="SourceAlpha" type="matrix" values="0 0 0 0 0 0 0 0 0 0 0 0 0 0 0 0 0 0 127 0" result="hardAlpha"/>
<feOffset/>
<feGaussianBlur stdDeviation="14"/>
<feComposite in2="hardAlpha" operator="out"/>
<feColorMatrix type="matrix" values="0 0 0 0 0.223529 0 0 0 0 0.572549 0 0 0 0 1 0 0 0 0.9 0"/>
<feBlend mode="normal" in2="effect1_dropShadow_1_20" result="effect2_dropShadow_1_20"/>
<feBlend mode="normal" in="SourceGraphic" in2="effect2_dropShadow_1_20" result="shape"/>
</filter>
<filter id="filter2_dd_1_20" x="788.148" y="244.524" width="215.852" height="194.22" filterUnits="userSpaceOnUse" color-interpolation-filters="sRGB">
<feFlood flood-opacity="0" result="BackgroundImageFix"/>
<feColorMatrix in="SourceAlpha" type="matrix" values="0 0 0 0 0 0 0 0 0 0 0 0 0 0 0 0 0 0 127 0" result="hardAlpha"/>
<feOffset/>
<feGaussianBlur stdDeviation="14"/>
<feComposite in2="hardAlpha" operator="out"/>
<feColorMatrix type="matrix" values="0 0 0 0 0.960784 0 0 0 0 0.2 0 0 0 0 0.258824 0 0 0 1 0"/>
<feBlend mode="normal" in2="BackgroundImageFix" result="effect1_dropShadow_1_20"/>
<feColorMatrix in="SourceAlpha" type="matrix" values="0 0 0 0 0 0 0 0 0 0 0 0 0 0 0 0 0 0 127 0" result="hardAlpha"/>
<feOffset/>
<feGaussianBlur stdDeviation="16"/>
<feComposite in2="hardAlpha" operator="out"/>
<feColorMatrix type="matrix" values="0 0 0 0 0.960784 0 0 0 0 0.2 0 0 0 0 0.258824 0 0 0 1 0"/>
<feBlend mode="normal" in2="effect1_dropShadow_1_20" result="effect2_dropShadow_1_20"/>
<feBlend mode="normal" in="SourceGraphic" in2="effect2_dropShadow_1_20" result="shape"/>
</filter>
<filter id="filter3_dd_1_20" x="507.602" y="244.411" width="273.635" height="189.724" filterUnits="userSpaceOnUse" color-interpolation-filters="sRGB">
<feFlood flood-opacity="0" result="BackgroundImageFix"/>
<feColorMatrix in="SourceAlpha" type="matrix" values="0 0 0 0 0 0 0 0 0 0 0 0 0 0 0 0 0 0 127 0" result="hardAlpha"/>
<feOffset/>
<feGaussianBlur stdDeviation="14"/>
<feComposite in2="hardAlpha" operator="out"/>
<feColorMatrix type="matrix" values="0 0 0 0 0.996078 0 0 0 0 0.8 0 0 0 0 0.105882 0 0 0 1 0"/>
<feBlend mode="normal" in2="BackgroundImageFix" result="effect1_dropShadow_1_20"/>
<feColorMatrix in="SourceAlpha" type="matrix" values="0 0 0 0 0 0 0 0 0 0 0 0 0 0 0 0 0 0 127 0" result="hardAlpha"/>
<feOffset/>
<feGaussianBlur stdDeviation="14"/>
<feComposite in2="hardAlpha" operator="out"/>
<feColorMatrix type="matrix" values="0 0 0 0 0.996078 0 0 0 0 0.8 0 0 0 0 0.105882 0 0 0 1 0"/>
<feBlend mode="normal" in2="effect1_dropShadow_1_20" result="effect2_dropShadow_1_20"/>
<feBlend mode="normal" in="SourceGraphic" in2="effect2_dropShadow_1_20" result="shape"/>
</filter>
<filter id="filter4_dd_1_20" x="360.766" y="240.298" width="192.493" height="193.228" filterUnits="userSpaceOnUse" color-interpolation-filters="sRGB">
<feFlood flood-opacity="0" result="BackgroundImageFix"/>
<feColorMatrix in="SourceAlpha" type="matrix" values="0 0 0 0 0 0 0 0 0 0 0 0 0 0 0 0 0 0 127 0" result="hardAlpha"/>
<feOffset/>
<feGaussianBlur stdDeviation="14"/>
<feComposite in2="hardAlpha" operator="out"/>
<feColorMatrix type="matrix" values="0 0 0 0 0.419608 0 0 0 0 0.85098 0 0 0 0 0.407843 0 0 0 1 0"/>
<feBlend mode="normal" in2="BackgroundImageFix" result="effect1_dropShadow_1_20"/>
<feColorMatrix in="SourceAlpha" type="matrix" values="0 0 0 0 0 0 0 0 0 0 0 0 0 0 0 0 0 0 127 0" result="hardAlpha"/>
<feOffset/>
<feGaussianBlur stdDeviation="14"/>
<feComposite in2="hardAlpha" operator="out"/>
<feColorMatrix type="matrix" values="0 0 0 0 0.419608 0 0 0 0 0.85098 0 0 0 0 0.407843 0 0 0 1 0"/>
<feBlend mode="normal" in2="effect1_dropShadow_1_20" result="effect2_dropShadow_1_20"/>
<feBlend mode="normal" in="SourceGraphic" in2="effect2_dropShadow_1_20" result="shape"/>
</filter>
</defs>
</svg>
