<svg width="819" height="269" viewBox="0 0 819 269" fill="none" xmlns="http://www.w3.org/2000/svg">
<g filter="url(#filter0_dd_3_93)">
<path d="M583.592 97.7797V228H630.538V97.7797H583.592ZM583.302 85.5167H630.828V44.0565H583.302V85.5167Z" fill="#FFF7FF"/>
</g>
<g filter="url(#filter1_dd_3_93)">
<path fill-rule="evenodd" clip-rule="evenodd" d="M193.744 183.947C195.387 205.214 195.387 215.183 195.387 226.065H146.558C146.558 223.694 146.6 221.526 146.642 219.327C146.774 212.492 146.912 205.365 145.813 190.971C144.361 169.899 135.356 165.216 118.798 165.216H104.128H42V126.876H121.122C142.037 126.876 152.494 120.464 152.494 103.489C152.494 88.5626 142.037 79.5172 121.122 79.5172H42V42H129.836C177.186 42 200.716 64.5359 200.716 100.535C200.716 127.461 184.158 145.021 161.79 147.948C180.672 151.753 191.71 162.582 193.744 183.947Z" fill="#E8F2FF"/>
<path d="M42 226.064V197.483H93.6297C102.254 197.483 104.126 203.928 104.126 207.772V226.064H42Z" fill="#E8F2FF"/>
</g>
<g filter="url(#filter2_dd_3_93)">
<path d="M782.943 97.5244H734.548L712.523 128.474L691.079 97.5244H639.206L685.862 161.467L635.148 227.745H683.544L709.336 192.416L735.127 227.745H787L735.996 159.423L782.943 97.5244Z" fill="#FFF0F1"/>
</g>
<g filter="url(#filter3_dd_3_93)">
<path d="M478.111 119.105C472.605 103.922 460.723 93.4114 437.83 93.4114C418.414 93.4114 404.504 102.171 397.549 116.477V96.9151H350.602V227.135H397.549V163.193C397.549 143.631 403.055 130.784 418.414 130.784C432.614 130.784 436.091 140.127 436.091 157.938V227.135H483.038V163.193C483.038 143.631 488.254 130.784 503.903 130.784C518.102 130.784 521.29 140.127 521.29 157.938V227.135H568.237V145.383C568.237 118.229 557.804 93.4114 522.16 93.4114C500.425 93.4114 485.066 104.506 478.111 119.105Z" fill="#FFFAEA"/>
</g>
<g filter="url(#filter4_dd_3_93)">
<path d="M301.716 176.598C297.369 186.818 289.255 191.197 276.504 191.197C262.304 191.197 250.712 183.606 249.553 167.547H340.258V154.408C340.258 119.08 317.365 89.2982 274.185 89.2982C233.904 89.2982 203.766 118.788 203.766 159.956C203.766 201.416 233.325 226.526 274.765 226.526C308.961 226.526 332.724 209.883 339.389 180.102L301.716 176.598ZM250.133 144.773C251.871 132.51 258.537 123.167 273.606 123.167C287.516 123.167 295.05 133.094 295.63 144.773H250.133Z" fill="#F1FFF0"/>
</g>
<defs>
<filter id="filter0_dd_3_93" x="555.302" y="16.0565" width="103.526" height="239.944" filterUnits="userSpaceOnUse" color-interpolation-filters="sRGB">
<feFlood flood-opacity="0" result="BackgroundImageFix"/>
<feColorMatrix in="SourceAlpha" type="matrix" values="0 0 0 0 0 0 0 0 0 0 0 0 0 0 0 0 0 0 127 0" result="hardAlpha"/>
<feOffset/>
<feGaussianBlur stdDeviation="14"/>
<feComposite in2="hardAlpha" operator="out"/>
<feColorMatrix type="matrix" values="0 0 0 0 0.847059 0 0 0 0 0.231373 0 0 0 0 0.823529 0 0 0 1 0"/>
<feBlend mode="normal" in2="BackgroundImageFix" result="effect1_dropShadow_3_93"/>
<feColorMatrix in="SourceAlpha" type="matrix" values="0 0 0 0 0 0 0 0 0 0 0 0 0 0 0 0 0 0 127 0" result="hardAlpha"/>
<feOffset/>
<feGaussianBlur stdDeviation="14"/>
<feComposite in2="hardAlpha" operator="out"/>
<feColorMatrix type="matrix" values="0 0 0 0 0.847059 0 0 0 0 0.231373 0 0 0 0 0.823529 0 0 0 1 0"/>
<feBlend mode="normal" in2="effect1_dropShadow_3_93" result="effect2_dropShadow_3_93"/>
<feBlend mode="normal" in="SourceGraphic" in2="effect2_dropShadow_3_93" result="shape"/>
</filter>
<filter id="filter1_dd_3_93" x="0" y="0" width="242.715" height="268.065" filterUnits="userSpaceOnUse" color-interpolation-filters="sRGB">
<feFlood flood-opacity="0" result="BackgroundImageFix"/>
<feColorMatrix in="SourceAlpha" type="matrix" values="0 0 0 0 0 0 0 0 0 0 0 0 0 0 0 0 0 0 127 0" result="hardAlpha"/>
<feOffset/>
<feGaussianBlur stdDeviation="21"/>
<feComposite in2="hardAlpha" operator="out"/>
<feColorMatrix type="matrix" values="0 0 0 0 0.223529 0 0 0 0 0.572549 0 0 0 0 1 0 0 0 1 0"/>
<feBlend mode="normal" in2="BackgroundImageFix" result="effect1_dropShadow_3_93"/>
<feColorMatrix in="SourceAlpha" type="matrix" values="0 0 0 0 0 0 0 0 0 0 0 0 0 0 0 0 0 0 127 0" result="hardAlpha"/>
<feOffset/>
<feGaussianBlur stdDeviation="14"/>
<feComposite in2="hardAlpha" operator="out"/>
<feColorMatrix type="matrix" values="0 0 0 0 0.223529 0 0 0 0 0.572549 0 0 0 0 1 0 0 0 0.9 0"/>
<feBlend mode="normal" in2="effect1_dropShadow_3_93" result="effect2_dropShadow_3_93"/>
<feBlend mode="normal" in="SourceGraphic" in2="effect2_dropShadow_3_93" result="shape"/>
</filter>
<filter id="filter2_dd_3_93" x="603.148" y="65.5244" width="215.852" height="194.22" filterUnits="userSpaceOnUse" color-interpolation-filters="sRGB">
<feFlood flood-opacity="0" result="BackgroundImageFix"/>
<feColorMatrix in="SourceAlpha" type="matrix" values="0 0 0 0 0 0 0 0 0 0 0 0 0 0 0 0 0 0 127 0" result="hardAlpha"/>
<feOffset/>
<feGaussianBlur stdDeviation="14"/>
<feComposite in2="hardAlpha" operator="out"/>
<feColorMatrix type="matrix" values="0 0 0 0 0.960784 0 0 0 0 0.2 0 0 0 0 0.258824 0 0 0 1 0"/>
<feBlend mode="normal" in2="BackgroundImageFix" result="effect1_dropShadow_3_93"/>
<feColorMatrix in="SourceAlpha" type="matrix" values="0 0 0 0 0 0 0 0 0 0 0 0 0 0 0 0 0 0 127 0" result="hardAlpha"/>
<feOffset/>
<feGaussianBlur stdDeviation="16"/>
<feComposite in2="hardAlpha" operator="out"/>
<feColorMatrix type="matrix" values="0 0 0 0 0.960784 0 0 0 0 0.2 0 0 0 0 0.258824 0 0 0 1 0"/>
<feBlend mode="normal" in2="effect1_dropShadow_3_93" result="effect2_dropShadow_3_93"/>
<feBlend mode="normal" in="SourceGraphic" in2="effect2_dropShadow_3_93" result="shape"/>
</filter>
<filter id="filter3_dd_3_93" x="322.602" y="65.4114" width="273.635" height="189.724" filterUnits="userSpaceOnUse" color-interpolation-filters="sRGB">
<feFlood flood-opacity="0" result="BackgroundImageFix"/>
<feColorMatrix in="SourceAlpha" type="matrix" values="0 0 0 0 0 0 0 0 0 0 0 0 0 0 0 0 0 0 127 0" result="hardAlpha"/>
<feOffset/>
<feGaussianBlur stdDeviation="14"/>
<feComposite in2="hardAlpha" operator="out"/>
<feColorMatrix type="matrix" values="0 0 0 0 0.996078 0 0 0 0 0.8 0 0 0 0 0.105882 0 0 0 1 0"/>
<feBlend mode="normal" in2="BackgroundImageFix" result="effect1_dropShadow_3_93"/>
<feColorMatrix in="SourceAlpha" type="matrix" values="0 0 0 0 0 0 0 0 0 0 0 0 0 0 0 0 0 0 127 0" result="hardAlpha"/>
<feOffset/>
<feGaussianBlur stdDeviation="14"/>
<feComposite in2="hardAlpha" operator="out"/>
<feColorMatrix type="matrix" values="0 0 0 0 0.996078 0 0 0 0 0.8 0 0 0 0 0.105882 0 0 0 1 0"/>
<feBlend mode="normal" in2="effect1_dropShadow_3_93" result="effect2_dropShadow_3_93"/>
<feBlend mode="normal" in="SourceGraphic" in2="effect2_dropShadow_3_93" result="shape"/>
</filter>
<filter id="filter4_dd_3_93" x="175.766" y="61.2982" width="192.493" height="193.228" filterUnits="userSpaceOnUse" color-interpolation-filters="sRGB">
<feFlood flood-opacity="0" result="BackgroundImageFix"/>
<feColorMatrix in="SourceAlpha" type="matrix" values="0 0 0 0 0 0 0 0 0 0 0 0 0 0 0 0 0 0 127 0" result="hardAlpha"/>
<feOffset/>
<feGaussianBlur stdDeviation="14"/>
<feComposite in2="hardAlpha" operator="out"/>
<feColorMatrix type="matrix" values="0 0 0 0 0.419608 0 0 0 0 0.85098 0 0 0 0 0.407843 0 0 0 1 0"/>
<feBlend mode="normal" in2="BackgroundImageFix" result="effect1_dropShadow_3_93"/>
<feColorMatrix in="SourceAlpha" type="matrix" values="0 0 0 0 0 0 0 0 0 0 0 0 0 0 0 0 0 0 127 0" result="hardAlpha"/>
<feOffset/>
<feGaussianBlur stdDeviation="14"/>
<feComposite in2="hardAlpha" operator="out"/>
<feColorMatrix type="matrix" values="0 0 0 0 0.419608 0 0 0 0 0.85098 0 0 0 0 0.407843 0 0 0 1 0"/>
<feBlend mode="normal" in2="effect1_dropShadow_3_93" result="effect2_dropShadow_3_93"/>
<feBlend mode="normal" in="SourceGraphic" in2="effect2_dropShadow_3_93" result="shape"/>
</filter>
</defs>
</svg>
