<svg width="419" height="481" viewBox="0 0 419 481" fill="none" xmlns="http://www.w3.org/2000/svg">
<g clip-path="url(#clip0_3_114)">
<path d="M398.94 368.613L398.939 368.595L398.937 368.577C396.275 340.813 387.691 319.677 373.403 304.234C361.056 290.888 344.585 281.94 324.372 276.566C378.234 265.272 417 220.587 417 154.42C417 107.703 401.596 69.4919 370.505 42.9971C339.461 16.5429 293.047 2 231.456 2H4H2V4V100.41V102.41H4H208.889C235.723 102.41 255.529 108.174 268.586 118.401C281.568 128.57 288.13 143.347 288.13 162.011C288.13 183.372 281.531 197.69 268.665 206.785C255.642 215.991 235.849 220.109 208.889 220.109H4H2V222.109V320.634V322.634H4H164.883H202.871C224.216 322.634 240.143 325.652 251.233 334.952C262.278 344.214 268.967 360.095 270.833 386.957L270.834 386.965L270.834 386.972C273.673 423.864 273.317 442.111 272.975 459.633L272.975 459.648L272.975 459.654C272.865 465.3 272.756 470.889 272.756 477V479H274.756H401.201H403.201V477C403.201 449.005 403.201 423.331 398.94 368.613Z" stroke="white" stroke-width="4"/>
<path d="M4 401.553H2V403.553V477V479H4H164.878H166.878V477V429.994C166.878 424.787 165.609 417.706 161.266 411.874C156.847 405.941 149.428 401.553 137.697 401.553H4Z" stroke="white" stroke-width="4"/>
</g>
<defs>
<clipPath id="clip0_3_114">
<rect width="419" height="481" fill="white"/>
</clipPath>
</defs>
</svg>
