<svg width="1200" height="627" viewBox="0 0 1200 627" fill="none" xmlns="http://www.w3.org/2000/svg">
<rect width="1200" height="627" fill="#212121"/>
<path d="M288.979 340.971H228V305.018H305.931C316.424 305.018 324.507 303.43 329.982 299.561C335.535 295.635 338.229 289.495 338.229 280.868C338.229 273.223 335.516 266.979 330.021 262.675C324.563 258.4 316.487 256.138 305.931 256.138H228V221H314.625C338.101 221 355.514 226.545 367.044 236.37C378.551 246.174 384.334 260.357 384.334 277.943C384.334 304.113 368.171 321.056 346.373 323.886L346.306 325.858C355.584 327.713 362.831 331.259 368.009 336.855C373.183 342.448 376.382 350.186 377.383 360.6C378.967 380.958 379.016 390.828 379.018 401.204H332.309C332.318 399.251 332.354 397.418 332.39 395.555C332.522 388.77 332.66 381.681 331.561 367.392C330.829 356.858 328.18 350.153 323.382 346.13C318.605 342.124 311.919 340.971 303.613 340.971H288.979Z" stroke="white" stroke-width="2"/>
<path d="M228 401.204V374.912H278.506C282.525 374.912 284.831 376.383 286.165 378.175C287.538 380.018 287.977 382.329 287.977 384.097V401.204H228Z" stroke="white" stroke-width="2"/>
<path d="M822.182 401.523L871.654 337.367L872.114 336.771L871.668 336.164L826.182 274.308H875.557L896.703 304.591L897.512 305.749L898.336 304.601L920.061 274.308H965.92L920.202 334.121L919.741 334.724L920.197 335.33L969.996 401.523H920.633L895.141 366.874L894.335 365.779L893.53 366.874L868.038 401.523H822.182Z" stroke="white" stroke-width="2"/>
<path d="M523.153 360.825C519.746 374.843 512.378 385.76 501.823 393.233C490.98 400.91 476.705 405 459.765 405C439.242 405 421.747 398.832 409.396 387.658C397.056 376.494 389.766 360.26 389.766 339.944C389.766 299.657 419.445 270.832 459.185 270.832C480.534 270.832 496.778 278.13 507.687 289.676C518.606 301.233 524.258 317.126 524.258 334.439V346.477H434.553H433.478L433.556 347.549C434.153 355.764 437.455 361.898 442.511 365.965C447.548 370.016 454.235 371.944 461.504 371.944C467.985 371.944 473.388 370.84 477.753 368.374C481.948 366.004 485.106 362.418 487.34 357.52L523.153 360.825ZM434.143 324.737L433.979 325.878H435.133H480.63H481.681L481.629 324.828C481.329 318.838 479.229 313.239 475.344 309.126C471.445 305 465.814 302.439 458.606 302.439C450.851 302.439 445.143 304.833 441.157 308.895C437.191 312.936 435.03 318.524 434.143 324.737Z" stroke="white" stroke-width="2"/>
<path d="M662.171 295.67L662.985 297.898L664.012 295.76C670.793 281.635 685.792 270.832 707.159 270.832C724.725 270.832 735.919 276.883 742.761 286.108C749.643 295.388 752.236 308.031 752.236 321.402V401.523H707.29V333.86C707.29 325.022 706.505 318.044 703.79 313.266C702.415 310.845 700.544 308.987 698.056 307.746C695.582 306.511 692.556 305.916 688.902 305.916C684.852 305.916 681.418 306.741 678.553 308.337C675.686 309.935 673.444 312.273 671.737 315.214C668.341 321.059 667.037 329.316 667.037 339.075V401.523H622.091V333.86C622.091 325.014 621.232 318.035 618.44 313.256C617.027 310.836 615.12 308.982 612.608 307.744C610.109 306.512 607.067 305.916 603.413 305.916C595.394 305.916 589.842 309.278 586.359 315.21C582.927 321.054 581.548 329.309 581.548 339.075V401.523H536.602V274.308H581.548V292.719L583.446 293.159C590.213 279.347 603.747 270.832 622.829 270.832C634.123 270.832 642.606 273.403 648.923 277.753C655.238 282.102 659.474 288.289 662.171 295.67Z" stroke="white" stroke-width="2"/>
<path d="M814.538 401.524H769.592V274.308H814.538V401.524ZM814.828 221V260.14H769.302V221H814.828Z" stroke="white" stroke-width="2"/>
</svg>
