<svg width="683" height="201" viewBox="0 0 683 201" fill="none" xmlns="http://www.w3.org/2000/svg">
<g clip-path="url(#clip0_2006_2148)">
<path d="M147.351 145.143H103.523L88.8888 200H132.701L147.351 145.143Z" fill="#FFDF5F"/>
<path d="M122.661 73.4102L108.434 126.735H152.269L166.51 73.4102H122.661Z" fill="#FFDF5F"/>
<path d="M171.836 53.4672L186.074 0.149414H142.208L127.983 53.4672H171.836Z" fill="#FFDF5F"/>
<path d="M103.54 145.143H59.7121L45.0801 200H88.8902L103.54 145.143Z" fill="#7CE95A"/>
<path d="M128.025 53.4672L142.264 0.149414H98.3969L84.1719 53.4672H128.025Z" fill="#7CE95A"/>
<path d="M78.8503 73.4102L64.623 126.735H108.458L122.699 73.4102H78.8503Z" fill="#7CE95A"/>
<path d="M59.734 145.143H15.9058L1.27148 200H45.0839L59.734 145.143Z" fill="#3EB6FF"/>
<path d="M35.0414 73.4102L20.8164 126.735H64.6492L78.89 73.4102H35.0414Z" fill="#3EB6FF"/>
<path d="M84.2164 53.4672L98.4572 0.149414H54.5883L40.3633 53.4672H84.2164Z" fill="#3EB6FF"/>
<path d="M190.666 145.143H146.838L132.203 200H176.016L190.666 145.143Z" fill="#FF65DB"/>
<path d="M165.977 73.4102L151.75 126.735H195.583L209.824 73.4102H165.977Z" fill="#FF65DB"/>
<path d="M215.15 53.4672L229.389 0.149414H185.522L171.295 53.4672H215.15Z" fill="#FF65DB"/>
<path d="M234.468 145.143H190.64L176.008 200H219.818L234.468 145.143Z" fill="#FF5148"/>
<path d="M209.778 73.4102L195.551 126.735H239.386L253.627 73.4102H209.778Z" fill="#FF5148"/>
<path d="M258.953 53.4672L273.191 0.149414H229.325L215.1 53.4672H258.953Z" fill="#FF5148"/>
<path d="M599.685 0.149414L599.68 0.154297V0.15918C652.871 0.15918 689.618 24.03 681.763 53.4785L676.439 73.4189C668.582 102.868 619.099 126.739 565.907 126.739H560.464L672.195 200.005H492.808L402.487 130.286C398.872 127.968 394.675 126.737 390.386 126.737H239.396L253.624 73.4121H518.088C528.03 73.4121 537.287 68.9481 538.757 63.4414H538.762C540.231 57.9345 533.357 53.4697 523.41 53.4697H258.944L273.169 0.149414H599.685ZM364.9 145.143C369.911 145.143 373.561 149.916 372.263 154.778L360.199 199.998H219.854L234.487 145.143H364.9Z" fill="#313539"/>
</g>
<defs>
<clipPath id="clip0_2006_2148">
<rect width="683" height="201" fill="white"/>
</clipPath>
</defs>
</svg>
