<svg width="800" height="801" viewBox="0 0 800 801" fill="none" xmlns="http://www.w3.org/2000/svg">
<g filter="url(#filter0_dd_1_27)">
<path fill-rule="evenodd" clip-rule="evenodd" d="M587.946 528.768C592.201 583.418 592.201 609.036 592.201 637H465.756C465.756 630.909 465.865 625.337 465.975 619.687C466.317 602.123 466.674 583.807 463.828 546.819C460.067 492.667 436.748 480.634 393.871 480.634H355.883H195V382.109H399.889C454.049 382.109 481.13 365.633 481.13 322.011C481.13 283.654 454.049 260.41 399.889 260.41H195V164H422.456C545.069 164 606 221.912 606 314.42C606 383.613 563.123 428.739 505.201 436.26C554.096 446.037 582.681 473.865 587.946 528.768Z" fill="#E8F2FF"/>
<path d="M195 637V563.553H328.697C351.029 563.553 355.878 580.116 355.878 589.994V637H195Z" fill="#E8F2FF"/>
</g>
<defs>
<filter id="filter0_dd_1_27" x="131" y="100" width="539" height="601" filterUnits="userSpaceOnUse" color-interpolation-filters="sRGB">
<feFlood flood-opacity="0" result="BackgroundImageFix"/>
<feColorMatrix in="SourceAlpha" type="matrix" values="0 0 0 0 0 0 0 0 0 0 0 0 0 0 0 0 0 0 127 0" result="hardAlpha"/>
<feOffset/>
<feGaussianBlur stdDeviation="28"/>
<feComposite in2="hardAlpha" operator="out"/>
<feColorMatrix type="matrix" values="0 0 0 0 0.223529 0 0 0 0 0.572549 0 0 0 0 1 0 0 0 1 0"/>
<feBlend mode="normal" in2="BackgroundImageFix" result="effect1_dropShadow_1_27"/>
<feColorMatrix in="SourceAlpha" type="matrix" values="0 0 0 0 0 0 0 0 0 0 0 0 0 0 0 0 0 0 127 0" result="hardAlpha"/>
<feOffset/>
<feGaussianBlur stdDeviation="32"/>
<feComposite in2="hardAlpha" operator="out"/>
<feColorMatrix type="matrix" values="0 0 0 0 0.223529 0 0 0 0 0.572549 0 0 0 0 1 0 0 0 0.9 0"/>
<feBlend mode="normal" in2="effect1_dropShadow_1_27" result="effect2_dropShadow_1_27"/>
<feBlend mode="normal" in="SourceGraphic" in2="effect2_dropShadow_1_27" result="shape"/>
</filter>
</defs>
</svg>
