<svg width="1200" height="627" viewBox="0 0 1200 627" fill="none" xmlns="http://www.w3.org/2000/svg">
<rect width="1200" height="627" fill="#212121"/>
<path fill-rule="evenodd" clip-rule="evenodd" d="M378.379 360.512C380.018 381.564 380.018 391.433 380.018 402.204H331.306C331.306 399.858 331.348 397.712 331.39 395.535C331.522 388.769 331.66 381.714 330.564 367.466C329.115 346.606 320.131 341.971 303.613 341.971H288.979H227V304.018H305.931C326.796 304.018 337.229 297.671 337.229 280.868C337.229 266.092 326.796 257.138 305.931 257.138H227V220H314.625C361.861 220 385.334 242.308 385.334 277.943C385.334 304.597 368.816 321.98 346.502 324.877C365.338 328.644 376.35 339.363 378.379 360.512Z" fill="url(#paint0_linear_351_24)"/>
<path fill-rule="evenodd" clip-rule="evenodd" d="M378.379 360.512C380.018 381.564 380.018 391.433 380.018 402.204H331.306C331.306 399.858 331.348 397.712 331.39 395.535C331.522 388.769 331.66 381.714 330.564 367.466C329.115 346.606 320.131 341.971 303.613 341.971H288.979H227V304.018H305.931C326.796 304.018 337.229 297.671 337.229 280.868C337.229 266.092 326.796 257.138 305.931 257.138H227V220H314.625C361.861 220 385.334 242.308 385.334 277.943C385.334 304.597 368.816 321.98 346.502 324.877C365.338 328.644 376.35 339.363 378.379 360.512Z" fill="white"/>
<path d="M227 402.204V373.912H278.506C287.109 373.912 288.977 380.292 288.977 384.097V402.204H227Z" fill="url(#paint1_linear_351_24)"/>
<path d="M227 402.204V373.912H278.506C287.109 373.912 288.977 380.292 288.977 384.097V402.204H227Z" fill="white"/>
<path d="M227 402.207V373.914H278.506C287.109 373.914 288.977 380.294 288.977 384.099V402.207H227Z" fill="white"/>
<path d="M967.943 273.308H919.548L897.523 304.018L876.079 273.308H824.206L870.862 336.757L820.148 402.523H868.544L894.335 367.467L920.127 402.523H972L920.996 334.728L967.943 273.308Z" fill="white"/>
<path d="M486.716 356.458C482.369 366.598 474.255 370.944 461.504 370.944C447.304 370.944 435.713 363.411 434.553 347.477H525.259V334.439C525.259 299.383 502.365 269.832 459.186 269.832C418.905 269.832 388.766 299.093 388.766 339.944C388.766 381.084 418.325 406 459.765 406C493.961 406 517.724 389.486 524.389 359.934L486.716 356.458ZM435.133 324.878C436.872 312.71 443.537 303.439 458.606 303.439C472.516 303.439 480.051 313.29 480.631 324.878H435.133Z" fill="white"/>
<path d="M663.111 295.327C657.604 280.261 645.723 269.832 622.829 269.832C603.413 269.832 589.503 278.523 582.548 292.719V273.308H535.602V402.523H582.548V339.075C582.548 319.663 588.054 306.916 603.413 306.916C617.613 306.916 621.091 316.187 621.091 333.86V402.523H668.037V339.075C668.037 319.663 673.253 306.916 688.902 306.916C703.102 306.916 706.29 316.187 706.29 333.86V402.523H753.236V321.402C753.236 294.458 742.804 269.832 707.159 269.832C685.425 269.832 670.066 280.841 663.111 295.327Z" fill="white"/>
<path d="M768.591 273.308V402.524H815.538V273.308H768.591ZM768.301 261.14H815.827V220H768.301V261.14Z" fill="white"/>
<defs>
<linearGradient id="paint0_linear_351_24" x1="306.167" y1="220" x2="306.167" y2="402.204" gradientUnits="userSpaceOnUse">
<stop stop-color="white"/>
<stop offset="1" stop-color="white" stop-opacity="0"/>
</linearGradient>
<linearGradient id="paint1_linear_351_24" x1="257.988" y1="373.912" x2="257.988" y2="402.204" gradientUnits="userSpaceOnUse">
<stop stop-color="white"/>
<stop offset="1" stop-color="white" stop-opacity="0"/>
</linearGradient>
</defs>
</svg>
