<svg width="745" height="186" viewBox="0 0 745 186" fill="none" xmlns="http://www.w3.org/2000/svg">
<g clip-path="url(#clip0_3_150)">
<path d="M61.9787 120.971H1V85.0178H78.9314C89.4237 85.0178 97.5069 83.4304 102.982 79.5606C108.535 75.6352 111.229 69.4946 111.229 60.8676C111.229 53.2228 108.516 46.9787 103.021 42.6747C97.5633 38.4002 89.4869 36.138 78.9314 36.138H1V1H87.6251C111.101 1 128.514 6.54457 140.044 16.3696C151.551 26.1744 157.334 40.357 157.334 57.9433C157.334 84.113 141.171 101.056 119.373 103.886L119.306 105.858C128.584 107.713 135.831 111.259 141.009 116.855C146.183 122.448 149.382 130.186 150.383 140.6C151.967 160.958 152.016 170.828 152.018 181.204H105.309C105.318 179.251 105.354 177.418 105.39 175.555C105.522 168.77 105.66 161.681 104.561 147.392C103.829 136.858 101.18 130.153 96.3818 126.13C91.6052 122.124 84.9191 120.971 76.6131 120.971H61.9787Z" stroke="white" stroke-width="2"/>
<path d="M60.9767 181.204H1V154.912H51.5056C55.5247 154.912 57.8308 156.383 59.1653 158.175C60.5379 160.018 60.9767 162.329 60.9767 164.097V181.204Z" stroke="white" stroke-width="2"/>
<path d="M595.182 181.523L644.654 117.367L645.114 116.771L644.668 116.164L599.182 54.3078H648.557L669.703 84.5907L670.512 85.7492L671.336 84.6009L693.061 54.3078H738.92L693.202 114.121L692.741 114.724L693.197 115.33L742.996 181.523H693.633L668.141 146.874L667.335 145.779L666.53 146.874L641.038 181.523H595.182Z" stroke="white" stroke-width="2"/>
<path d="M296.154 140.825C292.747 154.843 285.378 165.76 274.823 173.233C263.98 180.91 249.706 185 232.765 185C212.242 185 194.748 178.832 182.396 167.658C170.057 156.495 162.766 140.26 162.766 119.944C162.766 79.6568 192.446 50.8317 232.186 50.8317C253.535 50.8317 269.778 58.13 280.688 69.6762C291.607 81.2329 297.259 97.126 297.259 114.439V126.477H207.553H206.478L206.556 127.549C207.154 135.764 210.456 141.898 215.512 145.965C220.549 150.016 227.236 151.944 234.504 151.944C240.985 151.944 246.389 150.841 250.754 148.374C254.948 146.004 258.107 142.418 260.34 137.52L296.154 140.825ZM207.143 104.737L206.98 105.878H208.133H253.631H254.682L254.629 104.829C254.33 98.8381 252.229 93.2388 248.344 89.1263C244.446 84.9997 238.814 82.4392 231.606 82.4392C223.852 82.4392 218.144 84.8329 214.157 88.8953C210.191 92.9362 208.031 98.5237 207.143 104.737Z" stroke="white" stroke-width="2"/>
<path d="M435.171 75.6703L435.985 77.898L437.012 75.7599C443.793 61.6354 458.792 50.8317 480.159 50.8317C497.725 50.8317 508.919 56.8829 515.761 66.1085C522.643 75.388 525.236 88.0316 525.236 101.402V181.523H480.29V113.86C480.29 105.022 479.505 98.0441 476.79 93.2665C475.415 90.845 473.544 88.9869 471.056 87.7457C468.582 86.5116 465.556 85.9158 461.902 85.9158C457.852 85.9158 454.418 86.7415 451.553 88.3374C448.686 89.9347 446.444 92.2732 444.737 95.2139C441.341 101.06 440.037 109.316 440.037 119.075V181.523H395.091V113.86C395.091 105.014 394.232 98.0349 391.44 93.2561C390.027 90.8363 388.12 88.9821 385.608 87.7437C383.109 86.5117 380.067 85.9158 376.413 85.9158C368.394 85.9158 362.842 89.2781 359.359 95.2097C355.927 101.054 354.548 109.309 354.548 119.075V181.523H309.602V54.3083H354.548V72.7196L356.446 73.1595C363.213 59.3473 376.747 50.8317 395.829 50.8317C407.123 50.8317 415.606 53.4028 421.923 57.7534C428.238 62.1026 432.474 68.2889 435.171 75.6703Z" stroke="white" stroke-width="2"/>
<path d="M587.538 181.524H542.591V54.3085H587.538V181.524ZM587.827 1V40.1402H542.301V1H587.827Z" stroke="white" stroke-width="2"/>
</g>
<defs>
<clipPath id="clip0_3_150">
<rect width="745" height="186" fill="white"/>
</clipPath>
</defs>
</svg>
