<svg preserveAspectRatio="none" width="100%" height="100%" overflow="visible" style="display: block;" viewBox="0 0 169.79 169.79" fill="none" xmlns="http://www.w3.org/2000/svg">
<g id="Floating Ticket CTA">
<circle id="Ellipse 1" cx="84.895" cy="84.895" r="84.895" fill="var(--fill-0, #FF3C32)"/>
<path id="GET TICKETS &#194;&#183; GET TICKETS &#194;&#183;" d="M71.2167 37.2028C70.0506 37.5119 68.9603 37.5348 67.9458 37.2713C66.9367 37.0064 66.0648 36.4819 65.3302 35.6977C64.6009 34.9121 64.0696 33.8907 63.7364 32.6337C63.3861 31.3125 63.3518 30.125 63.6335 29.0714C63.9138 28.0124 64.4321 27.1278 65.1885 26.4177C65.9434 25.7023 66.8585 25.2021 67.9336 24.917C68.645 24.7284 69.3326 24.6549 69.9963 24.6965C70.6639 24.7313 71.2854 24.8728 71.8607 25.1211C72.4346 25.3639 72.9334 25.7011 73.357 26.1327C73.7791 26.559 74.1004 27.0692 74.321 27.6634L71.0313 28.5355C70.9278 28.3397 70.7987 28.1764 70.6438 28.0457C70.4929 27.9083 70.3196 27.8054 70.124 27.737C69.9337 27.6672 69.7245 27.6339 69.4964 27.6372C69.2722 27.6336 69.029 27.6666 68.7669 27.7361C68.2213 27.8808 67.79 28.1325 67.4729 28.4914C67.1559 28.8503 66.9636 29.302 66.8962 29.8466C66.8287 30.3911 66.8872 31.0111 67.0716 31.7065C67.2573 32.4072 67.5125 32.9808 67.8369 33.4272C68.16 33.8683 68.5461 34.1695 68.9954 34.3309C69.4447 34.4923 69.9501 34.4986 70.5118 34.3497C70.9985 34.2206 71.3866 34.0433 71.676 33.8177C71.9694 33.5854 72.1616 33.3169 72.2525 33.0122C72.3489 32.7061 72.3502 32.3766 72.2566 32.0235L72.8513 31.9346L70.1073 32.6621L69.4904 30.3353L74.802 28.927L75.2445 30.5959C75.5309 31.6764 75.547 32.6655 75.2926 33.563C75.0368 34.4553 74.557 35.2151 73.8531 35.8425C73.1493 36.47 72.2704 36.9234 71.2167 37.2028ZM80.1668 34.8682L80.3925 22.5021L89.4222 22.6669L89.3722 25.4057L83.712 25.3024L83.6745 27.3607L88.8699 27.4555L88.8213 30.1196L83.6258 30.0248L83.5863 32.1909L89.2133 32.2936L89.1633 35.0324L80.1668 34.8682ZM95.3412 25.9704L96.1107 23.3415L106.38 26.347L105.61 28.976L102.097 27.9477L99.3921 37.1889L96.1577 36.2423L98.8624 27.0011L95.3412 25.9704ZM117.031 34.4133L118.747 32.278L127.088 38.98L125.372 41.1153L122.518 38.8223L116.487 46.3283L113.86 44.2174L119.891 36.7114L117.031 34.4133ZM133.712 45.7576L124.127 53.574L121.997 50.9622L131.582 43.1458L133.712 45.7576ZM128.871 61.9261C128.368 60.9157 128.133 59.8982 128.166 58.8737C128.205 57.8467 128.528 56.8881 129.135 55.998C129.75 55.1104 130.669 54.3618 131.893 53.7521C133.126 53.1376 134.285 52.857 135.369 52.9104C136.453 52.9638 137.414 53.2856 138.252 53.8758C139.09 54.4659 139.757 55.2587 140.253 56.2543C140.599 56.9477 140.819 57.6323 140.915 58.308C141.018 58.9863 140.998 59.6359 140.857 60.2569C140.717 60.8828 140.453 61.4628 140.064 61.9968C139.679 62.5284 139.174 62.9967 138.547 63.4017L137.022 60.3408C137.25 60.1901 137.435 60.0172 137.579 59.8218C137.728 59.6241 137.831 59.4089 137.888 59.1763C137.948 58.9487 137.959 58.705 137.923 58.4451C137.888 58.1901 137.802 57.924 137.664 57.6466C137.415 57.1463 137.082 56.7833 136.667 56.5576C136.251 56.3318 135.769 56.2445 135.219 56.2958C134.675 56.3445 134.081 56.5293 133.437 56.8502C132.768 57.1834 132.25 57.5527 131.883 57.9581C131.519 58.3684 131.308 58.8012 131.251 59.2565C131.196 59.7167 131.291 60.1945 131.538 60.6898C131.674 60.9622 131.833 61.1889 132.016 61.3698C132.199 61.5507 132.401 61.6883 132.621 61.7827C132.843 61.8819 133.076 61.933 133.318 61.9358C133.568 61.9411 133.825 61.9031 134.087 61.8217L135.609 64.8752C135.084 65.0874 134.514 65.198 133.901 65.207C133.289 65.2211 132.672 65.1175 132.049 64.8964C131.428 64.6803 130.842 64.3293 130.29 63.8435C129.739 63.3577 129.266 62.7186 128.871 61.9261ZM135.412 72.3821L138.436 71.8939C138.96 72.0503 139.442 72.2079 139.883 72.3666C140.323 72.5253 140.771 72.7137 141.227 72.9316C141.688 73.1487 142.216 73.4165 142.811 73.7353L146.341 75.6542L146.975 79.5795L139.866 75.4889L139.922 75.1603L135.412 72.3821ZM132.933 70.201L145.143 68.2298L145.68 71.5569L143.058 71.9802L139.534 72.4986L137.928 72.8084L133.47 73.528L132.933 70.201ZM134.172 77.8794L138.606 74.1451L141.394 75.8392L134.802 81.7801L134.172 77.8794ZM135.135 85.1655L147.419 86.6057L146.367 95.5755L143.647 95.2566L144.306 89.6339L142.261 89.3942L141.656 94.5552L139.01 94.2449L139.615 89.084L137.463 88.8317L136.808 94.4213L134.087 94.1024L135.135 85.1655ZM142.491 101.155L145.03 102.184L141.012 112.1L138.473 111.072L139.848 107.679L130.924 104.063L132.189 100.94L141.113 104.556L142.491 101.155ZM124.807 114.54C125.472 113.684 126.176 113.039 126.918 112.606C127.66 112.173 128.425 111.986 129.214 112.044C130.006 112.106 130.804 112.445 131.608 113.062L129.643 115.593C129.345 115.382 129.04 115.265 128.729 115.241C128.423 115.22 128.124 115.29 127.833 115.449C127.538 115.612 127.26 115.862 126.998 116.199C126.778 116.483 126.626 116.75 126.543 117.001C126.461 117.253 126.444 117.477 126.493 117.676C126.538 117.88 126.641 118.044 126.803 118.17C126.952 118.285 127.122 118.337 127.314 118.324C127.502 118.316 127.727 118.239 127.988 118.091C128.246 117.948 128.553 117.72 128.908 117.407L129.876 116.593C130.742 115.857 131.593 115.414 132.43 115.265C133.264 115.121 134.059 115.342 134.815 115.929C135.436 116.411 135.849 117.001 136.056 117.701C136.262 118.401 136.264 119.148 136.061 119.943C135.861 120.741 135.46 121.529 134.856 122.307C134.242 123.098 133.578 123.679 132.863 124.049C132.153 124.423 131.435 124.58 130.71 124.522C129.989 124.467 129.302 124.193 128.648 123.699L130.618 121.161C130.962 121.386 131.308 121.459 131.657 121.379C132.006 121.3 132.345 121.048 132.674 120.624C132.881 120.357 133.021 120.109 133.094 119.879C133.172 119.652 133.186 119.449 133.136 119.27C133.09 119.095 132.993 118.949 132.844 118.834C132.691 118.715 132.522 118.653 132.336 118.649C132.151 118.653 131.941 118.721 131.705 118.853C131.466 118.99 131.193 119.188 130.887 119.447L130.102 120.12C129.567 120.574 129.058 120.924 128.572 121.171C128.086 121.417 127.622 121.569 127.18 121.625C126.737 121.68 126.313 121.645 125.906 121.519C125.504 121.396 125.115 121.189 124.739 120.897C124.092 120.395 123.665 119.808 123.458 119.136C123.256 118.467 123.267 117.744 123.492 116.966C123.718 116.188 124.156 115.38 124.807 114.54ZM115.518 129.776C115.926 129.509 116.356 129.42 116.81 129.507C117.262 129.602 117.619 129.85 117.883 130.253C118.146 130.656 118.229 131.082 118.131 131.529C118.032 131.984 117.779 132.344 117.371 132.611C116.968 132.874 116.54 132.959 116.088 132.864C115.635 132.777 115.277 132.532 115.013 132.129C114.75 131.726 114.668 131.297 114.767 130.842C114.865 130.395 115.115 130.039 115.518 129.776ZM97.0662 132.98C98.2414 132.707 99.3319 132.718 100.338 133.013C101.338 133.31 102.193 133.861 102.903 134.668C103.607 135.476 104.106 136.514 104.4 137.78C104.709 139.112 104.706 140.3 104.391 141.344C104.078 142.394 103.532 143.262 102.754 143.948C101.977 144.639 101.047 145.111 99.9635 145.362C99.2465 145.528 98.557 145.58 97.895 145.518C97.2288 145.462 96.612 145.301 96.0447 145.035C95.4787 144.775 94.9907 144.422 94.5808 143.977C94.1722 143.538 93.867 143.018 93.6652 142.417L96.9805 141.649C97.0778 141.848 97.2018 142.015 97.3525 142.15C97.499 142.292 97.669 142.401 97.8624 142.475C98.0504 142.551 98.2584 142.591 98.4866 142.594C98.7105 142.605 98.9546 142.58 99.2188 142.518C99.7686 142.391 100.208 142.153 100.536 141.804C100.864 141.455 101.07 141.01 101.155 140.467C101.239 139.925 101.2 139.304 101.037 138.603C100.874 137.897 100.637 137.315 100.326 136.859C100.017 136.408 99.6406 136.095 99.1966 135.92C98.7526 135.744 98.2476 135.722 97.6816 135.853C97.191 135.967 96.7975 136.132 96.5012 136.349C96.2007 136.572 96.0003 136.834 95.8998 137.136C95.794 137.439 95.7823 137.768 95.8648 138.124L95.2676 138.194L98.0331 137.553L98.5769 139.898L93.2239 141.139L92.8338 139.457C92.5813 138.368 92.5962 137.379 92.8785 136.49C93.162 135.606 93.6654 134.862 94.3885 134.257C95.1117 133.652 96.0042 133.226 97.0662 132.98ZM88.0513 135.033L87.4447 147.386L78.4243 146.943L78.5586 144.207L84.213 144.485L84.3139 142.429L79.1239 142.174L79.2546 139.512L84.4446 139.767L84.5509 137.603L78.9297 137.327L79.0641 134.591L88.0513 135.033ZM72.6165 143.46L71.7675 146.065L61.5947 142.749L62.4436 140.144L65.924 141.279L68.9083 132.124L72.1125 133.168L69.1282 142.323L72.6165 143.46ZM51.2018 134.343L49.4216 136.425L41.2895 129.471L43.0698 127.39L45.8519 129.769L52.1097 122.45L54.6711 124.641L48.4133 131.959L51.2018 134.343ZM34.8723 122.485L44.6976 114.973L46.7446 117.65L36.9193 125.163L34.8723 122.485ZM40.2207 106.475C40.6917 107.501 40.8941 108.525 40.8279 109.548C40.7566 110.573 40.4032 111.521 39.7676 112.391C39.1246 113.259 38.182 113.978 36.9398 114.548C35.6875 115.123 34.5206 115.367 33.4389 115.279C32.3573 115.191 31.407 114.838 30.5881 114.222C29.7692 113.605 29.1277 112.791 28.6636 111.781C28.3404 111.076 28.1418 110.385 28.0678 109.707C27.9864 109.026 28.0266 108.377 28.1882 107.761C28.3475 107.14 28.6303 106.568 29.0364 106.047C29.4374 105.528 29.9576 105.076 30.5969 104.691L32.0238 107.799C31.7912 107.943 31.5999 108.109 31.45 108.3C31.295 108.493 31.1852 108.705 31.1205 108.935C31.0536 109.161 31.0344 109.404 31.0628 109.665C31.089 109.921 31.1667 110.19 31.296 110.472C31.5292 110.979 31.8498 111.353 32.2579 111.592C32.6659 111.831 33.1454 111.933 33.6962 111.9C34.242 111.868 34.8418 111.703 35.4956 111.402C36.1745 111.091 36.7038 110.738 37.0834 110.345C37.4606 109.946 37.6853 109.52 37.7573 109.067C37.827 108.609 37.7464 108.128 37.5155 107.625C37.3886 107.349 37.2366 107.117 37.0595 106.93C36.8825 106.744 36.6855 106.6 36.4685 106.498C36.2491 106.392 36.0183 106.334 35.776 106.323C35.5264 106.31 35.2691 106.34 35.0042 106.413L33.5808 103.312C34.1122 103.117 34.6848 103.024 35.2985 103.035C35.91 103.04 36.5237 103.164 37.1397 103.405C37.7534 103.64 38.3279 104.01 38.8634 104.513C39.3988 105.016 39.8513 105.67 40.2207 106.475ZM34.0178 95.8152L30.9798 96.2058C30.4609 96.0325 29.984 95.8595 29.5489 95.6867C29.1138 95.5139 28.6721 95.3112 28.2237 95.0787C27.7699 94.8469 27.2507 94.5622 26.6661 94.2245L23.1995 92.1929L22.6926 88.2492L29.6667 92.5666L29.5999 92.8932L34.0178 95.8152ZM36.4257 98.075L24.1584 99.652L23.7287 96.3094L26.3633 95.9707L29.9016 95.566L31.5172 95.3081L35.9959 94.7324L36.4257 98.075ZM35.4339 90.3606L30.8823 93.9503L28.1507 92.1673L34.9301 86.4417L35.4339 90.3606ZM34.7063 83.0505L22.4737 81.2246L23.807 72.2923L26.5162 72.6967L25.6805 78.2958L27.7165 78.5997L28.4837 73.4604L31.119 73.8537L30.3519 78.9931L32.4946 79.3129L33.3255 73.7467L36.0347 74.1511L34.7063 83.0505ZM27.8558 66.8418L25.3505 65.7342L29.6769 55.9482L32.1822 57.0558L30.7021 60.4039L39.5087 64.2973L38.146 67.3797L29.3393 63.4862L27.8558 66.8418ZM45.9488 54.0207C45.2572 54.8562 44.5338 55.4786 43.7784 55.8879C43.0231 56.2971 42.2524 56.4602 41.4663 56.3771C40.676 56.2905 39.889 55.9264 39.1053 55.285L41.1483 52.8167C41.4402 53.0368 41.7411 53.1636 42.0508 53.1973C42.3563 53.2275 42.6572 53.1676 42.9536 53.0179C43.2535 52.8638 43.5393 52.6226 43.811 52.2944C44.0403 52.0173 44.2003 51.7546 44.2909 51.5063C44.3814 51.258 44.4055 51.0337 44.363 50.8333C44.324 50.6287 44.2257 50.4611 44.068 50.3305C43.923 50.2105 43.7546 50.1537 43.5626 50.16C43.3741 50.1621 43.1469 50.2326 42.8809 50.3717C42.6185 50.5065 42.305 50.7247 41.9404 51.0264L40.9472 51.8098C40.059 52.5185 39.1942 52.9341 38.3528 53.0567C37.515 53.175 36.7274 52.9289 35.9898 52.3185C35.3845 51.8175 34.9896 51.2141 34.8051 50.5083C34.6206 49.8025 34.6426 49.0556 34.8709 48.2677C35.095 47.4762 35.521 46.701 36.1491 45.9422C36.7877 45.1706 37.47 44.611 38.1958 44.2635C38.9173 43.9125 39.6395 43.7776 40.3625 43.8587C41.0813 43.9364 41.7596 44.2321 42.3976 44.7457L40.3494 47.2205C40.0127 46.9849 39.6688 46.9014 39.3176 46.9699C38.9664 47.0384 38.6197 47.2794 38.2774 47.6929C38.0622 47.953 37.9142 48.1969 37.8335 48.4246C37.7485 48.6488 37.7283 48.8511 37.7728 49.0316C37.8131 49.2086 37.9057 49.3571 38.0507 49.4771C38.1999 49.6006 38.3673 49.6673 38.553 49.6773C38.7379 49.6795 38.9503 49.6183 39.19 49.4935C39.4333 49.3644 39.7122 49.175 40.0267 48.9252L40.8323 48.2774C41.3806 47.8405 41.9013 47.5065 42.3944 47.2752C42.8875 47.044 43.3561 46.9075 43.8002 46.8656C44.2443 46.8237 44.6675 46.8722 45.0697 47.0112C45.4676 47.1466 45.8499 47.366 46.2165 47.6695C46.8475 48.1917 47.2558 48.7918 47.4416 49.47C47.6232 50.1446 47.5891 50.8671 47.3394 51.6374C47.0898 52.4077 46.6262 53.2021 45.9488 54.0207ZM55.598 39.0581C55.1869 39.3191 54.7551 39.4032 54.3028 39.3102C53.8521 39.2096 53.4978 38.9561 53.2397 38.5496C52.9816 38.1432 52.9044 37.717 53.0079 37.271C53.1132 36.8174 53.3714 36.4601 53.7825 36.1991C54.1889 35.941 54.6175 35.8622 55.0681 35.9628C55.5205 36.0558 55.8757 36.3055 56.1337 36.7119C56.3918 37.1184 56.4682 37.5484 56.363 38.002C56.2594 38.448 56.0044 38.8 55.598 39.0581Z" fill="var(--fill-0, white)"/>
</g>
</svg>
