<svg preserveAspectRatio="none" width="100%" height="100%" overflow="visible" style="display: block;" viewBox="0 0 20.8421 23.9049" fill="none" xmlns="http://www.w3.org/2000/svg">
<g id="Group">
<path id="Vector" d="M14.2183 2.79649C14.2183 2.79649 13.9518 2.8736 13.5141 3.00854C13.4379 2.75794 13.3237 2.46878 13.1714 2.16035C12.6766 1.19649 11.9342 0.676011 11.0587 0.676011C11.0016 0.676011 10.9445 0.676011 10.8683 0.695288C10.8493 0.656734 10.8112 0.637457 10.7922 0.598903C10.4115 0.174807 9.91665 -0.0179646 9.3266 0.00131254C8.18457 0.0398668 7.04254 0.868783 6.12891 2.35312C5.48176 3.39408 4.98688 4.70493 4.85364 5.72661C3.5403 6.13143 2.62668 6.42059 2.60764 6.43987C1.94146 6.65192 1.92242 6.67119 1.84629 7.30734C1.73208 7.78927 0 21.3796 0 21.3796L14.3896 23.9049V2.75794C14.3135 2.77722 14.2564 2.77722 14.2183 2.79649ZM10.8874 3.83746C10.126 4.06878 9.28854 4.33866 8.47008 4.58926C8.69849 3.68324 9.1553 2.77722 9.68825 2.17963C9.89762 1.96758 10.1831 1.71698 10.5067 1.56276C10.8303 2.25673 10.9064 3.20131 10.8874 3.83746ZM9.34564 0.772397C9.61211 0.772397 9.84052 0.830228 10.0309 0.945891C9.72632 1.10011 9.42177 1.35071 9.13627 1.63987C8.41298 2.43023 7.86099 3.66396 7.63259 4.83987C6.94737 5.05191 6.26215 5.26396 5.63403 5.45673C6.03374 3.62541 7.57549 0.830228 9.34564 0.772397ZM7.11867 11.3748C7.19481 12.6085 10.4115 12.8784 10.6019 15.7893C10.7351 18.0832 9.40274 19.6447 7.48032 19.7604C5.15818 19.9146 3.88291 18.5266 3.88291 18.5266L4.37779 16.4061C4.37779 16.4061 5.65306 17.3893 6.68089 17.3122C7.34708 17.2736 7.59452 16.7146 7.57549 16.329C7.48032 14.7097 4.85364 14.8061 4.68234 12.1459C4.53007 9.92902 5.97664 7.6736 9.17433 7.46155C10.4115 7.38445 11.0397 7.69288 11.0397 7.69288L10.3164 10.4688C10.3164 10.4688 9.49791 10.0832 8.52718 10.1603C7.11867 10.2567 7.09964 11.1628 7.11867 11.3748ZM11.6487 3.60613C11.6487 3.02782 11.5726 2.1989 11.3061 1.50493C12.1817 1.67842 12.6004 2.66155 12.7908 3.25914C12.4482 3.35553 12.0675 3.47119 11.6487 3.60613Z" fill="var(--fill-0, white)"/>
<path id="Vector_2" d="M14.8655 23.8278L20.8421 22.3242C20.8421 22.3242 18.2725 4.7242 18.2535 4.60854C18.2345 4.49288 18.1393 4.41577 18.0441 4.41577C17.949 4.41577 16.274 4.37722 16.274 4.37722C16.274 4.37722 15.2461 3.37481 14.8655 2.98926V23.8278Z" fill="var(--fill-0, white)"/>
</g>
</svg>
