<svg preserveAspectRatio="none" width="100%" height="100%" overflow="visible" style="display: block;" viewBox="0 0 151.494 29.424" fill="none" xmlns="http://www.w3.org/2000/svg">
<g id="2026">
<path id="Vector" d="M142.566 10.752C146.934 10.752 149.478 14.304 148.326 18.624L147.558 21.552C146.358 25.872 141.942 29.424 137.574 29.424H120.006C115.014 29.424 112.086 25.344 113.382 20.4L116.454 9.024C117.798 4.032 122.886 0 127.878 0H151.494L149.382 7.824H130.902C129.414 7.824 127.878 9.072 127.494 10.56L127.398 10.752H142.566ZM126.006 21.552H134.646C135.462 21.552 136.278 20.88 136.518 20.064C136.71 19.296 136.23 18.624 135.414 18.624H125.286L124.902 20.064C124.71 20.88 125.19 21.552 126.006 21.552Z" fill="var(--fill-0, #F7FBFF)"/>
<path id="Vector_2" d="M88.0215 21.552H109.382L107.27 29.376H74.4375L77.3175 18.624C78.4695 14.304 82.9335 10.752 87.3015 10.752H99.1095C99.9255 10.752 100.79 10.128 100.982 9.312C101.222 8.496 100.741 7.824 99.9255 7.824H80.1975L82.3095 0H107.077C111.398 0 113.99 3.504 112.838 7.824L112.021 10.752C110.87 15.12 106.406 18.624 102.086 18.624H90.2775C89.4615 18.624 88.6455 19.296 88.4535 20.112L88.4055 20.064L88.0215 21.552Z" fill="var(--fill-0, #F7FBFF)"/>
<path id="Vector_3" d="M55.2657 0H67.5057C73.6017 0 77.2497 4.992 75.6177 11.136L73.6977 18.288C72.0657 24.432 65.7297 29.424 59.5857 29.424H47.3937C41.2497 29.424 37.6017 24.432 39.2817 18.288L41.2017 11.136C42.8337 4.992 49.1217 0 55.2657 0ZM62.5617 17.232L63.9057 12.144C64.5297 9.792 63.1377 7.824 60.7377 7.824H57.8097C55.4097 7.824 52.9617 9.792 52.3377 12.144L50.9937 17.232C50.3217 19.632 51.7617 21.552 54.1617 21.552H57.0897C59.4417 21.552 61.8897 19.632 62.5617 17.232Z" fill="var(--fill-0, #F7FBFF)"/>
<path id="Vector_4" d="M13.584 21.552H34.944L32.832 29.376H0L2.88 18.624C4.032 14.304 8.496 10.752 12.864 10.752H24.672C25.488 10.752 26.352 10.128 26.544 9.312C26.784 8.496 26.304 7.824 25.488 7.824H5.76L7.872 0H32.64C36.96 0 39.552 3.504 38.4 7.824L37.584 10.752C36.432 15.12 31.968 18.624 27.648 18.624H15.84C15.024 18.624 14.208 19.296 14.016 20.112L13.968 20.064L13.584 21.552Z" fill="var(--fill-0, #F7FBFF)"/>
</g>
</svg>
