<svg width="404" height="54" viewBox="0 0 404 54" fill="none" xmlns="http://www.w3.org/2000/svg">
<path d="M336.532 53.3021H348.249L338.219 12.265C337.994 11.2807 338.369 10.7507 339.344 10.7507C340.019 10.7507 340.694 11.205 341.069 12.0378L347.143 25.2121C350.668 32.8593 355.167 36.8721 362.441 36.7964H367.993C375.267 36.7964 378.117 32.8593 378.492 25.2121L379.017 11.8107C379.092 10.9021 379.617 10.5236 380.517 10.5236C381.266 10.5236 381.791 11.0536 382.016 12.0378L391.653 53.3021H403.37L392.74 9.61498C391.615 4.08784 386.816 0.302124 381.416 0.302124H375.342C370.843 0.302124 368.068 2.64927 367.768 8.25213L367.243 23.3193C367.168 25.4393 365.968 26.575 363.794 26.575H362.516C360.342 26.575 358.617 25.4393 357.642 23.3193L350.668 8.40355C347.893 2.72498 344.068 0.529268 339.869 0.529268H333.87C328.395 0.529268 325.246 4.31499 326.446 9.84213L336.532 53.3021Z" fill="#F7FBFF"/>
<path d="M265.842 53.1507C260.368 53.1507 257.218 49.4407 258.418 43.9136L262.317 25.0607C263.517 19.5336 268.242 15.7478 273.716 15.7478H298.412C304.862 15.7478 308.911 19.0036 310.336 24.6821L314.086 40.7336C314.386 41.7178 314.986 42.1721 316.035 42.1721H316.185C317.61 42.1721 318.36 41.2635 318.135 39.9764L312.136 11.9621C311.911 10.9778 311.311 10.5236 310.261 10.5236H272.816L274.991 0.302124H311.761C317.76 0.302124 321.96 3.10355 323.46 9.76641L329.834 37.4778C331.859 46.0335 325.409 53.1507 316.335 53.1507H314.161C308.986 53.1507 304.262 51.1064 302.912 44.8221L299.087 27.4078C298.862 26.4236 298.187 25.9693 297.138 25.9693H275.291C274.091 25.9693 273.266 26.6507 273.041 27.8621L270.266 41.0364C269.967 42.2478 270.491 42.9293 271.691 42.9293H300.906L298.806 53.1507H265.842Z" fill="#F7FBFF"/>
<path d="M271.729 0.302124L269.554 10.5236H263.423C262.811 10.5236 262.283 10.9558 262.157 11.56L256.15 40.2793C254.425 48.305 248.275 53.3021 240.251 53.3021H204.285C198.81 53.3021 195.736 49.5921 196.86 44.065L198.51 36.4178C199.635 30.8907 204.434 27.105 209.834 27.105H227.775L225.601 37.3264H211.034C210.059 37.3264 209.459 37.8564 209.234 38.8407L208.634 41.5664C208.409 42.5507 208.859 43.0807 209.834 43.0807H242.426C242.426 43.0807 244.301 42.9293 244.751 41.0364C245.137 39.411 249.56 18.0784 250.802 12.0819C250.97 11.2705 250.354 10.5236 249.533 10.5236H233.142L235.317 0.302124L271.729 0.302124Z" fill="#F7FBFF"/>
<path fill-rule="evenodd" clip-rule="evenodd" d="M21.8906 15.8163C22.4361 15.8166 22.8337 16.3367 22.6924 16.8661L21.3779 21.7909H6.09277L7.68652 15.8163H21.8906ZM47.46 0.0252686V0.0262451C53.2531 0.0262451 57.2549 2.62564 56.3994 5.83289L55.8203 8.00476C54.9646 11.212 49.5753 13.8123 43.7822 13.8124H43.1895L55.3584 21.7909H35.8203L25.9834 14.1981C25.5898 13.9458 25.133 13.8114 24.666 13.8114H8.22168L9.77051 8.00378H38.5742C39.5892 8.0037 40.5385 7.57668 40.7852 7.02917L40.8252 6.91785C40.9851 6.31816 40.2366 5.83191 39.1533 5.83191H10.3506L11.8994 0.0252686H47.46Z" fill="#F7FBFF"/>
<path d="M162.609 21.8998L168.432 0.170776H183.806L177.948 21.8998H162.609Z" fill="#F7FBFF"/>
<path d="M104.627 0.170776H154.404C161.079 0.170776 165.695 3.15319 164.701 6.84571L160.653 21.8998H145.315L147.41 14.1242L148.617 9.6861L149.079 7.98187C149.363 6.88121 147.978 5.95808 145.954 5.95808H141.587C141.552 6.24212 141.552 6.52616 141.445 6.84571L137.433 21.8998H122.059L124.154 14.1242L125.361 9.6861L125.823 7.98187C126.107 6.88121 124.722 5.95808 122.699 5.95808H118.438L114.142 21.8998H98.8037L104.627 0.170776Z" fill="#F7FBFF"/>
<path fill-rule="evenodd" clip-rule="evenodd" d="M206.649 3.76562L211.928 0.301758H229.76L213.586 10.916L224.091 21.7441H206.259L202.691 18.0654L197.086 21.7441H179.255L195.755 10.916L185.457 0.301758H203.288L206.649 3.76562Z" fill="#F7FBFF"/>
<path fill-rule="evenodd" clip-rule="evenodd" d="M102.84 0.170776L101.312 5.95789H76.495C76.4838 5.95789 76.472 5.9588 76.4608 5.95886H72.8651L72.2987 8.11902H72.3055L72.3046 8.1239H100.709L99.1825 13.9462H70.743L70.7069 14.1239C70.3874 15.2245 71.7722 16.112 73.7958 16.1122H98.579L97.0165 21.8993H65.3465C58.6718 21.8993 54.0558 18.9175 55.0497 15.2606L57.286 6.84558C57.336 6.65977 57.4016 6.47672 57.4774 6.2948L57.4755 6.29578L59.0799 0.170776H102.84Z" fill="#F7FBFF"/>
<path d="M187.83 27.1042C191.644 27.1042 194.49 30.6162 193.7 34.3474L190.693 48.5457L190.632 48.8025C189.974 51.3552 187.721 53.1815 185.088 53.2966L184.823 53.3025V50.3025C186.24 50.3025 187.465 49.3101 187.758 47.9236L190.765 33.7263C191.16 31.8607 189.737 30.1042 187.83 30.1042H9.41075C7.99358 30.1042 6.769 31.0958 6.4752 32.4822L3.46836 46.6804C3.07323 48.546 4.4969 50.3025 6.40391 50.3025V53.3025L6.04844 53.2917C2.53215 53.0888 -0.059944 49.89 0.470317 46.408L0.533793 46.0593L3.54063 31.8611C4.10961 29.1746 6.42485 27.229 9.1461 27.1101L9.41075 27.1042H187.83ZM184.823 50.3025V53.3025H6.40391V50.3025H184.823Z" fill="white"/>
<path d="M179.766 38.7894C181.547 38.7894 182.584 40.2376 182.114 41.9989L181.801 43.1927C181.312 44.954 179.511 46.4022 177.731 46.4022H170.568C168.533 46.4022 167.339 44.7387 167.867 42.723L169.12 38.0849C169.668 36.0495 171.742 34.4056 173.777 34.4056L191.406 34.4056L190.545 37.5956H175.01C174.404 37.5956 173.777 38.1044 173.621 38.7111L173.582 38.7894H179.766ZM173.014 43.1927H176.537C176.869 43.1927 177.202 42.9187 177.3 42.586C177.378 42.2729 177.183 41.9989 176.85 41.9989H172.721L172.564 42.586C172.486 42.9187 172.681 43.1927 173.014 43.1927Z" fill="white"/>
<path d="M157.527 43.1927H166.235L165.374 46.3827H151.988L153.162 41.9989C153.632 40.2376 155.452 38.7894 157.233 38.7894H162.047C162.38 38.7894 162.732 38.535 162.811 38.2023C162.909 37.8696 162.713 37.5956 162.38 37.5956H154.337L155.198 34.4056H165.296C167.057 34.4056 168.114 35.8343 167.645 37.5956L167.312 38.7894C166.842 40.5703 165.022 41.9989 163.261 41.9989H158.446C158.114 41.9989 157.781 42.2729 157.703 42.6056L157.683 42.586L157.527 43.1927Z" fill="white"/>
<path d="M144.172 34.4056H149.162C151.648 34.4056 153.135 36.4409 152.47 38.9459L151.687 41.8619C151.022 44.3669 148.438 46.4022 145.933 46.4022H140.962C138.457 46.4022 136.97 44.3669 137.655 41.8619L138.438 38.9459C139.103 36.4409 141.667 34.4056 144.172 34.4056ZM147.147 41.4314L147.695 39.3569C147.949 38.398 147.382 37.5956 146.403 37.5956H145.209C144.231 37.5956 143.233 38.398 142.978 39.3569L142.43 41.4314C142.156 42.4099 142.743 43.1927 143.722 43.1927H144.916C145.875 43.1927 146.873 42.4099 147.147 41.4314Z" fill="white"/>
<path d="M127.177 43.1927H135.886L135.025 46.3827H121.639L122.813 41.9989C123.283 40.2376 125.103 38.7894 126.884 38.7894H131.698C132.031 38.7894 132.383 38.535 132.461 38.2023C132.559 37.8696 132.364 37.5956 132.031 37.5956H94.9873L95.8484 34.4056H134.947C136.708 34.4056 137.765 35.8343 137.295 37.5956L136.963 38.7894C136.493 40.5703 134.673 41.9989 132.912 41.9989H128.097C127.765 41.9989 127.432 42.2729 127.354 42.6056L127.334 42.586L127.177 43.1927Z" fill="white"/>
<path d="M99.7977 34.4053C101.835 34.4053 103.2 35.7499 103.285 37.5986H96.9871V37.6006H95.8582C94.8781 37.6006 93.8778 38.4047 93.6033 39.3652L93.0545 41.4424C92.7997 42.4225 93.3684 43.207 94.3485 43.207H95.5447C96.5247 43.2068 97.5243 42.4223 97.7791 41.4424L98.3475 39.3652C98.4308 39.0513 98.731 38.8467 99.0558 38.8467H103.156C103.148 38.8819 103.14 38.9177 103.131 38.9531L102.347 41.874C101.66 44.3831 99.0919 46.4023 96.5828 46.4023H91.6043C89.0952 46.4023 87.6058 44.3831 88.2723 41.874L89.0565 38.9531C89.7231 36.4442 92.3102 34.4053 94.8192 34.4053H99.7977Z" fill="white"/>
<path d="M87.2513 34.4056H89.4859L88.6234 37.6008H87.5061C86.8788 37.6008 86.2515 38.1104 86.0947 38.7181L85.2126 42.0113L84.0365 46.4022H79.3516L83.7621 29.9951H88.4274L87.2513 34.4056Z" fill="white"/>
<path d="M77.2201 34.4056C79.2588 34.4056 80.4741 36.0522 79.9253 38.0909L77.6906 46.4022H73.0253L73.8878 43.207L74.3582 41.4428L75.0835 38.7181C75.2403 38.1105 74.8875 37.6008 74.2798 37.6008H70.6534L69.6341 41.4428L69.144 43.207L68.3011 46.4022H63.6162L66.8506 34.4056H77.2201Z" fill="white"/>
<path d="M60.9956 34.4056C63.5047 34.4056 64.9945 36.4443 64.328 38.9534L63.5439 41.8741C62.8578 44.3832 60.2899 46.4022 57.7809 46.4022H52.8019C50.2928 46.4022 48.803 44.3832 49.4695 41.8741L50.2536 38.9534C50.9201 36.4443 53.5076 34.4056 56.0167 34.4056H60.9956ZM59.5451 39.365C59.7999 38.4045 59.2118 37.6008 58.2513 37.6008H57.0556C56.0755 37.6008 55.0758 38.4045 54.8013 39.365L54.2525 41.4428C53.9976 42.4229 54.5661 43.207 55.5462 43.207H56.7419C57.7221 43.207 58.7218 42.4229 58.9766 41.4428L59.5451 39.365Z" fill="white"/>
<path d="M47.2541 34.4056C49.0183 34.4056 50.0769 35.8366 49.5868 37.6008L49.2732 38.7965C48.8027 40.5803 46.9797 42.0113 45.2155 42.0113H45.0391L48.2147 46.4022H42.7848L39.5897 42.0113H39.0212L37.8451 46.4022H33.1602L34.3559 42.0113L36.3945 34.4056H47.2541ZM44.7647 38.2085C44.8627 37.8752 44.6667 37.6008 44.3334 37.6008H40.1974L39.8837 38.7965H44.0002C44.3334 38.7965 44.6863 38.5417 44.7647 38.2085Z" fill="white"/>
<path d="M30.5396 34.4056C33.0487 34.4056 34.5384 36.4443 33.8719 38.9534L33.0879 41.8741C32.4018 44.3832 29.8339 46.4022 27.3248 46.4022H22.3458C19.8368 46.4022 18.347 44.3832 19.0135 41.8741L19.7976 38.9534C20.464 36.4443 23.0515 34.4056 25.5606 34.4056H30.5396ZM29.089 39.365C29.3438 38.4045 28.7558 37.6008 27.7953 37.6008H26.5995C25.6194 37.6008 24.6197 38.4045 24.3453 39.365L23.7964 41.4428C23.5416 42.4229 24.11 43.207 25.0902 43.207H26.2859C27.266 43.207 28.2657 42.4229 28.5205 41.4428L29.089 39.365Z" fill="white"/>
<path d="M17.9925 34.4056H20.2271L19.3646 37.6008H18.2473C17.62 37.6008 16.9928 38.1104 16.8359 38.7181L15.9538 42.0113L14.7777 46.4022H10.0928L14.5033 29.9951H19.1686L17.9925 34.4056Z" fill="white"/>
</svg>
