<svg width="123" height="12" viewBox="0 0 123 12" fill="none" xmlns="http://www.w3.org/2000/svg">
<g clip-path="url(#clip0_195_815)">
<path d="M22.6143 0.0135498V0.0145264C25.774 0.0145264 27.9576 1.43222 27.4912 3.18152L27.1748 4.36609C26.708 6.1155 23.7683 7.53404 20.6084 7.53406H20.2852L26.9229 11.8866H16.2656L10.9004 7.745C10.6857 7.60731 10.4364 7.53411 10.1816 7.53406H1.21191L2.05664 4.36609H17.7676C18.3582 4.36609 18.9078 4.10046 18.9951 3.77332C19.0824 3.44624 18.6748 3.18158 18.084 3.18152H2.37305L3.21777 0.0135498H22.6143ZM8.66699 8.62683C8.96456 8.62683 9.18136 8.91037 9.10449 9.1991L8.3877 11.8856H0.0507812L0.919922 8.62683H8.66699Z" fill="#94989C"/>
</g>
<path d="M85.4238 11.9453L88.5999 0.0931396H96.9855L93.7901 11.9453H85.4238Z" fill="#94989C"/>
<path d="M53.7972 0.0931702H80.9488C84.5896 0.0931702 87.1073 1.71994 86.565 3.73404L84.3573 11.9454H75.991L77.1336 7.70414L77.7921 5.28335L78.0438 4.35377C78.1988 3.75341 77.4435 3.24988 76.3396 3.24988H73.9575C73.9382 3.40481 73.9382 3.55974 73.8801 3.73404L71.6917 11.9454H63.306L64.4487 7.70414L65.1071 5.28335L65.3589 4.35377C65.5138 3.75341 64.7585 3.24988 63.6546 3.24988H61.3307L58.9874 11.9454H50.6211L53.7972 0.0931702Z" fill="#94989C"/>
<path d="M109.444 2.05469L112.323 0.165039H122.05L113.229 5.9541L118.958 11.8604H109.231L107.285 9.85352L104.228 11.8604H94.502L103.502 5.9541L97.8848 0.165039H107.611L109.444 2.05469Z" fill="#94989C"/>
<path d="M52.8225 0.0931702L51.9895 3.24942H38.4524C38.441 3.24943 38.4295 3.25029 38.4182 3.2504H36.4729L36.1643 4.42911H36.1682L36.1672 4.43106H51.6604L50.8274 7.60684H35.3156L35.2961 7.7045C35.1222 8.30463 35.8772 8.78839 36.9807 8.78848H50.4983L49.6467 11.9457H32.3713C28.7307 11.9456 26.2129 10.3183 26.7551 8.32364L27.9758 3.7338C28.0031 3.63237 28.0389 3.53232 28.0803 3.43301L28.0783 3.43399L28.9543 0.0931702H52.8225Z" fill="#94989C"/>
<defs>
<clipPath id="clip0_195_815">
<rect width="27.5644" height="11.9406" fill="white" transform="translate(0 0.00476074)"/>
</clipPath>
</defs>
</svg>
